G75*
G70*
%OFA0B0*%
%FSLAX24Y24*%
%IPPOS*%
%LPD*%
%AMOC8*
5,1,8,0,0,1.08239X$1,22.5*
%
%ADD10C,0.0000*%
%ADD11C,0.0560*%
%ADD12R,0.2100X0.0760*%
%ADD13C,0.0650*%
%ADD14C,0.0640*%
%ADD15C,0.0800*%
%ADD16R,0.0650X0.0650*%
%ADD17R,0.0800X0.0800*%
%ADD18C,0.0740*%
%ADD19R,0.0630X0.0709*%
%ADD20C,0.0748*%
%ADD21C,0.0780*%
%ADD22R,0.0740X0.0740*%
%ADD23C,0.0080*%
%ADD24C,0.0400*%
D10*
X000101Y000101D02*
X000101Y031597D01*
X038671Y031797D01*
X038671Y000101D01*
X000101Y000101D01*
X001094Y001488D02*
X001096Y001527D01*
X001102Y001566D01*
X001112Y001604D01*
X001125Y001641D01*
X001142Y001676D01*
X001162Y001710D01*
X001186Y001741D01*
X001213Y001770D01*
X001242Y001796D01*
X001274Y001819D01*
X001308Y001839D01*
X001344Y001855D01*
X001381Y001867D01*
X001420Y001876D01*
X001459Y001881D01*
X001498Y001882D01*
X001537Y001879D01*
X001576Y001872D01*
X001613Y001861D01*
X001650Y001847D01*
X001685Y001829D01*
X001718Y001808D01*
X001749Y001783D01*
X001777Y001756D01*
X001802Y001726D01*
X001824Y001693D01*
X001843Y001659D01*
X001858Y001623D01*
X001870Y001585D01*
X001878Y001547D01*
X001882Y001508D01*
X001882Y001468D01*
X001878Y001429D01*
X001870Y001391D01*
X001858Y001353D01*
X001843Y001317D01*
X001824Y001283D01*
X001802Y001250D01*
X001777Y001220D01*
X001749Y001193D01*
X001718Y001168D01*
X001685Y001147D01*
X001650Y001129D01*
X001613Y001115D01*
X001576Y001104D01*
X001537Y001097D01*
X001498Y001094D01*
X001459Y001095D01*
X001420Y001100D01*
X001381Y001109D01*
X001344Y001121D01*
X001308Y001137D01*
X001274Y001157D01*
X001242Y001180D01*
X001213Y001206D01*
X001186Y001235D01*
X001162Y001266D01*
X001142Y001300D01*
X001125Y001335D01*
X001112Y001372D01*
X001102Y001410D01*
X001096Y001449D01*
X001094Y001488D01*
X005451Y002701D02*
X005453Y002751D01*
X005459Y002801D01*
X005469Y002851D01*
X005482Y002899D01*
X005499Y002947D01*
X005520Y002993D01*
X005544Y003037D01*
X005572Y003079D01*
X005603Y003119D01*
X005637Y003156D01*
X005674Y003191D01*
X005713Y003222D01*
X005754Y003251D01*
X005798Y003276D01*
X005844Y003298D01*
X005891Y003316D01*
X005939Y003330D01*
X005988Y003341D01*
X006038Y003348D01*
X006088Y003351D01*
X006139Y003350D01*
X006189Y003345D01*
X006239Y003336D01*
X006287Y003324D01*
X006335Y003307D01*
X006381Y003287D01*
X006426Y003264D01*
X006469Y003237D01*
X006509Y003207D01*
X006547Y003174D01*
X006582Y003138D01*
X006615Y003099D01*
X006644Y003058D01*
X006670Y003015D01*
X006693Y002970D01*
X006712Y002923D01*
X006727Y002875D01*
X006739Y002826D01*
X006747Y002776D01*
X006751Y002726D01*
X006751Y002676D01*
X006747Y002626D01*
X006739Y002576D01*
X006727Y002527D01*
X006712Y002479D01*
X006693Y002432D01*
X006670Y002387D01*
X006644Y002344D01*
X006615Y002303D01*
X006582Y002264D01*
X006547Y002228D01*
X006509Y002195D01*
X006469Y002165D01*
X006426Y002138D01*
X006381Y002115D01*
X006335Y002095D01*
X006287Y002078D01*
X006239Y002066D01*
X006189Y002057D01*
X006139Y002052D01*
X006088Y002051D01*
X006038Y002054D01*
X005988Y002061D01*
X005939Y002072D01*
X005891Y002086D01*
X005844Y002104D01*
X005798Y002126D01*
X005754Y002151D01*
X005713Y002180D01*
X005674Y002211D01*
X005637Y002246D01*
X005603Y002283D01*
X005572Y002323D01*
X005544Y002365D01*
X005520Y002409D01*
X005499Y002455D01*
X005482Y002503D01*
X005469Y002551D01*
X005459Y002601D01*
X005453Y002651D01*
X005451Y002701D01*
X014667Y011912D02*
X014669Y011951D01*
X014675Y011990D01*
X014685Y012028D01*
X014698Y012065D01*
X014715Y012100D01*
X014735Y012134D01*
X014759Y012165D01*
X014786Y012194D01*
X014815Y012220D01*
X014847Y012243D01*
X014881Y012263D01*
X014917Y012279D01*
X014954Y012291D01*
X014993Y012300D01*
X015032Y012305D01*
X015071Y012306D01*
X015110Y012303D01*
X015149Y012296D01*
X015186Y012285D01*
X015223Y012271D01*
X015258Y012253D01*
X015291Y012232D01*
X015322Y012207D01*
X015350Y012180D01*
X015375Y012150D01*
X015397Y012117D01*
X015416Y012083D01*
X015431Y012047D01*
X015443Y012009D01*
X015451Y011971D01*
X015455Y011932D01*
X015455Y011892D01*
X015451Y011853D01*
X015443Y011815D01*
X015431Y011777D01*
X015416Y011741D01*
X015397Y011707D01*
X015375Y011674D01*
X015350Y011644D01*
X015322Y011617D01*
X015291Y011592D01*
X015258Y011571D01*
X015223Y011553D01*
X015186Y011539D01*
X015149Y011528D01*
X015110Y011521D01*
X015071Y011518D01*
X015032Y011519D01*
X014993Y011524D01*
X014954Y011533D01*
X014917Y011545D01*
X014881Y011561D01*
X014847Y011581D01*
X014815Y011604D01*
X014786Y011630D01*
X014759Y011659D01*
X014735Y011690D01*
X014715Y011724D01*
X014698Y011759D01*
X014685Y011796D01*
X014675Y011834D01*
X014669Y011873D01*
X014667Y011912D01*
X033707Y004701D02*
X033709Y004740D01*
X033715Y004779D01*
X033725Y004817D01*
X033738Y004854D01*
X033755Y004889D01*
X033775Y004923D01*
X033799Y004954D01*
X033826Y004983D01*
X033855Y005009D01*
X033887Y005032D01*
X033921Y005052D01*
X033957Y005068D01*
X033994Y005080D01*
X034033Y005089D01*
X034072Y005094D01*
X034111Y005095D01*
X034150Y005092D01*
X034189Y005085D01*
X034226Y005074D01*
X034263Y005060D01*
X034298Y005042D01*
X034331Y005021D01*
X034362Y004996D01*
X034390Y004969D01*
X034415Y004939D01*
X034437Y004906D01*
X034456Y004872D01*
X034471Y004836D01*
X034483Y004798D01*
X034491Y004760D01*
X034495Y004721D01*
X034495Y004681D01*
X034491Y004642D01*
X034483Y004604D01*
X034471Y004566D01*
X034456Y004530D01*
X034437Y004496D01*
X034415Y004463D01*
X034390Y004433D01*
X034362Y004406D01*
X034331Y004381D01*
X034298Y004360D01*
X034263Y004342D01*
X034226Y004328D01*
X034189Y004317D01*
X034150Y004310D01*
X034111Y004307D01*
X034072Y004308D01*
X034033Y004313D01*
X033994Y004322D01*
X033957Y004334D01*
X033921Y004350D01*
X033887Y004370D01*
X033855Y004393D01*
X033826Y004419D01*
X033799Y004448D01*
X033775Y004479D01*
X033755Y004513D01*
X033738Y004548D01*
X033725Y004585D01*
X033715Y004623D01*
X033709Y004662D01*
X033707Y004701D01*
X037161Y010501D02*
X037163Y010549D01*
X037169Y010597D01*
X037179Y010644D01*
X037192Y010690D01*
X037209Y010735D01*
X037230Y010778D01*
X037255Y010820D01*
X037282Y010859D01*
X037313Y010896D01*
X037347Y010931D01*
X037383Y010962D01*
X037422Y010991D01*
X037463Y011016D01*
X037506Y011038D01*
X037550Y011056D01*
X037596Y011070D01*
X037643Y011081D01*
X037691Y011088D01*
X037739Y011091D01*
X037787Y011090D01*
X037835Y011085D01*
X037882Y011076D01*
X037929Y011064D01*
X037974Y011047D01*
X038018Y011027D01*
X038060Y011004D01*
X038100Y010977D01*
X038137Y010947D01*
X038172Y010914D01*
X038205Y010878D01*
X038234Y010840D01*
X038260Y010799D01*
X038283Y010757D01*
X038302Y010713D01*
X038317Y010667D01*
X038329Y010621D01*
X038337Y010573D01*
X038341Y010525D01*
X038341Y010477D01*
X038337Y010429D01*
X038329Y010381D01*
X038317Y010335D01*
X038302Y010289D01*
X038283Y010245D01*
X038260Y010203D01*
X038234Y010162D01*
X038205Y010124D01*
X038172Y010088D01*
X038137Y010055D01*
X038100Y010025D01*
X038060Y009998D01*
X038018Y009975D01*
X037974Y009955D01*
X037929Y009938D01*
X037882Y009926D01*
X037835Y009917D01*
X037787Y009912D01*
X037739Y009911D01*
X037691Y009914D01*
X037643Y009921D01*
X037596Y009932D01*
X037550Y009946D01*
X037506Y009964D01*
X037463Y009986D01*
X037422Y010011D01*
X037383Y010040D01*
X037347Y010071D01*
X037313Y010106D01*
X037282Y010143D01*
X037255Y010182D01*
X037230Y010224D01*
X037209Y010267D01*
X037192Y010312D01*
X037179Y010358D01*
X037169Y010405D01*
X037163Y010453D01*
X037161Y010501D01*
X037161Y020501D02*
X037163Y020549D01*
X037169Y020597D01*
X037179Y020644D01*
X037192Y020690D01*
X037209Y020735D01*
X037230Y020778D01*
X037255Y020820D01*
X037282Y020859D01*
X037313Y020896D01*
X037347Y020931D01*
X037383Y020962D01*
X037422Y020991D01*
X037463Y021016D01*
X037506Y021038D01*
X037550Y021056D01*
X037596Y021070D01*
X037643Y021081D01*
X037691Y021088D01*
X037739Y021091D01*
X037787Y021090D01*
X037835Y021085D01*
X037882Y021076D01*
X037929Y021064D01*
X037974Y021047D01*
X038018Y021027D01*
X038060Y021004D01*
X038100Y020977D01*
X038137Y020947D01*
X038172Y020914D01*
X038205Y020878D01*
X038234Y020840D01*
X038260Y020799D01*
X038283Y020757D01*
X038302Y020713D01*
X038317Y020667D01*
X038329Y020621D01*
X038337Y020573D01*
X038341Y020525D01*
X038341Y020477D01*
X038337Y020429D01*
X038329Y020381D01*
X038317Y020335D01*
X038302Y020289D01*
X038283Y020245D01*
X038260Y020203D01*
X038234Y020162D01*
X038205Y020124D01*
X038172Y020088D01*
X038137Y020055D01*
X038100Y020025D01*
X038060Y019998D01*
X038018Y019975D01*
X037974Y019955D01*
X037929Y019938D01*
X037882Y019926D01*
X037835Y019917D01*
X037787Y019912D01*
X037739Y019911D01*
X037691Y019914D01*
X037643Y019921D01*
X037596Y019932D01*
X037550Y019946D01*
X037506Y019964D01*
X037463Y019986D01*
X037422Y020011D01*
X037383Y020040D01*
X037347Y020071D01*
X037313Y020106D01*
X037282Y020143D01*
X037255Y020182D01*
X037230Y020224D01*
X037209Y020267D01*
X037192Y020312D01*
X037179Y020358D01*
X037169Y020405D01*
X037163Y020453D01*
X037161Y020501D01*
X036602Y030509D02*
X036604Y030548D01*
X036610Y030587D01*
X036620Y030625D01*
X036633Y030662D01*
X036650Y030697D01*
X036670Y030731D01*
X036694Y030762D01*
X036721Y030791D01*
X036750Y030817D01*
X036782Y030840D01*
X036816Y030860D01*
X036852Y030876D01*
X036889Y030888D01*
X036928Y030897D01*
X036967Y030902D01*
X037006Y030903D01*
X037045Y030900D01*
X037084Y030893D01*
X037121Y030882D01*
X037158Y030868D01*
X037193Y030850D01*
X037226Y030829D01*
X037257Y030804D01*
X037285Y030777D01*
X037310Y030747D01*
X037332Y030714D01*
X037351Y030680D01*
X037366Y030644D01*
X037378Y030606D01*
X037386Y030568D01*
X037390Y030529D01*
X037390Y030489D01*
X037386Y030450D01*
X037378Y030412D01*
X037366Y030374D01*
X037351Y030338D01*
X037332Y030304D01*
X037310Y030271D01*
X037285Y030241D01*
X037257Y030214D01*
X037226Y030189D01*
X037193Y030168D01*
X037158Y030150D01*
X037121Y030136D01*
X037084Y030125D01*
X037045Y030118D01*
X037006Y030115D01*
X036967Y030116D01*
X036928Y030121D01*
X036889Y030130D01*
X036852Y030142D01*
X036816Y030158D01*
X036782Y030178D01*
X036750Y030201D01*
X036721Y030227D01*
X036694Y030256D01*
X036670Y030287D01*
X036650Y030321D01*
X036633Y030356D01*
X036620Y030393D01*
X036610Y030431D01*
X036604Y030470D01*
X036602Y030509D01*
X023411Y030751D02*
X023413Y030799D01*
X023419Y030847D01*
X023429Y030894D01*
X023442Y030940D01*
X023459Y030985D01*
X023480Y031028D01*
X023505Y031070D01*
X023532Y031109D01*
X023563Y031146D01*
X023597Y031181D01*
X023633Y031212D01*
X023672Y031241D01*
X023713Y031266D01*
X023756Y031288D01*
X023800Y031306D01*
X023846Y031320D01*
X023893Y031331D01*
X023941Y031338D01*
X023989Y031341D01*
X024037Y031340D01*
X024085Y031335D01*
X024132Y031326D01*
X024179Y031314D01*
X024224Y031297D01*
X024268Y031277D01*
X024310Y031254D01*
X024350Y031227D01*
X024387Y031197D01*
X024422Y031164D01*
X024455Y031128D01*
X024484Y031090D01*
X024510Y031049D01*
X024533Y031007D01*
X024552Y030963D01*
X024567Y030917D01*
X024579Y030871D01*
X024587Y030823D01*
X024591Y030775D01*
X024591Y030727D01*
X024587Y030679D01*
X024579Y030631D01*
X024567Y030585D01*
X024552Y030539D01*
X024533Y030495D01*
X024510Y030453D01*
X024484Y030412D01*
X024455Y030374D01*
X024422Y030338D01*
X024387Y030305D01*
X024350Y030275D01*
X024310Y030248D01*
X024268Y030225D01*
X024224Y030205D01*
X024179Y030188D01*
X024132Y030176D01*
X024085Y030167D01*
X024037Y030162D01*
X023989Y030161D01*
X023941Y030164D01*
X023893Y030171D01*
X023846Y030182D01*
X023800Y030196D01*
X023756Y030214D01*
X023713Y030236D01*
X023672Y030261D01*
X023633Y030290D01*
X023597Y030321D01*
X023563Y030356D01*
X023532Y030393D01*
X023505Y030432D01*
X023480Y030474D01*
X023459Y030517D01*
X023442Y030562D01*
X023429Y030608D01*
X023419Y030655D01*
X023413Y030703D01*
X023411Y030751D01*
X013411Y030751D02*
X013413Y030799D01*
X013419Y030847D01*
X013429Y030894D01*
X013442Y030940D01*
X013459Y030985D01*
X013480Y031028D01*
X013505Y031070D01*
X013532Y031109D01*
X013563Y031146D01*
X013597Y031181D01*
X013633Y031212D01*
X013672Y031241D01*
X013713Y031266D01*
X013756Y031288D01*
X013800Y031306D01*
X013846Y031320D01*
X013893Y031331D01*
X013941Y031338D01*
X013989Y031341D01*
X014037Y031340D01*
X014085Y031335D01*
X014132Y031326D01*
X014179Y031314D01*
X014224Y031297D01*
X014268Y031277D01*
X014310Y031254D01*
X014350Y031227D01*
X014387Y031197D01*
X014422Y031164D01*
X014455Y031128D01*
X014484Y031090D01*
X014510Y031049D01*
X014533Y031007D01*
X014552Y030963D01*
X014567Y030917D01*
X014579Y030871D01*
X014587Y030823D01*
X014591Y030775D01*
X014591Y030727D01*
X014587Y030679D01*
X014579Y030631D01*
X014567Y030585D01*
X014552Y030539D01*
X014533Y030495D01*
X014510Y030453D01*
X014484Y030412D01*
X014455Y030374D01*
X014422Y030338D01*
X014387Y030305D01*
X014350Y030275D01*
X014310Y030248D01*
X014268Y030225D01*
X014224Y030205D01*
X014179Y030188D01*
X014132Y030176D01*
X014085Y030167D01*
X014037Y030162D01*
X013989Y030161D01*
X013941Y030164D01*
X013893Y030171D01*
X013846Y030182D01*
X013800Y030196D01*
X013756Y030214D01*
X013713Y030236D01*
X013672Y030261D01*
X013633Y030290D01*
X013597Y030321D01*
X013563Y030356D01*
X013532Y030393D01*
X013505Y030432D01*
X013480Y030474D01*
X013459Y030517D01*
X013442Y030562D01*
X013429Y030608D01*
X013419Y030655D01*
X013413Y030703D01*
X013411Y030751D01*
X000794Y030209D02*
X000796Y030248D01*
X000802Y030287D01*
X000812Y030325D01*
X000825Y030362D01*
X000842Y030397D01*
X000862Y030431D01*
X000886Y030462D01*
X000913Y030491D01*
X000942Y030517D01*
X000974Y030540D01*
X001008Y030560D01*
X001044Y030576D01*
X001081Y030588D01*
X001120Y030597D01*
X001159Y030602D01*
X001198Y030603D01*
X001237Y030600D01*
X001276Y030593D01*
X001313Y030582D01*
X001350Y030568D01*
X001385Y030550D01*
X001418Y030529D01*
X001449Y030504D01*
X001477Y030477D01*
X001502Y030447D01*
X001524Y030414D01*
X001543Y030380D01*
X001558Y030344D01*
X001570Y030306D01*
X001578Y030268D01*
X001582Y030229D01*
X001582Y030189D01*
X001578Y030150D01*
X001570Y030112D01*
X001558Y030074D01*
X001543Y030038D01*
X001524Y030004D01*
X001502Y029971D01*
X001477Y029941D01*
X001449Y029914D01*
X001418Y029889D01*
X001385Y029868D01*
X001350Y029850D01*
X001313Y029836D01*
X001276Y029825D01*
X001237Y029818D01*
X001198Y029815D01*
X001159Y029816D01*
X001120Y029821D01*
X001081Y029830D01*
X001044Y029842D01*
X001008Y029858D01*
X000974Y029878D01*
X000942Y029901D01*
X000913Y029927D01*
X000886Y029956D01*
X000862Y029987D01*
X000842Y030021D01*
X000825Y030056D01*
X000812Y030093D01*
X000802Y030131D01*
X000796Y030170D01*
X000794Y030209D01*
D11*
X010201Y018381D02*
X010201Y017821D01*
X011201Y017821D02*
X011201Y018381D01*
X012201Y018381D02*
X012201Y017821D01*
X013201Y017821D02*
X013201Y018381D01*
X014201Y018381D02*
X014201Y017821D01*
X015201Y017821D02*
X015201Y018381D01*
X016201Y018381D02*
X016201Y017821D01*
X017201Y017821D02*
X017201Y018381D01*
X018201Y018381D02*
X018201Y017821D01*
X019201Y017821D02*
X019201Y018381D01*
X020201Y018381D02*
X020201Y017821D01*
X021201Y017821D02*
X021201Y018381D01*
X022201Y018381D02*
X022201Y017821D01*
X023201Y017821D02*
X023201Y018381D01*
X023201Y015381D02*
X023201Y014821D01*
X022201Y014821D02*
X022201Y015381D01*
X021201Y015381D02*
X021201Y014821D01*
X020201Y014821D02*
X020201Y015381D01*
X019201Y015381D02*
X019201Y014821D01*
X018201Y014821D02*
X018201Y015381D01*
X017201Y015381D02*
X017201Y014821D01*
X016201Y014821D02*
X016201Y015381D01*
X015201Y015381D02*
X015201Y014821D01*
X014201Y014821D02*
X014201Y015381D01*
X013201Y015381D02*
X013201Y014821D01*
X012201Y014821D02*
X012201Y015381D01*
X011201Y015381D02*
X011201Y014821D01*
X010201Y014821D02*
X010201Y015381D01*
D12*
X015101Y022001D03*
X018901Y022001D03*
D13*
X012101Y012101D03*
X011101Y012101D03*
X011101Y010601D03*
X012101Y010601D03*
X011101Y006601D03*
X013601Y006601D03*
D14*
X007101Y008281D02*
X007101Y008921D01*
X006101Y008921D02*
X006101Y008281D01*
X005101Y008281D02*
X005101Y008921D01*
D15*
X011151Y008901D03*
X012251Y008901D03*
X031132Y002101D03*
X037101Y003132D03*
X037601Y028069D03*
X033069Y029601D03*
X006569Y029101D03*
D16*
X012101Y006601D03*
X014601Y006601D03*
D17*
X033101Y002101D03*
X037101Y005101D03*
X037601Y026101D03*
X031101Y029601D03*
X004601Y029101D03*
D18*
X010001Y024001D03*
X011001Y024001D03*
X011101Y021801D03*
X010101Y021801D03*
X002601Y013101D03*
X002601Y012101D03*
X002601Y011101D03*
X012601Y003551D03*
X013601Y003651D03*
X014601Y003551D03*
X015601Y003651D03*
X016601Y003551D03*
X017601Y003651D03*
X018601Y003551D03*
X018601Y001551D03*
X017601Y001651D03*
X016601Y001551D03*
X015601Y001651D03*
X014601Y001551D03*
X013601Y001651D03*
X012601Y001551D03*
X021101Y001601D03*
X022101Y001501D03*
X023101Y001601D03*
X024101Y001501D03*
X025101Y001601D03*
X026101Y001501D03*
X028101Y001531D03*
X028101Y002671D03*
X029001Y006101D03*
X030001Y006101D03*
X031501Y006001D03*
X032501Y006001D03*
X022901Y021801D03*
X021901Y021801D03*
X021901Y024001D03*
X022901Y024001D03*
X029401Y026601D03*
X030401Y026601D03*
X032101Y026601D03*
X033101Y026601D03*
D19*
X006552Y024101D03*
X005450Y024101D03*
X005450Y022601D03*
X006552Y022601D03*
X006552Y021201D03*
X005450Y021201D03*
X005450Y019801D03*
X006552Y019801D03*
X006552Y018301D03*
X005450Y018301D03*
X005550Y016801D03*
X006652Y016801D03*
X006652Y015101D03*
X005550Y015101D03*
X005550Y013501D03*
X006652Y013501D03*
X006652Y011801D03*
X005550Y011801D03*
D20*
X015477Y026460D03*
X016477Y026460D03*
X017477Y026460D03*
X018477Y026460D03*
X019477Y026460D03*
X020477Y026460D03*
X021477Y026460D03*
X022477Y026460D03*
X021977Y028460D03*
X020977Y028460D03*
X019977Y028460D03*
X018977Y028460D03*
X017977Y028460D03*
X016977Y028460D03*
X015977Y028460D03*
X033460Y019024D03*
X033460Y018024D03*
X033460Y017024D03*
X033460Y016024D03*
X033460Y015024D03*
X033460Y014024D03*
X033460Y013024D03*
X033460Y012024D03*
X035460Y012524D03*
X035460Y013524D03*
X035460Y014524D03*
X035460Y015524D03*
X035460Y016524D03*
X035460Y017524D03*
X035460Y018524D03*
D21*
X031101Y020301D03*
X031101Y021501D03*
X031101Y022801D03*
X031101Y024101D03*
X027101Y024101D03*
X027101Y022801D03*
X027101Y021501D03*
X027101Y020301D03*
X027501Y018501D03*
X028901Y018501D03*
X030401Y018601D03*
X026001Y018501D03*
X026001Y014501D03*
X027501Y014501D03*
X028901Y014501D03*
X030401Y014601D03*
X031501Y012901D03*
X031501Y011401D03*
X031501Y009901D03*
X031501Y008401D03*
X027501Y008401D03*
X027501Y009901D03*
X027501Y011401D03*
X027501Y012901D03*
X025201Y012301D03*
X023401Y012301D03*
X021701Y012301D03*
X020101Y012301D03*
X020101Y008301D03*
X021701Y008301D03*
X023401Y008301D03*
X025201Y008301D03*
D22*
X011601Y003651D03*
X011601Y001651D03*
D23*
X011501Y001701D01*
X011101Y002101D01*
X011101Y006601D01*
X011101Y008901D01*
X011151Y008901D01*
X011301Y008901D01*
X011301Y009701D01*
X012101Y010501D01*
X012101Y010601D01*
X012101Y012101D01*
X011101Y012101D02*
X010701Y012501D01*
X010701Y019301D01*
X011201Y018101D02*
X011301Y018101D01*
X011701Y017701D01*
X011701Y013301D01*
X015301Y009701D01*
X016101Y008301D02*
X020101Y012301D01*
X020901Y012501D02*
X020901Y001901D01*
X021101Y001701D01*
X021101Y001601D01*
X021101Y002501D02*
X022101Y001501D01*
X022701Y002101D02*
X023101Y001701D01*
X023101Y001601D01*
X022701Y002101D02*
X022701Y012501D01*
X021701Y013501D01*
X021701Y015901D01*
X021101Y015901D01*
X020301Y015101D01*
X020201Y015101D01*
X021201Y015101D02*
X021301Y015101D01*
X021501Y014901D01*
X021501Y013301D01*
X022301Y012501D01*
X022301Y003301D01*
X021101Y002501D02*
X021101Y013301D01*
X019301Y015101D01*
X019201Y015101D01*
X018301Y015101D02*
X018201Y015101D01*
X018301Y015101D02*
X020901Y012501D01*
X022201Y015101D02*
X022301Y015101D01*
X024101Y013301D01*
X024101Y002701D01*
X025101Y001701D01*
X025101Y001601D01*
X026101Y001501D02*
X024301Y003301D01*
X024301Y014101D01*
X023301Y015101D01*
X023201Y015101D01*
X024501Y015901D02*
X024501Y006301D01*
X028101Y002701D01*
X028101Y002671D01*
X028101Y001531D02*
X028101Y000901D01*
X011301Y000901D01*
X009701Y002501D01*
X009701Y017701D01*
X010101Y018101D01*
X010201Y018101D01*
X009301Y017101D02*
X009301Y015701D01*
X008501Y015901D02*
X008501Y013701D01*
X006701Y011901D01*
X006652Y011801D01*
X005701Y011701D02*
X005550Y011801D01*
X005501Y011901D01*
X005501Y013501D01*
X005550Y013501D01*
X005501Y013501D02*
X005101Y013901D01*
X005101Y018101D01*
X005301Y018301D01*
X005450Y018301D01*
X005501Y018301D01*
X005501Y019701D01*
X005450Y019801D01*
X005901Y020701D02*
X005901Y017101D01*
X005701Y016901D01*
X005550Y016801D01*
X005501Y016701D01*
X005501Y015101D01*
X005550Y015101D01*
X005701Y015101D01*
X006101Y014701D01*
X006101Y010701D01*
X007701Y009101D01*
X007701Y008101D01*
X007301Y007701D01*
X006101Y007701D01*
X006101Y008601D01*
X007101Y008601D02*
X007101Y008701D01*
X005701Y010101D01*
X005701Y011701D01*
X006652Y013501D02*
X007701Y013501D01*
X006652Y015101D02*
X006501Y015101D01*
X006101Y015501D01*
X006101Y024901D01*
X006301Y025301D02*
X005701Y025301D01*
X005701Y024701D01*
X005901Y024501D01*
X005901Y023701D01*
X005301Y023101D01*
X004901Y023101D01*
X004901Y008901D01*
X005101Y008701D01*
X005101Y008601D01*
X002701Y011101D02*
X002601Y011101D01*
X002701Y011101D02*
X003101Y011501D01*
X003101Y018901D01*
X004301Y020101D01*
X005501Y021101D02*
X005450Y021201D01*
X005501Y021301D01*
X005501Y022501D01*
X005450Y022601D01*
X006552Y022601D02*
X006701Y022501D01*
X009101Y022501D01*
X009101Y022101D01*
X009901Y021301D01*
X011101Y021301D01*
X011101Y021801D01*
X011101Y023901D01*
X011001Y024001D01*
X010101Y021901D02*
X010101Y021801D01*
X010101Y021901D02*
X006701Y025301D01*
X006701Y029101D01*
X006569Y029101D01*
X006301Y025301D02*
X006501Y025101D01*
X006501Y024101D01*
X006552Y024101D01*
X005450Y024101D02*
X005301Y024101D01*
X002701Y021501D01*
X002701Y013101D01*
X002601Y013101D01*
X006701Y016701D02*
X006652Y016801D01*
X006701Y016701D02*
X008901Y016701D01*
X008901Y002901D01*
X011101Y000701D01*
X029901Y000701D01*
X029901Y003301D01*
X032501Y005901D01*
X032501Y006001D01*
X031501Y006001D02*
X031501Y006101D01*
X030901Y006701D01*
X030901Y009701D01*
X029501Y011101D01*
X029501Y021701D01*
X027101Y024101D01*
X026501Y024701D02*
X026501Y023501D01*
X027101Y022901D01*
X027101Y022801D01*
X027301Y020901D02*
X025701Y020901D01*
X026701Y019901D01*
X026701Y015101D01*
X026101Y014501D01*
X026001Y014501D01*
X024901Y013501D02*
X024701Y013701D01*
X024701Y018901D01*
X021901Y021701D01*
X021901Y021801D01*
X021901Y021901D01*
X021301Y022501D01*
X021301Y026301D01*
X021477Y026460D01*
X021501Y026501D01*
X021501Y027901D01*
X022101Y028301D02*
X021977Y028460D01*
X022101Y028301D02*
X023101Y027301D01*
X023101Y025301D01*
X022701Y024901D01*
X023501Y024101D01*
X023501Y023101D01*
X025701Y020901D01*
X027101Y020301D02*
X027501Y019901D01*
X027501Y019301D01*
X028101Y018701D01*
X028101Y006901D01*
X028901Y006101D01*
X029001Y006101D01*
X029901Y006101D02*
X030001Y006101D01*
X029901Y006101D02*
X029901Y003301D01*
X031132Y002101D02*
X031301Y002101D01*
X033101Y003901D01*
X033101Y011501D01*
X032901Y011701D01*
X032901Y013501D01*
X033301Y013101D01*
X033460Y013024D01*
X032901Y013501D02*
X031701Y014701D01*
X031701Y023501D01*
X031101Y022901D01*
X031101Y022801D01*
X031701Y023501D02*
X031701Y026101D01*
X032101Y026501D01*
X032101Y026601D01*
X029901Y027101D02*
X029401Y026601D01*
X029901Y027101D02*
X036101Y027101D01*
X036101Y013301D01*
X035501Y012701D01*
X035460Y012524D01*
X035301Y012501D01*
X035301Y004301D01*
X033101Y002101D01*
X028101Y006901D02*
X027501Y007501D01*
X027501Y008401D01*
X026901Y009901D02*
X026901Y012301D01*
X027501Y012901D01*
X028501Y012101D02*
X029501Y011101D01*
X031501Y011401D02*
X031501Y012901D01*
X031501Y013501D01*
X031101Y013901D01*
X031101Y018701D01*
X030301Y019501D01*
X030301Y024701D01*
X026501Y024701D01*
X026501Y027901D01*
X037501Y027901D01*
X037601Y028069D01*
X031101Y024101D02*
X030501Y023501D01*
X030501Y022101D01*
X031101Y021501D01*
X031101Y020301D01*
X032701Y019701D02*
X032701Y018501D01*
X033501Y018901D02*
X033460Y019024D01*
X033501Y018901D02*
X034101Y018301D01*
X034101Y012701D01*
X033501Y012101D01*
X033460Y012024D01*
X031501Y011401D02*
X031501Y009901D01*
X031501Y008401D01*
X026901Y009901D02*
X025301Y008301D01*
X025201Y008301D01*
X025201Y012301D02*
X025301Y012301D01*
X025301Y017901D01*
X025901Y018501D01*
X026001Y018501D01*
X027701Y019701D02*
X027701Y020501D01*
X027301Y020901D01*
X027701Y019701D02*
X028901Y018501D01*
X030301Y018501D02*
X030401Y018601D01*
X030301Y018501D02*
X030301Y016301D01*
X029901Y015901D01*
X030401Y014601D02*
X031101Y013901D01*
X034701Y015301D02*
X035301Y014701D01*
X035460Y014524D01*
X034701Y015301D02*
X034701Y018701D01*
X034101Y019301D01*
X034301Y019701D02*
X032701Y019701D01*
X034301Y019701D02*
X034901Y019101D01*
X034901Y017101D01*
X035301Y016701D01*
X035460Y016524D01*
X035460Y018524D02*
X035301Y018701D01*
X035101Y018901D01*
X035101Y019701D01*
X024501Y015901D02*
X022301Y018101D01*
X022201Y018101D01*
X021201Y018101D02*
X021101Y018101D01*
X020301Y017301D01*
X019701Y017301D01*
X019701Y018501D01*
X019301Y018901D01*
X017501Y018901D01*
X017501Y026301D01*
X017477Y026460D01*
X017701Y027101D02*
X015501Y027101D01*
X015501Y026501D01*
X015477Y026460D01*
X015501Y026301D01*
X016301Y025501D01*
X016301Y018101D01*
X016201Y018101D01*
X017101Y018101D02*
X017201Y018101D01*
X017101Y018101D02*
X017101Y024701D01*
X018501Y026301D02*
X018477Y026460D01*
X018501Y026301D02*
X020101Y024701D01*
X020101Y018101D01*
X020201Y018101D01*
X019301Y018101D02*
X019201Y018101D01*
X019301Y018101D02*
X019301Y016701D01*
X018701Y016701D02*
X018701Y017701D01*
X018301Y018101D01*
X018201Y018101D01*
X017101Y018101D02*
X017101Y016901D01*
X015701Y015501D01*
X015701Y007701D01*
X014601Y006601D01*
X014701Y006501D01*
X014701Y003701D01*
X014601Y003551D01*
X014501Y003701D01*
X013701Y003701D01*
X013601Y003651D01*
X013501Y003701D01*
X012701Y003701D01*
X012601Y003551D01*
X012501Y003701D01*
X011701Y003701D01*
X011601Y003651D01*
X011701Y001701D02*
X011601Y001651D01*
X011701Y001701D02*
X012501Y001701D01*
X012601Y001551D01*
X012701Y001701D01*
X013501Y001701D01*
X013601Y001651D01*
X013701Y001701D01*
X014501Y001701D01*
X014601Y001551D01*
X014701Y001701D01*
X015501Y001701D01*
X015601Y001651D01*
X015701Y001701D01*
X016501Y001701D01*
X016601Y001551D01*
X016701Y001701D01*
X017501Y001701D01*
X017601Y001651D01*
X017701Y001701D01*
X018501Y001701D01*
X018601Y001551D01*
X018601Y003551D02*
X018501Y003701D01*
X017701Y003701D01*
X017601Y003651D01*
X017501Y003701D01*
X016701Y003701D01*
X016601Y003551D01*
X016501Y003701D01*
X015701Y003701D01*
X015601Y003651D01*
X015501Y003701D01*
X014701Y003701D01*
X012101Y006601D02*
X012101Y008901D01*
X012251Y008901D01*
X014701Y013501D02*
X014701Y017701D01*
X015101Y018101D01*
X015201Y018101D01*
X015101Y018901D02*
X015101Y022001D01*
X017901Y019301D02*
X018901Y020301D01*
X018901Y022001D01*
X020501Y019701D02*
X020501Y026301D01*
X020477Y026460D01*
X019901Y025901D02*
X019901Y025501D01*
X019901Y025901D02*
X019501Y026301D01*
X019477Y026460D01*
X017701Y027101D02*
X018901Y028301D01*
X018977Y028460D01*
X017977Y028460D02*
X017901Y028501D01*
X017301Y029101D01*
X013301Y029101D01*
X013301Y018101D01*
X013201Y018101D01*
X014201Y018101D02*
X014301Y018101D01*
X015101Y018901D01*
X015701Y015501D02*
X015301Y015101D01*
X015201Y015101D01*
X014201Y015101D02*
X014101Y015101D01*
X013301Y014301D01*
X012701Y014301D01*
X012701Y028901D01*
X013101Y029301D01*
X020901Y029301D01*
X020901Y028501D01*
X020977Y028460D01*
X017501Y027901D02*
X015901Y027901D01*
X013701Y025701D01*
X013701Y015501D01*
X013301Y015101D01*
X013201Y015101D01*
X009301Y017101D02*
X006701Y019701D01*
X006552Y019801D01*
X005901Y020701D02*
X005501Y021101D01*
X006552Y021201D02*
X006701Y021301D01*
X009301Y021301D01*
X007501Y018301D02*
X006552Y018301D01*
X021901Y024001D02*
X021901Y024101D01*
X022701Y024901D01*
X022901Y024001D02*
X022901Y021801D01*
D24*
X020501Y019701D03*
X017901Y019301D03*
X018701Y016701D03*
X019301Y016701D03*
X014701Y013501D03*
X015301Y009701D03*
X016101Y008301D03*
X022301Y003301D03*
X028501Y012101D03*
X024901Y013501D03*
X029901Y015901D03*
X032701Y018501D03*
X034101Y019301D03*
X035101Y019701D03*
X021501Y027901D03*
X019901Y025501D03*
X017501Y027901D03*
X017101Y024701D03*
X010701Y019301D03*
X009301Y021301D03*
X007501Y018301D03*
X008501Y015901D03*
X009301Y015701D03*
X007701Y013501D03*
X004301Y020101D03*
X006101Y024901D03*
M02*
