G75*
G70*
%OFA0B0*%
%FSLAX24Y24*%
%IPPOS*%
%LPD*%
%AMOC8*
5,1,8,0,0,1.08239X$1,22.5*
%
%ADD10C,0.0867*%
%ADD11C,0.0640*%
%ADD12C,0.0730*%
%ADD13C,0.0720*%
%ADD14C,0.1380*%
%ADD15C,0.0050*%
%ADD16R,0.0730X0.0730*%
%ADD17R,0.0880X0.0880*%
%ADD18C,0.0880*%
%ADD19C,0.0820*%
%ADD20C,0.1260*%
%ADD21C,0.0828*%
%ADD22C,0.0860*%
%ADD23R,0.0820X0.0820*%
D10*
X002107Y002101D03*
X010107Y002101D03*
X010107Y023101D03*
X001107Y030601D03*
X035607Y001101D03*
X036607Y030601D03*
D11*
X017887Y023601D02*
X017327Y023601D01*
X017327Y022601D02*
X017887Y022601D01*
X017887Y021601D02*
X017327Y021601D01*
X017327Y020601D02*
X017887Y020601D01*
X017887Y019601D02*
X017327Y019601D01*
X017327Y018601D02*
X017887Y018601D01*
X017887Y017601D02*
X017327Y017601D01*
X017327Y016601D02*
X017887Y016601D01*
X017887Y015601D02*
X017327Y015601D01*
X017327Y014601D02*
X017887Y014601D01*
X017887Y013601D02*
X017327Y013601D01*
X017327Y012601D02*
X017887Y012601D01*
X017887Y011601D02*
X017327Y011601D01*
X017327Y010601D02*
X017887Y010601D01*
X014887Y010601D02*
X014327Y010601D01*
X014327Y011601D02*
X014887Y011601D01*
X014887Y012601D02*
X014327Y012601D01*
X014327Y013601D02*
X014887Y013601D01*
X014887Y014601D02*
X014327Y014601D01*
X014327Y015601D02*
X014887Y015601D01*
X014887Y016601D02*
X014327Y016601D01*
X014327Y017601D02*
X014887Y017601D01*
X014887Y018601D02*
X014327Y018601D01*
X014327Y019601D02*
X014887Y019601D01*
X014887Y020601D02*
X014327Y020601D01*
X014327Y021601D02*
X014887Y021601D01*
X014887Y022601D02*
X014327Y022601D01*
X014327Y023601D02*
X014887Y023601D01*
D12*
X021607Y018601D03*
X022607Y018601D03*
X022607Y008601D03*
X021607Y008601D03*
X009107Y007101D03*
X009107Y010601D03*
D13*
X013107Y008421D02*
X013107Y007781D01*
X014107Y007781D02*
X014107Y008421D01*
X015107Y008421D02*
X015107Y007781D01*
D14*
X014107Y002201D03*
D15*
X021231Y005909D02*
X021203Y005967D01*
X021185Y006029D01*
X021179Y006094D01*
X021184Y006160D01*
X021200Y006224D01*
X021228Y006284D01*
X021265Y006339D01*
X021311Y006386D01*
X021365Y006425D01*
X021424Y006453D01*
X021488Y006471D01*
X021554Y006478D01*
X021620Y006471D01*
X021683Y006453D01*
X021743Y006424D01*
X021797Y006385D01*
X021843Y006338D01*
X021880Y006283D01*
X021907Y006223D01*
X021923Y006159D01*
X021928Y006093D01*
X021920Y006021D01*
X021898Y005952D01*
X021864Y005888D01*
X021817Y005833D01*
X021761Y005788D01*
X021696Y005754D01*
X021627Y005734D01*
X021555Y005728D01*
X021490Y005733D01*
X021428Y005748D01*
X021369Y005775D01*
X021315Y005811D01*
X021269Y005856D01*
X021231Y005909D01*
X021223Y005926D02*
X021884Y005926D01*
X021906Y005975D02*
X021201Y005975D01*
X021187Y006023D02*
X021920Y006023D01*
X021926Y006072D02*
X021181Y006072D01*
X021181Y006120D02*
X021926Y006120D01*
X021921Y006169D02*
X021186Y006169D01*
X021199Y006217D02*
X021908Y006217D01*
X021888Y006266D02*
X021219Y006266D01*
X021248Y006314D02*
X021859Y006314D01*
X021819Y006363D02*
X021288Y006363D01*
X021346Y006411D02*
X021761Y006411D01*
X021659Y006460D02*
X021448Y006460D01*
X021254Y005877D02*
X021854Y005877D01*
X021812Y005829D02*
X021297Y005829D01*
X021361Y005780D02*
X021747Y005780D01*
X021602Y005732D02*
X021500Y005732D01*
X022305Y005967D02*
X022287Y006029D01*
X022281Y006094D01*
X022286Y006160D01*
X022302Y006224D01*
X022330Y006284D01*
X022367Y006339D01*
X022413Y006386D01*
X022467Y006425D01*
X022526Y006453D01*
X022590Y006471D01*
X022656Y006478D01*
X022722Y006471D01*
X022785Y006453D01*
X022845Y006424D01*
X022899Y006385D01*
X022945Y006338D01*
X022982Y006283D01*
X023009Y006223D01*
X023025Y006159D01*
X023030Y006093D01*
X023022Y006021D01*
X023000Y005952D01*
X022966Y005888D01*
X022919Y005833D01*
X022863Y005788D01*
X022798Y005754D01*
X022729Y005734D01*
X022657Y005728D01*
X022592Y005733D01*
X022530Y005748D01*
X022471Y005775D01*
X022417Y005811D01*
X022371Y005856D01*
X022333Y005909D01*
X022305Y005967D01*
X022303Y005975D02*
X023008Y005975D01*
X023022Y006023D02*
X022289Y006023D01*
X022283Y006072D02*
X023028Y006072D01*
X023028Y006120D02*
X022283Y006120D01*
X022288Y006169D02*
X023023Y006169D01*
X023010Y006217D02*
X022301Y006217D01*
X022321Y006266D02*
X022990Y006266D01*
X022961Y006314D02*
X022350Y006314D01*
X022390Y006363D02*
X022921Y006363D01*
X022863Y006411D02*
X022448Y006411D01*
X022550Y006460D02*
X022761Y006460D01*
X022986Y005926D02*
X022325Y005926D01*
X022356Y005877D02*
X022956Y005877D01*
X022914Y005829D02*
X022399Y005829D01*
X022463Y005780D02*
X022849Y005780D01*
X022704Y005732D02*
X022602Y005732D01*
D16*
X010107Y007101D03*
X010107Y010601D03*
D17*
X021607Y002601D03*
X035607Y005101D03*
X035607Y011101D03*
X035607Y016601D03*
X035607Y022601D03*
D18*
X035607Y020632D03*
X035607Y014632D03*
X035607Y009132D03*
X035607Y003132D03*
X019638Y002601D03*
D19*
X032107Y003101D03*
X033107Y003101D03*
X033107Y005101D03*
X032107Y005101D03*
X032107Y009101D03*
X033107Y009101D03*
X033107Y011601D03*
X032107Y011601D03*
X032107Y014601D03*
X033107Y014601D03*
X033107Y017101D03*
X032107Y017101D03*
X032107Y020601D03*
X033107Y020601D03*
X033107Y022601D03*
X032107Y022601D03*
X007107Y003601D03*
X006107Y003601D03*
X005107Y003601D03*
X002057Y006601D03*
X002157Y007601D03*
X002057Y008601D03*
X002157Y009601D03*
X002057Y010601D03*
X002157Y011601D03*
X002057Y012601D03*
X004507Y012101D03*
X004607Y011101D03*
X004507Y010101D03*
X004607Y009101D03*
X004507Y008101D03*
X004607Y013101D03*
X004607Y016031D03*
X004607Y017171D03*
X002157Y017101D03*
X002057Y018101D03*
X002157Y019101D03*
X002057Y020101D03*
X002157Y021101D03*
X002057Y022101D03*
X002057Y016101D03*
D20*
X005107Y030451D03*
X015107Y030451D03*
X022607Y030451D03*
X032607Y030451D03*
D21*
X030583Y028160D03*
X029583Y028160D03*
X028583Y028160D03*
X027583Y028160D03*
X026583Y028160D03*
X025583Y028160D03*
X024583Y028160D03*
X024083Y026160D03*
X025083Y026160D03*
X026083Y026160D03*
X027083Y026160D03*
X028083Y026160D03*
X029083Y026160D03*
X030083Y026160D03*
X031083Y026160D03*
X013583Y026160D03*
X012583Y026160D03*
X011583Y026160D03*
X010583Y026160D03*
X009583Y026160D03*
X008583Y026160D03*
X007583Y026160D03*
X006583Y026160D03*
X007083Y028160D03*
X008083Y028160D03*
X009083Y028160D03*
X010083Y028160D03*
X011083Y028160D03*
X012083Y028160D03*
X013083Y028160D03*
D22*
X026107Y024101D03*
X027607Y024101D03*
X029107Y024101D03*
X030607Y024101D03*
X030607Y020101D03*
X029107Y020101D03*
X027607Y020101D03*
X026107Y020101D03*
X026107Y018101D03*
X027607Y018101D03*
X029107Y018101D03*
X030607Y018101D03*
X030607Y014101D03*
X029107Y014101D03*
X027607Y014101D03*
X026107Y014101D03*
X026107Y012101D03*
X027607Y012101D03*
X029107Y012101D03*
X030607Y012101D03*
X030607Y008101D03*
X029107Y008101D03*
X027607Y008101D03*
X026107Y008101D03*
X026107Y006601D03*
X027607Y006601D03*
X029107Y006601D03*
X030607Y006601D03*
X030607Y002601D03*
X029107Y002601D03*
X027607Y002601D03*
X026107Y002601D03*
D23*
X002157Y013601D03*
X002157Y023101D03*
M02*
