G75*
G70*
%OFA0B0*%
%FSLAX24Y24*%
%IPPOS*%
%LPD*%
%AMOC8*
5,1,8,0,0,1.08239X$1,22.5*
%
%ADD10C,0.0080*%
%ADD11C,0.0001*%
%ADD12C,0.0060*%
%ADD13C,0.0020*%
%ADD14C,0.0040*%
%ADD15R,0.0500X0.0350*%
%ADD16C,0.0100*%
%ADD17C,0.0050*%
%ADD18C,0.0010*%
D10*
X011101Y001351D02*
X011351Y001101D01*
X011851Y001101D01*
X012101Y001351D01*
X012351Y001101D01*
X012851Y001101D01*
X013101Y001351D01*
X013351Y001101D01*
X013851Y001101D01*
X014101Y001351D01*
X014351Y001101D01*
X014851Y001101D01*
X015101Y001351D01*
X015351Y001101D01*
X015851Y001101D01*
X016101Y001351D01*
X016351Y001101D01*
X016851Y001101D01*
X017101Y001351D01*
X017351Y001101D01*
X017851Y001101D01*
X018101Y001351D01*
X018351Y001101D01*
X018851Y001101D01*
X019101Y001351D01*
X019101Y001851D01*
X018851Y002101D01*
X018351Y002101D01*
X018101Y001851D01*
X017851Y002101D01*
X017351Y002101D01*
X017101Y001851D01*
X016851Y002101D01*
X016351Y002101D01*
X016101Y001851D01*
X015851Y002101D01*
X015351Y002101D01*
X015101Y001851D01*
X014851Y002101D01*
X014351Y002101D01*
X014101Y001851D01*
X013851Y002101D01*
X013351Y002101D01*
X013101Y001851D01*
X012851Y002101D01*
X012351Y002101D01*
X012101Y001851D01*
X011851Y002101D01*
X011351Y002101D01*
X011101Y001851D01*
X011101Y001351D01*
X011351Y003101D02*
X011851Y003101D01*
X012101Y003351D01*
X012351Y003101D01*
X012851Y003101D01*
X013101Y003351D01*
X013351Y003101D01*
X013851Y003101D01*
X014101Y003351D01*
X014351Y003101D01*
X014851Y003101D01*
X015101Y003351D01*
X015351Y003101D01*
X015851Y003101D01*
X016101Y003351D01*
X016351Y003101D01*
X016851Y003101D01*
X017101Y003351D01*
X017351Y003101D01*
X017851Y003101D01*
X018101Y003351D01*
X018351Y003101D01*
X018851Y003101D01*
X019101Y003351D01*
X019101Y003851D01*
X018851Y004101D01*
X018351Y004101D01*
X018101Y003851D01*
X017851Y004101D01*
X017351Y004101D01*
X017101Y003851D01*
X016851Y004101D01*
X016351Y004101D01*
X016101Y003851D01*
X015851Y004101D01*
X015351Y004101D01*
X015101Y003851D01*
X014851Y004101D01*
X014351Y004101D01*
X014101Y003851D01*
X013851Y004101D01*
X013351Y004101D01*
X013101Y003851D01*
X012851Y004101D01*
X012351Y004101D01*
X012101Y003851D01*
X011851Y004101D01*
X011351Y004101D01*
X011101Y003851D01*
X011101Y003351D01*
X011351Y003101D01*
X010617Y006601D02*
X010619Y006663D01*
X010625Y006726D01*
X010635Y006787D01*
X010649Y006848D01*
X010666Y006908D01*
X010687Y006967D01*
X010713Y007024D01*
X010741Y007079D01*
X010773Y007133D01*
X010809Y007184D01*
X010847Y007234D01*
X010889Y007280D01*
X010933Y007324D01*
X010981Y007365D01*
X011030Y007403D01*
X011082Y007437D01*
X011136Y007468D01*
X011192Y007496D01*
X011250Y007520D01*
X011309Y007541D01*
X011369Y007557D01*
X011430Y007570D01*
X011492Y007579D01*
X011554Y007584D01*
X011617Y007585D01*
X011679Y007582D01*
X011741Y007575D01*
X011803Y007564D01*
X011863Y007549D01*
X011923Y007531D01*
X011981Y007509D01*
X012038Y007483D01*
X012093Y007453D01*
X012146Y007420D01*
X012197Y007384D01*
X012245Y007345D01*
X012291Y007302D01*
X012334Y007257D01*
X012374Y007209D01*
X012411Y007159D01*
X012445Y007106D01*
X012476Y007052D01*
X012502Y006996D01*
X012526Y006938D01*
X012545Y006878D01*
X012561Y006818D01*
X012573Y006756D01*
X012581Y006695D01*
X012585Y006632D01*
X012585Y006570D01*
X012581Y006507D01*
X012573Y006446D01*
X012561Y006384D01*
X012545Y006324D01*
X012526Y006264D01*
X012502Y006206D01*
X012476Y006150D01*
X012445Y006096D01*
X012411Y006043D01*
X012374Y005993D01*
X012334Y005945D01*
X012291Y005900D01*
X012245Y005857D01*
X012197Y005818D01*
X012146Y005782D01*
X012093Y005749D01*
X012038Y005719D01*
X011981Y005693D01*
X011923Y005671D01*
X011863Y005653D01*
X011803Y005638D01*
X011741Y005627D01*
X011679Y005620D01*
X011617Y005617D01*
X011554Y005618D01*
X011492Y005623D01*
X011430Y005632D01*
X011369Y005645D01*
X011309Y005661D01*
X011250Y005682D01*
X011192Y005706D01*
X011136Y005734D01*
X011082Y005765D01*
X011030Y005799D01*
X010981Y005837D01*
X010933Y005878D01*
X010889Y005922D01*
X010847Y005968D01*
X010809Y006018D01*
X010773Y006069D01*
X010741Y006123D01*
X010713Y006178D01*
X010687Y006235D01*
X010666Y006294D01*
X010649Y006354D01*
X010635Y006415D01*
X010625Y006476D01*
X010619Y006539D01*
X010617Y006601D01*
X010901Y007151D02*
X011301Y007151D01*
X013401Y007151D02*
X013801Y007151D01*
X013117Y006601D02*
X013119Y006663D01*
X013125Y006726D01*
X013135Y006787D01*
X013149Y006848D01*
X013166Y006908D01*
X013187Y006967D01*
X013213Y007024D01*
X013241Y007079D01*
X013273Y007133D01*
X013309Y007184D01*
X013347Y007234D01*
X013389Y007280D01*
X013433Y007324D01*
X013481Y007365D01*
X013530Y007403D01*
X013582Y007437D01*
X013636Y007468D01*
X013692Y007496D01*
X013750Y007520D01*
X013809Y007541D01*
X013869Y007557D01*
X013930Y007570D01*
X013992Y007579D01*
X014054Y007584D01*
X014117Y007585D01*
X014179Y007582D01*
X014241Y007575D01*
X014303Y007564D01*
X014363Y007549D01*
X014423Y007531D01*
X014481Y007509D01*
X014538Y007483D01*
X014593Y007453D01*
X014646Y007420D01*
X014697Y007384D01*
X014745Y007345D01*
X014791Y007302D01*
X014834Y007257D01*
X014874Y007209D01*
X014911Y007159D01*
X014945Y007106D01*
X014976Y007052D01*
X015002Y006996D01*
X015026Y006938D01*
X015045Y006878D01*
X015061Y006818D01*
X015073Y006756D01*
X015081Y006695D01*
X015085Y006632D01*
X015085Y006570D01*
X015081Y006507D01*
X015073Y006446D01*
X015061Y006384D01*
X015045Y006324D01*
X015026Y006264D01*
X015002Y006206D01*
X014976Y006150D01*
X014945Y006096D01*
X014911Y006043D01*
X014874Y005993D01*
X014834Y005945D01*
X014791Y005900D01*
X014745Y005857D01*
X014697Y005818D01*
X014646Y005782D01*
X014593Y005749D01*
X014538Y005719D01*
X014481Y005693D01*
X014423Y005671D01*
X014363Y005653D01*
X014303Y005638D01*
X014241Y005627D01*
X014179Y005620D01*
X014117Y005617D01*
X014054Y005618D01*
X013992Y005623D01*
X013930Y005632D01*
X013869Y005645D01*
X013809Y005661D01*
X013750Y005682D01*
X013692Y005706D01*
X013636Y005734D01*
X013582Y005765D01*
X013530Y005799D01*
X013481Y005837D01*
X013433Y005878D01*
X013389Y005922D01*
X013347Y005968D01*
X013309Y006018D01*
X013273Y006069D01*
X013241Y006123D01*
X013213Y006178D01*
X013187Y006235D01*
X013166Y006294D01*
X013149Y006354D01*
X013135Y006415D01*
X013125Y006476D01*
X013119Y006539D01*
X013117Y006601D01*
X011601Y010351D02*
X011601Y010851D01*
X011601Y011851D02*
X011601Y012351D01*
X009801Y015401D02*
X009701Y015401D01*
X009701Y017801D01*
X009801Y017801D01*
X003457Y014390D02*
X003457Y009811D01*
X001744Y009811D01*
X001744Y014390D01*
X003457Y014390D01*
X003380Y027802D02*
X003380Y028195D01*
X007790Y028195D01*
X007790Y027802D01*
X003380Y027802D01*
X003380Y028195D02*
X003380Y030754D01*
X007790Y030754D01*
X007790Y028195D01*
X015001Y028401D02*
X015001Y029739D01*
X022954Y029739D01*
X022954Y028401D01*
X022957Y028405D02*
X022446Y028405D01*
X021520Y028405D02*
X021442Y028405D01*
X020517Y028405D02*
X020438Y028405D01*
X019513Y028405D02*
X019434Y028405D01*
X018509Y028405D02*
X018430Y028405D01*
X017524Y028405D02*
X017446Y028405D01*
X016520Y028405D02*
X016442Y028405D01*
X015517Y028405D02*
X015005Y028405D01*
X015001Y029739D02*
X015001Y030369D01*
X022954Y030369D01*
X022954Y029739D01*
X029880Y028695D02*
X029880Y028302D01*
X034290Y028302D01*
X034290Y028695D01*
X029880Y028695D01*
X029880Y031254D01*
X034290Y031254D01*
X034290Y028695D01*
X035947Y029290D02*
X038506Y029290D01*
X038506Y024880D01*
X035947Y024880D01*
X035947Y029290D01*
X038506Y029290D02*
X038900Y029290D01*
X038900Y024880D01*
X038506Y024880D01*
X037369Y019501D02*
X036739Y019501D01*
X036739Y011548D01*
X035401Y011548D01*
X035405Y011544D02*
X035405Y012056D01*
X035405Y012981D02*
X035405Y013060D01*
X035405Y013985D02*
X035405Y014064D01*
X035405Y014989D02*
X035405Y015068D01*
X035405Y015993D02*
X035405Y016072D01*
X035405Y016977D02*
X035405Y017056D01*
X035405Y017981D02*
X035405Y018060D01*
X035405Y018985D02*
X035405Y019497D01*
X035401Y019501D02*
X036739Y019501D01*
X037369Y019501D02*
X037369Y011548D01*
X036739Y011548D01*
X036195Y006321D02*
X035802Y006321D01*
X035802Y001912D01*
X036195Y001912D01*
X036195Y006321D01*
X038754Y006321D01*
X038754Y001912D01*
X036195Y001912D01*
X034321Y003006D02*
X034321Y000447D01*
X029912Y000447D01*
X029912Y003006D01*
X034321Y003006D01*
X034321Y003400D01*
X029912Y003400D01*
X029912Y003006D01*
X028601Y002851D02*
X028601Y002351D01*
X028351Y002101D01*
X028601Y001851D01*
X028601Y001351D01*
X028351Y001101D01*
X027851Y001101D01*
X027601Y001351D01*
X027601Y001851D01*
X027851Y002101D01*
X027601Y002351D01*
X027601Y002851D01*
X027851Y003101D01*
X028351Y003101D01*
X028601Y002851D01*
X026601Y001801D02*
X026601Y001301D01*
X026351Y001051D01*
X025851Y001051D01*
X025601Y001301D01*
X025601Y001801D01*
X025851Y002051D01*
X026351Y002051D01*
X026601Y001801D01*
X025601Y001801D02*
X025351Y002051D01*
X024851Y002051D01*
X024601Y001801D01*
X024601Y001301D01*
X024351Y001051D01*
X023851Y001051D01*
X023601Y001301D01*
X023601Y001801D01*
X023851Y002051D01*
X024351Y002051D01*
X024601Y001801D01*
X024601Y001301D02*
X024851Y001051D01*
X025351Y001051D01*
X025601Y001301D01*
X023601Y001301D02*
X023351Y001051D01*
X022851Y001051D01*
X022601Y001301D01*
X022601Y001801D01*
X022851Y002051D01*
X023351Y002051D01*
X023601Y001801D01*
X022601Y001801D02*
X022351Y002051D01*
X021851Y002051D01*
X021601Y001801D01*
X021601Y001301D01*
X021351Y001051D01*
X020851Y001051D01*
X020601Y001301D01*
X020601Y001801D01*
X020851Y002051D01*
X021351Y002051D01*
X021601Y001801D01*
X021601Y001301D02*
X021851Y001051D01*
X022351Y001051D01*
X022601Y001301D01*
X023601Y015401D02*
X023701Y015401D01*
X023701Y016101D01*
X023657Y016103D01*
X023614Y016109D01*
X023572Y016118D01*
X023530Y016131D01*
X023490Y016148D01*
X023451Y016168D01*
X023414Y016191D01*
X023380Y016218D01*
X023347Y016247D01*
X023318Y016280D01*
X023291Y016314D01*
X023268Y016351D01*
X023248Y016390D01*
X023231Y016430D01*
X023218Y016472D01*
X023209Y016514D01*
X023203Y016557D01*
X023201Y016601D01*
X023203Y016645D01*
X023209Y016688D01*
X023218Y016730D01*
X023231Y016772D01*
X023248Y016812D01*
X023268Y016851D01*
X023291Y016888D01*
X023318Y016922D01*
X023347Y016955D01*
X023380Y016984D01*
X023414Y017011D01*
X023451Y017034D01*
X023490Y017054D01*
X023530Y017071D01*
X023572Y017084D01*
X023614Y017093D01*
X023657Y017099D01*
X023701Y017101D01*
X023701Y017801D01*
X023601Y017801D01*
D11*
X018351Y021192D02*
X018351Y021211D01*
X018352Y021210D02*
X018406Y021212D01*
X018461Y021218D01*
X018515Y021227D01*
X018568Y021240D01*
X018621Y021257D01*
X018672Y021278D01*
X018721Y021302D01*
X018769Y021329D01*
X018814Y021360D01*
X018858Y021394D01*
X018899Y021430D01*
X018937Y021469D01*
X018972Y021511D01*
X019005Y021556D01*
X019020Y021545D01*
X018987Y021500D01*
X018951Y021457D01*
X018912Y021416D01*
X018870Y021379D01*
X018825Y021344D01*
X018779Y021313D01*
X018730Y021285D01*
X018679Y021261D01*
X018627Y021240D01*
X018574Y021222D01*
X018519Y021209D01*
X018464Y021199D01*
X018408Y021193D01*
X018352Y021191D01*
X018352Y021192D01*
X018408Y021194D01*
X018464Y021200D01*
X018519Y021210D01*
X018573Y021223D01*
X018627Y021240D01*
X018679Y021261D01*
X018729Y021286D01*
X018778Y021314D01*
X018825Y021345D01*
X018869Y021380D01*
X018911Y021417D01*
X018950Y021457D01*
X018986Y021500D01*
X019020Y021546D01*
X019019Y021546D01*
X018986Y021501D01*
X018949Y021458D01*
X018910Y021418D01*
X018868Y021380D01*
X018824Y021346D01*
X018778Y021315D01*
X018729Y021287D01*
X018678Y021262D01*
X018626Y021241D01*
X018573Y021224D01*
X018519Y021211D01*
X018463Y021201D01*
X018408Y021195D01*
X018352Y021193D01*
X018352Y021194D01*
X018408Y021196D01*
X018463Y021202D01*
X018518Y021212D01*
X018573Y021225D01*
X018626Y021242D01*
X018678Y021263D01*
X018728Y021288D01*
X018777Y021316D01*
X018824Y021347D01*
X018868Y021381D01*
X018910Y021419D01*
X018949Y021459D01*
X018985Y021502D01*
X019018Y021547D01*
X019017Y021547D01*
X018984Y021502D01*
X018948Y021459D01*
X018909Y021419D01*
X018867Y021382D01*
X018823Y021348D01*
X018777Y021316D01*
X018728Y021289D01*
X018678Y021264D01*
X018626Y021243D01*
X018573Y021226D01*
X018518Y021213D01*
X018463Y021203D01*
X018407Y021197D01*
X018352Y021195D01*
X018352Y021196D01*
X018407Y021198D01*
X018463Y021204D01*
X018518Y021214D01*
X018572Y021227D01*
X018625Y021244D01*
X018677Y021265D01*
X018728Y021289D01*
X018776Y021317D01*
X018822Y021348D01*
X018867Y021383D01*
X018908Y021420D01*
X018947Y021460D01*
X018983Y021503D01*
X019016Y021548D01*
X019015Y021548D01*
X018982Y021503D01*
X018946Y021461D01*
X018908Y021421D01*
X018866Y021384D01*
X018822Y021349D01*
X018775Y021318D01*
X018727Y021290D01*
X018677Y021266D01*
X018625Y021245D01*
X018572Y021228D01*
X018518Y021214D01*
X018463Y021205D01*
X018407Y021199D01*
X018352Y021197D01*
X018352Y021198D01*
X018407Y021200D01*
X018463Y021206D01*
X018518Y021215D01*
X018572Y021229D01*
X018625Y021246D01*
X018676Y021267D01*
X018727Y021291D01*
X018775Y021319D01*
X018821Y021350D01*
X018865Y021384D01*
X018907Y021421D01*
X018946Y021461D01*
X018982Y021504D01*
X019015Y021549D01*
X019014Y021549D01*
X018981Y021505D01*
X018945Y021462D01*
X018906Y021422D01*
X018865Y021385D01*
X018821Y021351D01*
X018774Y021320D01*
X018726Y021292D01*
X018676Y021268D01*
X018624Y021247D01*
X018571Y021230D01*
X018517Y021216D01*
X018463Y021207D01*
X018407Y021201D01*
X018352Y021199D01*
X018352Y021200D01*
X018407Y021202D01*
X018462Y021208D01*
X018517Y021217D01*
X018571Y021231D01*
X018624Y021248D01*
X018676Y021269D01*
X018726Y021293D01*
X018774Y021321D01*
X018820Y021352D01*
X018864Y021386D01*
X018905Y021423D01*
X018944Y021463D01*
X018980Y021505D01*
X019013Y021550D01*
X019012Y021551D01*
X018979Y021506D01*
X018943Y021463D01*
X018905Y021424D01*
X018863Y021387D01*
X018819Y021353D01*
X018773Y021322D01*
X018725Y021294D01*
X018675Y021270D01*
X018624Y021249D01*
X018571Y021232D01*
X018517Y021218D01*
X018462Y021209D01*
X018407Y021203D01*
X018352Y021201D01*
X018352Y021202D01*
X018407Y021204D01*
X018462Y021210D01*
X018517Y021219D01*
X018571Y021233D01*
X018623Y021250D01*
X018675Y021271D01*
X018725Y021295D01*
X018773Y021322D01*
X018819Y021353D01*
X018863Y021387D01*
X018904Y021424D01*
X018943Y021464D01*
X018979Y021506D01*
X019011Y021551D01*
X019011Y021552D01*
X018978Y021507D01*
X018942Y021465D01*
X018903Y021425D01*
X018862Y021388D01*
X018818Y021354D01*
X018772Y021323D01*
X018724Y021296D01*
X018674Y021271D01*
X018623Y021251D01*
X018570Y021234D01*
X018517Y021220D01*
X018462Y021211D01*
X018407Y021205D01*
X018352Y021203D01*
X018352Y021204D01*
X018407Y021206D01*
X018462Y021212D01*
X018516Y021221D01*
X018570Y021235D01*
X018623Y021252D01*
X018674Y021272D01*
X018724Y021297D01*
X018772Y021324D01*
X018818Y021355D01*
X018861Y021389D01*
X018903Y021426D01*
X018941Y021465D01*
X018977Y021508D01*
X019010Y021552D01*
X019009Y021553D01*
X018976Y021508D01*
X018941Y021466D01*
X018902Y021427D01*
X018861Y021390D01*
X018817Y021356D01*
X018771Y021325D01*
X018723Y021297D01*
X018674Y021273D01*
X018622Y021253D01*
X018570Y021236D01*
X018516Y021222D01*
X018462Y021213D01*
X018407Y021207D01*
X018352Y021205D01*
X018352Y021206D01*
X018407Y021208D01*
X018462Y021214D01*
X018516Y021223D01*
X018570Y021237D01*
X018622Y021254D01*
X018673Y021274D01*
X018723Y021298D01*
X018771Y021326D01*
X018817Y021357D01*
X018860Y021390D01*
X018901Y021427D01*
X018940Y021467D01*
X018975Y021509D01*
X019008Y021553D01*
X019007Y021554D01*
X018975Y021510D01*
X018939Y021467D01*
X018901Y021428D01*
X018860Y021391D01*
X018816Y021357D01*
X018770Y021327D01*
X018722Y021299D01*
X018673Y021275D01*
X018622Y021255D01*
X018569Y021238D01*
X018516Y021224D01*
X018461Y021215D01*
X018407Y021209D01*
X018352Y021207D01*
X018352Y021208D01*
X018407Y021210D01*
X018461Y021216D01*
X018516Y021225D01*
X018569Y021239D01*
X018621Y021256D01*
X018672Y021276D01*
X018722Y021300D01*
X018770Y021328D01*
X018815Y021358D01*
X018859Y021392D01*
X018900Y021429D01*
X018938Y021468D01*
X018974Y021510D01*
X019006Y021555D01*
X018973Y021511D01*
X018938Y021469D01*
X018899Y021429D01*
X018858Y021393D01*
X018815Y021359D01*
X018769Y021328D01*
X018721Y021301D01*
X018672Y021277D01*
X018621Y021256D01*
X018569Y021240D01*
X018515Y021226D01*
X018461Y021217D01*
X018406Y021211D01*
X018352Y021209D01*
X018572Y022460D02*
X018564Y022443D01*
X018565Y022443D02*
X018531Y022458D01*
X018496Y022470D01*
X018461Y022480D01*
X018425Y022486D01*
X018388Y022491D01*
X018351Y022492D01*
X018351Y022510D01*
X018351Y022511D01*
X018390Y022510D01*
X018428Y022505D01*
X018465Y022498D01*
X018502Y022488D01*
X018538Y022476D01*
X018573Y022460D01*
X018572Y022459D01*
X018538Y022475D01*
X018502Y022487D01*
X018465Y022497D01*
X018427Y022504D01*
X018390Y022509D01*
X018351Y022510D01*
X018351Y022509D01*
X018389Y022508D01*
X018427Y022503D01*
X018465Y022496D01*
X018501Y022486D01*
X018537Y022474D01*
X018572Y022458D01*
X018537Y022473D01*
X018501Y022485D01*
X018464Y022495D01*
X018427Y022502D01*
X018389Y022507D01*
X018351Y022508D01*
X018351Y022507D01*
X018389Y022506D01*
X018427Y022501D01*
X018464Y022494D01*
X018501Y022484D01*
X018536Y022472D01*
X018571Y022457D01*
X018571Y022456D01*
X018536Y022471D01*
X018500Y022483D01*
X018464Y022493D01*
X018427Y022500D01*
X018389Y022505D01*
X018351Y022506D01*
X018351Y022505D01*
X018389Y022504D01*
X018427Y022499D01*
X018464Y022492D01*
X018500Y022482D01*
X018536Y022470D01*
X018570Y022455D01*
X018570Y022454D01*
X018535Y022469D01*
X018500Y022481D01*
X018463Y022491D01*
X018427Y022498D01*
X018389Y022503D01*
X018351Y022504D01*
X018351Y022503D01*
X018389Y022502D01*
X018426Y022497D01*
X018463Y022490D01*
X018500Y022481D01*
X018535Y022468D01*
X018569Y022453D01*
X018569Y022452D01*
X018535Y022467D01*
X018499Y022480D01*
X018463Y022489D01*
X018426Y022496D01*
X018389Y022501D01*
X018351Y022502D01*
X018351Y022501D01*
X018389Y022500D01*
X018426Y022495D01*
X018463Y022488D01*
X018499Y022479D01*
X018534Y022466D01*
X018569Y022451D01*
X018568Y022450D01*
X018534Y022465D01*
X018499Y022478D01*
X018463Y022487D01*
X018426Y022494D01*
X018389Y022499D01*
X018351Y022500D01*
X018351Y022499D01*
X018389Y022498D01*
X018426Y022493D01*
X018462Y022486D01*
X018498Y022477D01*
X018533Y022464D01*
X018568Y022449D01*
X018567Y022449D01*
X018533Y022463D01*
X018498Y022476D01*
X018462Y022485D01*
X018426Y022492D01*
X018389Y022497D01*
X018351Y022498D01*
X018351Y022497D01*
X018389Y022496D01*
X018425Y022491D01*
X018462Y022484D01*
X018498Y022475D01*
X018533Y022462D01*
X018567Y022448D01*
X018566Y022447D01*
X018532Y022462D01*
X018497Y022474D01*
X018462Y022483D01*
X018425Y022490D01*
X018389Y022495D01*
X018351Y022496D01*
X018351Y022495D01*
X018388Y022494D01*
X018425Y022489D01*
X018461Y022482D01*
X018497Y022473D01*
X018532Y022461D01*
X018566Y022446D01*
X018565Y022445D01*
X018532Y022460D01*
X018497Y022472D01*
X018461Y022482D01*
X018425Y022488D01*
X018388Y022493D01*
X018351Y022494D01*
X018351Y022493D01*
X018388Y022492D01*
X018425Y022487D01*
X018461Y022481D01*
X018497Y022471D01*
X018531Y022459D01*
X018565Y022444D01*
X018351Y021492D02*
X018351Y021511D01*
X018351Y021510D02*
X018388Y021511D01*
X018425Y021516D01*
X018461Y021522D01*
X018496Y021532D01*
X018531Y021544D01*
X018565Y021559D01*
X018572Y021542D01*
X018573Y021542D01*
X018538Y021526D01*
X018502Y021514D01*
X018465Y021504D01*
X018428Y021497D01*
X018390Y021492D01*
X018351Y021491D01*
X018351Y021492D01*
X018390Y021493D01*
X018427Y021498D01*
X018465Y021505D01*
X018502Y021515D01*
X018538Y021527D01*
X018572Y021543D01*
X018572Y021544D01*
X018537Y021528D01*
X018501Y021516D01*
X018465Y021506D01*
X018427Y021499D01*
X018389Y021494D01*
X018351Y021493D01*
X018351Y021494D01*
X018389Y021495D01*
X018427Y021500D01*
X018464Y021507D01*
X018501Y021517D01*
X018537Y021529D01*
X018572Y021544D01*
X018571Y021545D01*
X018536Y021530D01*
X018501Y021518D01*
X018464Y021508D01*
X018427Y021501D01*
X018389Y021496D01*
X018351Y021495D01*
X018351Y021496D01*
X018389Y021497D01*
X018427Y021502D01*
X018464Y021509D01*
X018500Y021519D01*
X018536Y021531D01*
X018571Y021546D01*
X018570Y021547D01*
X018536Y021532D01*
X018500Y021520D01*
X018464Y021510D01*
X018427Y021503D01*
X018389Y021498D01*
X018351Y021497D01*
X018351Y021498D01*
X018389Y021499D01*
X018427Y021504D01*
X018463Y021511D01*
X018500Y021521D01*
X018535Y021533D01*
X018570Y021548D01*
X018569Y021549D01*
X018535Y021534D01*
X018500Y021521D01*
X018463Y021512D01*
X018426Y021505D01*
X018389Y021500D01*
X018351Y021499D01*
X018351Y021500D01*
X018389Y021501D01*
X018426Y021506D01*
X018463Y021513D01*
X018499Y021522D01*
X018535Y021535D01*
X018569Y021550D01*
X018569Y021551D01*
X018534Y021536D01*
X018499Y021523D01*
X018463Y021514D01*
X018426Y021507D01*
X018389Y021502D01*
X018351Y021501D01*
X018351Y021502D01*
X018389Y021503D01*
X018426Y021508D01*
X018463Y021515D01*
X018499Y021524D01*
X018534Y021537D01*
X018568Y021552D01*
X018568Y021553D01*
X018533Y021538D01*
X018498Y021525D01*
X018462Y021516D01*
X018426Y021509D01*
X018389Y021504D01*
X018351Y021503D01*
X018351Y021504D01*
X018389Y021505D01*
X018426Y021510D01*
X018462Y021517D01*
X018498Y021526D01*
X018533Y021539D01*
X018567Y021553D01*
X018567Y021554D01*
X018533Y021540D01*
X018498Y021527D01*
X018462Y021518D01*
X018425Y021511D01*
X018389Y021506D01*
X018351Y021505D01*
X018351Y021506D01*
X018389Y021507D01*
X018425Y021512D01*
X018462Y021519D01*
X018497Y021528D01*
X018532Y021540D01*
X018566Y021555D01*
X018566Y021556D01*
X018532Y021541D01*
X018497Y021529D01*
X018461Y021520D01*
X018425Y021513D01*
X018388Y021508D01*
X018351Y021507D01*
X018351Y021508D01*
X018388Y021509D01*
X018425Y021514D01*
X018461Y021520D01*
X018497Y021530D01*
X018532Y021542D01*
X018565Y021557D01*
X018565Y021558D01*
X018531Y021543D01*
X018497Y021531D01*
X018461Y021521D01*
X018425Y021515D01*
X018388Y021510D01*
X018351Y021509D01*
X019020Y022457D02*
X019004Y022446D01*
X019005Y022446D02*
X018972Y022491D01*
X018937Y022533D01*
X018898Y022572D01*
X018858Y022609D01*
X018814Y022642D01*
X018769Y022673D01*
X018721Y022700D01*
X018672Y022724D01*
X018621Y022745D01*
X018568Y022762D01*
X018515Y022775D01*
X018461Y022784D01*
X018406Y022790D01*
X018351Y022792D01*
X018351Y022810D01*
X018351Y022811D01*
X018408Y022809D01*
X018464Y022803D01*
X018519Y022793D01*
X018574Y022780D01*
X018627Y022762D01*
X018679Y022742D01*
X018730Y022717D01*
X018779Y022689D01*
X018825Y022658D01*
X018870Y022623D01*
X018912Y022586D01*
X018951Y022545D01*
X018987Y022502D01*
X019020Y022457D01*
X019020Y022456D01*
X018986Y022502D01*
X018950Y022545D01*
X018911Y022585D01*
X018869Y022622D01*
X018825Y022657D01*
X018778Y022688D01*
X018729Y022716D01*
X018679Y022741D01*
X018627Y022762D01*
X018573Y022779D01*
X018519Y022792D01*
X018463Y022802D01*
X018408Y022808D01*
X018351Y022810D01*
X018351Y022809D01*
X018408Y022807D01*
X018463Y022801D01*
X018519Y022791D01*
X018573Y022778D01*
X018626Y022761D01*
X018678Y022740D01*
X018729Y022715D01*
X018778Y022687D01*
X018824Y022656D01*
X018868Y022622D01*
X018910Y022584D01*
X018949Y022544D01*
X018986Y022501D01*
X019019Y022456D01*
X019018Y022455D01*
X018985Y022501D01*
X018949Y022543D01*
X018910Y022583D01*
X018868Y022621D01*
X018824Y022655D01*
X018777Y022686D01*
X018728Y022714D01*
X018678Y022739D01*
X018626Y022760D01*
X018573Y022777D01*
X018518Y022790D01*
X018463Y022800D01*
X018407Y022806D01*
X018351Y022808D01*
X018351Y022807D01*
X018407Y022805D01*
X018463Y022799D01*
X018518Y022789D01*
X018572Y022776D01*
X018626Y022759D01*
X018678Y022738D01*
X018728Y022713D01*
X018776Y022686D01*
X018823Y022654D01*
X018867Y022620D01*
X018909Y022583D01*
X018948Y022543D01*
X018984Y022500D01*
X019017Y022455D01*
X019016Y022454D01*
X018983Y022499D01*
X018947Y022542D01*
X018908Y022582D01*
X018867Y022619D01*
X018822Y022654D01*
X018776Y022685D01*
X018728Y022713D01*
X018677Y022737D01*
X018625Y022758D01*
X018572Y022775D01*
X018518Y022788D01*
X018463Y022798D01*
X018407Y022804D01*
X018351Y022806D01*
X018351Y022805D01*
X018407Y022803D01*
X018463Y022797D01*
X018518Y022788D01*
X018572Y022774D01*
X018625Y022757D01*
X018677Y022736D01*
X018727Y022712D01*
X018775Y022684D01*
X018822Y022653D01*
X018866Y022619D01*
X018907Y022581D01*
X018946Y022541D01*
X018982Y022499D01*
X019015Y022454D01*
X019015Y022453D01*
X018982Y022498D01*
X018946Y022541D01*
X018907Y022581D01*
X018865Y022618D01*
X018821Y022652D01*
X018775Y022683D01*
X018727Y022711D01*
X018676Y022735D01*
X018625Y022756D01*
X018572Y022773D01*
X018518Y022787D01*
X018463Y022796D01*
X018407Y022802D01*
X018351Y022804D01*
X018351Y022803D01*
X018407Y022801D01*
X018463Y022795D01*
X018517Y022786D01*
X018571Y022772D01*
X018624Y022755D01*
X018676Y022734D01*
X018726Y022710D01*
X018774Y022682D01*
X018821Y022651D01*
X018865Y022617D01*
X018906Y022580D01*
X018945Y022540D01*
X018981Y022497D01*
X019014Y022453D01*
X019013Y022452D01*
X018980Y022497D01*
X018944Y022539D01*
X018905Y022579D01*
X018864Y022616D01*
X018820Y022650D01*
X018774Y022681D01*
X018726Y022709D01*
X018676Y022733D01*
X018624Y022754D01*
X018571Y022771D01*
X018517Y022785D01*
X018462Y022794D01*
X018407Y022800D01*
X018351Y022802D01*
X018351Y022801D01*
X018407Y022799D01*
X018462Y022793D01*
X018517Y022784D01*
X018571Y022770D01*
X018624Y022753D01*
X018675Y022732D01*
X018725Y022708D01*
X018773Y022680D01*
X018819Y022649D01*
X018863Y022615D01*
X018905Y022578D01*
X018943Y022539D01*
X018979Y022496D01*
X019012Y022451D01*
X019011Y022451D01*
X018979Y022496D01*
X018943Y022538D01*
X018904Y022578D01*
X018863Y022615D01*
X018819Y022649D01*
X018773Y022680D01*
X018725Y022707D01*
X018675Y022731D01*
X018623Y022752D01*
X018571Y022769D01*
X018517Y022783D01*
X018462Y022792D01*
X018407Y022798D01*
X018351Y022800D01*
X018351Y022799D01*
X018407Y022797D01*
X018462Y022791D01*
X018517Y022782D01*
X018570Y022768D01*
X018623Y022751D01*
X018674Y022731D01*
X018724Y022706D01*
X018772Y022679D01*
X018818Y022648D01*
X018862Y022614D01*
X018903Y022577D01*
X018942Y022537D01*
X018978Y022495D01*
X019011Y022450D01*
X019010Y022450D01*
X018977Y022494D01*
X018941Y022537D01*
X018903Y022576D01*
X018861Y022613D01*
X018818Y022647D01*
X018772Y022678D01*
X018724Y022705D01*
X018674Y022730D01*
X018623Y022750D01*
X018570Y022767D01*
X018516Y022781D01*
X018462Y022790D01*
X018407Y022796D01*
X018351Y022798D01*
X018351Y022797D01*
X018407Y022795D01*
X018462Y022789D01*
X018516Y022780D01*
X018570Y022766D01*
X018622Y022749D01*
X018674Y022729D01*
X018723Y022705D01*
X018771Y022677D01*
X018817Y022646D01*
X018861Y022612D01*
X018902Y022576D01*
X018940Y022536D01*
X018976Y022494D01*
X019009Y022449D01*
X019008Y022449D01*
X018975Y022493D01*
X018940Y022535D01*
X018901Y022575D01*
X018860Y022612D01*
X018817Y022645D01*
X018771Y022676D01*
X018723Y022704D01*
X018673Y022728D01*
X018622Y022748D01*
X018569Y022765D01*
X018516Y022779D01*
X018462Y022788D01*
X018407Y022794D01*
X018351Y022796D01*
X018351Y022795D01*
X018407Y022793D01*
X018461Y022787D01*
X018516Y022778D01*
X018569Y022764D01*
X018622Y022747D01*
X018673Y022727D01*
X018722Y022703D01*
X018770Y022675D01*
X018816Y022645D01*
X018859Y022611D01*
X018901Y022574D01*
X018939Y022535D01*
X018975Y022492D01*
X019007Y022448D01*
X019006Y022447D01*
X018974Y022492D01*
X018938Y022534D01*
X018900Y022573D01*
X018859Y022610D01*
X018815Y022644D01*
X018770Y022674D01*
X018722Y022702D01*
X018672Y022726D01*
X018621Y022747D01*
X018569Y022763D01*
X018515Y022777D01*
X018461Y022786D01*
X018407Y022792D01*
X018351Y022794D01*
X018351Y022793D01*
X018406Y022791D01*
X018461Y022785D01*
X018515Y022776D01*
X018569Y022763D01*
X018621Y022746D01*
X018672Y022725D01*
X018721Y022701D01*
X018769Y022674D01*
X018815Y022643D01*
X018858Y022609D01*
X018899Y022573D01*
X018938Y022533D01*
X018973Y022491D01*
X019006Y022447D01*
X015651Y022810D02*
X015651Y022791D01*
X015650Y022792D02*
X015596Y022790D01*
X015541Y022784D01*
X015487Y022775D01*
X015434Y022762D01*
X015381Y022745D01*
X015330Y022724D01*
X015281Y022700D01*
X015233Y022673D01*
X015188Y022642D01*
X015144Y022609D01*
X015103Y022572D01*
X015065Y022533D01*
X015030Y022491D01*
X014997Y022446D01*
X014982Y022457D01*
X015015Y022502D01*
X015051Y022545D01*
X015090Y022586D01*
X015132Y022623D01*
X015177Y022658D01*
X015223Y022689D01*
X015272Y022717D01*
X015323Y022741D01*
X015375Y022762D01*
X015428Y022780D01*
X015483Y022793D01*
X015538Y022803D01*
X015594Y022809D01*
X015650Y022811D01*
X015650Y022810D01*
X015594Y022808D01*
X015538Y022802D01*
X015483Y022792D01*
X015429Y022779D01*
X015375Y022762D01*
X015323Y022741D01*
X015273Y022716D01*
X015224Y022688D01*
X015177Y022657D01*
X015133Y022622D01*
X015091Y022585D01*
X015052Y022545D01*
X015016Y022502D01*
X014982Y022456D01*
X014983Y022456D01*
X015016Y022501D01*
X015053Y022544D01*
X015092Y022584D01*
X015134Y022622D01*
X015178Y022656D01*
X015224Y022687D01*
X015273Y022715D01*
X015324Y022740D01*
X015376Y022761D01*
X015429Y022778D01*
X015483Y022791D01*
X015539Y022801D01*
X015594Y022807D01*
X015650Y022809D01*
X015650Y022808D01*
X015594Y022806D01*
X015539Y022800D01*
X015484Y022790D01*
X015429Y022777D01*
X015376Y022760D01*
X015324Y022739D01*
X015274Y022714D01*
X015225Y022686D01*
X015178Y022655D01*
X015134Y022621D01*
X015092Y022583D01*
X015053Y022543D01*
X015017Y022501D01*
X014984Y022455D01*
X014985Y022455D01*
X015018Y022500D01*
X015054Y022543D01*
X015093Y022583D01*
X015135Y022620D01*
X015179Y022654D01*
X015225Y022686D01*
X015274Y022713D01*
X015324Y022738D01*
X015376Y022759D01*
X015429Y022776D01*
X015484Y022789D01*
X015539Y022799D01*
X015595Y022805D01*
X015650Y022807D01*
X015650Y022806D01*
X015595Y022804D01*
X015539Y022798D01*
X015484Y022788D01*
X015430Y022775D01*
X015377Y022758D01*
X015325Y022737D01*
X015274Y022713D01*
X015226Y022685D01*
X015180Y022654D01*
X015135Y022619D01*
X015094Y022582D01*
X015055Y022542D01*
X015019Y022499D01*
X014986Y022454D01*
X014987Y022454D01*
X015020Y022499D01*
X015056Y022541D01*
X015094Y022581D01*
X015136Y022618D01*
X015180Y022653D01*
X015227Y022684D01*
X015275Y022712D01*
X015325Y022736D01*
X015377Y022757D01*
X015430Y022774D01*
X015484Y022788D01*
X015539Y022797D01*
X015595Y022803D01*
X015650Y022805D01*
X015650Y022804D01*
X015595Y022802D01*
X015539Y022796D01*
X015484Y022787D01*
X015430Y022773D01*
X015377Y022756D01*
X015326Y022735D01*
X015275Y022711D01*
X015227Y022683D01*
X015181Y022652D01*
X015137Y022618D01*
X015095Y022581D01*
X015056Y022541D01*
X015020Y022498D01*
X014987Y022453D01*
X014988Y022453D01*
X015021Y022497D01*
X015057Y022540D01*
X015096Y022580D01*
X015137Y022617D01*
X015181Y022651D01*
X015228Y022682D01*
X015276Y022710D01*
X015326Y022734D01*
X015378Y022755D01*
X015431Y022772D01*
X015485Y022786D01*
X015539Y022795D01*
X015595Y022801D01*
X015650Y022803D01*
X015650Y022802D01*
X015595Y022800D01*
X015540Y022794D01*
X015485Y022785D01*
X015431Y022771D01*
X015378Y022754D01*
X015326Y022733D01*
X015276Y022709D01*
X015228Y022681D01*
X015182Y022650D01*
X015138Y022616D01*
X015097Y022579D01*
X015058Y022539D01*
X015022Y022497D01*
X014989Y022452D01*
X014990Y022451D01*
X015023Y022496D01*
X015059Y022539D01*
X015097Y022578D01*
X015139Y022615D01*
X015183Y022649D01*
X015229Y022680D01*
X015277Y022708D01*
X015327Y022732D01*
X015378Y022753D01*
X015431Y022770D01*
X015485Y022784D01*
X015540Y022793D01*
X015595Y022799D01*
X015650Y022801D01*
X015650Y022800D01*
X015595Y022798D01*
X015540Y022792D01*
X015485Y022783D01*
X015431Y022769D01*
X015379Y022752D01*
X015327Y022731D01*
X015277Y022707D01*
X015229Y022680D01*
X015183Y022649D01*
X015139Y022615D01*
X015098Y022578D01*
X015059Y022538D01*
X015023Y022496D01*
X014991Y022451D01*
X014991Y022450D01*
X015024Y022495D01*
X015060Y022537D01*
X015099Y022577D01*
X015140Y022614D01*
X015184Y022648D01*
X015230Y022679D01*
X015278Y022706D01*
X015328Y022731D01*
X015379Y022751D01*
X015432Y022768D01*
X015485Y022782D01*
X015540Y022791D01*
X015595Y022797D01*
X015650Y022799D01*
X015650Y022798D01*
X015595Y022796D01*
X015540Y022790D01*
X015486Y022781D01*
X015432Y022767D01*
X015379Y022750D01*
X015328Y022730D01*
X015278Y022705D01*
X015230Y022678D01*
X015184Y022647D01*
X015141Y022613D01*
X015099Y022576D01*
X015061Y022537D01*
X015025Y022494D01*
X014992Y022450D01*
X014993Y022449D01*
X015026Y022494D01*
X015062Y022536D01*
X015100Y022576D01*
X015141Y022612D01*
X015185Y022646D01*
X015231Y022677D01*
X015279Y022705D01*
X015328Y022729D01*
X015380Y022749D01*
X015432Y022766D01*
X015486Y022780D01*
X015540Y022789D01*
X015595Y022795D01*
X015650Y022797D01*
X015650Y022796D01*
X015595Y022794D01*
X015540Y022788D01*
X015486Y022779D01*
X015432Y022765D01*
X015380Y022748D01*
X015329Y022728D01*
X015279Y022704D01*
X015231Y022676D01*
X015185Y022645D01*
X015142Y022612D01*
X015101Y022575D01*
X015062Y022535D01*
X015027Y022493D01*
X014994Y022449D01*
X014995Y022448D01*
X015027Y022492D01*
X015063Y022535D01*
X015101Y022574D01*
X015143Y022611D01*
X015186Y022645D01*
X015232Y022675D01*
X015280Y022703D01*
X015329Y022727D01*
X015380Y022747D01*
X015433Y022764D01*
X015486Y022778D01*
X015541Y022787D01*
X015595Y022793D01*
X015650Y022795D01*
X015650Y022794D01*
X015595Y022792D01*
X015541Y022786D01*
X015486Y022777D01*
X015433Y022763D01*
X015381Y022747D01*
X015330Y022726D01*
X015280Y022702D01*
X015232Y022674D01*
X015187Y022644D01*
X015143Y022610D01*
X015102Y022573D01*
X015064Y022534D01*
X015028Y022492D01*
X014996Y022447D01*
X015029Y022491D01*
X015064Y022533D01*
X015103Y022573D01*
X015144Y022609D01*
X015187Y022643D01*
X015233Y022674D01*
X015281Y022701D01*
X015330Y022725D01*
X015381Y022746D01*
X015433Y022762D01*
X015487Y022776D01*
X015541Y022785D01*
X015596Y022791D01*
X015650Y022793D01*
X015651Y022510D02*
X015651Y022491D01*
X015651Y022492D02*
X015614Y022491D01*
X015577Y022486D01*
X015541Y022480D01*
X015506Y022470D01*
X015471Y022458D01*
X015437Y022443D01*
X015430Y022460D01*
X015429Y022460D01*
X015464Y022476D01*
X015500Y022488D01*
X015537Y022498D01*
X015574Y022505D01*
X015612Y022510D01*
X015651Y022511D01*
X015651Y022510D01*
X015612Y022509D01*
X015575Y022504D01*
X015537Y022497D01*
X015500Y022487D01*
X015464Y022475D01*
X015430Y022459D01*
X015430Y022458D01*
X015465Y022474D01*
X015501Y022486D01*
X015537Y022496D01*
X015575Y022503D01*
X015613Y022508D01*
X015651Y022509D01*
X015651Y022508D01*
X015613Y022507D01*
X015575Y022502D01*
X015538Y022495D01*
X015501Y022485D01*
X015465Y022473D01*
X015430Y022458D01*
X015431Y022457D01*
X015466Y022472D01*
X015501Y022484D01*
X015538Y022494D01*
X015575Y022501D01*
X015613Y022506D01*
X015651Y022507D01*
X015651Y022506D01*
X015613Y022505D01*
X015575Y022500D01*
X015538Y022493D01*
X015502Y022483D01*
X015466Y022471D01*
X015431Y022456D01*
X015432Y022455D01*
X015466Y022470D01*
X015502Y022482D01*
X015538Y022492D01*
X015575Y022499D01*
X015613Y022504D01*
X015651Y022505D01*
X015651Y022504D01*
X015613Y022503D01*
X015575Y022498D01*
X015539Y022491D01*
X015502Y022481D01*
X015467Y022469D01*
X015432Y022454D01*
X015433Y022453D01*
X015467Y022468D01*
X015502Y022481D01*
X015539Y022490D01*
X015576Y022497D01*
X015613Y022502D01*
X015651Y022503D01*
X015651Y022502D01*
X015613Y022501D01*
X015576Y022496D01*
X015539Y022489D01*
X015503Y022480D01*
X015467Y022467D01*
X015433Y022452D01*
X015433Y022451D01*
X015468Y022466D01*
X015503Y022479D01*
X015539Y022488D01*
X015576Y022495D01*
X015613Y022500D01*
X015651Y022501D01*
X015651Y022500D01*
X015613Y022499D01*
X015576Y022494D01*
X015539Y022487D01*
X015503Y022478D01*
X015468Y022465D01*
X015434Y022450D01*
X015434Y022449D01*
X015469Y022464D01*
X015504Y022477D01*
X015540Y022486D01*
X015576Y022493D01*
X015613Y022498D01*
X015651Y022499D01*
X015651Y022498D01*
X015613Y022497D01*
X015576Y022492D01*
X015540Y022485D01*
X015504Y022476D01*
X015469Y022463D01*
X015435Y022449D01*
X015435Y022448D01*
X015469Y022462D01*
X015504Y022475D01*
X015540Y022484D01*
X015577Y022491D01*
X015613Y022496D01*
X015651Y022497D01*
X015651Y022496D01*
X015613Y022495D01*
X015577Y022490D01*
X015540Y022483D01*
X015505Y022474D01*
X015470Y022462D01*
X015436Y022447D01*
X015436Y022446D01*
X015470Y022461D01*
X015505Y022473D01*
X015541Y022482D01*
X015577Y022489D01*
X015614Y022494D01*
X015651Y022495D01*
X015651Y022494D01*
X015614Y022493D01*
X015577Y022488D01*
X015541Y022482D01*
X015505Y022472D01*
X015470Y022460D01*
X015437Y022445D01*
X015437Y022444D01*
X015471Y022459D01*
X015505Y022471D01*
X015541Y022481D01*
X015577Y022487D01*
X015614Y022492D01*
X015651Y022493D01*
X015430Y021542D02*
X015438Y021559D01*
X015437Y021559D02*
X015471Y021544D01*
X015506Y021532D01*
X015541Y021522D01*
X015577Y021516D01*
X015614Y021511D01*
X015651Y021510D01*
X015651Y021492D01*
X015651Y021491D01*
X015612Y021492D01*
X015574Y021497D01*
X015537Y021504D01*
X015500Y021514D01*
X015464Y021526D01*
X015429Y021542D01*
X015430Y021543D01*
X015464Y021527D01*
X015500Y021515D01*
X015537Y021505D01*
X015575Y021498D01*
X015612Y021493D01*
X015651Y021492D01*
X015651Y021493D01*
X015613Y021494D01*
X015575Y021499D01*
X015537Y021506D01*
X015501Y021516D01*
X015465Y021528D01*
X015430Y021544D01*
X015465Y021529D01*
X015501Y021517D01*
X015538Y021507D01*
X015575Y021500D01*
X015613Y021495D01*
X015651Y021494D01*
X015651Y021495D01*
X015613Y021496D01*
X015575Y021501D01*
X015538Y021508D01*
X015501Y021518D01*
X015466Y021530D01*
X015431Y021545D01*
X015431Y021546D01*
X015466Y021531D01*
X015502Y021519D01*
X015538Y021509D01*
X015575Y021502D01*
X015613Y021497D01*
X015651Y021496D01*
X015651Y021497D01*
X015613Y021498D01*
X015575Y021503D01*
X015538Y021510D01*
X015502Y021520D01*
X015466Y021532D01*
X015432Y021547D01*
X015432Y021548D01*
X015467Y021533D01*
X015502Y021521D01*
X015539Y021511D01*
X015575Y021504D01*
X015613Y021499D01*
X015651Y021498D01*
X015651Y021499D01*
X015613Y021500D01*
X015576Y021505D01*
X015539Y021512D01*
X015502Y021521D01*
X015467Y021534D01*
X015433Y021549D01*
X015433Y021550D01*
X015467Y021535D01*
X015503Y021522D01*
X015539Y021513D01*
X015576Y021506D01*
X015613Y021501D01*
X015651Y021500D01*
X015651Y021501D01*
X015613Y021502D01*
X015576Y021507D01*
X015539Y021514D01*
X015503Y021523D01*
X015468Y021536D01*
X015433Y021551D01*
X015434Y021552D01*
X015468Y021537D01*
X015503Y021524D01*
X015539Y021515D01*
X015576Y021508D01*
X015613Y021503D01*
X015651Y021502D01*
X015651Y021503D01*
X015613Y021504D01*
X015576Y021509D01*
X015540Y021516D01*
X015504Y021525D01*
X015469Y021538D01*
X015434Y021553D01*
X015435Y021553D01*
X015469Y021539D01*
X015504Y021526D01*
X015540Y021517D01*
X015576Y021510D01*
X015613Y021505D01*
X015651Y021504D01*
X015651Y021505D01*
X015613Y021506D01*
X015577Y021511D01*
X015540Y021518D01*
X015504Y021527D01*
X015469Y021540D01*
X015435Y021554D01*
X015436Y021555D01*
X015470Y021540D01*
X015505Y021528D01*
X015540Y021519D01*
X015577Y021512D01*
X015613Y021507D01*
X015651Y021506D01*
X015651Y021507D01*
X015614Y021508D01*
X015577Y021513D01*
X015541Y021520D01*
X015505Y021529D01*
X015470Y021541D01*
X015436Y021556D01*
X015437Y021557D01*
X015470Y021542D01*
X015505Y021530D01*
X015541Y021520D01*
X015577Y021514D01*
X015614Y021509D01*
X015651Y021508D01*
X015651Y021509D01*
X015614Y021510D01*
X015577Y021515D01*
X015541Y021521D01*
X015505Y021531D01*
X015471Y021543D01*
X015437Y021558D01*
X014982Y021545D02*
X014998Y021556D01*
X014997Y021556D02*
X015030Y021511D01*
X015065Y021469D01*
X015104Y021430D01*
X015144Y021393D01*
X015188Y021360D01*
X015233Y021329D01*
X015281Y021302D01*
X015330Y021278D01*
X015381Y021257D01*
X015434Y021240D01*
X015487Y021227D01*
X015541Y021218D01*
X015596Y021212D01*
X015651Y021210D01*
X015651Y021192D01*
X015651Y021191D01*
X015594Y021193D01*
X015538Y021199D01*
X015483Y021209D01*
X015428Y021222D01*
X015375Y021240D01*
X015323Y021260D01*
X015272Y021285D01*
X015223Y021313D01*
X015177Y021344D01*
X015132Y021379D01*
X015090Y021416D01*
X015051Y021457D01*
X015015Y021500D01*
X014982Y021545D01*
X014982Y021546D01*
X015016Y021500D01*
X015052Y021457D01*
X015091Y021417D01*
X015133Y021380D01*
X015177Y021345D01*
X015224Y021314D01*
X015273Y021286D01*
X015323Y021261D01*
X015375Y021240D01*
X015429Y021223D01*
X015483Y021210D01*
X015539Y021200D01*
X015594Y021194D01*
X015651Y021192D01*
X015651Y021193D01*
X015594Y021195D01*
X015539Y021201D01*
X015483Y021211D01*
X015429Y021224D01*
X015376Y021241D01*
X015324Y021262D01*
X015273Y021287D01*
X015224Y021315D01*
X015178Y021346D01*
X015134Y021380D01*
X015092Y021418D01*
X015053Y021458D01*
X015016Y021501D01*
X014983Y021546D01*
X014984Y021547D01*
X015017Y021501D01*
X015053Y021459D01*
X015092Y021419D01*
X015134Y021381D01*
X015178Y021347D01*
X015225Y021316D01*
X015274Y021288D01*
X015324Y021263D01*
X015376Y021242D01*
X015429Y021225D01*
X015484Y021212D01*
X015539Y021202D01*
X015595Y021196D01*
X015651Y021194D01*
X015651Y021195D01*
X015595Y021197D01*
X015539Y021203D01*
X015484Y021213D01*
X015430Y021226D01*
X015376Y021243D01*
X015324Y021264D01*
X015274Y021289D01*
X015226Y021316D01*
X015179Y021348D01*
X015135Y021382D01*
X015093Y021419D01*
X015054Y021459D01*
X015018Y021502D01*
X014985Y021547D01*
X014986Y021548D01*
X015019Y021503D01*
X015055Y021460D01*
X015094Y021420D01*
X015135Y021383D01*
X015180Y021348D01*
X015226Y021317D01*
X015274Y021289D01*
X015325Y021265D01*
X015377Y021244D01*
X015430Y021227D01*
X015484Y021214D01*
X015539Y021204D01*
X015595Y021198D01*
X015651Y021196D01*
X015651Y021197D01*
X015595Y021199D01*
X015539Y021205D01*
X015484Y021214D01*
X015430Y021228D01*
X015377Y021245D01*
X015325Y021266D01*
X015275Y021290D01*
X015227Y021318D01*
X015180Y021349D01*
X015136Y021383D01*
X015095Y021421D01*
X015056Y021461D01*
X015020Y021503D01*
X014987Y021548D01*
X014987Y021549D01*
X015020Y021504D01*
X015056Y021461D01*
X015095Y021421D01*
X015137Y021384D01*
X015181Y021350D01*
X015227Y021319D01*
X015275Y021291D01*
X015326Y021267D01*
X015377Y021246D01*
X015430Y021229D01*
X015484Y021215D01*
X015539Y021206D01*
X015595Y021200D01*
X015651Y021198D01*
X015651Y021199D01*
X015595Y021201D01*
X015539Y021207D01*
X015485Y021216D01*
X015431Y021230D01*
X015378Y021247D01*
X015326Y021268D01*
X015276Y021292D01*
X015228Y021320D01*
X015181Y021351D01*
X015137Y021385D01*
X015096Y021422D01*
X015057Y021462D01*
X015021Y021505D01*
X014988Y021549D01*
X014989Y021550D01*
X015022Y021505D01*
X015058Y021463D01*
X015097Y021423D01*
X015138Y021386D01*
X015182Y021352D01*
X015228Y021321D01*
X015276Y021293D01*
X015326Y021269D01*
X015378Y021248D01*
X015431Y021231D01*
X015485Y021217D01*
X015540Y021208D01*
X015595Y021202D01*
X015651Y021200D01*
X015651Y021201D01*
X015595Y021203D01*
X015540Y021209D01*
X015485Y021218D01*
X015431Y021232D01*
X015378Y021249D01*
X015327Y021270D01*
X015277Y021294D01*
X015229Y021322D01*
X015183Y021353D01*
X015139Y021387D01*
X015097Y021424D01*
X015059Y021463D01*
X015023Y021506D01*
X014990Y021551D01*
X014991Y021551D01*
X015023Y021506D01*
X015059Y021464D01*
X015098Y021424D01*
X015139Y021387D01*
X015183Y021353D01*
X015229Y021322D01*
X015277Y021295D01*
X015327Y021271D01*
X015379Y021250D01*
X015431Y021233D01*
X015485Y021219D01*
X015540Y021210D01*
X015595Y021204D01*
X015651Y021202D01*
X015651Y021203D01*
X015595Y021205D01*
X015540Y021211D01*
X015485Y021220D01*
X015432Y021234D01*
X015379Y021251D01*
X015328Y021271D01*
X015278Y021296D01*
X015230Y021323D01*
X015184Y021354D01*
X015140Y021388D01*
X015099Y021425D01*
X015060Y021465D01*
X015024Y021507D01*
X014991Y021552D01*
X014992Y021552D01*
X015025Y021508D01*
X015061Y021465D01*
X015099Y021426D01*
X015141Y021389D01*
X015184Y021355D01*
X015230Y021324D01*
X015278Y021297D01*
X015328Y021272D01*
X015379Y021252D01*
X015432Y021235D01*
X015486Y021221D01*
X015540Y021212D01*
X015595Y021206D01*
X015651Y021204D01*
X015651Y021205D01*
X015595Y021207D01*
X015540Y021213D01*
X015486Y021222D01*
X015432Y021236D01*
X015380Y021253D01*
X015328Y021273D01*
X015279Y021297D01*
X015231Y021325D01*
X015185Y021356D01*
X015141Y021390D01*
X015100Y021426D01*
X015062Y021466D01*
X015026Y021508D01*
X014993Y021553D01*
X014994Y021553D01*
X015027Y021509D01*
X015062Y021467D01*
X015101Y021427D01*
X015142Y021390D01*
X015185Y021357D01*
X015231Y021326D01*
X015279Y021298D01*
X015329Y021274D01*
X015380Y021254D01*
X015433Y021237D01*
X015486Y021223D01*
X015540Y021214D01*
X015595Y021208D01*
X015651Y021206D01*
X015651Y021207D01*
X015595Y021209D01*
X015541Y021215D01*
X015486Y021224D01*
X015433Y021238D01*
X015380Y021255D01*
X015329Y021275D01*
X015280Y021299D01*
X015232Y021327D01*
X015186Y021357D01*
X015143Y021391D01*
X015101Y021428D01*
X015063Y021467D01*
X015027Y021510D01*
X014995Y021554D01*
X014996Y021555D01*
X015028Y021510D01*
X015064Y021468D01*
X015102Y021429D01*
X015143Y021392D01*
X015187Y021358D01*
X015232Y021328D01*
X015280Y021300D01*
X015330Y021276D01*
X015381Y021255D01*
X015433Y021239D01*
X015487Y021225D01*
X015541Y021216D01*
X015595Y021210D01*
X015651Y021208D01*
X015651Y021209D01*
X015596Y021211D01*
X015541Y021217D01*
X015487Y021226D01*
X015433Y021239D01*
X015381Y021256D01*
X015330Y021277D01*
X015281Y021301D01*
X015233Y021328D01*
X015187Y021359D01*
X015144Y021393D01*
X015103Y021429D01*
X015064Y021469D01*
X015029Y021511D01*
X014996Y021555D01*
D12*
X004051Y002101D02*
X004051Y001351D01*
X008151Y001351D01*
X008151Y002101D01*
X007801Y002101D01*
X007801Y002701D01*
X008151Y002701D01*
X008151Y007601D01*
X004051Y007601D01*
X004051Y002701D01*
X004401Y002701D01*
X004401Y002101D01*
X004051Y002101D01*
X005391Y002701D02*
X005393Y002754D01*
X005399Y002807D01*
X005409Y002859D01*
X005423Y002910D01*
X005440Y002960D01*
X005461Y003009D01*
X005486Y003056D01*
X005514Y003101D01*
X005546Y003144D01*
X005581Y003184D01*
X005618Y003221D01*
X005658Y003256D01*
X005701Y003288D01*
X005746Y003316D01*
X005793Y003341D01*
X005842Y003362D01*
X005892Y003379D01*
X005943Y003393D01*
X005995Y003403D01*
X006048Y003409D01*
X006101Y003411D01*
X006154Y003409D01*
X006207Y003403D01*
X006259Y003393D01*
X006310Y003379D01*
X006360Y003362D01*
X006409Y003341D01*
X006456Y003316D01*
X006501Y003288D01*
X006544Y003256D01*
X006584Y003221D01*
X006621Y003184D01*
X006656Y003144D01*
X006688Y003101D01*
X006716Y003056D01*
X006741Y003009D01*
X006762Y002960D01*
X006779Y002910D01*
X006793Y002859D01*
X006803Y002807D01*
X006809Y002754D01*
X006811Y002701D01*
X006809Y002648D01*
X006803Y002595D01*
X006793Y002543D01*
X006779Y002492D01*
X006762Y002442D01*
X006741Y002393D01*
X006716Y002346D01*
X006688Y002301D01*
X006656Y002258D01*
X006621Y002218D01*
X006584Y002181D01*
X006544Y002146D01*
X006501Y002114D01*
X006456Y002086D01*
X006409Y002061D01*
X006360Y002040D01*
X006310Y002023D01*
X006259Y002009D01*
X006207Y001999D01*
X006154Y001993D01*
X006101Y001991D01*
X006048Y001993D01*
X005995Y001999D01*
X005943Y002009D01*
X005892Y002023D01*
X005842Y002040D01*
X005793Y002061D01*
X005746Y002086D01*
X005701Y002114D01*
X005658Y002146D01*
X005618Y002181D01*
X005581Y002218D01*
X005546Y002258D01*
X005514Y002301D01*
X005486Y002346D01*
X005461Y002393D01*
X005440Y002442D01*
X005423Y002492D01*
X005409Y002543D01*
X005399Y002595D01*
X005393Y002648D01*
X005391Y002701D01*
X014851Y021051D02*
X019151Y021051D01*
X019168Y021053D01*
X019185Y021057D01*
X019201Y021064D01*
X019215Y021074D01*
X019228Y021087D01*
X019238Y021101D01*
X019245Y021117D01*
X019249Y021134D01*
X019251Y021151D01*
X019251Y021551D01*
X019251Y022451D02*
X019251Y022851D01*
X019249Y022868D01*
X019245Y022885D01*
X019238Y022901D01*
X019228Y022915D01*
X019215Y022928D01*
X019201Y022938D01*
X019185Y022945D01*
X019168Y022949D01*
X019151Y022951D01*
X014851Y022951D01*
X014834Y022949D01*
X014817Y022945D01*
X014801Y022938D01*
X014787Y022928D01*
X014774Y022915D01*
X014764Y022901D01*
X014757Y022885D01*
X014753Y022868D01*
X014751Y022851D01*
X014751Y022451D01*
X014751Y021551D02*
X014751Y021151D01*
X014753Y021134D01*
X014757Y021117D01*
X014764Y021101D01*
X014774Y021087D01*
X014787Y021074D01*
X014801Y021064D01*
X014817Y021057D01*
X014834Y021053D01*
X014851Y021051D01*
X016751Y021751D02*
X016751Y022001D01*
X016751Y022251D01*
X016901Y022251D02*
X017101Y022251D01*
X017101Y021751D01*
X016901Y021751D01*
X016901Y022251D01*
X017251Y022251D02*
X017251Y022001D01*
X017251Y021751D01*
D13*
X017251Y022001D02*
X017401Y022001D01*
X016751Y022001D02*
X016601Y022001D01*
X015651Y022501D02*
X018351Y022501D01*
X018351Y022801D02*
X015651Y022801D01*
X015651Y021501D02*
X018351Y021501D01*
X018351Y021201D02*
X015651Y021201D01*
X007901Y007351D02*
X004301Y007351D01*
X004301Y004101D01*
X007901Y004101D01*
X007901Y007351D01*
D14*
X006969Y003981D02*
X006852Y003981D01*
X006793Y003923D01*
X006969Y003981D02*
X007027Y003923D01*
X007027Y003864D01*
X006793Y003631D01*
X007027Y003631D01*
X007153Y003631D02*
X007153Y003864D01*
X007211Y003864D01*
X007269Y003806D01*
X007328Y003864D01*
X007386Y003806D01*
X007386Y003631D01*
X007269Y003631D02*
X007269Y003806D01*
X007512Y003864D02*
X007570Y003864D01*
X007628Y003806D01*
X007687Y003864D01*
X007745Y003806D01*
X007745Y003631D01*
X007628Y003631D02*
X007628Y003806D01*
X007512Y003864D02*
X007512Y003631D01*
X006671Y003631D02*
X006554Y003514D01*
X006612Y003631D02*
X006671Y003631D01*
X006671Y003689D01*
X006612Y003689D01*
X006612Y003631D01*
X006428Y003689D02*
X006370Y003631D01*
X006253Y003631D01*
X006195Y003689D01*
X006195Y003806D02*
X006312Y003864D01*
X006370Y003864D01*
X006428Y003806D01*
X006428Y003689D01*
X006195Y003806D02*
X006195Y003981D01*
X006428Y003981D01*
X005953Y003981D02*
X005953Y003631D01*
X006069Y003631D02*
X005836Y003631D01*
X005710Y003631D02*
X005710Y003864D01*
X005594Y003981D01*
X005477Y003864D01*
X005477Y003631D01*
X005477Y003806D02*
X005710Y003806D01*
X005836Y003864D02*
X005953Y003981D01*
D15*
X006101Y007776D03*
X007101Y007776D03*
X005101Y007776D03*
D16*
X010651Y008401D02*
X010651Y009401D01*
X012751Y009401D01*
X012751Y008401D01*
X010651Y008401D01*
X011701Y008651D02*
X011701Y009151D01*
X019601Y009051D02*
X020101Y009051D01*
X020101Y008801D01*
X020101Y009051D02*
X020601Y009051D01*
X020601Y011051D01*
X019601Y011051D01*
X019601Y009051D01*
X021201Y009051D02*
X021701Y009051D01*
X021701Y008801D01*
X021701Y009051D02*
X022201Y009051D01*
X022201Y011051D01*
X021201Y011051D01*
X021201Y009051D01*
X022901Y009051D02*
X023401Y009051D01*
X023401Y008801D01*
X023401Y009051D02*
X023901Y009051D01*
X023901Y011051D01*
X022901Y011051D01*
X022901Y009051D01*
X024701Y009051D02*
X025201Y009051D01*
X025201Y008801D01*
X025201Y009051D02*
X025701Y009051D01*
X025701Y011051D01*
X024701Y011051D01*
X024701Y009051D01*
X024701Y011051D02*
X024701Y011551D01*
X025201Y011551D01*
X025201Y011801D01*
X025201Y011551D02*
X025701Y011551D01*
X025701Y011051D01*
X023901Y011051D02*
X023901Y011551D01*
X023401Y011551D01*
X023401Y011801D01*
X023401Y011551D02*
X022901Y011551D01*
X022901Y011051D01*
X022201Y011051D02*
X022201Y011551D01*
X021701Y011551D01*
X021701Y011801D01*
X021701Y011551D02*
X021201Y011551D01*
X021201Y011051D01*
X020601Y011051D02*
X020601Y011551D01*
X020101Y011551D01*
X020101Y011801D01*
X020101Y011551D02*
X019601Y011551D01*
X019601Y011051D01*
X025501Y015251D02*
X026001Y015251D01*
X026001Y015001D01*
X026001Y015251D02*
X026501Y015251D01*
X026501Y017251D01*
X025501Y017251D01*
X025501Y015251D01*
X027001Y015251D02*
X027501Y015251D01*
X027501Y015001D01*
X027501Y015251D02*
X028001Y015251D01*
X028001Y017251D01*
X027001Y017251D01*
X027001Y015251D01*
X028401Y015251D02*
X028901Y015251D01*
X028901Y015001D01*
X028901Y015251D02*
X029401Y015251D01*
X029401Y017251D01*
X028401Y017251D01*
X028401Y015251D01*
X029901Y015351D02*
X030401Y015351D01*
X030401Y015101D01*
X030401Y015351D02*
X030901Y015351D01*
X030901Y017351D01*
X029901Y017351D01*
X029901Y015351D01*
X030751Y013401D02*
X028751Y013401D01*
X028751Y012401D01*
X030751Y012401D01*
X030751Y012901D01*
X031001Y012901D01*
X030751Y012901D02*
X030751Y013401D01*
X030751Y011901D02*
X028751Y011901D01*
X028751Y010901D01*
X030751Y010901D01*
X030751Y011401D01*
X031001Y011401D01*
X030751Y011401D02*
X030751Y011901D01*
X030751Y010401D02*
X028751Y010401D01*
X028751Y009401D01*
X030751Y009401D01*
X030751Y009901D01*
X031001Y009901D01*
X030751Y009901D02*
X030751Y010401D01*
X030751Y008901D02*
X028751Y008901D01*
X028751Y007901D01*
X030751Y007901D01*
X030751Y008401D01*
X031001Y008401D01*
X030751Y008401D02*
X030751Y008901D01*
X028751Y008901D02*
X028251Y008901D01*
X028251Y008401D01*
X028001Y008401D01*
X028251Y008401D02*
X028251Y007901D01*
X028751Y007901D01*
X028751Y009401D02*
X028251Y009401D01*
X028251Y009901D01*
X028001Y009901D01*
X028251Y009901D02*
X028251Y010401D01*
X028751Y010401D01*
X028751Y010901D02*
X028251Y010901D01*
X028251Y011401D01*
X028001Y011401D01*
X028251Y011401D02*
X028251Y011901D01*
X028751Y011901D01*
X028751Y012401D02*
X028251Y012401D01*
X028251Y012901D01*
X028001Y012901D01*
X028251Y012901D02*
X028251Y013401D01*
X028751Y013401D01*
X028401Y017251D02*
X028401Y017751D01*
X028901Y017751D01*
X028901Y018001D01*
X028901Y017751D02*
X029401Y017751D01*
X029401Y017251D01*
X029901Y017351D02*
X029901Y017851D01*
X030401Y017851D01*
X030401Y018101D01*
X030401Y017851D02*
X030901Y017851D01*
X030901Y017351D01*
X030351Y019801D02*
X029851Y019801D01*
X029851Y020801D01*
X027851Y020801D01*
X027851Y020301D01*
X027601Y020301D01*
X027851Y020301D02*
X027851Y019801D01*
X029851Y019801D01*
X030351Y019801D02*
X030351Y020301D01*
X030601Y020301D01*
X030351Y020301D02*
X030351Y020801D01*
X029851Y020801D01*
X029851Y021001D02*
X029851Y022001D01*
X027851Y022001D01*
X027851Y021501D01*
X027601Y021501D01*
X027851Y021501D02*
X027851Y021001D01*
X029851Y021001D01*
X030351Y021001D01*
X030351Y021501D01*
X030601Y021501D01*
X030351Y021501D02*
X030351Y022001D01*
X029851Y022001D01*
X029851Y022301D02*
X029851Y023301D01*
X027851Y023301D01*
X027851Y022801D01*
X027601Y022801D01*
X027851Y022801D02*
X027851Y022301D01*
X029851Y022301D01*
X030351Y022301D01*
X030351Y022801D01*
X030601Y022801D01*
X030351Y022801D02*
X030351Y023301D01*
X029851Y023301D01*
X029851Y023601D02*
X029851Y024601D01*
X027851Y024601D01*
X027851Y024101D01*
X027601Y024101D01*
X027851Y024101D02*
X027851Y023601D01*
X029851Y023601D01*
X030351Y023601D01*
X030351Y024101D01*
X030601Y024101D01*
X030351Y024101D02*
X030351Y024601D01*
X029851Y024601D01*
X030521Y026091D02*
X030521Y026271D01*
X030521Y026911D02*
X030521Y027111D01*
X033221Y027111D02*
X033221Y026911D01*
X033221Y026271D02*
X033221Y026091D01*
X027501Y018001D02*
X027501Y017751D01*
X027001Y017751D01*
X027001Y017251D01*
X026501Y017251D02*
X026501Y017751D01*
X026001Y017751D01*
X026001Y018001D01*
X026001Y017751D02*
X025501Y017751D01*
X025501Y017251D01*
X027501Y017751D02*
X028001Y017751D01*
X028001Y017251D01*
X023021Y021291D02*
X023021Y021471D01*
X023021Y022111D02*
X023021Y022311D01*
X023021Y023491D02*
X023021Y023671D01*
X023021Y024311D02*
X023021Y024511D01*
X011221Y022311D02*
X011221Y022111D01*
X011221Y021471D02*
X011221Y021291D01*
X011121Y023491D02*
X011121Y023671D01*
X011121Y024311D02*
X011121Y024511D01*
X030121Y006611D02*
X030121Y006411D01*
X030121Y005771D02*
X030121Y005591D01*
X032621Y005491D02*
X032621Y005671D01*
X032621Y006311D02*
X032621Y006511D01*
D17*
X030541Y008226D02*
X030307Y008226D01*
X030424Y008226D02*
X030424Y008576D01*
X030307Y008459D01*
X030173Y008518D02*
X029939Y008284D01*
X029997Y008226D01*
X030114Y008226D01*
X030173Y008284D01*
X030173Y008518D01*
X030114Y008576D01*
X029997Y008576D01*
X029939Y008518D01*
X029939Y008284D01*
X029804Y008284D02*
X029746Y008226D01*
X029629Y008226D01*
X029571Y008284D01*
X029804Y008518D01*
X029804Y008284D01*
X029571Y008284D02*
X029571Y008518D01*
X029629Y008576D01*
X029746Y008576D01*
X029804Y008518D01*
X029436Y008401D02*
X029203Y008401D01*
X029378Y008576D01*
X029378Y008226D01*
X029068Y008226D02*
X029068Y008401D01*
X029009Y008459D01*
X028834Y008459D01*
X028834Y008226D01*
X028699Y008226D02*
X028466Y008226D01*
X028583Y008226D02*
X028583Y008576D01*
X028466Y008459D01*
X028466Y009726D02*
X028699Y009726D01*
X028583Y009726D02*
X028583Y010076D01*
X028466Y009959D01*
X028834Y009959D02*
X029009Y009959D01*
X029068Y009901D01*
X029068Y009726D01*
X029203Y009901D02*
X029378Y010076D01*
X029378Y009726D01*
X029436Y009901D02*
X029203Y009901D01*
X028834Y009959D02*
X028834Y009726D01*
X029571Y009784D02*
X029804Y010018D01*
X029804Y009784D01*
X029746Y009726D01*
X029629Y009726D01*
X029571Y009784D01*
X029571Y010018D01*
X029629Y010076D01*
X029746Y010076D01*
X029804Y010018D01*
X029939Y010018D02*
X029997Y010076D01*
X030114Y010076D01*
X030173Y010018D01*
X029939Y009784D01*
X029997Y009726D01*
X030114Y009726D01*
X030173Y009784D01*
X030173Y010018D01*
X030307Y009959D02*
X030424Y010076D01*
X030424Y009726D01*
X030307Y009726D02*
X030541Y009726D01*
X029939Y009784D02*
X029939Y010018D01*
X029997Y011226D02*
X029939Y011284D01*
X030173Y011518D01*
X030173Y011284D01*
X030114Y011226D01*
X029997Y011226D01*
X029939Y011284D02*
X029939Y011518D01*
X029997Y011576D01*
X030114Y011576D01*
X030173Y011518D01*
X030307Y011459D02*
X030424Y011576D01*
X030424Y011226D01*
X030307Y011226D02*
X030541Y011226D01*
X029804Y011284D02*
X029746Y011226D01*
X029629Y011226D01*
X029571Y011284D01*
X029804Y011518D01*
X029804Y011284D01*
X029571Y011284D02*
X029571Y011518D01*
X029629Y011576D01*
X029746Y011576D01*
X029804Y011518D01*
X029436Y011401D02*
X029203Y011401D01*
X029378Y011576D01*
X029378Y011226D01*
X029068Y011226D02*
X029068Y011401D01*
X029009Y011459D01*
X028834Y011459D01*
X028834Y011226D01*
X028699Y011226D02*
X028466Y011226D01*
X028583Y011226D02*
X028583Y011576D01*
X028466Y011459D01*
X028466Y012726D02*
X028699Y012726D01*
X028583Y012726D02*
X028583Y013076D01*
X028466Y012959D01*
X028834Y012959D02*
X028834Y012726D01*
X028834Y012959D02*
X029009Y012959D01*
X029068Y012901D01*
X029068Y012726D01*
X029203Y012901D02*
X029378Y013076D01*
X029378Y012726D01*
X029436Y012901D02*
X029203Y012901D01*
X029571Y012784D02*
X029571Y013018D01*
X029629Y013076D01*
X029746Y013076D01*
X029804Y013018D01*
X029571Y012784D01*
X029629Y012726D01*
X029746Y012726D01*
X029804Y012784D01*
X029804Y013018D01*
X029939Y013018D02*
X029997Y013076D01*
X030114Y013076D01*
X030173Y013018D01*
X029939Y012784D01*
X029997Y012726D01*
X030114Y012726D01*
X030173Y012784D01*
X030173Y013018D01*
X030307Y012959D02*
X030424Y013076D01*
X030424Y012726D01*
X030307Y012726D02*
X030541Y012726D01*
X029939Y012784D02*
X029939Y013018D01*
X029076Y015376D02*
X029076Y015609D01*
X029076Y015493D02*
X028726Y015493D01*
X028842Y015376D01*
X028842Y015744D02*
X028842Y015919D01*
X028901Y015978D01*
X029076Y015978D01*
X028901Y016112D02*
X028901Y016346D01*
X029017Y016481D02*
X028784Y016714D01*
X029017Y016714D01*
X029076Y016656D01*
X029076Y016539D01*
X029017Y016481D01*
X028784Y016481D01*
X028726Y016539D01*
X028726Y016656D01*
X028784Y016714D01*
X028784Y016849D02*
X028726Y016907D01*
X028726Y017024D01*
X028784Y017083D01*
X029017Y016849D01*
X029076Y016907D01*
X029076Y017024D01*
X029017Y017083D01*
X028784Y017083D01*
X028842Y017217D02*
X028726Y017334D01*
X029076Y017334D01*
X029076Y017217D02*
X029076Y017451D01*
X029017Y016849D02*
X028784Y016849D01*
X028726Y016288D02*
X028901Y016112D01*
X029076Y016288D02*
X028726Y016288D01*
X028842Y015744D02*
X029076Y015744D01*
X030226Y015593D02*
X030576Y015593D01*
X030576Y015709D02*
X030576Y015476D01*
X030342Y015476D02*
X030226Y015593D01*
X030342Y015844D02*
X030342Y016019D01*
X030401Y016078D01*
X030576Y016078D01*
X030401Y016212D02*
X030401Y016446D01*
X030517Y016581D02*
X030284Y016814D01*
X030517Y016814D01*
X030576Y016756D01*
X030576Y016639D01*
X030517Y016581D01*
X030284Y016581D01*
X030226Y016639D01*
X030226Y016756D01*
X030284Y016814D01*
X030284Y016949D02*
X030226Y017007D01*
X030226Y017124D01*
X030284Y017183D01*
X030517Y016949D01*
X030576Y017007D01*
X030576Y017124D01*
X030517Y017183D01*
X030284Y017183D01*
X030342Y017317D02*
X030226Y017434D01*
X030576Y017434D01*
X030576Y017317D02*
X030576Y017551D01*
X030517Y016949D02*
X030284Y016949D01*
X030226Y016388D02*
X030401Y016212D01*
X030576Y016388D02*
X030226Y016388D01*
X030342Y015844D02*
X030576Y015844D01*
X027676Y015744D02*
X027442Y015744D01*
X027442Y015919D01*
X027501Y015978D01*
X027676Y015978D01*
X027501Y016112D02*
X027501Y016346D01*
X027617Y016481D02*
X027384Y016714D01*
X027617Y016714D01*
X027676Y016656D01*
X027676Y016539D01*
X027617Y016481D01*
X027384Y016481D01*
X027326Y016539D01*
X027326Y016656D01*
X027384Y016714D01*
X027384Y016849D02*
X027326Y016907D01*
X027326Y017024D01*
X027384Y017083D01*
X027617Y016849D01*
X027676Y016907D01*
X027676Y017024D01*
X027617Y017083D01*
X027384Y017083D01*
X027442Y017217D02*
X027326Y017334D01*
X027676Y017334D01*
X027676Y017217D02*
X027676Y017451D01*
X027617Y016849D02*
X027384Y016849D01*
X027326Y016288D02*
X027501Y016112D01*
X027676Y016288D02*
X027326Y016288D01*
X027676Y015609D02*
X027676Y015376D01*
X027676Y015493D02*
X027326Y015493D01*
X027442Y015376D01*
X026176Y015376D02*
X026176Y015609D01*
X026176Y015493D02*
X025826Y015493D01*
X025942Y015376D01*
X025942Y015744D02*
X025942Y015919D01*
X026001Y015978D01*
X026176Y015978D01*
X026001Y016112D02*
X026001Y016346D01*
X026117Y016481D02*
X025884Y016714D01*
X026117Y016714D01*
X026176Y016656D01*
X026176Y016539D01*
X026117Y016481D01*
X025884Y016481D01*
X025826Y016539D01*
X025826Y016656D01*
X025884Y016714D01*
X025884Y016849D02*
X025826Y016907D01*
X025826Y017024D01*
X025884Y017083D01*
X026117Y016849D01*
X026176Y016907D01*
X026176Y017024D01*
X026117Y017083D01*
X025884Y017083D01*
X025942Y017217D02*
X025826Y017334D01*
X026176Y017334D01*
X026176Y017217D02*
X026176Y017451D01*
X026117Y016849D02*
X025884Y016849D01*
X025826Y016288D02*
X026001Y016112D01*
X026176Y016288D02*
X025826Y016288D01*
X025942Y015744D02*
X026176Y015744D01*
X025376Y011251D02*
X025376Y011017D01*
X025376Y011134D02*
X025026Y011134D01*
X025142Y011017D01*
X025084Y010883D02*
X025317Y010649D01*
X025376Y010707D01*
X025376Y010824D01*
X025317Y010883D01*
X025084Y010883D01*
X025026Y010824D01*
X025026Y010707D01*
X025084Y010649D01*
X025317Y010649D01*
X025317Y010514D02*
X025376Y010456D01*
X025376Y010339D01*
X025317Y010281D01*
X025084Y010514D01*
X025317Y010514D01*
X025084Y010514D02*
X025026Y010456D01*
X025026Y010339D01*
X025084Y010281D01*
X025317Y010281D01*
X025201Y010146D02*
X025201Y009912D01*
X025026Y010088D01*
X025376Y010088D01*
X025376Y009778D02*
X025201Y009778D01*
X025142Y009719D01*
X025142Y009544D01*
X025376Y009544D01*
X025376Y009409D02*
X025376Y009176D01*
X025376Y009293D02*
X025026Y009293D01*
X025142Y009176D01*
X023576Y009176D02*
X023576Y009409D01*
X023576Y009293D02*
X023226Y009293D01*
X023342Y009176D01*
X023342Y009544D02*
X023342Y009719D01*
X023401Y009778D01*
X023576Y009778D01*
X023401Y009912D02*
X023401Y010146D01*
X023517Y010281D02*
X023284Y010514D01*
X023517Y010514D01*
X023576Y010456D01*
X023576Y010339D01*
X023517Y010281D01*
X023284Y010281D01*
X023226Y010339D01*
X023226Y010456D01*
X023284Y010514D01*
X023284Y010649D02*
X023226Y010707D01*
X023226Y010824D01*
X023284Y010883D01*
X023517Y010649D01*
X023576Y010707D01*
X023576Y010824D01*
X023517Y010883D01*
X023284Y010883D01*
X023342Y011017D02*
X023226Y011134D01*
X023576Y011134D01*
X023576Y011017D02*
X023576Y011251D01*
X023517Y010649D02*
X023284Y010649D01*
X023226Y010088D02*
X023401Y009912D01*
X023576Y010088D02*
X023226Y010088D01*
X023342Y009544D02*
X023576Y009544D01*
X021876Y009544D02*
X021642Y009544D01*
X021642Y009719D01*
X021701Y009778D01*
X021876Y009778D01*
X021701Y009912D02*
X021701Y010146D01*
X021817Y010281D02*
X021584Y010514D01*
X021817Y010514D01*
X021876Y010456D01*
X021876Y010339D01*
X021817Y010281D01*
X021584Y010281D01*
X021526Y010339D01*
X021526Y010456D01*
X021584Y010514D01*
X021584Y010649D02*
X021526Y010707D01*
X021526Y010824D01*
X021584Y010883D01*
X021817Y010649D01*
X021876Y010707D01*
X021876Y010824D01*
X021817Y010883D01*
X021584Y010883D01*
X021642Y011017D02*
X021526Y011134D01*
X021876Y011134D01*
X021876Y011017D02*
X021876Y011251D01*
X021817Y010649D02*
X021584Y010649D01*
X021526Y010088D02*
X021701Y009912D01*
X021876Y010088D02*
X021526Y010088D01*
X021876Y009409D02*
X021876Y009176D01*
X021876Y009293D02*
X021526Y009293D01*
X021642Y009176D01*
X020276Y009176D02*
X020276Y009409D01*
X020276Y009293D02*
X019926Y009293D01*
X020042Y009176D01*
X020042Y009544D02*
X020042Y009719D01*
X020101Y009778D01*
X020276Y009778D01*
X020101Y009912D02*
X020101Y010146D01*
X020217Y010281D02*
X019984Y010281D01*
X019926Y010339D01*
X019926Y010456D01*
X019984Y010514D01*
X020217Y010281D01*
X020276Y010339D01*
X020276Y010456D01*
X020217Y010514D01*
X019984Y010514D01*
X019984Y010649D02*
X019926Y010707D01*
X019926Y010824D01*
X019984Y010883D01*
X020217Y010649D01*
X020276Y010707D01*
X020276Y010824D01*
X020217Y010883D01*
X019984Y010883D01*
X020042Y011017D02*
X019926Y011134D01*
X020276Y011134D01*
X020276Y011017D02*
X020276Y011251D01*
X020217Y010649D02*
X019984Y010649D01*
X019926Y010088D02*
X020101Y009912D01*
X020276Y010088D02*
X019926Y010088D01*
X020042Y009544D02*
X020276Y009544D01*
X027976Y020126D02*
X028209Y020126D01*
X028093Y020126D02*
X028093Y020476D01*
X027976Y020359D01*
X028344Y020359D02*
X028519Y020359D01*
X028578Y020301D01*
X028578Y020126D01*
X028712Y020301D02*
X028946Y020301D01*
X029081Y020418D02*
X029139Y020476D01*
X029256Y020476D01*
X029314Y020418D01*
X029081Y020184D01*
X029139Y020126D01*
X029256Y020126D01*
X029314Y020184D01*
X029314Y020418D01*
X029449Y020418D02*
X029507Y020476D01*
X029624Y020476D01*
X029683Y020418D01*
X029449Y020184D01*
X029507Y020126D01*
X029624Y020126D01*
X029683Y020184D01*
X029683Y020418D01*
X029817Y020359D02*
X029934Y020476D01*
X029934Y020126D01*
X029817Y020126D02*
X030051Y020126D01*
X029449Y020184D02*
X029449Y020418D01*
X029081Y020418D02*
X029081Y020184D01*
X028888Y020126D02*
X028888Y020476D01*
X028712Y020301D01*
X028344Y020359D02*
X028344Y020126D01*
X028344Y021326D02*
X028344Y021559D01*
X028519Y021559D01*
X028578Y021501D01*
X028578Y021326D01*
X028712Y021501D02*
X028946Y021501D01*
X029081Y021384D02*
X029081Y021618D01*
X029139Y021676D01*
X029256Y021676D01*
X029314Y021618D01*
X029081Y021384D01*
X029139Y021326D01*
X029256Y021326D01*
X029314Y021384D01*
X029314Y021618D01*
X029449Y021618D02*
X029507Y021676D01*
X029624Y021676D01*
X029683Y021618D01*
X029449Y021384D01*
X029507Y021326D01*
X029624Y021326D01*
X029683Y021384D01*
X029683Y021618D01*
X029817Y021559D02*
X029934Y021676D01*
X029934Y021326D01*
X029817Y021326D02*
X030051Y021326D01*
X029449Y021384D02*
X029449Y021618D01*
X028888Y021676D02*
X028888Y021326D01*
X028712Y021501D02*
X028888Y021676D01*
X028209Y021326D02*
X027976Y021326D01*
X028093Y021326D02*
X028093Y021676D01*
X027976Y021559D01*
X027976Y022626D02*
X028209Y022626D01*
X028093Y022626D02*
X028093Y022976D01*
X027976Y022859D01*
X028344Y022859D02*
X028519Y022859D01*
X028578Y022801D01*
X028578Y022626D01*
X028712Y022801D02*
X028946Y022801D01*
X029081Y022918D02*
X029139Y022976D01*
X029256Y022976D01*
X029314Y022918D01*
X029081Y022684D01*
X029139Y022626D01*
X029256Y022626D01*
X029314Y022684D01*
X029314Y022918D01*
X029449Y022918D02*
X029507Y022976D01*
X029624Y022976D01*
X029683Y022918D01*
X029449Y022684D01*
X029507Y022626D01*
X029624Y022626D01*
X029683Y022684D01*
X029683Y022918D01*
X029817Y022859D02*
X029934Y022976D01*
X029934Y022626D01*
X029817Y022626D02*
X030051Y022626D01*
X029449Y022684D02*
X029449Y022918D01*
X029081Y022918D02*
X029081Y022684D01*
X028888Y022626D02*
X028888Y022976D01*
X028712Y022801D01*
X028344Y022859D02*
X028344Y022626D01*
X028344Y023926D02*
X028344Y024159D01*
X028519Y024159D01*
X028578Y024101D01*
X028578Y023926D01*
X028712Y024101D02*
X028946Y024101D01*
X029081Y024218D02*
X029139Y024276D01*
X029256Y024276D01*
X029314Y024218D01*
X029081Y023984D01*
X029139Y023926D01*
X029256Y023926D01*
X029314Y023984D01*
X029314Y024218D01*
X029449Y024218D02*
X029507Y024276D01*
X029624Y024276D01*
X029683Y024218D01*
X029449Y023984D01*
X029507Y023926D01*
X029624Y023926D01*
X029683Y023984D01*
X029683Y024218D01*
X029817Y024159D02*
X029934Y024276D01*
X029934Y023926D01*
X029817Y023926D02*
X030051Y023926D01*
X029449Y023984D02*
X029449Y024218D01*
X029081Y024218D02*
X029081Y023984D01*
X028888Y023926D02*
X028888Y024276D01*
X028712Y024101D01*
X028209Y023926D02*
X027976Y023926D01*
X028093Y023926D02*
X028093Y024276D01*
X027976Y024159D01*
D18*
X029170Y026178D02*
X029248Y026223D01*
X029248Y026222D02*
X029276Y026178D01*
X029307Y026136D01*
X029340Y026096D01*
X029376Y026058D01*
X029415Y026023D01*
X029456Y025991D01*
X029500Y025961D01*
X029545Y025935D01*
X029592Y025912D01*
X029640Y025892D01*
X029690Y025876D01*
X029740Y025863D01*
X029792Y025854D01*
X029844Y025848D01*
X029896Y025846D01*
X029897Y025757D01*
X029896Y025756D01*
X029841Y025758D01*
X029787Y025764D01*
X029732Y025773D01*
X029679Y025786D01*
X029627Y025802D01*
X029575Y025821D01*
X029525Y025844D01*
X029477Y025870D01*
X029430Y025899D01*
X029386Y025931D01*
X029343Y025966D01*
X029303Y026004D01*
X029266Y026044D01*
X029231Y026086D01*
X029199Y026131D01*
X029170Y026177D01*
X029178Y026182D01*
X029206Y026136D01*
X029238Y026092D01*
X029273Y026050D01*
X029310Y026010D01*
X029349Y025973D01*
X029391Y025938D01*
X029435Y025907D01*
X029481Y025878D01*
X029529Y025852D01*
X029579Y025830D01*
X029629Y025810D01*
X029681Y025794D01*
X029734Y025782D01*
X029788Y025773D01*
X029842Y025767D01*
X029896Y025765D01*
X029896Y025774D01*
X029842Y025776D01*
X029789Y025782D01*
X029736Y025791D01*
X029684Y025803D01*
X029632Y025819D01*
X029582Y025838D01*
X029533Y025860D01*
X029486Y025886D01*
X029440Y025914D01*
X029397Y025946D01*
X029355Y025980D01*
X029316Y026016D01*
X029279Y026056D01*
X029245Y026097D01*
X029214Y026141D01*
X029185Y026186D01*
X029193Y026191D01*
X029223Y026143D01*
X029257Y026097D01*
X029293Y026054D01*
X029333Y026013D01*
X029375Y025975D01*
X029419Y025940D01*
X029466Y025908D01*
X029515Y025880D01*
X029566Y025855D01*
X029619Y025833D01*
X029672Y025816D01*
X029727Y025802D01*
X029783Y025792D01*
X029839Y025785D01*
X029896Y025783D01*
X029896Y025792D01*
X029840Y025794D01*
X029784Y025800D01*
X029729Y025810D01*
X029675Y025824D01*
X029622Y025842D01*
X029570Y025863D01*
X029519Y025888D01*
X029471Y025916D01*
X029425Y025947D01*
X029380Y025982D01*
X029339Y026019D01*
X029300Y026060D01*
X029264Y026102D01*
X029231Y026148D01*
X029201Y026195D01*
X029209Y026200D01*
X029238Y026153D01*
X029271Y026108D01*
X029307Y026066D01*
X029345Y026026D01*
X029386Y025989D01*
X029430Y025954D01*
X029476Y025923D01*
X029524Y025896D01*
X029573Y025871D01*
X029625Y025850D01*
X029677Y025833D01*
X029731Y025819D01*
X029786Y025809D01*
X029841Y025803D01*
X029896Y025801D01*
X029896Y025810D01*
X029841Y025812D01*
X029787Y025818D01*
X029733Y025828D01*
X029680Y025842D01*
X029628Y025859D01*
X029577Y025879D01*
X029528Y025904D01*
X029481Y025931D01*
X029435Y025962D01*
X029392Y025995D01*
X029351Y026032D01*
X029313Y026072D01*
X029278Y026114D01*
X029246Y026158D01*
X029217Y026204D01*
X029225Y026209D01*
X029253Y026163D01*
X029285Y026119D01*
X029320Y026078D01*
X029358Y026039D01*
X029398Y026002D01*
X029440Y025969D01*
X029485Y025939D01*
X029532Y025911D01*
X029581Y025888D01*
X029631Y025867D01*
X029682Y025850D01*
X029735Y025837D01*
X029788Y025827D01*
X029842Y025821D01*
X029896Y025819D01*
X029896Y025828D01*
X029843Y025830D01*
X029789Y025836D01*
X029737Y025846D01*
X029685Y025859D01*
X029634Y025876D01*
X029584Y025896D01*
X029536Y025919D01*
X029490Y025946D01*
X029446Y025976D01*
X029404Y026009D01*
X029364Y026045D01*
X029327Y026084D01*
X029292Y026125D01*
X029261Y026168D01*
X029232Y026213D01*
X029240Y026218D01*
X029268Y026173D01*
X029299Y026130D01*
X029333Y026090D01*
X029370Y026052D01*
X029409Y026016D01*
X029451Y025984D01*
X029495Y025954D01*
X029541Y025927D01*
X029588Y025904D01*
X029637Y025884D01*
X029687Y025867D01*
X029739Y025854D01*
X029791Y025845D01*
X029843Y025839D01*
X029896Y025837D01*
X029905Y025757D02*
X029905Y025847D01*
X029906Y025846D02*
X029960Y025848D01*
X030013Y025854D01*
X030066Y025864D01*
X030118Y025878D01*
X030169Y025895D01*
X030219Y025916D01*
X030267Y025940D01*
X030313Y025968D01*
X030357Y025999D01*
X030398Y026033D01*
X030438Y026070D01*
X030474Y026109D01*
X030542Y026052D01*
X030543Y026051D01*
X030505Y026010D01*
X030465Y025972D01*
X030422Y025936D01*
X030377Y025903D01*
X030330Y025873D01*
X030282Y025847D01*
X030231Y025823D01*
X030179Y025803D01*
X030126Y025787D01*
X030072Y025773D01*
X030017Y025764D01*
X029962Y025758D01*
X029906Y025756D01*
X029906Y025765D01*
X029961Y025767D01*
X030016Y025773D01*
X030070Y025782D01*
X030124Y025795D01*
X030176Y025812D01*
X030228Y025831D01*
X030278Y025855D01*
X030326Y025881D01*
X030372Y025911D01*
X030417Y025943D01*
X030459Y025978D01*
X030499Y026017D01*
X030536Y026057D01*
X030529Y026063D01*
X030492Y026023D01*
X030453Y025985D01*
X030411Y025950D01*
X030367Y025918D01*
X030321Y025889D01*
X030273Y025863D01*
X030224Y025840D01*
X030173Y025820D01*
X030121Y025804D01*
X030068Y025791D01*
X030015Y025782D01*
X029960Y025776D01*
X029906Y025774D01*
X029906Y025783D01*
X029960Y025785D01*
X030013Y025791D01*
X030066Y025800D01*
X030119Y025813D01*
X030170Y025829D01*
X030221Y025848D01*
X030269Y025871D01*
X030317Y025896D01*
X030362Y025925D01*
X030406Y025957D01*
X030447Y025992D01*
X030486Y026029D01*
X030522Y026069D01*
X030515Y026075D01*
X030479Y026035D01*
X030441Y025998D01*
X030400Y025964D01*
X030357Y025933D01*
X030312Y025904D01*
X030265Y025879D01*
X030217Y025856D01*
X030167Y025837D01*
X030116Y025821D01*
X030065Y025809D01*
X030012Y025800D01*
X029959Y025794D01*
X029906Y025792D01*
X029906Y025801D01*
X029959Y025803D01*
X030011Y025809D01*
X030063Y025818D01*
X030114Y025830D01*
X030164Y025846D01*
X030214Y025865D01*
X030261Y025887D01*
X030308Y025912D01*
X030352Y025940D01*
X030394Y025971D01*
X030435Y026005D01*
X030473Y026042D01*
X030508Y026080D01*
X030502Y026086D01*
X030466Y026048D01*
X030429Y026012D01*
X030389Y025978D01*
X030347Y025948D01*
X030303Y025920D01*
X030257Y025895D01*
X030210Y025873D01*
X030161Y025854D01*
X030112Y025839D01*
X030061Y025826D01*
X030010Y025818D01*
X029958Y025812D01*
X029906Y025810D01*
X029906Y025819D01*
X029962Y025821D01*
X030017Y025828D01*
X030072Y025838D01*
X030126Y025852D01*
X030179Y025870D01*
X030230Y025892D01*
X030280Y025917D01*
X030328Y025946D01*
X030373Y025978D01*
X030416Y026013D01*
X030457Y026051D01*
X030495Y026092D01*
X030488Y026098D01*
X030451Y026057D01*
X030410Y026020D01*
X030368Y025985D01*
X030323Y025953D01*
X030275Y025925D01*
X030226Y025900D01*
X030175Y025878D01*
X030123Y025861D01*
X030070Y025847D01*
X030016Y025837D01*
X029961Y025830D01*
X029906Y025828D01*
X029906Y025837D01*
X029960Y025839D01*
X030015Y025845D01*
X030068Y025855D01*
X030121Y025869D01*
X030172Y025887D01*
X030222Y025908D01*
X030271Y025933D01*
X030318Y025961D01*
X030362Y025992D01*
X030404Y026026D01*
X030444Y026064D01*
X030481Y026104D01*
X029896Y027445D02*
X029896Y027355D01*
X029896Y027356D02*
X029842Y027354D01*
X029789Y027348D01*
X029736Y027338D01*
X029684Y027324D01*
X029633Y027307D01*
X029584Y027286D01*
X029536Y027262D01*
X029490Y027234D01*
X029446Y027203D01*
X029404Y027169D01*
X029365Y027133D01*
X029328Y027093D01*
X029295Y027051D01*
X029264Y027007D01*
X029237Y026961D01*
X029158Y027003D01*
X029186Y027052D01*
X029218Y027098D01*
X029253Y027143D01*
X029290Y027185D01*
X029331Y027224D01*
X029374Y027261D01*
X029419Y027295D01*
X029466Y027326D01*
X029516Y027353D01*
X029567Y027377D01*
X029619Y027398D01*
X029673Y027415D01*
X029728Y027428D01*
X029783Y027438D01*
X029840Y027444D01*
X029896Y027446D01*
X029896Y027437D01*
X029840Y027435D01*
X029785Y027429D01*
X029730Y027419D01*
X029675Y027406D01*
X029622Y027389D01*
X029570Y027369D01*
X029520Y027345D01*
X029471Y027318D01*
X029424Y027288D01*
X029379Y027254D01*
X029337Y027218D01*
X029297Y027179D01*
X029260Y027137D01*
X029225Y027093D01*
X029194Y027047D01*
X029166Y026999D01*
X029174Y026995D01*
X029202Y027042D01*
X029233Y027088D01*
X029267Y027131D01*
X029303Y027173D01*
X029343Y027211D01*
X029385Y027247D01*
X029429Y027280D01*
X029475Y027310D01*
X029524Y027337D01*
X029574Y027360D01*
X029625Y027381D01*
X029678Y027397D01*
X029731Y027410D01*
X029786Y027420D01*
X029841Y027426D01*
X029896Y027428D01*
X029896Y027419D01*
X029841Y027417D01*
X029787Y027411D01*
X029733Y027402D01*
X029680Y027389D01*
X029628Y027372D01*
X029577Y027352D01*
X029528Y027329D01*
X029480Y027302D01*
X029434Y027273D01*
X029390Y027240D01*
X029349Y027205D01*
X029310Y027166D01*
X029273Y027126D01*
X029240Y027083D01*
X029209Y027037D01*
X029182Y026990D01*
X029190Y026986D01*
X029217Y027033D01*
X029247Y027077D01*
X029280Y027120D01*
X029316Y027160D01*
X029355Y027198D01*
X029396Y027233D01*
X029439Y027265D01*
X029485Y027295D01*
X029532Y027321D01*
X029581Y027344D01*
X029631Y027364D01*
X029683Y027380D01*
X029735Y027393D01*
X029788Y027402D01*
X029842Y027408D01*
X029896Y027410D01*
X029896Y027401D01*
X029843Y027399D01*
X029789Y027393D01*
X029737Y027384D01*
X029685Y027371D01*
X029634Y027355D01*
X029584Y027336D01*
X029536Y027313D01*
X029489Y027287D01*
X029445Y027258D01*
X029402Y027226D01*
X029361Y027191D01*
X029323Y027154D01*
X029287Y027114D01*
X029254Y027072D01*
X029224Y027028D01*
X029197Y026982D01*
X029205Y026978D01*
X029232Y027023D01*
X029262Y027067D01*
X029294Y027108D01*
X029329Y027148D01*
X029367Y027185D01*
X029407Y027219D01*
X029450Y027251D01*
X029494Y027279D01*
X029540Y027305D01*
X029588Y027327D01*
X029637Y027347D01*
X029687Y027363D01*
X029739Y027375D01*
X029791Y027384D01*
X029843Y027390D01*
X029896Y027392D01*
X029896Y027383D01*
X029840Y027381D01*
X029785Y027374D01*
X029730Y027364D01*
X029676Y027350D01*
X029624Y027332D01*
X029572Y027311D01*
X029523Y027285D01*
X029475Y027257D01*
X029429Y027225D01*
X029386Y027190D01*
X029346Y027152D01*
X029308Y027111D01*
X029273Y027067D01*
X029242Y027021D01*
X029213Y026973D01*
X029221Y026969D01*
X029249Y027017D01*
X029280Y027062D01*
X029315Y027105D01*
X029352Y027145D01*
X029392Y027183D01*
X029435Y027218D01*
X029480Y027249D01*
X029527Y027278D01*
X029576Y027302D01*
X029627Y027324D01*
X029679Y027341D01*
X029732Y027355D01*
X029786Y027365D01*
X029841Y027372D01*
X029896Y027374D01*
X029896Y027365D01*
X029842Y027363D01*
X029788Y027357D01*
X029734Y027347D01*
X029682Y027333D01*
X029630Y027315D01*
X029580Y027294D01*
X029531Y027270D01*
X029485Y027242D01*
X029440Y027210D01*
X029398Y027176D01*
X029359Y027139D01*
X029322Y027099D01*
X029288Y027057D01*
X029257Y027012D01*
X029229Y026965D01*
X030546Y027145D02*
X030477Y027088D01*
X030478Y027088D02*
X030441Y027128D01*
X030402Y027166D01*
X030360Y027200D01*
X030316Y027232D01*
X030270Y027260D01*
X030221Y027285D01*
X030171Y027306D01*
X030120Y027324D01*
X030067Y027337D01*
X030014Y027347D01*
X029960Y027354D01*
X029906Y027356D01*
X029905Y027445D01*
X029906Y027446D01*
X029962Y027444D01*
X030018Y027438D01*
X030073Y027428D01*
X030128Y027415D01*
X030181Y027398D01*
X030234Y027378D01*
X030285Y027354D01*
X030334Y027327D01*
X030381Y027296D01*
X030426Y027263D01*
X030469Y027227D01*
X030509Y027188D01*
X030547Y027146D01*
X030540Y027140D01*
X030503Y027181D01*
X030463Y027220D01*
X030421Y027256D01*
X030376Y027289D01*
X030329Y027319D01*
X030281Y027346D01*
X030230Y027369D01*
X030178Y027390D01*
X030125Y027406D01*
X030071Y027419D01*
X030017Y027429D01*
X029962Y027435D01*
X029906Y027437D01*
X029906Y027428D01*
X029961Y027426D01*
X030016Y027420D01*
X030070Y027411D01*
X030123Y027398D01*
X030175Y027381D01*
X030227Y027361D01*
X030276Y027338D01*
X030325Y027311D01*
X030371Y027282D01*
X030415Y027249D01*
X030457Y027213D01*
X030496Y027175D01*
X030533Y027134D01*
X030526Y027129D01*
X030490Y027169D01*
X030451Y027207D01*
X030409Y027242D01*
X030366Y027274D01*
X030320Y027304D01*
X030272Y027330D01*
X030223Y027353D01*
X030173Y027373D01*
X030121Y027389D01*
X030068Y027402D01*
X030014Y027411D01*
X029960Y027417D01*
X029906Y027419D01*
X029906Y027410D01*
X029960Y027408D01*
X030013Y027402D01*
X030066Y027393D01*
X030118Y027380D01*
X030170Y027364D01*
X030220Y027345D01*
X030268Y027322D01*
X030315Y027296D01*
X030361Y027267D01*
X030404Y027235D01*
X030445Y027200D01*
X030483Y027163D01*
X030519Y027123D01*
X030512Y027117D01*
X030477Y027156D01*
X030439Y027193D01*
X030398Y027228D01*
X030355Y027259D01*
X030311Y027288D01*
X030264Y027314D01*
X030216Y027336D01*
X030167Y027356D01*
X030116Y027372D01*
X030064Y027384D01*
X030012Y027393D01*
X029959Y027399D01*
X029906Y027401D01*
X029906Y027392D01*
X029958Y027390D01*
X030011Y027384D01*
X030062Y027375D01*
X030113Y027363D01*
X030164Y027347D01*
X030213Y027328D01*
X030260Y027306D01*
X030306Y027280D01*
X030350Y027252D01*
X030392Y027221D01*
X030433Y027187D01*
X030470Y027150D01*
X030505Y027111D01*
X030499Y027105D01*
X030464Y027144D01*
X030426Y027180D01*
X030387Y027214D01*
X030345Y027245D01*
X030301Y027273D01*
X030256Y027298D01*
X030209Y027320D01*
X030161Y027339D01*
X030111Y027354D01*
X030061Y027367D01*
X030010Y027375D01*
X029958Y027381D01*
X029906Y027383D01*
X029906Y027374D01*
X029957Y027372D01*
X030008Y027367D01*
X030059Y027358D01*
X030109Y027346D01*
X030158Y027330D01*
X030205Y027312D01*
X030252Y027290D01*
X030297Y027265D01*
X030340Y027237D01*
X030381Y027207D01*
X030420Y027174D01*
X030457Y027138D01*
X030492Y027100D01*
X030485Y027094D01*
X030448Y027135D01*
X030408Y027173D01*
X030366Y027207D01*
X030321Y027239D01*
X030274Y027268D01*
X030225Y027293D01*
X030174Y027314D01*
X030123Y027332D01*
X030069Y027346D01*
X030015Y027356D01*
X029961Y027363D01*
X029906Y027365D01*
X031870Y026178D02*
X031948Y026223D01*
X031948Y026222D02*
X031976Y026178D01*
X032007Y026136D01*
X032040Y026096D01*
X032076Y026058D01*
X032115Y026023D01*
X032156Y025991D01*
X032200Y025961D01*
X032245Y025935D01*
X032292Y025912D01*
X032340Y025892D01*
X032390Y025876D01*
X032440Y025863D01*
X032492Y025854D01*
X032544Y025848D01*
X032596Y025846D01*
X032597Y025757D01*
X032596Y025756D01*
X032541Y025758D01*
X032487Y025764D01*
X032432Y025773D01*
X032379Y025786D01*
X032327Y025802D01*
X032275Y025821D01*
X032225Y025844D01*
X032177Y025870D01*
X032130Y025899D01*
X032086Y025931D01*
X032043Y025966D01*
X032003Y026004D01*
X031966Y026044D01*
X031931Y026086D01*
X031899Y026131D01*
X031870Y026177D01*
X031878Y026182D01*
X031906Y026136D01*
X031938Y026092D01*
X031973Y026050D01*
X032010Y026010D01*
X032049Y025973D01*
X032091Y025938D01*
X032135Y025907D01*
X032181Y025878D01*
X032229Y025852D01*
X032279Y025830D01*
X032329Y025810D01*
X032381Y025794D01*
X032434Y025782D01*
X032488Y025773D01*
X032542Y025767D01*
X032596Y025765D01*
X032596Y025774D01*
X032542Y025776D01*
X032489Y025782D01*
X032436Y025791D01*
X032384Y025803D01*
X032332Y025819D01*
X032282Y025838D01*
X032233Y025860D01*
X032186Y025886D01*
X032140Y025914D01*
X032097Y025946D01*
X032055Y025980D01*
X032016Y026016D01*
X031979Y026056D01*
X031945Y026097D01*
X031914Y026141D01*
X031885Y026186D01*
X031893Y026191D01*
X031923Y026143D01*
X031957Y026097D01*
X031993Y026054D01*
X032033Y026013D01*
X032075Y025975D01*
X032119Y025940D01*
X032166Y025908D01*
X032215Y025880D01*
X032266Y025855D01*
X032319Y025833D01*
X032372Y025816D01*
X032427Y025802D01*
X032483Y025792D01*
X032539Y025785D01*
X032596Y025783D01*
X032596Y025792D01*
X032540Y025794D01*
X032484Y025800D01*
X032429Y025810D01*
X032375Y025824D01*
X032322Y025842D01*
X032270Y025863D01*
X032219Y025888D01*
X032171Y025916D01*
X032125Y025947D01*
X032080Y025982D01*
X032039Y026019D01*
X032000Y026060D01*
X031964Y026102D01*
X031931Y026148D01*
X031901Y026195D01*
X031909Y026200D01*
X031938Y026153D01*
X031971Y026108D01*
X032007Y026066D01*
X032045Y026026D01*
X032086Y025989D01*
X032130Y025954D01*
X032176Y025923D01*
X032224Y025896D01*
X032273Y025871D01*
X032325Y025850D01*
X032377Y025833D01*
X032431Y025819D01*
X032486Y025809D01*
X032541Y025803D01*
X032596Y025801D01*
X032596Y025810D01*
X032541Y025812D01*
X032487Y025818D01*
X032433Y025828D01*
X032380Y025842D01*
X032328Y025859D01*
X032277Y025879D01*
X032228Y025904D01*
X032181Y025931D01*
X032135Y025962D01*
X032092Y025995D01*
X032051Y026032D01*
X032013Y026072D01*
X031978Y026114D01*
X031946Y026158D01*
X031917Y026204D01*
X031925Y026209D01*
X031953Y026163D01*
X031985Y026119D01*
X032020Y026078D01*
X032058Y026039D01*
X032098Y026002D01*
X032140Y025969D01*
X032185Y025939D01*
X032232Y025911D01*
X032281Y025888D01*
X032331Y025867D01*
X032382Y025850D01*
X032435Y025837D01*
X032488Y025827D01*
X032542Y025821D01*
X032596Y025819D01*
X032596Y025828D01*
X032543Y025830D01*
X032489Y025836D01*
X032437Y025846D01*
X032385Y025859D01*
X032334Y025876D01*
X032284Y025896D01*
X032236Y025919D01*
X032190Y025946D01*
X032146Y025976D01*
X032104Y026009D01*
X032064Y026045D01*
X032027Y026084D01*
X031992Y026125D01*
X031961Y026168D01*
X031932Y026213D01*
X031940Y026218D01*
X031968Y026173D01*
X031999Y026130D01*
X032033Y026090D01*
X032070Y026052D01*
X032109Y026016D01*
X032151Y025984D01*
X032195Y025954D01*
X032241Y025927D01*
X032288Y025904D01*
X032337Y025884D01*
X032387Y025867D01*
X032439Y025854D01*
X032491Y025845D01*
X032543Y025839D01*
X032596Y025837D01*
X032605Y025757D02*
X032605Y025847D01*
X032606Y025846D02*
X032660Y025848D01*
X032713Y025854D01*
X032766Y025864D01*
X032818Y025878D01*
X032869Y025895D01*
X032919Y025916D01*
X032967Y025940D01*
X033013Y025968D01*
X033057Y025999D01*
X033098Y026033D01*
X033138Y026070D01*
X033174Y026109D01*
X033242Y026052D01*
X033243Y026051D01*
X033205Y026010D01*
X033165Y025972D01*
X033122Y025936D01*
X033077Y025903D01*
X033030Y025873D01*
X032982Y025847D01*
X032931Y025823D01*
X032879Y025803D01*
X032826Y025787D01*
X032772Y025773D01*
X032717Y025764D01*
X032662Y025758D01*
X032606Y025756D01*
X032606Y025765D01*
X032661Y025767D01*
X032716Y025773D01*
X032770Y025782D01*
X032824Y025795D01*
X032876Y025812D01*
X032928Y025831D01*
X032978Y025855D01*
X033026Y025881D01*
X033072Y025911D01*
X033117Y025943D01*
X033159Y025978D01*
X033199Y026017D01*
X033236Y026057D01*
X033229Y026063D01*
X033192Y026023D01*
X033153Y025985D01*
X033111Y025950D01*
X033067Y025918D01*
X033021Y025889D01*
X032973Y025863D01*
X032924Y025840D01*
X032873Y025820D01*
X032821Y025804D01*
X032768Y025791D01*
X032715Y025782D01*
X032660Y025776D01*
X032606Y025774D01*
X032606Y025783D01*
X032660Y025785D01*
X032713Y025791D01*
X032766Y025800D01*
X032819Y025813D01*
X032870Y025829D01*
X032921Y025848D01*
X032969Y025871D01*
X033017Y025896D01*
X033062Y025925D01*
X033106Y025957D01*
X033147Y025992D01*
X033186Y026029D01*
X033222Y026069D01*
X033215Y026075D01*
X033179Y026035D01*
X033141Y025998D01*
X033100Y025964D01*
X033057Y025933D01*
X033012Y025904D01*
X032965Y025879D01*
X032917Y025856D01*
X032867Y025837D01*
X032816Y025821D01*
X032765Y025809D01*
X032712Y025800D01*
X032659Y025794D01*
X032606Y025792D01*
X032606Y025801D01*
X032659Y025803D01*
X032711Y025809D01*
X032763Y025818D01*
X032814Y025830D01*
X032864Y025846D01*
X032914Y025865D01*
X032961Y025887D01*
X033008Y025912D01*
X033052Y025940D01*
X033094Y025971D01*
X033135Y026005D01*
X033173Y026042D01*
X033208Y026080D01*
X033202Y026086D01*
X033166Y026048D01*
X033129Y026012D01*
X033089Y025978D01*
X033047Y025948D01*
X033003Y025920D01*
X032957Y025895D01*
X032910Y025873D01*
X032861Y025854D01*
X032812Y025839D01*
X032761Y025826D01*
X032710Y025818D01*
X032658Y025812D01*
X032606Y025810D01*
X032606Y025819D01*
X032662Y025821D01*
X032717Y025828D01*
X032772Y025838D01*
X032826Y025852D01*
X032879Y025870D01*
X032930Y025892D01*
X032980Y025917D01*
X033028Y025946D01*
X033073Y025978D01*
X033116Y026013D01*
X033157Y026051D01*
X033195Y026092D01*
X033188Y026098D01*
X033151Y026057D01*
X033110Y026020D01*
X033068Y025985D01*
X033023Y025953D01*
X032975Y025925D01*
X032926Y025900D01*
X032875Y025878D01*
X032823Y025861D01*
X032770Y025847D01*
X032716Y025837D01*
X032661Y025830D01*
X032606Y025828D01*
X032606Y025837D01*
X032660Y025839D01*
X032715Y025845D01*
X032768Y025855D01*
X032821Y025869D01*
X032872Y025887D01*
X032922Y025908D01*
X032971Y025933D01*
X033018Y025961D01*
X033062Y025992D01*
X033104Y026026D01*
X033144Y026064D01*
X033181Y026104D01*
X032596Y027445D02*
X032596Y027355D01*
X032596Y027356D02*
X032542Y027354D01*
X032489Y027348D01*
X032436Y027338D01*
X032384Y027324D01*
X032333Y027307D01*
X032284Y027286D01*
X032236Y027262D01*
X032190Y027234D01*
X032146Y027203D01*
X032104Y027169D01*
X032065Y027133D01*
X032028Y027093D01*
X031995Y027051D01*
X031964Y027007D01*
X031937Y026961D01*
X031858Y027003D01*
X031886Y027052D01*
X031918Y027098D01*
X031953Y027143D01*
X031990Y027185D01*
X032031Y027224D01*
X032074Y027261D01*
X032119Y027295D01*
X032166Y027326D01*
X032216Y027353D01*
X032267Y027377D01*
X032319Y027398D01*
X032373Y027415D01*
X032428Y027428D01*
X032483Y027438D01*
X032540Y027444D01*
X032596Y027446D01*
X032596Y027437D01*
X032540Y027435D01*
X032485Y027429D01*
X032430Y027419D01*
X032375Y027406D01*
X032322Y027389D01*
X032270Y027369D01*
X032220Y027345D01*
X032171Y027318D01*
X032124Y027288D01*
X032079Y027254D01*
X032037Y027218D01*
X031997Y027179D01*
X031960Y027137D01*
X031925Y027093D01*
X031894Y027047D01*
X031866Y026999D01*
X031874Y026995D01*
X031902Y027042D01*
X031933Y027088D01*
X031967Y027131D01*
X032003Y027173D01*
X032043Y027211D01*
X032085Y027247D01*
X032129Y027280D01*
X032175Y027310D01*
X032224Y027337D01*
X032274Y027360D01*
X032325Y027381D01*
X032378Y027397D01*
X032431Y027410D01*
X032486Y027420D01*
X032541Y027426D01*
X032596Y027428D01*
X032596Y027419D01*
X032541Y027417D01*
X032487Y027411D01*
X032433Y027402D01*
X032380Y027389D01*
X032328Y027372D01*
X032277Y027352D01*
X032228Y027329D01*
X032180Y027302D01*
X032134Y027273D01*
X032090Y027240D01*
X032049Y027205D01*
X032010Y027166D01*
X031973Y027126D01*
X031940Y027083D01*
X031909Y027037D01*
X031882Y026990D01*
X031890Y026986D01*
X031917Y027033D01*
X031947Y027077D01*
X031980Y027120D01*
X032016Y027160D01*
X032055Y027198D01*
X032096Y027233D01*
X032139Y027265D01*
X032185Y027295D01*
X032232Y027321D01*
X032281Y027344D01*
X032331Y027364D01*
X032383Y027380D01*
X032435Y027393D01*
X032488Y027402D01*
X032542Y027408D01*
X032596Y027410D01*
X032596Y027401D01*
X032543Y027399D01*
X032489Y027393D01*
X032437Y027384D01*
X032385Y027371D01*
X032334Y027355D01*
X032284Y027336D01*
X032236Y027313D01*
X032189Y027287D01*
X032145Y027258D01*
X032102Y027226D01*
X032061Y027191D01*
X032023Y027154D01*
X031987Y027114D01*
X031954Y027072D01*
X031924Y027028D01*
X031897Y026982D01*
X031905Y026978D01*
X031932Y027023D01*
X031962Y027067D01*
X031994Y027108D01*
X032029Y027148D01*
X032067Y027185D01*
X032107Y027219D01*
X032150Y027251D01*
X032194Y027279D01*
X032240Y027305D01*
X032288Y027327D01*
X032337Y027347D01*
X032387Y027363D01*
X032439Y027375D01*
X032491Y027384D01*
X032543Y027390D01*
X032596Y027392D01*
X032596Y027383D01*
X032540Y027381D01*
X032485Y027374D01*
X032430Y027364D01*
X032376Y027350D01*
X032324Y027332D01*
X032272Y027311D01*
X032223Y027285D01*
X032175Y027257D01*
X032129Y027225D01*
X032086Y027190D01*
X032046Y027152D01*
X032008Y027111D01*
X031973Y027067D01*
X031942Y027021D01*
X031913Y026973D01*
X031921Y026969D01*
X031949Y027017D01*
X031980Y027062D01*
X032015Y027105D01*
X032052Y027145D01*
X032092Y027183D01*
X032135Y027218D01*
X032180Y027249D01*
X032227Y027278D01*
X032276Y027302D01*
X032327Y027324D01*
X032379Y027341D01*
X032432Y027355D01*
X032486Y027365D01*
X032541Y027372D01*
X032596Y027374D01*
X032596Y027365D01*
X032542Y027363D01*
X032488Y027357D01*
X032434Y027347D01*
X032382Y027333D01*
X032330Y027315D01*
X032280Y027294D01*
X032231Y027270D01*
X032185Y027242D01*
X032140Y027210D01*
X032098Y027176D01*
X032059Y027139D01*
X032022Y027099D01*
X031988Y027057D01*
X031957Y027012D01*
X031929Y026965D01*
X033246Y027145D02*
X033177Y027088D01*
X033178Y027088D02*
X033141Y027128D01*
X033102Y027166D01*
X033060Y027200D01*
X033016Y027232D01*
X032970Y027260D01*
X032921Y027285D01*
X032871Y027306D01*
X032820Y027324D01*
X032767Y027337D01*
X032714Y027347D01*
X032660Y027354D01*
X032606Y027356D01*
X032605Y027445D01*
X032606Y027446D01*
X032662Y027444D01*
X032718Y027438D01*
X032773Y027428D01*
X032828Y027415D01*
X032881Y027398D01*
X032934Y027378D01*
X032985Y027354D01*
X033034Y027327D01*
X033081Y027296D01*
X033126Y027263D01*
X033169Y027227D01*
X033209Y027188D01*
X033247Y027146D01*
X033240Y027140D01*
X033203Y027181D01*
X033163Y027220D01*
X033121Y027256D01*
X033076Y027289D01*
X033029Y027319D01*
X032981Y027346D01*
X032930Y027369D01*
X032878Y027390D01*
X032825Y027406D01*
X032771Y027419D01*
X032717Y027429D01*
X032662Y027435D01*
X032606Y027437D01*
X032606Y027428D01*
X032661Y027426D01*
X032716Y027420D01*
X032770Y027411D01*
X032823Y027398D01*
X032875Y027381D01*
X032927Y027361D01*
X032976Y027338D01*
X033025Y027311D01*
X033071Y027282D01*
X033115Y027249D01*
X033157Y027213D01*
X033196Y027175D01*
X033233Y027134D01*
X033226Y027129D01*
X033190Y027169D01*
X033151Y027207D01*
X033109Y027242D01*
X033066Y027274D01*
X033020Y027304D01*
X032972Y027330D01*
X032923Y027353D01*
X032873Y027373D01*
X032821Y027389D01*
X032768Y027402D01*
X032714Y027411D01*
X032660Y027417D01*
X032606Y027419D01*
X032606Y027410D01*
X032660Y027408D01*
X032713Y027402D01*
X032766Y027393D01*
X032818Y027380D01*
X032870Y027364D01*
X032920Y027345D01*
X032968Y027322D01*
X033015Y027296D01*
X033061Y027267D01*
X033104Y027235D01*
X033145Y027200D01*
X033183Y027163D01*
X033219Y027123D01*
X033212Y027117D01*
X033177Y027156D01*
X033139Y027193D01*
X033098Y027228D01*
X033055Y027259D01*
X033011Y027288D01*
X032964Y027314D01*
X032916Y027336D01*
X032867Y027356D01*
X032816Y027372D01*
X032764Y027384D01*
X032712Y027393D01*
X032659Y027399D01*
X032606Y027401D01*
X032606Y027392D01*
X032658Y027390D01*
X032711Y027384D01*
X032762Y027375D01*
X032813Y027363D01*
X032864Y027347D01*
X032913Y027328D01*
X032960Y027306D01*
X033006Y027280D01*
X033050Y027252D01*
X033092Y027221D01*
X033133Y027187D01*
X033170Y027150D01*
X033205Y027111D01*
X033199Y027105D01*
X033164Y027144D01*
X033126Y027180D01*
X033087Y027214D01*
X033045Y027245D01*
X033001Y027273D01*
X032956Y027298D01*
X032909Y027320D01*
X032861Y027339D01*
X032811Y027354D01*
X032761Y027367D01*
X032710Y027375D01*
X032658Y027381D01*
X032606Y027383D01*
X032606Y027374D01*
X032657Y027372D01*
X032708Y027367D01*
X032759Y027358D01*
X032809Y027346D01*
X032858Y027330D01*
X032905Y027312D01*
X032952Y027290D01*
X032997Y027265D01*
X033040Y027237D01*
X033081Y027207D01*
X033120Y027174D01*
X033157Y027138D01*
X033192Y027100D01*
X033185Y027094D01*
X033148Y027135D01*
X033108Y027173D01*
X033066Y027207D01*
X033021Y027239D01*
X032974Y027268D01*
X032925Y027293D01*
X032874Y027314D01*
X032823Y027332D01*
X032769Y027346D01*
X032715Y027356D01*
X032661Y027363D01*
X032606Y027365D01*
X022396Y024845D02*
X022396Y024755D01*
X022396Y024756D02*
X022342Y024754D01*
X022289Y024748D01*
X022236Y024738D01*
X022184Y024724D01*
X022133Y024707D01*
X022084Y024686D01*
X022036Y024662D01*
X021990Y024634D01*
X021946Y024603D01*
X021904Y024569D01*
X021865Y024533D01*
X021828Y024493D01*
X021795Y024451D01*
X021764Y024407D01*
X021737Y024361D01*
X021658Y024403D01*
X021686Y024452D01*
X021718Y024498D01*
X021753Y024543D01*
X021790Y024585D01*
X021831Y024624D01*
X021874Y024661D01*
X021919Y024695D01*
X021966Y024726D01*
X022016Y024753D01*
X022067Y024777D01*
X022119Y024798D01*
X022173Y024815D01*
X022228Y024828D01*
X022283Y024838D01*
X022340Y024844D01*
X022396Y024846D01*
X022396Y024837D01*
X022340Y024835D01*
X022285Y024829D01*
X022230Y024819D01*
X022175Y024806D01*
X022122Y024789D01*
X022070Y024769D01*
X022020Y024745D01*
X021971Y024718D01*
X021924Y024688D01*
X021879Y024654D01*
X021837Y024618D01*
X021797Y024579D01*
X021760Y024537D01*
X021725Y024493D01*
X021694Y024447D01*
X021666Y024399D01*
X021674Y024395D01*
X021702Y024442D01*
X021733Y024488D01*
X021767Y024531D01*
X021803Y024573D01*
X021843Y024611D01*
X021885Y024647D01*
X021929Y024680D01*
X021975Y024710D01*
X022024Y024737D01*
X022074Y024760D01*
X022125Y024781D01*
X022178Y024797D01*
X022231Y024810D01*
X022286Y024820D01*
X022341Y024826D01*
X022396Y024828D01*
X022396Y024819D01*
X022341Y024817D01*
X022287Y024811D01*
X022233Y024802D01*
X022180Y024789D01*
X022128Y024772D01*
X022077Y024752D01*
X022028Y024729D01*
X021980Y024702D01*
X021934Y024673D01*
X021890Y024640D01*
X021849Y024605D01*
X021810Y024566D01*
X021773Y024526D01*
X021740Y024483D01*
X021709Y024437D01*
X021682Y024390D01*
X021690Y024386D01*
X021717Y024433D01*
X021747Y024477D01*
X021780Y024520D01*
X021816Y024560D01*
X021855Y024598D01*
X021896Y024633D01*
X021939Y024665D01*
X021985Y024695D01*
X022032Y024721D01*
X022081Y024744D01*
X022131Y024764D01*
X022183Y024780D01*
X022235Y024793D01*
X022288Y024802D01*
X022342Y024808D01*
X022396Y024810D01*
X022396Y024801D01*
X022343Y024799D01*
X022289Y024793D01*
X022237Y024784D01*
X022185Y024771D01*
X022134Y024755D01*
X022084Y024736D01*
X022036Y024713D01*
X021989Y024687D01*
X021945Y024658D01*
X021902Y024626D01*
X021861Y024591D01*
X021823Y024554D01*
X021787Y024514D01*
X021754Y024472D01*
X021724Y024428D01*
X021697Y024382D01*
X021705Y024378D01*
X021732Y024423D01*
X021762Y024467D01*
X021794Y024508D01*
X021829Y024548D01*
X021867Y024585D01*
X021907Y024619D01*
X021950Y024651D01*
X021994Y024679D01*
X022040Y024705D01*
X022088Y024727D01*
X022137Y024747D01*
X022187Y024763D01*
X022239Y024775D01*
X022291Y024784D01*
X022343Y024790D01*
X022396Y024792D01*
X022396Y024783D01*
X022340Y024781D01*
X022285Y024774D01*
X022230Y024764D01*
X022176Y024750D01*
X022124Y024732D01*
X022072Y024711D01*
X022023Y024685D01*
X021975Y024657D01*
X021929Y024625D01*
X021886Y024590D01*
X021846Y024552D01*
X021808Y024511D01*
X021773Y024467D01*
X021742Y024421D01*
X021713Y024373D01*
X021721Y024369D01*
X021749Y024417D01*
X021780Y024462D01*
X021815Y024505D01*
X021852Y024545D01*
X021892Y024583D01*
X021935Y024618D01*
X021980Y024649D01*
X022027Y024678D01*
X022076Y024702D01*
X022127Y024724D01*
X022179Y024741D01*
X022232Y024755D01*
X022286Y024765D01*
X022341Y024772D01*
X022396Y024774D01*
X022396Y024765D01*
X022342Y024763D01*
X022288Y024757D01*
X022234Y024747D01*
X022182Y024733D01*
X022130Y024715D01*
X022080Y024694D01*
X022031Y024670D01*
X021985Y024642D01*
X021940Y024610D01*
X021898Y024576D01*
X021859Y024539D01*
X021822Y024499D01*
X021788Y024457D01*
X021757Y024412D01*
X021729Y024365D01*
X021670Y023578D02*
X021748Y023623D01*
X021748Y023622D02*
X021776Y023578D01*
X021807Y023536D01*
X021840Y023496D01*
X021876Y023458D01*
X021915Y023423D01*
X021956Y023391D01*
X022000Y023361D01*
X022045Y023335D01*
X022092Y023312D01*
X022140Y023292D01*
X022190Y023276D01*
X022240Y023263D01*
X022292Y023254D01*
X022344Y023248D01*
X022396Y023246D01*
X022397Y023157D01*
X022396Y023156D01*
X022341Y023158D01*
X022287Y023164D01*
X022232Y023173D01*
X022179Y023186D01*
X022127Y023202D01*
X022075Y023221D01*
X022025Y023244D01*
X021977Y023270D01*
X021930Y023299D01*
X021886Y023331D01*
X021843Y023366D01*
X021803Y023404D01*
X021766Y023444D01*
X021731Y023486D01*
X021699Y023531D01*
X021670Y023577D01*
X021678Y023582D01*
X021706Y023536D01*
X021738Y023492D01*
X021773Y023450D01*
X021810Y023410D01*
X021849Y023373D01*
X021891Y023338D01*
X021935Y023307D01*
X021981Y023278D01*
X022029Y023252D01*
X022079Y023230D01*
X022129Y023210D01*
X022181Y023194D01*
X022234Y023182D01*
X022288Y023173D01*
X022342Y023167D01*
X022396Y023165D01*
X022396Y023174D01*
X022342Y023176D01*
X022289Y023182D01*
X022236Y023191D01*
X022184Y023203D01*
X022132Y023219D01*
X022082Y023238D01*
X022033Y023260D01*
X021986Y023286D01*
X021940Y023314D01*
X021897Y023346D01*
X021855Y023380D01*
X021816Y023416D01*
X021779Y023456D01*
X021745Y023497D01*
X021714Y023541D01*
X021685Y023586D01*
X021693Y023591D01*
X021723Y023543D01*
X021757Y023497D01*
X021793Y023454D01*
X021833Y023413D01*
X021875Y023375D01*
X021919Y023340D01*
X021966Y023308D01*
X022015Y023280D01*
X022066Y023255D01*
X022119Y023233D01*
X022172Y023216D01*
X022227Y023202D01*
X022283Y023192D01*
X022339Y023185D01*
X022396Y023183D01*
X022396Y023192D01*
X022340Y023194D01*
X022284Y023200D01*
X022229Y023210D01*
X022175Y023224D01*
X022122Y023242D01*
X022070Y023263D01*
X022019Y023288D01*
X021971Y023316D01*
X021925Y023347D01*
X021880Y023382D01*
X021839Y023419D01*
X021800Y023460D01*
X021764Y023502D01*
X021731Y023548D01*
X021701Y023595D01*
X021709Y023600D01*
X021738Y023553D01*
X021771Y023508D01*
X021807Y023466D01*
X021845Y023426D01*
X021886Y023389D01*
X021930Y023354D01*
X021976Y023323D01*
X022024Y023296D01*
X022073Y023271D01*
X022125Y023250D01*
X022177Y023233D01*
X022231Y023219D01*
X022286Y023209D01*
X022341Y023203D01*
X022396Y023201D01*
X022396Y023210D01*
X022341Y023212D01*
X022287Y023218D01*
X022233Y023228D01*
X022180Y023242D01*
X022128Y023259D01*
X022077Y023279D01*
X022028Y023304D01*
X021981Y023331D01*
X021935Y023362D01*
X021892Y023395D01*
X021851Y023432D01*
X021813Y023472D01*
X021778Y023514D01*
X021746Y023558D01*
X021717Y023604D01*
X021725Y023609D01*
X021753Y023563D01*
X021785Y023519D01*
X021820Y023478D01*
X021858Y023439D01*
X021898Y023402D01*
X021940Y023369D01*
X021985Y023339D01*
X022032Y023311D01*
X022081Y023288D01*
X022131Y023267D01*
X022182Y023250D01*
X022235Y023237D01*
X022288Y023227D01*
X022342Y023221D01*
X022396Y023219D01*
X022396Y023228D01*
X022343Y023230D01*
X022289Y023236D01*
X022237Y023246D01*
X022185Y023259D01*
X022134Y023276D01*
X022084Y023296D01*
X022036Y023319D01*
X021990Y023346D01*
X021946Y023376D01*
X021904Y023409D01*
X021864Y023445D01*
X021827Y023484D01*
X021792Y023525D01*
X021761Y023568D01*
X021732Y023613D01*
X021740Y023618D01*
X021768Y023573D01*
X021799Y023530D01*
X021833Y023490D01*
X021870Y023452D01*
X021909Y023416D01*
X021951Y023384D01*
X021995Y023354D01*
X022041Y023327D01*
X022088Y023304D01*
X022137Y023284D01*
X022187Y023267D01*
X022239Y023254D01*
X022291Y023245D01*
X022343Y023239D01*
X022396Y023237D01*
X022405Y023157D02*
X022405Y023247D01*
X022406Y023246D02*
X022460Y023248D01*
X022513Y023254D01*
X022566Y023264D01*
X022618Y023278D01*
X022669Y023295D01*
X022719Y023316D01*
X022767Y023340D01*
X022813Y023368D01*
X022857Y023399D01*
X022898Y023433D01*
X022938Y023470D01*
X022974Y023509D01*
X023042Y023452D01*
X023043Y023451D01*
X023005Y023410D01*
X022965Y023372D01*
X022922Y023336D01*
X022877Y023303D01*
X022830Y023273D01*
X022782Y023247D01*
X022731Y023223D01*
X022679Y023203D01*
X022626Y023187D01*
X022572Y023173D01*
X022517Y023164D01*
X022462Y023158D01*
X022406Y023156D01*
X022406Y023165D01*
X022461Y023167D01*
X022516Y023173D01*
X022570Y023182D01*
X022624Y023195D01*
X022676Y023212D01*
X022728Y023231D01*
X022778Y023255D01*
X022826Y023281D01*
X022872Y023311D01*
X022917Y023343D01*
X022959Y023378D01*
X022999Y023417D01*
X023036Y023457D01*
X023029Y023463D01*
X022992Y023423D01*
X022953Y023385D01*
X022911Y023350D01*
X022867Y023318D01*
X022821Y023289D01*
X022773Y023263D01*
X022724Y023240D01*
X022673Y023220D01*
X022621Y023204D01*
X022568Y023191D01*
X022515Y023182D01*
X022460Y023176D01*
X022406Y023174D01*
X022406Y023183D01*
X022460Y023185D01*
X022513Y023191D01*
X022566Y023200D01*
X022619Y023213D01*
X022670Y023229D01*
X022721Y023248D01*
X022769Y023271D01*
X022817Y023296D01*
X022862Y023325D01*
X022906Y023357D01*
X022947Y023392D01*
X022986Y023429D01*
X023022Y023469D01*
X023015Y023475D01*
X022979Y023435D01*
X022941Y023398D01*
X022900Y023364D01*
X022857Y023333D01*
X022812Y023304D01*
X022765Y023279D01*
X022717Y023256D01*
X022667Y023237D01*
X022616Y023221D01*
X022565Y023209D01*
X022512Y023200D01*
X022459Y023194D01*
X022406Y023192D01*
X022406Y023201D01*
X022459Y023203D01*
X022511Y023209D01*
X022563Y023218D01*
X022614Y023230D01*
X022664Y023246D01*
X022714Y023265D01*
X022761Y023287D01*
X022808Y023312D01*
X022852Y023340D01*
X022894Y023371D01*
X022935Y023405D01*
X022973Y023442D01*
X023008Y023480D01*
X023002Y023486D01*
X022966Y023448D01*
X022929Y023412D01*
X022889Y023378D01*
X022847Y023348D01*
X022803Y023320D01*
X022757Y023295D01*
X022710Y023273D01*
X022661Y023254D01*
X022612Y023239D01*
X022561Y023226D01*
X022510Y023218D01*
X022458Y023212D01*
X022406Y023210D01*
X022406Y023219D01*
X022462Y023221D01*
X022517Y023228D01*
X022572Y023238D01*
X022626Y023252D01*
X022679Y023270D01*
X022730Y023292D01*
X022780Y023317D01*
X022828Y023346D01*
X022873Y023378D01*
X022916Y023413D01*
X022957Y023451D01*
X022995Y023492D01*
X022988Y023498D01*
X022951Y023457D01*
X022910Y023420D01*
X022868Y023385D01*
X022823Y023353D01*
X022775Y023325D01*
X022726Y023300D01*
X022675Y023278D01*
X022623Y023261D01*
X022570Y023247D01*
X022516Y023237D01*
X022461Y023230D01*
X022406Y023228D01*
X022406Y023237D01*
X022460Y023239D01*
X022515Y023245D01*
X022568Y023255D01*
X022621Y023269D01*
X022672Y023287D01*
X022722Y023308D01*
X022771Y023333D01*
X022818Y023361D01*
X022862Y023392D01*
X022904Y023426D01*
X022944Y023464D01*
X022981Y023504D01*
X023046Y024545D02*
X022977Y024488D01*
X022978Y024488D02*
X022941Y024528D01*
X022902Y024566D01*
X022860Y024600D01*
X022816Y024632D01*
X022770Y024660D01*
X022721Y024685D01*
X022671Y024706D01*
X022620Y024724D01*
X022567Y024737D01*
X022514Y024747D01*
X022460Y024754D01*
X022406Y024756D01*
X022405Y024845D01*
X022406Y024846D01*
X022462Y024844D01*
X022518Y024838D01*
X022573Y024828D01*
X022628Y024815D01*
X022681Y024798D01*
X022734Y024778D01*
X022785Y024754D01*
X022834Y024727D01*
X022881Y024696D01*
X022926Y024663D01*
X022969Y024627D01*
X023009Y024588D01*
X023047Y024546D01*
X023040Y024540D01*
X023003Y024581D01*
X022963Y024620D01*
X022921Y024656D01*
X022876Y024689D01*
X022829Y024719D01*
X022781Y024746D01*
X022730Y024769D01*
X022678Y024790D01*
X022625Y024806D01*
X022571Y024819D01*
X022517Y024829D01*
X022462Y024835D01*
X022406Y024837D01*
X022406Y024828D01*
X022461Y024826D01*
X022516Y024820D01*
X022570Y024811D01*
X022623Y024798D01*
X022675Y024781D01*
X022727Y024761D01*
X022776Y024738D01*
X022825Y024711D01*
X022871Y024682D01*
X022915Y024649D01*
X022957Y024613D01*
X022996Y024575D01*
X023033Y024534D01*
X023026Y024529D01*
X022990Y024569D01*
X022951Y024607D01*
X022909Y024642D01*
X022866Y024674D01*
X022820Y024704D01*
X022772Y024730D01*
X022723Y024753D01*
X022673Y024773D01*
X022621Y024789D01*
X022568Y024802D01*
X022514Y024811D01*
X022460Y024817D01*
X022406Y024819D01*
X022406Y024810D01*
X022460Y024808D01*
X022513Y024802D01*
X022566Y024793D01*
X022618Y024780D01*
X022670Y024764D01*
X022720Y024745D01*
X022768Y024722D01*
X022815Y024696D01*
X022861Y024667D01*
X022904Y024635D01*
X022945Y024600D01*
X022983Y024563D01*
X023019Y024523D01*
X023012Y024517D01*
X022977Y024556D01*
X022939Y024593D01*
X022898Y024628D01*
X022855Y024659D01*
X022811Y024688D01*
X022764Y024714D01*
X022716Y024736D01*
X022667Y024756D01*
X022616Y024772D01*
X022564Y024784D01*
X022512Y024793D01*
X022459Y024799D01*
X022406Y024801D01*
X022406Y024792D01*
X022458Y024790D01*
X022511Y024784D01*
X022562Y024775D01*
X022613Y024763D01*
X022664Y024747D01*
X022713Y024728D01*
X022760Y024706D01*
X022806Y024680D01*
X022850Y024652D01*
X022892Y024621D01*
X022933Y024587D01*
X022970Y024550D01*
X023005Y024511D01*
X022999Y024505D01*
X022964Y024544D01*
X022926Y024580D01*
X022887Y024614D01*
X022845Y024645D01*
X022801Y024673D01*
X022756Y024698D01*
X022709Y024720D01*
X022661Y024739D01*
X022611Y024754D01*
X022561Y024767D01*
X022510Y024775D01*
X022458Y024781D01*
X022406Y024783D01*
X022406Y024774D01*
X022457Y024772D01*
X022508Y024767D01*
X022559Y024758D01*
X022609Y024746D01*
X022658Y024730D01*
X022705Y024712D01*
X022752Y024690D01*
X022797Y024665D01*
X022840Y024637D01*
X022881Y024607D01*
X022920Y024574D01*
X022957Y024538D01*
X022992Y024500D01*
X022985Y024494D01*
X022948Y024535D01*
X022908Y024573D01*
X022866Y024607D01*
X022821Y024639D01*
X022774Y024668D01*
X022725Y024693D01*
X022674Y024714D01*
X022623Y024732D01*
X022569Y024746D01*
X022515Y024756D01*
X022461Y024763D01*
X022406Y024765D01*
X021670Y021378D02*
X021748Y021423D01*
X021748Y021422D02*
X021776Y021378D01*
X021807Y021336D01*
X021840Y021296D01*
X021876Y021258D01*
X021915Y021223D01*
X021956Y021191D01*
X022000Y021161D01*
X022045Y021135D01*
X022092Y021112D01*
X022140Y021092D01*
X022190Y021076D01*
X022240Y021063D01*
X022292Y021054D01*
X022344Y021048D01*
X022396Y021046D01*
X022397Y020957D01*
X022396Y020956D01*
X022341Y020958D01*
X022287Y020964D01*
X022232Y020973D01*
X022179Y020986D01*
X022127Y021002D01*
X022075Y021021D01*
X022025Y021044D01*
X021977Y021070D01*
X021930Y021099D01*
X021886Y021131D01*
X021843Y021166D01*
X021803Y021204D01*
X021766Y021244D01*
X021731Y021286D01*
X021699Y021331D01*
X021670Y021377D01*
X021678Y021382D01*
X021706Y021336D01*
X021738Y021292D01*
X021773Y021250D01*
X021810Y021210D01*
X021849Y021173D01*
X021891Y021138D01*
X021935Y021107D01*
X021981Y021078D01*
X022029Y021052D01*
X022079Y021030D01*
X022129Y021010D01*
X022181Y020994D01*
X022234Y020982D01*
X022288Y020973D01*
X022342Y020967D01*
X022396Y020965D01*
X022396Y020974D01*
X022342Y020976D01*
X022289Y020982D01*
X022236Y020991D01*
X022184Y021003D01*
X022132Y021019D01*
X022082Y021038D01*
X022033Y021060D01*
X021986Y021086D01*
X021940Y021114D01*
X021897Y021146D01*
X021855Y021180D01*
X021816Y021216D01*
X021779Y021256D01*
X021745Y021297D01*
X021714Y021341D01*
X021685Y021386D01*
X021693Y021391D01*
X021723Y021343D01*
X021757Y021297D01*
X021793Y021254D01*
X021833Y021213D01*
X021875Y021175D01*
X021919Y021140D01*
X021966Y021108D01*
X022015Y021080D01*
X022066Y021055D01*
X022119Y021033D01*
X022172Y021016D01*
X022227Y021002D01*
X022283Y020992D01*
X022339Y020985D01*
X022396Y020983D01*
X022396Y020992D01*
X022340Y020994D01*
X022284Y021000D01*
X022229Y021010D01*
X022175Y021024D01*
X022122Y021042D01*
X022070Y021063D01*
X022019Y021088D01*
X021971Y021116D01*
X021925Y021147D01*
X021880Y021182D01*
X021839Y021219D01*
X021800Y021260D01*
X021764Y021302D01*
X021731Y021348D01*
X021701Y021395D01*
X021709Y021400D01*
X021738Y021353D01*
X021771Y021308D01*
X021807Y021266D01*
X021845Y021226D01*
X021886Y021189D01*
X021930Y021154D01*
X021976Y021123D01*
X022024Y021096D01*
X022073Y021071D01*
X022125Y021050D01*
X022177Y021033D01*
X022231Y021019D01*
X022286Y021009D01*
X022341Y021003D01*
X022396Y021001D01*
X022396Y021010D01*
X022341Y021012D01*
X022287Y021018D01*
X022233Y021028D01*
X022180Y021042D01*
X022128Y021059D01*
X022077Y021079D01*
X022028Y021104D01*
X021981Y021131D01*
X021935Y021162D01*
X021892Y021195D01*
X021851Y021232D01*
X021813Y021272D01*
X021778Y021314D01*
X021746Y021358D01*
X021717Y021404D01*
X021725Y021409D01*
X021753Y021363D01*
X021785Y021319D01*
X021820Y021278D01*
X021858Y021239D01*
X021898Y021202D01*
X021940Y021169D01*
X021985Y021139D01*
X022032Y021111D01*
X022081Y021088D01*
X022131Y021067D01*
X022182Y021050D01*
X022235Y021037D01*
X022288Y021027D01*
X022342Y021021D01*
X022396Y021019D01*
X022396Y021028D01*
X022343Y021030D01*
X022289Y021036D01*
X022237Y021046D01*
X022185Y021059D01*
X022134Y021076D01*
X022084Y021096D01*
X022036Y021119D01*
X021990Y021146D01*
X021946Y021176D01*
X021904Y021209D01*
X021864Y021245D01*
X021827Y021284D01*
X021792Y021325D01*
X021761Y021368D01*
X021732Y021413D01*
X021740Y021418D01*
X021768Y021373D01*
X021799Y021330D01*
X021833Y021290D01*
X021870Y021252D01*
X021909Y021216D01*
X021951Y021184D01*
X021995Y021154D01*
X022041Y021127D01*
X022088Y021104D01*
X022137Y021084D01*
X022187Y021067D01*
X022239Y021054D01*
X022291Y021045D01*
X022343Y021039D01*
X022396Y021037D01*
X022405Y020957D02*
X022405Y021047D01*
X022406Y021046D02*
X022460Y021048D01*
X022513Y021054D01*
X022566Y021064D01*
X022618Y021078D01*
X022669Y021095D01*
X022719Y021116D01*
X022767Y021140D01*
X022813Y021168D01*
X022857Y021199D01*
X022898Y021233D01*
X022938Y021270D01*
X022974Y021309D01*
X023042Y021252D01*
X023043Y021251D01*
X023005Y021210D01*
X022965Y021172D01*
X022922Y021136D01*
X022877Y021103D01*
X022830Y021073D01*
X022782Y021047D01*
X022731Y021023D01*
X022679Y021003D01*
X022626Y020987D01*
X022572Y020973D01*
X022517Y020964D01*
X022462Y020958D01*
X022406Y020956D01*
X022406Y020965D01*
X022461Y020967D01*
X022516Y020973D01*
X022570Y020982D01*
X022624Y020995D01*
X022676Y021012D01*
X022728Y021031D01*
X022778Y021055D01*
X022826Y021081D01*
X022872Y021111D01*
X022917Y021143D01*
X022959Y021178D01*
X022999Y021217D01*
X023036Y021257D01*
X023029Y021263D01*
X022992Y021223D01*
X022953Y021185D01*
X022911Y021150D01*
X022867Y021118D01*
X022821Y021089D01*
X022773Y021063D01*
X022724Y021040D01*
X022673Y021020D01*
X022621Y021004D01*
X022568Y020991D01*
X022515Y020982D01*
X022460Y020976D01*
X022406Y020974D01*
X022406Y020983D01*
X022460Y020985D01*
X022513Y020991D01*
X022566Y021000D01*
X022619Y021013D01*
X022670Y021029D01*
X022721Y021048D01*
X022769Y021071D01*
X022817Y021096D01*
X022862Y021125D01*
X022906Y021157D01*
X022947Y021192D01*
X022986Y021229D01*
X023022Y021269D01*
X023015Y021275D01*
X022979Y021235D01*
X022941Y021198D01*
X022900Y021164D01*
X022857Y021133D01*
X022812Y021104D01*
X022765Y021079D01*
X022717Y021056D01*
X022667Y021037D01*
X022616Y021021D01*
X022565Y021009D01*
X022512Y021000D01*
X022459Y020994D01*
X022406Y020992D01*
X022406Y021001D01*
X022459Y021003D01*
X022511Y021009D01*
X022563Y021018D01*
X022614Y021030D01*
X022664Y021046D01*
X022714Y021065D01*
X022761Y021087D01*
X022808Y021112D01*
X022852Y021140D01*
X022894Y021171D01*
X022935Y021205D01*
X022973Y021242D01*
X023008Y021280D01*
X023002Y021286D01*
X022966Y021248D01*
X022929Y021212D01*
X022889Y021178D01*
X022847Y021148D01*
X022803Y021120D01*
X022757Y021095D01*
X022710Y021073D01*
X022661Y021054D01*
X022612Y021039D01*
X022561Y021026D01*
X022510Y021018D01*
X022458Y021012D01*
X022406Y021010D01*
X022406Y021019D01*
X022462Y021021D01*
X022517Y021028D01*
X022572Y021038D01*
X022626Y021052D01*
X022679Y021070D01*
X022730Y021092D01*
X022780Y021117D01*
X022828Y021146D01*
X022873Y021178D01*
X022916Y021213D01*
X022957Y021251D01*
X022995Y021292D01*
X022988Y021298D01*
X022951Y021257D01*
X022910Y021220D01*
X022868Y021185D01*
X022823Y021153D01*
X022775Y021125D01*
X022726Y021100D01*
X022675Y021078D01*
X022623Y021061D01*
X022570Y021047D01*
X022516Y021037D01*
X022461Y021030D01*
X022406Y021028D01*
X022406Y021037D01*
X022460Y021039D01*
X022515Y021045D01*
X022568Y021055D01*
X022621Y021069D01*
X022672Y021087D01*
X022722Y021108D01*
X022771Y021133D01*
X022818Y021161D01*
X022862Y021192D01*
X022904Y021226D01*
X022944Y021264D01*
X022981Y021304D01*
X022396Y022645D02*
X022396Y022555D01*
X022396Y022556D02*
X022342Y022554D01*
X022289Y022548D01*
X022236Y022538D01*
X022184Y022524D01*
X022133Y022507D01*
X022084Y022486D01*
X022036Y022462D01*
X021990Y022434D01*
X021946Y022403D01*
X021904Y022369D01*
X021865Y022333D01*
X021828Y022293D01*
X021795Y022251D01*
X021764Y022207D01*
X021737Y022161D01*
X021658Y022203D01*
X021686Y022252D01*
X021718Y022298D01*
X021753Y022343D01*
X021790Y022385D01*
X021831Y022424D01*
X021874Y022461D01*
X021919Y022495D01*
X021966Y022526D01*
X022016Y022553D01*
X022067Y022577D01*
X022119Y022598D01*
X022173Y022615D01*
X022228Y022628D01*
X022283Y022638D01*
X022340Y022644D01*
X022396Y022646D01*
X022396Y022637D01*
X022340Y022635D01*
X022285Y022629D01*
X022230Y022619D01*
X022175Y022606D01*
X022122Y022589D01*
X022070Y022569D01*
X022020Y022545D01*
X021971Y022518D01*
X021924Y022488D01*
X021879Y022454D01*
X021837Y022418D01*
X021797Y022379D01*
X021760Y022337D01*
X021725Y022293D01*
X021694Y022247D01*
X021666Y022199D01*
X021674Y022195D01*
X021702Y022242D01*
X021733Y022288D01*
X021767Y022331D01*
X021803Y022373D01*
X021843Y022411D01*
X021885Y022447D01*
X021929Y022480D01*
X021975Y022510D01*
X022024Y022537D01*
X022074Y022560D01*
X022125Y022581D01*
X022178Y022597D01*
X022231Y022610D01*
X022286Y022620D01*
X022341Y022626D01*
X022396Y022628D01*
X022396Y022619D01*
X022341Y022617D01*
X022287Y022611D01*
X022233Y022602D01*
X022180Y022589D01*
X022128Y022572D01*
X022077Y022552D01*
X022028Y022529D01*
X021980Y022502D01*
X021934Y022473D01*
X021890Y022440D01*
X021849Y022405D01*
X021810Y022366D01*
X021773Y022326D01*
X021740Y022283D01*
X021709Y022237D01*
X021682Y022190D01*
X021690Y022186D01*
X021717Y022233D01*
X021747Y022277D01*
X021780Y022320D01*
X021816Y022360D01*
X021855Y022398D01*
X021896Y022433D01*
X021939Y022465D01*
X021985Y022495D01*
X022032Y022521D01*
X022081Y022544D01*
X022131Y022564D01*
X022183Y022580D01*
X022235Y022593D01*
X022288Y022602D01*
X022342Y022608D01*
X022396Y022610D01*
X022396Y022601D01*
X022343Y022599D01*
X022289Y022593D01*
X022237Y022584D01*
X022185Y022571D01*
X022134Y022555D01*
X022084Y022536D01*
X022036Y022513D01*
X021989Y022487D01*
X021945Y022458D01*
X021902Y022426D01*
X021861Y022391D01*
X021823Y022354D01*
X021787Y022314D01*
X021754Y022272D01*
X021724Y022228D01*
X021697Y022182D01*
X021705Y022178D01*
X021732Y022223D01*
X021762Y022267D01*
X021794Y022308D01*
X021829Y022348D01*
X021867Y022385D01*
X021907Y022419D01*
X021950Y022451D01*
X021994Y022479D01*
X022040Y022505D01*
X022088Y022527D01*
X022137Y022547D01*
X022187Y022563D01*
X022239Y022575D01*
X022291Y022584D01*
X022343Y022590D01*
X022396Y022592D01*
X022396Y022583D01*
X022340Y022581D01*
X022285Y022574D01*
X022230Y022564D01*
X022176Y022550D01*
X022124Y022532D01*
X022072Y022511D01*
X022023Y022485D01*
X021975Y022457D01*
X021929Y022425D01*
X021886Y022390D01*
X021846Y022352D01*
X021808Y022311D01*
X021773Y022267D01*
X021742Y022221D01*
X021713Y022173D01*
X021721Y022169D01*
X021749Y022217D01*
X021780Y022262D01*
X021815Y022305D01*
X021852Y022345D01*
X021892Y022383D01*
X021935Y022418D01*
X021980Y022449D01*
X022027Y022478D01*
X022076Y022502D01*
X022127Y022524D01*
X022179Y022541D01*
X022232Y022555D01*
X022286Y022565D01*
X022341Y022572D01*
X022396Y022574D01*
X022396Y022565D01*
X022342Y022563D01*
X022288Y022557D01*
X022234Y022547D01*
X022182Y022533D01*
X022130Y022515D01*
X022080Y022494D01*
X022031Y022470D01*
X021985Y022442D01*
X021940Y022410D01*
X021898Y022376D01*
X021859Y022339D01*
X021822Y022299D01*
X021788Y022257D01*
X021757Y022212D01*
X021729Y022165D01*
X023046Y022345D02*
X022977Y022288D01*
X022978Y022288D02*
X022941Y022328D01*
X022902Y022366D01*
X022860Y022400D01*
X022816Y022432D01*
X022770Y022460D01*
X022721Y022485D01*
X022671Y022506D01*
X022620Y022524D01*
X022567Y022537D01*
X022514Y022547D01*
X022460Y022554D01*
X022406Y022556D01*
X022405Y022645D01*
X022406Y022646D01*
X022462Y022644D01*
X022518Y022638D01*
X022573Y022628D01*
X022628Y022615D01*
X022681Y022598D01*
X022734Y022578D01*
X022785Y022554D01*
X022834Y022527D01*
X022881Y022496D01*
X022926Y022463D01*
X022969Y022427D01*
X023009Y022388D01*
X023047Y022346D01*
X023040Y022340D01*
X023003Y022381D01*
X022963Y022420D01*
X022921Y022456D01*
X022876Y022489D01*
X022829Y022519D01*
X022781Y022546D01*
X022730Y022569D01*
X022678Y022590D01*
X022625Y022606D01*
X022571Y022619D01*
X022517Y022629D01*
X022462Y022635D01*
X022406Y022637D01*
X022406Y022628D01*
X022461Y022626D01*
X022516Y022620D01*
X022570Y022611D01*
X022623Y022598D01*
X022675Y022581D01*
X022727Y022561D01*
X022776Y022538D01*
X022825Y022511D01*
X022871Y022482D01*
X022915Y022449D01*
X022957Y022413D01*
X022996Y022375D01*
X023033Y022334D01*
X023026Y022329D01*
X022990Y022369D01*
X022951Y022407D01*
X022909Y022442D01*
X022866Y022474D01*
X022820Y022504D01*
X022772Y022530D01*
X022723Y022553D01*
X022673Y022573D01*
X022621Y022589D01*
X022568Y022602D01*
X022514Y022611D01*
X022460Y022617D01*
X022406Y022619D01*
X022406Y022610D01*
X022460Y022608D01*
X022513Y022602D01*
X022566Y022593D01*
X022618Y022580D01*
X022670Y022564D01*
X022720Y022545D01*
X022768Y022522D01*
X022815Y022496D01*
X022861Y022467D01*
X022904Y022435D01*
X022945Y022400D01*
X022983Y022363D01*
X023019Y022323D01*
X023012Y022317D01*
X022977Y022356D01*
X022939Y022393D01*
X022898Y022428D01*
X022855Y022459D01*
X022811Y022488D01*
X022764Y022514D01*
X022716Y022536D01*
X022667Y022556D01*
X022616Y022572D01*
X022564Y022584D01*
X022512Y022593D01*
X022459Y022599D01*
X022406Y022601D01*
X022406Y022592D01*
X022458Y022590D01*
X022511Y022584D01*
X022562Y022575D01*
X022613Y022563D01*
X022664Y022547D01*
X022713Y022528D01*
X022760Y022506D01*
X022806Y022480D01*
X022850Y022452D01*
X022892Y022421D01*
X022933Y022387D01*
X022970Y022350D01*
X023005Y022311D01*
X022999Y022305D01*
X022964Y022344D01*
X022926Y022380D01*
X022887Y022414D01*
X022845Y022445D01*
X022801Y022473D01*
X022756Y022498D01*
X022709Y022520D01*
X022661Y022539D01*
X022611Y022554D01*
X022561Y022567D01*
X022510Y022575D01*
X022458Y022581D01*
X022406Y022583D01*
X022406Y022574D01*
X022457Y022572D01*
X022508Y022567D01*
X022559Y022558D01*
X022609Y022546D01*
X022658Y022530D01*
X022705Y022512D01*
X022752Y022490D01*
X022797Y022465D01*
X022840Y022437D01*
X022881Y022407D01*
X022920Y022374D01*
X022957Y022338D01*
X022992Y022300D01*
X022985Y022294D01*
X022948Y022335D01*
X022908Y022373D01*
X022866Y022407D01*
X022821Y022439D01*
X022774Y022468D01*
X022725Y022493D01*
X022674Y022514D01*
X022623Y022532D01*
X022569Y022546D01*
X022515Y022556D01*
X022461Y022563D01*
X022406Y022565D01*
X010596Y022645D02*
X010596Y022555D01*
X010596Y022556D02*
X010542Y022554D01*
X010489Y022548D01*
X010436Y022538D01*
X010384Y022524D01*
X010333Y022507D01*
X010284Y022486D01*
X010236Y022462D01*
X010190Y022434D01*
X010146Y022403D01*
X010104Y022369D01*
X010065Y022333D01*
X010028Y022293D01*
X009995Y022251D01*
X009964Y022207D01*
X009937Y022161D01*
X009858Y022203D01*
X009886Y022252D01*
X009918Y022298D01*
X009953Y022343D01*
X009990Y022385D01*
X010031Y022424D01*
X010074Y022461D01*
X010119Y022495D01*
X010166Y022526D01*
X010216Y022553D01*
X010267Y022577D01*
X010319Y022598D01*
X010373Y022615D01*
X010428Y022628D01*
X010483Y022638D01*
X010540Y022644D01*
X010596Y022646D01*
X010596Y022637D01*
X010540Y022635D01*
X010485Y022629D01*
X010430Y022619D01*
X010375Y022606D01*
X010322Y022589D01*
X010270Y022569D01*
X010220Y022545D01*
X010171Y022518D01*
X010124Y022488D01*
X010079Y022454D01*
X010037Y022418D01*
X009997Y022379D01*
X009960Y022337D01*
X009925Y022293D01*
X009894Y022247D01*
X009866Y022199D01*
X009874Y022195D01*
X009902Y022242D01*
X009933Y022288D01*
X009967Y022331D01*
X010003Y022373D01*
X010043Y022411D01*
X010085Y022447D01*
X010129Y022480D01*
X010175Y022510D01*
X010224Y022537D01*
X010274Y022560D01*
X010325Y022581D01*
X010378Y022597D01*
X010431Y022610D01*
X010486Y022620D01*
X010541Y022626D01*
X010596Y022628D01*
X010596Y022619D01*
X010541Y022617D01*
X010487Y022611D01*
X010433Y022602D01*
X010380Y022589D01*
X010328Y022572D01*
X010277Y022552D01*
X010228Y022529D01*
X010180Y022502D01*
X010134Y022473D01*
X010090Y022440D01*
X010049Y022405D01*
X010010Y022366D01*
X009973Y022326D01*
X009940Y022283D01*
X009909Y022237D01*
X009882Y022190D01*
X009890Y022186D01*
X009917Y022233D01*
X009947Y022277D01*
X009980Y022320D01*
X010016Y022360D01*
X010055Y022398D01*
X010096Y022433D01*
X010139Y022465D01*
X010185Y022495D01*
X010232Y022521D01*
X010281Y022544D01*
X010331Y022564D01*
X010383Y022580D01*
X010435Y022593D01*
X010488Y022602D01*
X010542Y022608D01*
X010596Y022610D01*
X010596Y022601D01*
X010543Y022599D01*
X010489Y022593D01*
X010437Y022584D01*
X010385Y022571D01*
X010334Y022555D01*
X010284Y022536D01*
X010236Y022513D01*
X010189Y022487D01*
X010145Y022458D01*
X010102Y022426D01*
X010061Y022391D01*
X010023Y022354D01*
X009987Y022314D01*
X009954Y022272D01*
X009924Y022228D01*
X009897Y022182D01*
X009905Y022178D01*
X009932Y022223D01*
X009962Y022267D01*
X009994Y022308D01*
X010029Y022348D01*
X010067Y022385D01*
X010107Y022419D01*
X010150Y022451D01*
X010194Y022479D01*
X010240Y022505D01*
X010288Y022527D01*
X010337Y022547D01*
X010387Y022563D01*
X010439Y022575D01*
X010491Y022584D01*
X010543Y022590D01*
X010596Y022592D01*
X010596Y022583D01*
X010540Y022581D01*
X010485Y022574D01*
X010430Y022564D01*
X010376Y022550D01*
X010324Y022532D01*
X010272Y022511D01*
X010223Y022485D01*
X010175Y022457D01*
X010129Y022425D01*
X010086Y022390D01*
X010046Y022352D01*
X010008Y022311D01*
X009973Y022267D01*
X009942Y022221D01*
X009913Y022173D01*
X009921Y022169D01*
X009949Y022217D01*
X009980Y022262D01*
X010015Y022305D01*
X010052Y022345D01*
X010092Y022383D01*
X010135Y022418D01*
X010180Y022449D01*
X010227Y022478D01*
X010276Y022502D01*
X010327Y022524D01*
X010379Y022541D01*
X010432Y022555D01*
X010486Y022565D01*
X010541Y022572D01*
X010596Y022574D01*
X010596Y022565D01*
X010542Y022563D01*
X010488Y022557D01*
X010434Y022547D01*
X010382Y022533D01*
X010330Y022515D01*
X010280Y022494D01*
X010231Y022470D01*
X010185Y022442D01*
X010140Y022410D01*
X010098Y022376D01*
X010059Y022339D01*
X010022Y022299D01*
X009988Y022257D01*
X009957Y022212D01*
X009929Y022165D01*
X009870Y021378D02*
X009948Y021423D01*
X009948Y021422D02*
X009976Y021378D01*
X010007Y021336D01*
X010040Y021296D01*
X010076Y021258D01*
X010115Y021223D01*
X010156Y021191D01*
X010200Y021161D01*
X010245Y021135D01*
X010292Y021112D01*
X010340Y021092D01*
X010390Y021076D01*
X010440Y021063D01*
X010492Y021054D01*
X010544Y021048D01*
X010596Y021046D01*
X010597Y020957D01*
X010596Y020956D01*
X010541Y020958D01*
X010487Y020964D01*
X010432Y020973D01*
X010379Y020986D01*
X010327Y021002D01*
X010275Y021021D01*
X010225Y021044D01*
X010177Y021070D01*
X010130Y021099D01*
X010086Y021131D01*
X010043Y021166D01*
X010003Y021204D01*
X009966Y021244D01*
X009931Y021286D01*
X009899Y021331D01*
X009870Y021377D01*
X009878Y021382D01*
X009906Y021336D01*
X009938Y021292D01*
X009973Y021250D01*
X010010Y021210D01*
X010049Y021173D01*
X010091Y021138D01*
X010135Y021107D01*
X010181Y021078D01*
X010229Y021052D01*
X010279Y021030D01*
X010329Y021010D01*
X010381Y020994D01*
X010434Y020982D01*
X010488Y020973D01*
X010542Y020967D01*
X010596Y020965D01*
X010596Y020974D01*
X010542Y020976D01*
X010489Y020982D01*
X010436Y020991D01*
X010384Y021003D01*
X010332Y021019D01*
X010282Y021038D01*
X010233Y021060D01*
X010186Y021086D01*
X010140Y021114D01*
X010097Y021146D01*
X010055Y021180D01*
X010016Y021216D01*
X009979Y021256D01*
X009945Y021297D01*
X009914Y021341D01*
X009885Y021386D01*
X009893Y021391D01*
X009923Y021343D01*
X009957Y021297D01*
X009993Y021254D01*
X010033Y021213D01*
X010075Y021175D01*
X010119Y021140D01*
X010166Y021108D01*
X010215Y021080D01*
X010266Y021055D01*
X010319Y021033D01*
X010372Y021016D01*
X010427Y021002D01*
X010483Y020992D01*
X010539Y020985D01*
X010596Y020983D01*
X010596Y020992D01*
X010540Y020994D01*
X010484Y021000D01*
X010429Y021010D01*
X010375Y021024D01*
X010322Y021042D01*
X010270Y021063D01*
X010219Y021088D01*
X010171Y021116D01*
X010125Y021147D01*
X010080Y021182D01*
X010039Y021219D01*
X010000Y021260D01*
X009964Y021302D01*
X009931Y021348D01*
X009901Y021395D01*
X009909Y021400D01*
X009938Y021353D01*
X009971Y021308D01*
X010007Y021266D01*
X010045Y021226D01*
X010086Y021189D01*
X010130Y021154D01*
X010176Y021123D01*
X010224Y021096D01*
X010273Y021071D01*
X010325Y021050D01*
X010377Y021033D01*
X010431Y021019D01*
X010486Y021009D01*
X010541Y021003D01*
X010596Y021001D01*
X010596Y021010D01*
X010541Y021012D01*
X010487Y021018D01*
X010433Y021028D01*
X010380Y021042D01*
X010328Y021059D01*
X010277Y021079D01*
X010228Y021104D01*
X010181Y021131D01*
X010135Y021162D01*
X010092Y021195D01*
X010051Y021232D01*
X010013Y021272D01*
X009978Y021314D01*
X009946Y021358D01*
X009917Y021404D01*
X009925Y021409D01*
X009953Y021363D01*
X009985Y021319D01*
X010020Y021278D01*
X010058Y021239D01*
X010098Y021202D01*
X010140Y021169D01*
X010185Y021139D01*
X010232Y021111D01*
X010281Y021088D01*
X010331Y021067D01*
X010382Y021050D01*
X010435Y021037D01*
X010488Y021027D01*
X010542Y021021D01*
X010596Y021019D01*
X010596Y021028D01*
X010543Y021030D01*
X010489Y021036D01*
X010437Y021046D01*
X010385Y021059D01*
X010334Y021076D01*
X010284Y021096D01*
X010236Y021119D01*
X010190Y021146D01*
X010146Y021176D01*
X010104Y021209D01*
X010064Y021245D01*
X010027Y021284D01*
X009992Y021325D01*
X009961Y021368D01*
X009932Y021413D01*
X009940Y021418D01*
X009968Y021373D01*
X009999Y021330D01*
X010033Y021290D01*
X010070Y021252D01*
X010109Y021216D01*
X010151Y021184D01*
X010195Y021154D01*
X010241Y021127D01*
X010288Y021104D01*
X010337Y021084D01*
X010387Y021067D01*
X010439Y021054D01*
X010491Y021045D01*
X010543Y021039D01*
X010596Y021037D01*
X010605Y020957D02*
X010605Y021047D01*
X010606Y021046D02*
X010660Y021048D01*
X010713Y021054D01*
X010766Y021064D01*
X010818Y021078D01*
X010869Y021095D01*
X010919Y021116D01*
X010967Y021140D01*
X011013Y021168D01*
X011057Y021199D01*
X011098Y021233D01*
X011138Y021270D01*
X011174Y021309D01*
X011242Y021252D01*
X011243Y021251D01*
X011205Y021210D01*
X011165Y021172D01*
X011122Y021136D01*
X011077Y021103D01*
X011030Y021073D01*
X010982Y021047D01*
X010931Y021023D01*
X010879Y021003D01*
X010826Y020987D01*
X010772Y020973D01*
X010717Y020964D01*
X010662Y020958D01*
X010606Y020956D01*
X010606Y020965D01*
X010661Y020967D01*
X010716Y020973D01*
X010770Y020982D01*
X010824Y020995D01*
X010876Y021012D01*
X010928Y021031D01*
X010978Y021055D01*
X011026Y021081D01*
X011072Y021111D01*
X011117Y021143D01*
X011159Y021178D01*
X011199Y021217D01*
X011236Y021257D01*
X011229Y021263D01*
X011192Y021223D01*
X011153Y021185D01*
X011111Y021150D01*
X011067Y021118D01*
X011021Y021089D01*
X010973Y021063D01*
X010924Y021040D01*
X010873Y021020D01*
X010821Y021004D01*
X010768Y020991D01*
X010715Y020982D01*
X010660Y020976D01*
X010606Y020974D01*
X010606Y020983D01*
X010660Y020985D01*
X010713Y020991D01*
X010766Y021000D01*
X010819Y021013D01*
X010870Y021029D01*
X010921Y021048D01*
X010969Y021071D01*
X011017Y021096D01*
X011062Y021125D01*
X011106Y021157D01*
X011147Y021192D01*
X011186Y021229D01*
X011222Y021269D01*
X011215Y021275D01*
X011179Y021235D01*
X011141Y021198D01*
X011100Y021164D01*
X011057Y021133D01*
X011012Y021104D01*
X010965Y021079D01*
X010917Y021056D01*
X010867Y021037D01*
X010816Y021021D01*
X010765Y021009D01*
X010712Y021000D01*
X010659Y020994D01*
X010606Y020992D01*
X010606Y021001D01*
X010659Y021003D01*
X010711Y021009D01*
X010763Y021018D01*
X010814Y021030D01*
X010864Y021046D01*
X010914Y021065D01*
X010961Y021087D01*
X011008Y021112D01*
X011052Y021140D01*
X011094Y021171D01*
X011135Y021205D01*
X011173Y021242D01*
X011208Y021280D01*
X011202Y021286D01*
X011166Y021248D01*
X011129Y021212D01*
X011089Y021178D01*
X011047Y021148D01*
X011003Y021120D01*
X010957Y021095D01*
X010910Y021073D01*
X010861Y021054D01*
X010812Y021039D01*
X010761Y021026D01*
X010710Y021018D01*
X010658Y021012D01*
X010606Y021010D01*
X010606Y021019D01*
X010662Y021021D01*
X010717Y021028D01*
X010772Y021038D01*
X010826Y021052D01*
X010879Y021070D01*
X010930Y021092D01*
X010980Y021117D01*
X011028Y021146D01*
X011073Y021178D01*
X011116Y021213D01*
X011157Y021251D01*
X011195Y021292D01*
X011188Y021298D01*
X011151Y021257D01*
X011110Y021220D01*
X011068Y021185D01*
X011023Y021153D01*
X010975Y021125D01*
X010926Y021100D01*
X010875Y021078D01*
X010823Y021061D01*
X010770Y021047D01*
X010716Y021037D01*
X010661Y021030D01*
X010606Y021028D01*
X010606Y021037D01*
X010660Y021039D01*
X010715Y021045D01*
X010768Y021055D01*
X010821Y021069D01*
X010872Y021087D01*
X010922Y021108D01*
X010971Y021133D01*
X011018Y021161D01*
X011062Y021192D01*
X011104Y021226D01*
X011144Y021264D01*
X011181Y021304D01*
X011246Y022345D02*
X011177Y022288D01*
X011178Y022288D02*
X011141Y022328D01*
X011102Y022366D01*
X011060Y022400D01*
X011016Y022432D01*
X010970Y022460D01*
X010921Y022485D01*
X010871Y022506D01*
X010820Y022524D01*
X010767Y022537D01*
X010714Y022547D01*
X010660Y022554D01*
X010606Y022556D01*
X010605Y022645D01*
X010606Y022646D01*
X010662Y022644D01*
X010718Y022638D01*
X010773Y022628D01*
X010828Y022615D01*
X010881Y022598D01*
X010934Y022578D01*
X010985Y022554D01*
X011034Y022527D01*
X011081Y022496D01*
X011126Y022463D01*
X011169Y022427D01*
X011209Y022388D01*
X011247Y022346D01*
X011240Y022340D01*
X011203Y022381D01*
X011163Y022420D01*
X011121Y022456D01*
X011076Y022489D01*
X011029Y022519D01*
X010981Y022546D01*
X010930Y022569D01*
X010878Y022590D01*
X010825Y022606D01*
X010771Y022619D01*
X010717Y022629D01*
X010662Y022635D01*
X010606Y022637D01*
X010606Y022628D01*
X010661Y022626D01*
X010716Y022620D01*
X010770Y022611D01*
X010823Y022598D01*
X010875Y022581D01*
X010927Y022561D01*
X010976Y022538D01*
X011025Y022511D01*
X011071Y022482D01*
X011115Y022449D01*
X011157Y022413D01*
X011196Y022375D01*
X011233Y022334D01*
X011226Y022329D01*
X011190Y022369D01*
X011151Y022407D01*
X011109Y022442D01*
X011066Y022474D01*
X011020Y022504D01*
X010972Y022530D01*
X010923Y022553D01*
X010873Y022573D01*
X010821Y022589D01*
X010768Y022602D01*
X010714Y022611D01*
X010660Y022617D01*
X010606Y022619D01*
X010606Y022610D01*
X010660Y022608D01*
X010713Y022602D01*
X010766Y022593D01*
X010818Y022580D01*
X010870Y022564D01*
X010920Y022545D01*
X010968Y022522D01*
X011015Y022496D01*
X011061Y022467D01*
X011104Y022435D01*
X011145Y022400D01*
X011183Y022363D01*
X011219Y022323D01*
X011212Y022317D01*
X011177Y022356D01*
X011139Y022393D01*
X011098Y022428D01*
X011055Y022459D01*
X011011Y022488D01*
X010964Y022514D01*
X010916Y022536D01*
X010867Y022556D01*
X010816Y022572D01*
X010764Y022584D01*
X010712Y022593D01*
X010659Y022599D01*
X010606Y022601D01*
X010606Y022592D01*
X010658Y022590D01*
X010711Y022584D01*
X010762Y022575D01*
X010813Y022563D01*
X010864Y022547D01*
X010913Y022528D01*
X010960Y022506D01*
X011006Y022480D01*
X011050Y022452D01*
X011092Y022421D01*
X011133Y022387D01*
X011170Y022350D01*
X011205Y022311D01*
X011199Y022305D01*
X011164Y022344D01*
X011126Y022380D01*
X011087Y022414D01*
X011045Y022445D01*
X011001Y022473D01*
X010956Y022498D01*
X010909Y022520D01*
X010861Y022539D01*
X010811Y022554D01*
X010761Y022567D01*
X010710Y022575D01*
X010658Y022581D01*
X010606Y022583D01*
X010606Y022574D01*
X010657Y022572D01*
X010708Y022567D01*
X010759Y022558D01*
X010809Y022546D01*
X010858Y022530D01*
X010905Y022512D01*
X010952Y022490D01*
X010997Y022465D01*
X011040Y022437D01*
X011081Y022407D01*
X011120Y022374D01*
X011157Y022338D01*
X011192Y022300D01*
X011185Y022294D01*
X011148Y022335D01*
X011108Y022373D01*
X011066Y022407D01*
X011021Y022439D01*
X010974Y022468D01*
X010925Y022493D01*
X010874Y022514D01*
X010823Y022532D01*
X010769Y022546D01*
X010715Y022556D01*
X010661Y022563D01*
X010606Y022565D01*
X009770Y023578D02*
X009848Y023623D01*
X009848Y023622D02*
X009876Y023578D01*
X009907Y023536D01*
X009940Y023496D01*
X009976Y023458D01*
X010015Y023423D01*
X010056Y023391D01*
X010100Y023361D01*
X010145Y023335D01*
X010192Y023312D01*
X010240Y023292D01*
X010290Y023276D01*
X010340Y023263D01*
X010392Y023254D01*
X010444Y023248D01*
X010496Y023246D01*
X010497Y023157D01*
X010496Y023156D01*
X010441Y023158D01*
X010387Y023164D01*
X010332Y023173D01*
X010279Y023186D01*
X010227Y023202D01*
X010175Y023221D01*
X010125Y023244D01*
X010077Y023270D01*
X010030Y023299D01*
X009986Y023331D01*
X009943Y023366D01*
X009903Y023404D01*
X009866Y023444D01*
X009831Y023486D01*
X009799Y023531D01*
X009770Y023577D01*
X009778Y023582D01*
X009806Y023536D01*
X009838Y023492D01*
X009873Y023450D01*
X009910Y023410D01*
X009949Y023373D01*
X009991Y023338D01*
X010035Y023307D01*
X010081Y023278D01*
X010129Y023252D01*
X010179Y023230D01*
X010229Y023210D01*
X010281Y023194D01*
X010334Y023182D01*
X010388Y023173D01*
X010442Y023167D01*
X010496Y023165D01*
X010496Y023174D01*
X010442Y023176D01*
X010389Y023182D01*
X010336Y023191D01*
X010284Y023203D01*
X010232Y023219D01*
X010182Y023238D01*
X010133Y023260D01*
X010086Y023286D01*
X010040Y023314D01*
X009997Y023346D01*
X009955Y023380D01*
X009916Y023416D01*
X009879Y023456D01*
X009845Y023497D01*
X009814Y023541D01*
X009785Y023586D01*
X009793Y023591D01*
X009823Y023543D01*
X009857Y023497D01*
X009893Y023454D01*
X009933Y023413D01*
X009975Y023375D01*
X010019Y023340D01*
X010066Y023308D01*
X010115Y023280D01*
X010166Y023255D01*
X010219Y023233D01*
X010272Y023216D01*
X010327Y023202D01*
X010383Y023192D01*
X010439Y023185D01*
X010496Y023183D01*
X010496Y023192D01*
X010440Y023194D01*
X010384Y023200D01*
X010329Y023210D01*
X010275Y023224D01*
X010222Y023242D01*
X010170Y023263D01*
X010119Y023288D01*
X010071Y023316D01*
X010025Y023347D01*
X009980Y023382D01*
X009939Y023419D01*
X009900Y023460D01*
X009864Y023502D01*
X009831Y023548D01*
X009801Y023595D01*
X009809Y023600D01*
X009838Y023553D01*
X009871Y023508D01*
X009907Y023466D01*
X009945Y023426D01*
X009986Y023389D01*
X010030Y023354D01*
X010076Y023323D01*
X010124Y023296D01*
X010173Y023271D01*
X010225Y023250D01*
X010277Y023233D01*
X010331Y023219D01*
X010386Y023209D01*
X010441Y023203D01*
X010496Y023201D01*
X010496Y023210D01*
X010441Y023212D01*
X010387Y023218D01*
X010333Y023228D01*
X010280Y023242D01*
X010228Y023259D01*
X010177Y023279D01*
X010128Y023304D01*
X010081Y023331D01*
X010035Y023362D01*
X009992Y023395D01*
X009951Y023432D01*
X009913Y023472D01*
X009878Y023514D01*
X009846Y023558D01*
X009817Y023604D01*
X009825Y023609D01*
X009853Y023563D01*
X009885Y023519D01*
X009920Y023478D01*
X009958Y023439D01*
X009998Y023402D01*
X010040Y023369D01*
X010085Y023339D01*
X010132Y023311D01*
X010181Y023288D01*
X010231Y023267D01*
X010282Y023250D01*
X010335Y023237D01*
X010388Y023227D01*
X010442Y023221D01*
X010496Y023219D01*
X010496Y023228D01*
X010443Y023230D01*
X010389Y023236D01*
X010337Y023246D01*
X010285Y023259D01*
X010234Y023276D01*
X010184Y023296D01*
X010136Y023319D01*
X010090Y023346D01*
X010046Y023376D01*
X010004Y023409D01*
X009964Y023445D01*
X009927Y023484D01*
X009892Y023525D01*
X009861Y023568D01*
X009832Y023613D01*
X009840Y023618D01*
X009868Y023573D01*
X009899Y023530D01*
X009933Y023490D01*
X009970Y023452D01*
X010009Y023416D01*
X010051Y023384D01*
X010095Y023354D01*
X010141Y023327D01*
X010188Y023304D01*
X010237Y023284D01*
X010287Y023267D01*
X010339Y023254D01*
X010391Y023245D01*
X010443Y023239D01*
X010496Y023237D01*
X010505Y023157D02*
X010505Y023247D01*
X010506Y023246D02*
X010560Y023248D01*
X010613Y023254D01*
X010666Y023264D01*
X010718Y023278D01*
X010769Y023295D01*
X010819Y023316D01*
X010867Y023340D01*
X010913Y023368D01*
X010957Y023399D01*
X010998Y023433D01*
X011038Y023470D01*
X011074Y023509D01*
X011142Y023452D01*
X011143Y023451D01*
X011105Y023410D01*
X011065Y023372D01*
X011022Y023336D01*
X010977Y023303D01*
X010930Y023273D01*
X010882Y023247D01*
X010831Y023223D01*
X010779Y023203D01*
X010726Y023187D01*
X010672Y023173D01*
X010617Y023164D01*
X010562Y023158D01*
X010506Y023156D01*
X010506Y023165D01*
X010561Y023167D01*
X010616Y023173D01*
X010670Y023182D01*
X010724Y023195D01*
X010776Y023212D01*
X010828Y023231D01*
X010878Y023255D01*
X010926Y023281D01*
X010972Y023311D01*
X011017Y023343D01*
X011059Y023378D01*
X011099Y023417D01*
X011136Y023457D01*
X011129Y023463D01*
X011092Y023423D01*
X011053Y023385D01*
X011011Y023350D01*
X010967Y023318D01*
X010921Y023289D01*
X010873Y023263D01*
X010824Y023240D01*
X010773Y023220D01*
X010721Y023204D01*
X010668Y023191D01*
X010615Y023182D01*
X010560Y023176D01*
X010506Y023174D01*
X010506Y023183D01*
X010560Y023185D01*
X010613Y023191D01*
X010666Y023200D01*
X010719Y023213D01*
X010770Y023229D01*
X010821Y023248D01*
X010869Y023271D01*
X010917Y023296D01*
X010962Y023325D01*
X011006Y023357D01*
X011047Y023392D01*
X011086Y023429D01*
X011122Y023469D01*
X011115Y023475D01*
X011079Y023435D01*
X011041Y023398D01*
X011000Y023364D01*
X010957Y023333D01*
X010912Y023304D01*
X010865Y023279D01*
X010817Y023256D01*
X010767Y023237D01*
X010716Y023221D01*
X010665Y023209D01*
X010612Y023200D01*
X010559Y023194D01*
X010506Y023192D01*
X010506Y023201D01*
X010559Y023203D01*
X010611Y023209D01*
X010663Y023218D01*
X010714Y023230D01*
X010764Y023246D01*
X010814Y023265D01*
X010861Y023287D01*
X010908Y023312D01*
X010952Y023340D01*
X010994Y023371D01*
X011035Y023405D01*
X011073Y023442D01*
X011108Y023480D01*
X011102Y023486D01*
X011066Y023448D01*
X011029Y023412D01*
X010989Y023378D01*
X010947Y023348D01*
X010903Y023320D01*
X010857Y023295D01*
X010810Y023273D01*
X010761Y023254D01*
X010712Y023239D01*
X010661Y023226D01*
X010610Y023218D01*
X010558Y023212D01*
X010506Y023210D01*
X010506Y023219D01*
X010562Y023221D01*
X010617Y023228D01*
X010672Y023238D01*
X010726Y023252D01*
X010779Y023270D01*
X010830Y023292D01*
X010880Y023317D01*
X010928Y023346D01*
X010973Y023378D01*
X011016Y023413D01*
X011057Y023451D01*
X011095Y023492D01*
X011088Y023498D01*
X011051Y023457D01*
X011010Y023420D01*
X010968Y023385D01*
X010923Y023353D01*
X010875Y023325D01*
X010826Y023300D01*
X010775Y023278D01*
X010723Y023261D01*
X010670Y023247D01*
X010616Y023237D01*
X010561Y023230D01*
X010506Y023228D01*
X010506Y023237D01*
X010560Y023239D01*
X010615Y023245D01*
X010668Y023255D01*
X010721Y023269D01*
X010772Y023287D01*
X010822Y023308D01*
X010871Y023333D01*
X010918Y023361D01*
X010962Y023392D01*
X011004Y023426D01*
X011044Y023464D01*
X011081Y023504D01*
X010496Y024845D02*
X010496Y024755D01*
X010496Y024756D02*
X010442Y024754D01*
X010389Y024748D01*
X010336Y024738D01*
X010284Y024724D01*
X010233Y024707D01*
X010184Y024686D01*
X010136Y024662D01*
X010090Y024634D01*
X010046Y024603D01*
X010004Y024569D01*
X009965Y024533D01*
X009928Y024493D01*
X009895Y024451D01*
X009864Y024407D01*
X009837Y024361D01*
X009758Y024403D01*
X009786Y024452D01*
X009818Y024498D01*
X009853Y024543D01*
X009890Y024585D01*
X009931Y024624D01*
X009974Y024661D01*
X010019Y024695D01*
X010066Y024726D01*
X010116Y024753D01*
X010167Y024777D01*
X010219Y024798D01*
X010273Y024815D01*
X010328Y024828D01*
X010383Y024838D01*
X010440Y024844D01*
X010496Y024846D01*
X010496Y024837D01*
X010440Y024835D01*
X010385Y024829D01*
X010330Y024819D01*
X010275Y024806D01*
X010222Y024789D01*
X010170Y024769D01*
X010120Y024745D01*
X010071Y024718D01*
X010024Y024688D01*
X009979Y024654D01*
X009937Y024618D01*
X009897Y024579D01*
X009860Y024537D01*
X009825Y024493D01*
X009794Y024447D01*
X009766Y024399D01*
X009774Y024395D01*
X009802Y024442D01*
X009833Y024488D01*
X009867Y024531D01*
X009903Y024573D01*
X009943Y024611D01*
X009985Y024647D01*
X010029Y024680D01*
X010075Y024710D01*
X010124Y024737D01*
X010174Y024760D01*
X010225Y024781D01*
X010278Y024797D01*
X010331Y024810D01*
X010386Y024820D01*
X010441Y024826D01*
X010496Y024828D01*
X010496Y024819D01*
X010441Y024817D01*
X010387Y024811D01*
X010333Y024802D01*
X010280Y024789D01*
X010228Y024772D01*
X010177Y024752D01*
X010128Y024729D01*
X010080Y024702D01*
X010034Y024673D01*
X009990Y024640D01*
X009949Y024605D01*
X009910Y024566D01*
X009873Y024526D01*
X009840Y024483D01*
X009809Y024437D01*
X009782Y024390D01*
X009790Y024386D01*
X009817Y024433D01*
X009847Y024477D01*
X009880Y024520D01*
X009916Y024560D01*
X009955Y024598D01*
X009996Y024633D01*
X010039Y024665D01*
X010085Y024695D01*
X010132Y024721D01*
X010181Y024744D01*
X010231Y024764D01*
X010283Y024780D01*
X010335Y024793D01*
X010388Y024802D01*
X010442Y024808D01*
X010496Y024810D01*
X010496Y024801D01*
X010443Y024799D01*
X010389Y024793D01*
X010337Y024784D01*
X010285Y024771D01*
X010234Y024755D01*
X010184Y024736D01*
X010136Y024713D01*
X010089Y024687D01*
X010045Y024658D01*
X010002Y024626D01*
X009961Y024591D01*
X009923Y024554D01*
X009887Y024514D01*
X009854Y024472D01*
X009824Y024428D01*
X009797Y024382D01*
X009805Y024378D01*
X009832Y024423D01*
X009862Y024467D01*
X009894Y024508D01*
X009929Y024548D01*
X009967Y024585D01*
X010007Y024619D01*
X010050Y024651D01*
X010094Y024679D01*
X010140Y024705D01*
X010188Y024727D01*
X010237Y024747D01*
X010287Y024763D01*
X010339Y024775D01*
X010391Y024784D01*
X010443Y024790D01*
X010496Y024792D01*
X010496Y024783D01*
X010440Y024781D01*
X010385Y024774D01*
X010330Y024764D01*
X010276Y024750D01*
X010224Y024732D01*
X010172Y024711D01*
X010123Y024685D01*
X010075Y024657D01*
X010029Y024625D01*
X009986Y024590D01*
X009946Y024552D01*
X009908Y024511D01*
X009873Y024467D01*
X009842Y024421D01*
X009813Y024373D01*
X009821Y024369D01*
X009849Y024417D01*
X009880Y024462D01*
X009915Y024505D01*
X009952Y024545D01*
X009992Y024583D01*
X010035Y024618D01*
X010080Y024649D01*
X010127Y024678D01*
X010176Y024702D01*
X010227Y024724D01*
X010279Y024741D01*
X010332Y024755D01*
X010386Y024765D01*
X010441Y024772D01*
X010496Y024774D01*
X010496Y024765D01*
X010442Y024763D01*
X010388Y024757D01*
X010334Y024747D01*
X010282Y024733D01*
X010230Y024715D01*
X010180Y024694D01*
X010131Y024670D01*
X010085Y024642D01*
X010040Y024610D01*
X009998Y024576D01*
X009959Y024539D01*
X009922Y024499D01*
X009888Y024457D01*
X009857Y024412D01*
X009829Y024365D01*
X011146Y024545D02*
X011077Y024488D01*
X011078Y024488D02*
X011041Y024528D01*
X011002Y024566D01*
X010960Y024600D01*
X010916Y024632D01*
X010870Y024660D01*
X010821Y024685D01*
X010771Y024706D01*
X010720Y024724D01*
X010667Y024737D01*
X010614Y024747D01*
X010560Y024754D01*
X010506Y024756D01*
X010505Y024845D01*
X010506Y024846D01*
X010562Y024844D01*
X010618Y024838D01*
X010673Y024828D01*
X010728Y024815D01*
X010781Y024798D01*
X010834Y024778D01*
X010885Y024754D01*
X010934Y024727D01*
X010981Y024696D01*
X011026Y024663D01*
X011069Y024627D01*
X011109Y024588D01*
X011147Y024546D01*
X011140Y024540D01*
X011103Y024581D01*
X011063Y024620D01*
X011021Y024656D01*
X010976Y024689D01*
X010929Y024719D01*
X010881Y024746D01*
X010830Y024769D01*
X010778Y024790D01*
X010725Y024806D01*
X010671Y024819D01*
X010617Y024829D01*
X010562Y024835D01*
X010506Y024837D01*
X010506Y024828D01*
X010561Y024826D01*
X010616Y024820D01*
X010670Y024811D01*
X010723Y024798D01*
X010775Y024781D01*
X010827Y024761D01*
X010876Y024738D01*
X010925Y024711D01*
X010971Y024682D01*
X011015Y024649D01*
X011057Y024613D01*
X011096Y024575D01*
X011133Y024534D01*
X011126Y024529D01*
X011090Y024569D01*
X011051Y024607D01*
X011009Y024642D01*
X010966Y024674D01*
X010920Y024704D01*
X010872Y024730D01*
X010823Y024753D01*
X010773Y024773D01*
X010721Y024789D01*
X010668Y024802D01*
X010614Y024811D01*
X010560Y024817D01*
X010506Y024819D01*
X010506Y024810D01*
X010560Y024808D01*
X010613Y024802D01*
X010666Y024793D01*
X010718Y024780D01*
X010770Y024764D01*
X010820Y024745D01*
X010868Y024722D01*
X010915Y024696D01*
X010961Y024667D01*
X011004Y024635D01*
X011045Y024600D01*
X011083Y024563D01*
X011119Y024523D01*
X011112Y024517D01*
X011077Y024556D01*
X011039Y024593D01*
X010998Y024628D01*
X010955Y024659D01*
X010911Y024688D01*
X010864Y024714D01*
X010816Y024736D01*
X010767Y024756D01*
X010716Y024772D01*
X010664Y024784D01*
X010612Y024793D01*
X010559Y024799D01*
X010506Y024801D01*
X010506Y024792D01*
X010558Y024790D01*
X010611Y024784D01*
X010662Y024775D01*
X010713Y024763D01*
X010764Y024747D01*
X010813Y024728D01*
X010860Y024706D01*
X010906Y024680D01*
X010950Y024652D01*
X010992Y024621D01*
X011033Y024587D01*
X011070Y024550D01*
X011105Y024511D01*
X011099Y024505D01*
X011064Y024544D01*
X011026Y024580D01*
X010987Y024614D01*
X010945Y024645D01*
X010901Y024673D01*
X010856Y024698D01*
X010809Y024720D01*
X010761Y024739D01*
X010711Y024754D01*
X010661Y024767D01*
X010610Y024775D01*
X010558Y024781D01*
X010506Y024783D01*
X010506Y024774D01*
X010557Y024772D01*
X010608Y024767D01*
X010659Y024758D01*
X010709Y024746D01*
X010758Y024730D01*
X010805Y024712D01*
X010852Y024690D01*
X010897Y024665D01*
X010940Y024637D01*
X010981Y024607D01*
X011020Y024574D01*
X011057Y024538D01*
X011092Y024500D01*
X011085Y024494D01*
X011048Y024535D01*
X011008Y024573D01*
X010966Y024607D01*
X010921Y024639D01*
X010874Y024668D01*
X010825Y024693D01*
X010774Y024714D01*
X010723Y024732D01*
X010669Y024746D01*
X010615Y024756D01*
X010561Y024763D01*
X010506Y024765D01*
X028770Y005678D02*
X028848Y005723D01*
X028848Y005722D02*
X028876Y005678D01*
X028907Y005636D01*
X028940Y005596D01*
X028976Y005558D01*
X029015Y005523D01*
X029056Y005491D01*
X029100Y005461D01*
X029145Y005435D01*
X029192Y005412D01*
X029240Y005392D01*
X029290Y005376D01*
X029340Y005363D01*
X029392Y005354D01*
X029444Y005348D01*
X029496Y005346D01*
X029497Y005257D01*
X029496Y005256D01*
X029441Y005258D01*
X029387Y005264D01*
X029332Y005273D01*
X029279Y005286D01*
X029227Y005302D01*
X029175Y005321D01*
X029125Y005344D01*
X029077Y005370D01*
X029030Y005399D01*
X028986Y005431D01*
X028943Y005466D01*
X028903Y005504D01*
X028866Y005544D01*
X028831Y005586D01*
X028799Y005631D01*
X028770Y005677D01*
X028778Y005682D01*
X028806Y005636D01*
X028838Y005592D01*
X028873Y005550D01*
X028910Y005510D01*
X028949Y005473D01*
X028991Y005438D01*
X029035Y005407D01*
X029081Y005378D01*
X029129Y005352D01*
X029179Y005330D01*
X029229Y005310D01*
X029281Y005294D01*
X029334Y005282D01*
X029388Y005273D01*
X029442Y005267D01*
X029496Y005265D01*
X029496Y005274D01*
X029442Y005276D01*
X029389Y005282D01*
X029336Y005291D01*
X029284Y005303D01*
X029232Y005319D01*
X029182Y005338D01*
X029133Y005360D01*
X029086Y005386D01*
X029040Y005414D01*
X028997Y005446D01*
X028955Y005480D01*
X028916Y005516D01*
X028879Y005556D01*
X028845Y005597D01*
X028814Y005641D01*
X028785Y005686D01*
X028793Y005691D01*
X028823Y005643D01*
X028857Y005597D01*
X028893Y005554D01*
X028933Y005513D01*
X028975Y005475D01*
X029019Y005440D01*
X029066Y005408D01*
X029115Y005380D01*
X029166Y005355D01*
X029219Y005333D01*
X029272Y005316D01*
X029327Y005302D01*
X029383Y005292D01*
X029439Y005285D01*
X029496Y005283D01*
X029496Y005292D01*
X029440Y005294D01*
X029384Y005300D01*
X029329Y005310D01*
X029275Y005324D01*
X029222Y005342D01*
X029170Y005363D01*
X029119Y005388D01*
X029071Y005416D01*
X029025Y005447D01*
X028980Y005482D01*
X028939Y005519D01*
X028900Y005560D01*
X028864Y005602D01*
X028831Y005648D01*
X028801Y005695D01*
X028809Y005700D01*
X028838Y005653D01*
X028871Y005608D01*
X028907Y005566D01*
X028945Y005526D01*
X028986Y005489D01*
X029030Y005454D01*
X029076Y005423D01*
X029124Y005396D01*
X029173Y005371D01*
X029225Y005350D01*
X029277Y005333D01*
X029331Y005319D01*
X029386Y005309D01*
X029441Y005303D01*
X029496Y005301D01*
X029496Y005310D01*
X029441Y005312D01*
X029387Y005318D01*
X029333Y005328D01*
X029280Y005342D01*
X029228Y005359D01*
X029177Y005379D01*
X029128Y005404D01*
X029081Y005431D01*
X029035Y005462D01*
X028992Y005495D01*
X028951Y005532D01*
X028913Y005572D01*
X028878Y005614D01*
X028846Y005658D01*
X028817Y005704D01*
X028825Y005709D01*
X028853Y005663D01*
X028885Y005619D01*
X028920Y005578D01*
X028958Y005539D01*
X028998Y005502D01*
X029040Y005469D01*
X029085Y005439D01*
X029132Y005411D01*
X029181Y005388D01*
X029231Y005367D01*
X029282Y005350D01*
X029335Y005337D01*
X029388Y005327D01*
X029442Y005321D01*
X029496Y005319D01*
X029496Y005328D01*
X029443Y005330D01*
X029389Y005336D01*
X029337Y005346D01*
X029285Y005359D01*
X029234Y005376D01*
X029184Y005396D01*
X029136Y005419D01*
X029090Y005446D01*
X029046Y005476D01*
X029004Y005509D01*
X028964Y005545D01*
X028927Y005584D01*
X028892Y005625D01*
X028861Y005668D01*
X028832Y005713D01*
X028840Y005718D01*
X028868Y005673D01*
X028899Y005630D01*
X028933Y005590D01*
X028970Y005552D01*
X029009Y005516D01*
X029051Y005484D01*
X029095Y005454D01*
X029141Y005427D01*
X029188Y005404D01*
X029237Y005384D01*
X029287Y005367D01*
X029339Y005354D01*
X029391Y005345D01*
X029443Y005339D01*
X029496Y005337D01*
X029505Y005257D02*
X029505Y005347D01*
X029506Y005346D02*
X029560Y005348D01*
X029613Y005354D01*
X029666Y005364D01*
X029718Y005378D01*
X029769Y005395D01*
X029819Y005416D01*
X029867Y005440D01*
X029913Y005468D01*
X029957Y005499D01*
X029998Y005533D01*
X030038Y005570D01*
X030074Y005609D01*
X030142Y005552D01*
X030143Y005551D01*
X030105Y005510D01*
X030065Y005472D01*
X030022Y005436D01*
X029977Y005403D01*
X029930Y005373D01*
X029882Y005347D01*
X029831Y005323D01*
X029779Y005303D01*
X029726Y005287D01*
X029672Y005273D01*
X029617Y005264D01*
X029562Y005258D01*
X029506Y005256D01*
X029506Y005265D01*
X029561Y005267D01*
X029616Y005273D01*
X029670Y005282D01*
X029724Y005295D01*
X029776Y005312D01*
X029828Y005331D01*
X029878Y005355D01*
X029926Y005381D01*
X029972Y005411D01*
X030017Y005443D01*
X030059Y005478D01*
X030099Y005517D01*
X030136Y005557D01*
X030129Y005563D01*
X030092Y005523D01*
X030053Y005485D01*
X030011Y005450D01*
X029967Y005418D01*
X029921Y005389D01*
X029873Y005363D01*
X029824Y005340D01*
X029773Y005320D01*
X029721Y005304D01*
X029668Y005291D01*
X029615Y005282D01*
X029560Y005276D01*
X029506Y005274D01*
X029506Y005283D01*
X029560Y005285D01*
X029613Y005291D01*
X029666Y005300D01*
X029719Y005313D01*
X029770Y005329D01*
X029821Y005348D01*
X029869Y005371D01*
X029917Y005396D01*
X029962Y005425D01*
X030006Y005457D01*
X030047Y005492D01*
X030086Y005529D01*
X030122Y005569D01*
X030115Y005575D01*
X030079Y005535D01*
X030041Y005498D01*
X030000Y005464D01*
X029957Y005433D01*
X029912Y005404D01*
X029865Y005379D01*
X029817Y005356D01*
X029767Y005337D01*
X029716Y005321D01*
X029665Y005309D01*
X029612Y005300D01*
X029559Y005294D01*
X029506Y005292D01*
X029506Y005301D01*
X029559Y005303D01*
X029611Y005309D01*
X029663Y005318D01*
X029714Y005330D01*
X029764Y005346D01*
X029814Y005365D01*
X029861Y005387D01*
X029908Y005412D01*
X029952Y005440D01*
X029994Y005471D01*
X030035Y005505D01*
X030073Y005542D01*
X030108Y005580D01*
X030102Y005586D01*
X030066Y005548D01*
X030029Y005512D01*
X029989Y005478D01*
X029947Y005448D01*
X029903Y005420D01*
X029857Y005395D01*
X029810Y005373D01*
X029761Y005354D01*
X029712Y005339D01*
X029661Y005326D01*
X029610Y005318D01*
X029558Y005312D01*
X029506Y005310D01*
X029506Y005319D01*
X029562Y005321D01*
X029617Y005328D01*
X029672Y005338D01*
X029726Y005352D01*
X029779Y005370D01*
X029830Y005392D01*
X029880Y005417D01*
X029928Y005446D01*
X029973Y005478D01*
X030016Y005513D01*
X030057Y005551D01*
X030095Y005592D01*
X030088Y005598D01*
X030051Y005557D01*
X030010Y005520D01*
X029968Y005485D01*
X029923Y005453D01*
X029875Y005425D01*
X029826Y005400D01*
X029775Y005378D01*
X029723Y005361D01*
X029670Y005347D01*
X029616Y005337D01*
X029561Y005330D01*
X029506Y005328D01*
X029506Y005337D01*
X029560Y005339D01*
X029615Y005345D01*
X029668Y005355D01*
X029721Y005369D01*
X029772Y005387D01*
X029822Y005408D01*
X029871Y005433D01*
X029918Y005461D01*
X029962Y005492D01*
X030004Y005526D01*
X030044Y005564D01*
X030081Y005604D01*
X029496Y006945D02*
X029496Y006855D01*
X029496Y006856D02*
X029442Y006854D01*
X029389Y006848D01*
X029336Y006838D01*
X029284Y006824D01*
X029233Y006807D01*
X029184Y006786D01*
X029136Y006762D01*
X029090Y006734D01*
X029046Y006703D01*
X029004Y006669D01*
X028965Y006633D01*
X028928Y006593D01*
X028895Y006551D01*
X028864Y006507D01*
X028837Y006461D01*
X028758Y006503D01*
X028786Y006552D01*
X028818Y006598D01*
X028853Y006643D01*
X028890Y006685D01*
X028931Y006724D01*
X028974Y006761D01*
X029019Y006795D01*
X029066Y006826D01*
X029116Y006853D01*
X029167Y006877D01*
X029219Y006898D01*
X029273Y006915D01*
X029328Y006928D01*
X029383Y006938D01*
X029440Y006944D01*
X029496Y006946D01*
X029496Y006937D01*
X029440Y006935D01*
X029385Y006929D01*
X029330Y006919D01*
X029275Y006906D01*
X029222Y006889D01*
X029170Y006869D01*
X029120Y006845D01*
X029071Y006818D01*
X029024Y006788D01*
X028979Y006754D01*
X028937Y006718D01*
X028897Y006679D01*
X028860Y006637D01*
X028825Y006593D01*
X028794Y006547D01*
X028766Y006499D01*
X028774Y006495D01*
X028802Y006542D01*
X028833Y006588D01*
X028867Y006631D01*
X028903Y006673D01*
X028943Y006711D01*
X028985Y006747D01*
X029029Y006780D01*
X029075Y006810D01*
X029124Y006837D01*
X029174Y006860D01*
X029225Y006881D01*
X029278Y006897D01*
X029331Y006910D01*
X029386Y006920D01*
X029441Y006926D01*
X029496Y006928D01*
X029496Y006919D01*
X029441Y006917D01*
X029387Y006911D01*
X029333Y006902D01*
X029280Y006889D01*
X029228Y006872D01*
X029177Y006852D01*
X029128Y006829D01*
X029080Y006802D01*
X029034Y006773D01*
X028990Y006740D01*
X028949Y006705D01*
X028910Y006666D01*
X028873Y006626D01*
X028840Y006583D01*
X028809Y006537D01*
X028782Y006490D01*
X028790Y006486D01*
X028817Y006533D01*
X028847Y006577D01*
X028880Y006620D01*
X028916Y006660D01*
X028955Y006698D01*
X028996Y006733D01*
X029039Y006765D01*
X029085Y006795D01*
X029132Y006821D01*
X029181Y006844D01*
X029231Y006864D01*
X029283Y006880D01*
X029335Y006893D01*
X029388Y006902D01*
X029442Y006908D01*
X029496Y006910D01*
X029496Y006901D01*
X029443Y006899D01*
X029389Y006893D01*
X029337Y006884D01*
X029285Y006871D01*
X029234Y006855D01*
X029184Y006836D01*
X029136Y006813D01*
X029089Y006787D01*
X029045Y006758D01*
X029002Y006726D01*
X028961Y006691D01*
X028923Y006654D01*
X028887Y006614D01*
X028854Y006572D01*
X028824Y006528D01*
X028797Y006482D01*
X028805Y006478D01*
X028832Y006523D01*
X028862Y006567D01*
X028894Y006608D01*
X028929Y006648D01*
X028967Y006685D01*
X029007Y006719D01*
X029050Y006751D01*
X029094Y006779D01*
X029140Y006805D01*
X029188Y006827D01*
X029237Y006847D01*
X029287Y006863D01*
X029339Y006875D01*
X029391Y006884D01*
X029443Y006890D01*
X029496Y006892D01*
X029496Y006883D01*
X029440Y006881D01*
X029385Y006874D01*
X029330Y006864D01*
X029276Y006850D01*
X029224Y006832D01*
X029172Y006811D01*
X029123Y006785D01*
X029075Y006757D01*
X029029Y006725D01*
X028986Y006690D01*
X028946Y006652D01*
X028908Y006611D01*
X028873Y006567D01*
X028842Y006521D01*
X028813Y006473D01*
X028821Y006469D01*
X028849Y006517D01*
X028880Y006562D01*
X028915Y006605D01*
X028952Y006645D01*
X028992Y006683D01*
X029035Y006718D01*
X029080Y006749D01*
X029127Y006778D01*
X029176Y006802D01*
X029227Y006824D01*
X029279Y006841D01*
X029332Y006855D01*
X029386Y006865D01*
X029441Y006872D01*
X029496Y006874D01*
X029496Y006865D01*
X029442Y006863D01*
X029388Y006857D01*
X029334Y006847D01*
X029282Y006833D01*
X029230Y006815D01*
X029180Y006794D01*
X029131Y006770D01*
X029085Y006742D01*
X029040Y006710D01*
X028998Y006676D01*
X028959Y006639D01*
X028922Y006599D01*
X028888Y006557D01*
X028857Y006512D01*
X028829Y006465D01*
X030146Y006645D02*
X030077Y006588D01*
X030078Y006588D02*
X030041Y006628D01*
X030002Y006666D01*
X029960Y006700D01*
X029916Y006732D01*
X029870Y006760D01*
X029821Y006785D01*
X029771Y006806D01*
X029720Y006824D01*
X029667Y006837D01*
X029614Y006847D01*
X029560Y006854D01*
X029506Y006856D01*
X029505Y006945D01*
X029506Y006946D01*
X029562Y006944D01*
X029618Y006938D01*
X029673Y006928D01*
X029728Y006915D01*
X029781Y006898D01*
X029834Y006878D01*
X029885Y006854D01*
X029934Y006827D01*
X029981Y006796D01*
X030026Y006763D01*
X030069Y006727D01*
X030109Y006688D01*
X030147Y006646D01*
X030140Y006640D01*
X030103Y006681D01*
X030063Y006720D01*
X030021Y006756D01*
X029976Y006789D01*
X029929Y006819D01*
X029881Y006846D01*
X029830Y006869D01*
X029778Y006890D01*
X029725Y006906D01*
X029671Y006919D01*
X029617Y006929D01*
X029562Y006935D01*
X029506Y006937D01*
X029506Y006928D01*
X029561Y006926D01*
X029616Y006920D01*
X029670Y006911D01*
X029723Y006898D01*
X029775Y006881D01*
X029827Y006861D01*
X029876Y006838D01*
X029925Y006811D01*
X029971Y006782D01*
X030015Y006749D01*
X030057Y006713D01*
X030096Y006675D01*
X030133Y006634D01*
X030126Y006629D01*
X030090Y006669D01*
X030051Y006707D01*
X030009Y006742D01*
X029966Y006774D01*
X029920Y006804D01*
X029872Y006830D01*
X029823Y006853D01*
X029773Y006873D01*
X029721Y006889D01*
X029668Y006902D01*
X029614Y006911D01*
X029560Y006917D01*
X029506Y006919D01*
X029506Y006910D01*
X029560Y006908D01*
X029613Y006902D01*
X029666Y006893D01*
X029718Y006880D01*
X029770Y006864D01*
X029820Y006845D01*
X029868Y006822D01*
X029915Y006796D01*
X029961Y006767D01*
X030004Y006735D01*
X030045Y006700D01*
X030083Y006663D01*
X030119Y006623D01*
X030112Y006617D01*
X030077Y006656D01*
X030039Y006693D01*
X029998Y006728D01*
X029955Y006759D01*
X029911Y006788D01*
X029864Y006814D01*
X029816Y006836D01*
X029767Y006856D01*
X029716Y006872D01*
X029664Y006884D01*
X029612Y006893D01*
X029559Y006899D01*
X029506Y006901D01*
X029506Y006892D01*
X029558Y006890D01*
X029611Y006884D01*
X029662Y006875D01*
X029713Y006863D01*
X029764Y006847D01*
X029813Y006828D01*
X029860Y006806D01*
X029906Y006780D01*
X029950Y006752D01*
X029992Y006721D01*
X030033Y006687D01*
X030070Y006650D01*
X030105Y006611D01*
X030099Y006605D01*
X030064Y006644D01*
X030026Y006680D01*
X029987Y006714D01*
X029945Y006745D01*
X029901Y006773D01*
X029856Y006798D01*
X029809Y006820D01*
X029761Y006839D01*
X029711Y006854D01*
X029661Y006867D01*
X029610Y006875D01*
X029558Y006881D01*
X029506Y006883D01*
X029506Y006874D01*
X029557Y006872D01*
X029608Y006867D01*
X029659Y006858D01*
X029709Y006846D01*
X029758Y006830D01*
X029805Y006812D01*
X029852Y006790D01*
X029897Y006765D01*
X029940Y006737D01*
X029981Y006707D01*
X030020Y006674D01*
X030057Y006638D01*
X030092Y006600D01*
X030085Y006594D01*
X030048Y006635D01*
X030008Y006673D01*
X029966Y006707D01*
X029921Y006739D01*
X029874Y006768D01*
X029825Y006793D01*
X029774Y006814D01*
X029723Y006832D01*
X029669Y006846D01*
X029615Y006856D01*
X029561Y006863D01*
X029506Y006865D01*
X031270Y005578D02*
X031348Y005623D01*
X031348Y005622D02*
X031376Y005578D01*
X031407Y005536D01*
X031440Y005496D01*
X031476Y005458D01*
X031515Y005423D01*
X031556Y005391D01*
X031600Y005361D01*
X031645Y005335D01*
X031692Y005312D01*
X031740Y005292D01*
X031790Y005276D01*
X031840Y005263D01*
X031892Y005254D01*
X031944Y005248D01*
X031996Y005246D01*
X031997Y005157D01*
X031996Y005156D01*
X031941Y005158D01*
X031887Y005164D01*
X031832Y005173D01*
X031779Y005186D01*
X031727Y005202D01*
X031675Y005221D01*
X031625Y005244D01*
X031577Y005270D01*
X031530Y005299D01*
X031486Y005331D01*
X031443Y005366D01*
X031403Y005404D01*
X031366Y005444D01*
X031331Y005486D01*
X031299Y005531D01*
X031270Y005577D01*
X031278Y005582D01*
X031306Y005536D01*
X031338Y005492D01*
X031373Y005450D01*
X031410Y005410D01*
X031449Y005373D01*
X031491Y005338D01*
X031535Y005307D01*
X031581Y005278D01*
X031629Y005252D01*
X031679Y005230D01*
X031729Y005210D01*
X031781Y005194D01*
X031834Y005182D01*
X031888Y005173D01*
X031942Y005167D01*
X031996Y005165D01*
X031996Y005174D01*
X031942Y005176D01*
X031889Y005182D01*
X031836Y005191D01*
X031784Y005203D01*
X031732Y005219D01*
X031682Y005238D01*
X031633Y005260D01*
X031586Y005286D01*
X031540Y005314D01*
X031497Y005346D01*
X031455Y005380D01*
X031416Y005416D01*
X031379Y005456D01*
X031345Y005497D01*
X031314Y005541D01*
X031285Y005586D01*
X031293Y005591D01*
X031323Y005543D01*
X031357Y005497D01*
X031393Y005454D01*
X031433Y005413D01*
X031475Y005375D01*
X031519Y005340D01*
X031566Y005308D01*
X031615Y005280D01*
X031666Y005255D01*
X031719Y005233D01*
X031772Y005216D01*
X031827Y005202D01*
X031883Y005192D01*
X031939Y005185D01*
X031996Y005183D01*
X031996Y005192D01*
X031940Y005194D01*
X031884Y005200D01*
X031829Y005210D01*
X031775Y005224D01*
X031722Y005242D01*
X031670Y005263D01*
X031619Y005288D01*
X031571Y005316D01*
X031525Y005347D01*
X031480Y005382D01*
X031439Y005419D01*
X031400Y005460D01*
X031364Y005502D01*
X031331Y005548D01*
X031301Y005595D01*
X031309Y005600D01*
X031338Y005553D01*
X031371Y005508D01*
X031407Y005466D01*
X031445Y005426D01*
X031486Y005389D01*
X031530Y005354D01*
X031576Y005323D01*
X031624Y005296D01*
X031673Y005271D01*
X031725Y005250D01*
X031777Y005233D01*
X031831Y005219D01*
X031886Y005209D01*
X031941Y005203D01*
X031996Y005201D01*
X031996Y005210D01*
X031941Y005212D01*
X031887Y005218D01*
X031833Y005228D01*
X031780Y005242D01*
X031728Y005259D01*
X031677Y005279D01*
X031628Y005304D01*
X031581Y005331D01*
X031535Y005362D01*
X031492Y005395D01*
X031451Y005432D01*
X031413Y005472D01*
X031378Y005514D01*
X031346Y005558D01*
X031317Y005604D01*
X031325Y005609D01*
X031353Y005563D01*
X031385Y005519D01*
X031420Y005478D01*
X031458Y005439D01*
X031498Y005402D01*
X031540Y005369D01*
X031585Y005339D01*
X031632Y005311D01*
X031681Y005288D01*
X031731Y005267D01*
X031782Y005250D01*
X031835Y005237D01*
X031888Y005227D01*
X031942Y005221D01*
X031996Y005219D01*
X031996Y005228D01*
X031943Y005230D01*
X031889Y005236D01*
X031837Y005246D01*
X031785Y005259D01*
X031734Y005276D01*
X031684Y005296D01*
X031636Y005319D01*
X031590Y005346D01*
X031546Y005376D01*
X031504Y005409D01*
X031464Y005445D01*
X031427Y005484D01*
X031392Y005525D01*
X031361Y005568D01*
X031332Y005613D01*
X031340Y005618D01*
X031368Y005573D01*
X031399Y005530D01*
X031433Y005490D01*
X031470Y005452D01*
X031509Y005416D01*
X031551Y005384D01*
X031595Y005354D01*
X031641Y005327D01*
X031688Y005304D01*
X031737Y005284D01*
X031787Y005267D01*
X031839Y005254D01*
X031891Y005245D01*
X031943Y005239D01*
X031996Y005237D01*
X032005Y005157D02*
X032005Y005247D01*
X032006Y005246D02*
X032060Y005248D01*
X032113Y005254D01*
X032166Y005264D01*
X032218Y005278D01*
X032269Y005295D01*
X032319Y005316D01*
X032367Y005340D01*
X032413Y005368D01*
X032457Y005399D01*
X032498Y005433D01*
X032538Y005470D01*
X032574Y005509D01*
X032642Y005452D01*
X032643Y005451D01*
X032605Y005410D01*
X032565Y005372D01*
X032522Y005336D01*
X032477Y005303D01*
X032430Y005273D01*
X032382Y005247D01*
X032331Y005223D01*
X032279Y005203D01*
X032226Y005187D01*
X032172Y005173D01*
X032117Y005164D01*
X032062Y005158D01*
X032006Y005156D01*
X032006Y005165D01*
X032061Y005167D01*
X032116Y005173D01*
X032170Y005182D01*
X032224Y005195D01*
X032276Y005212D01*
X032328Y005231D01*
X032378Y005255D01*
X032426Y005281D01*
X032472Y005311D01*
X032517Y005343D01*
X032559Y005378D01*
X032599Y005417D01*
X032636Y005457D01*
X032629Y005463D01*
X032592Y005423D01*
X032553Y005385D01*
X032511Y005350D01*
X032467Y005318D01*
X032421Y005289D01*
X032373Y005263D01*
X032324Y005240D01*
X032273Y005220D01*
X032221Y005204D01*
X032168Y005191D01*
X032115Y005182D01*
X032060Y005176D01*
X032006Y005174D01*
X032006Y005183D01*
X032060Y005185D01*
X032113Y005191D01*
X032166Y005200D01*
X032219Y005213D01*
X032270Y005229D01*
X032321Y005248D01*
X032369Y005271D01*
X032417Y005296D01*
X032462Y005325D01*
X032506Y005357D01*
X032547Y005392D01*
X032586Y005429D01*
X032622Y005469D01*
X032615Y005475D01*
X032579Y005435D01*
X032541Y005398D01*
X032500Y005364D01*
X032457Y005333D01*
X032412Y005304D01*
X032365Y005279D01*
X032317Y005256D01*
X032267Y005237D01*
X032216Y005221D01*
X032165Y005209D01*
X032112Y005200D01*
X032059Y005194D01*
X032006Y005192D01*
X032006Y005201D01*
X032059Y005203D01*
X032111Y005209D01*
X032163Y005218D01*
X032214Y005230D01*
X032264Y005246D01*
X032314Y005265D01*
X032361Y005287D01*
X032408Y005312D01*
X032452Y005340D01*
X032494Y005371D01*
X032535Y005405D01*
X032573Y005442D01*
X032608Y005480D01*
X032602Y005486D01*
X032566Y005448D01*
X032529Y005412D01*
X032489Y005378D01*
X032447Y005348D01*
X032403Y005320D01*
X032357Y005295D01*
X032310Y005273D01*
X032261Y005254D01*
X032212Y005239D01*
X032161Y005226D01*
X032110Y005218D01*
X032058Y005212D01*
X032006Y005210D01*
X032006Y005219D01*
X032062Y005221D01*
X032117Y005228D01*
X032172Y005238D01*
X032226Y005252D01*
X032279Y005270D01*
X032330Y005292D01*
X032380Y005317D01*
X032428Y005346D01*
X032473Y005378D01*
X032516Y005413D01*
X032557Y005451D01*
X032595Y005492D01*
X032588Y005498D01*
X032551Y005457D01*
X032510Y005420D01*
X032468Y005385D01*
X032423Y005353D01*
X032375Y005325D01*
X032326Y005300D01*
X032275Y005278D01*
X032223Y005261D01*
X032170Y005247D01*
X032116Y005237D01*
X032061Y005230D01*
X032006Y005228D01*
X032006Y005237D01*
X032060Y005239D01*
X032115Y005245D01*
X032168Y005255D01*
X032221Y005269D01*
X032272Y005287D01*
X032322Y005308D01*
X032371Y005333D01*
X032418Y005361D01*
X032462Y005392D01*
X032504Y005426D01*
X032544Y005464D01*
X032581Y005504D01*
X031996Y006845D02*
X031996Y006755D01*
X031996Y006756D02*
X031942Y006754D01*
X031889Y006748D01*
X031836Y006738D01*
X031784Y006724D01*
X031733Y006707D01*
X031684Y006686D01*
X031636Y006662D01*
X031590Y006634D01*
X031546Y006603D01*
X031504Y006569D01*
X031465Y006533D01*
X031428Y006493D01*
X031395Y006451D01*
X031364Y006407D01*
X031337Y006361D01*
X031258Y006403D01*
X031286Y006452D01*
X031318Y006498D01*
X031353Y006543D01*
X031390Y006585D01*
X031431Y006624D01*
X031474Y006661D01*
X031519Y006695D01*
X031566Y006726D01*
X031616Y006753D01*
X031667Y006777D01*
X031719Y006798D01*
X031773Y006815D01*
X031828Y006828D01*
X031883Y006838D01*
X031940Y006844D01*
X031996Y006846D01*
X031996Y006837D01*
X031940Y006835D01*
X031885Y006829D01*
X031830Y006819D01*
X031775Y006806D01*
X031722Y006789D01*
X031670Y006769D01*
X031620Y006745D01*
X031571Y006718D01*
X031524Y006688D01*
X031479Y006654D01*
X031437Y006618D01*
X031397Y006579D01*
X031360Y006537D01*
X031325Y006493D01*
X031294Y006447D01*
X031266Y006399D01*
X031274Y006395D01*
X031302Y006442D01*
X031333Y006488D01*
X031367Y006531D01*
X031403Y006573D01*
X031443Y006611D01*
X031485Y006647D01*
X031529Y006680D01*
X031575Y006710D01*
X031624Y006737D01*
X031674Y006760D01*
X031725Y006781D01*
X031778Y006797D01*
X031831Y006810D01*
X031886Y006820D01*
X031941Y006826D01*
X031996Y006828D01*
X031996Y006819D01*
X031941Y006817D01*
X031887Y006811D01*
X031833Y006802D01*
X031780Y006789D01*
X031728Y006772D01*
X031677Y006752D01*
X031628Y006729D01*
X031580Y006702D01*
X031534Y006673D01*
X031490Y006640D01*
X031449Y006605D01*
X031410Y006566D01*
X031373Y006526D01*
X031340Y006483D01*
X031309Y006437D01*
X031282Y006390D01*
X031290Y006386D01*
X031317Y006433D01*
X031347Y006477D01*
X031380Y006520D01*
X031416Y006560D01*
X031455Y006598D01*
X031496Y006633D01*
X031539Y006665D01*
X031585Y006695D01*
X031632Y006721D01*
X031681Y006744D01*
X031731Y006764D01*
X031783Y006780D01*
X031835Y006793D01*
X031888Y006802D01*
X031942Y006808D01*
X031996Y006810D01*
X031996Y006801D01*
X031943Y006799D01*
X031889Y006793D01*
X031837Y006784D01*
X031785Y006771D01*
X031734Y006755D01*
X031684Y006736D01*
X031636Y006713D01*
X031589Y006687D01*
X031545Y006658D01*
X031502Y006626D01*
X031461Y006591D01*
X031423Y006554D01*
X031387Y006514D01*
X031354Y006472D01*
X031324Y006428D01*
X031297Y006382D01*
X031305Y006378D01*
X031332Y006423D01*
X031362Y006467D01*
X031394Y006508D01*
X031429Y006548D01*
X031467Y006585D01*
X031507Y006619D01*
X031550Y006651D01*
X031594Y006679D01*
X031640Y006705D01*
X031688Y006727D01*
X031737Y006747D01*
X031787Y006763D01*
X031839Y006775D01*
X031891Y006784D01*
X031943Y006790D01*
X031996Y006792D01*
X031996Y006783D01*
X031940Y006781D01*
X031885Y006774D01*
X031830Y006764D01*
X031776Y006750D01*
X031724Y006732D01*
X031672Y006711D01*
X031623Y006685D01*
X031575Y006657D01*
X031529Y006625D01*
X031486Y006590D01*
X031446Y006552D01*
X031408Y006511D01*
X031373Y006467D01*
X031342Y006421D01*
X031313Y006373D01*
X031321Y006369D01*
X031349Y006417D01*
X031380Y006462D01*
X031415Y006505D01*
X031452Y006545D01*
X031492Y006583D01*
X031535Y006618D01*
X031580Y006649D01*
X031627Y006678D01*
X031676Y006702D01*
X031727Y006724D01*
X031779Y006741D01*
X031832Y006755D01*
X031886Y006765D01*
X031941Y006772D01*
X031996Y006774D01*
X031996Y006765D01*
X031942Y006763D01*
X031888Y006757D01*
X031834Y006747D01*
X031782Y006733D01*
X031730Y006715D01*
X031680Y006694D01*
X031631Y006670D01*
X031585Y006642D01*
X031540Y006610D01*
X031498Y006576D01*
X031459Y006539D01*
X031422Y006499D01*
X031388Y006457D01*
X031357Y006412D01*
X031329Y006365D01*
X032646Y006545D02*
X032577Y006488D01*
X032578Y006488D02*
X032541Y006528D01*
X032502Y006566D01*
X032460Y006600D01*
X032416Y006632D01*
X032370Y006660D01*
X032321Y006685D01*
X032271Y006706D01*
X032220Y006724D01*
X032167Y006737D01*
X032114Y006747D01*
X032060Y006754D01*
X032006Y006756D01*
X032005Y006845D01*
X032006Y006846D01*
X032062Y006844D01*
X032118Y006838D01*
X032173Y006828D01*
X032228Y006815D01*
X032281Y006798D01*
X032334Y006778D01*
X032385Y006754D01*
X032434Y006727D01*
X032481Y006696D01*
X032526Y006663D01*
X032569Y006627D01*
X032609Y006588D01*
X032647Y006546D01*
X032640Y006540D01*
X032603Y006581D01*
X032563Y006620D01*
X032521Y006656D01*
X032476Y006689D01*
X032429Y006719D01*
X032381Y006746D01*
X032330Y006769D01*
X032278Y006790D01*
X032225Y006806D01*
X032171Y006819D01*
X032117Y006829D01*
X032062Y006835D01*
X032006Y006837D01*
X032006Y006828D01*
X032061Y006826D01*
X032116Y006820D01*
X032170Y006811D01*
X032223Y006798D01*
X032275Y006781D01*
X032327Y006761D01*
X032376Y006738D01*
X032425Y006711D01*
X032471Y006682D01*
X032515Y006649D01*
X032557Y006613D01*
X032596Y006575D01*
X032633Y006534D01*
X032626Y006529D01*
X032590Y006569D01*
X032551Y006607D01*
X032509Y006642D01*
X032466Y006674D01*
X032420Y006704D01*
X032372Y006730D01*
X032323Y006753D01*
X032273Y006773D01*
X032221Y006789D01*
X032168Y006802D01*
X032114Y006811D01*
X032060Y006817D01*
X032006Y006819D01*
X032006Y006810D01*
X032060Y006808D01*
X032113Y006802D01*
X032166Y006793D01*
X032218Y006780D01*
X032270Y006764D01*
X032320Y006745D01*
X032368Y006722D01*
X032415Y006696D01*
X032461Y006667D01*
X032504Y006635D01*
X032545Y006600D01*
X032583Y006563D01*
X032619Y006523D01*
X032612Y006517D01*
X032577Y006556D01*
X032539Y006593D01*
X032498Y006628D01*
X032455Y006659D01*
X032411Y006688D01*
X032364Y006714D01*
X032316Y006736D01*
X032267Y006756D01*
X032216Y006772D01*
X032164Y006784D01*
X032112Y006793D01*
X032059Y006799D01*
X032006Y006801D01*
X032006Y006792D01*
X032058Y006790D01*
X032111Y006784D01*
X032162Y006775D01*
X032213Y006763D01*
X032264Y006747D01*
X032313Y006728D01*
X032360Y006706D01*
X032406Y006680D01*
X032450Y006652D01*
X032492Y006621D01*
X032533Y006587D01*
X032570Y006550D01*
X032605Y006511D01*
X032599Y006505D01*
X032564Y006544D01*
X032526Y006580D01*
X032487Y006614D01*
X032445Y006645D01*
X032401Y006673D01*
X032356Y006698D01*
X032309Y006720D01*
X032261Y006739D01*
X032211Y006754D01*
X032161Y006767D01*
X032110Y006775D01*
X032058Y006781D01*
X032006Y006783D01*
X032006Y006774D01*
X032057Y006772D01*
X032108Y006767D01*
X032159Y006758D01*
X032209Y006746D01*
X032258Y006730D01*
X032305Y006712D01*
X032352Y006690D01*
X032397Y006665D01*
X032440Y006637D01*
X032481Y006607D01*
X032520Y006574D01*
X032557Y006538D01*
X032592Y006500D01*
X032585Y006494D01*
X032548Y006535D01*
X032508Y006573D01*
X032466Y006607D01*
X032421Y006639D01*
X032374Y006668D01*
X032325Y006693D01*
X032274Y006714D01*
X032223Y006732D01*
X032169Y006746D01*
X032115Y006756D01*
X032061Y006763D01*
X032006Y006765D01*
M02*
