%
M48
M72
T01C0.0200
T02C0.0276
T03C0.0320
T04C0.0394
T05C0.0400
T06C0.0433
T07C0.0512
T08C0.0787
T09C0.1180
T10C0.1300
%
T01
X8507Y8701
X13107Y10601
X13507Y12201
X8007Y14501
X8107Y15001
X12207Y18101
X10707Y20301
X11507Y21801
X12007Y22001
X13107Y23701
X13507Y24601
X16207Y23001
X18507Y22601
X19607Y24501
X20907Y23301
X24207Y22601
X24507Y24801
X19607Y28901
X16507Y27101
X15407Y27101
X24207Y18801
X25207Y17201
X21207Y16801
X18907Y18101
X30907Y22401
X31507Y28901
X15607Y5901
T02
X10107Y7101
X9107Y7101
X9107Y10601
X10107Y10601
X21607Y8601
X22607Y8601
X22607Y18601
X21607Y18601
T03
X17607Y18601
X17607Y19601
X17607Y20601
X17607Y21601
X17607Y22601
X17607Y23601
X14607Y23601
X14607Y22601
X14607Y21601
X14607Y20601
X14607Y19601
X14607Y18601
X14607Y17601
X14607Y16601
X14607Y15601
X14607Y14601
X14607Y13601
X14607Y12601
X14607Y11601
X14607Y10601
X17607Y10601
X17607Y11601
X17607Y12601
X17607Y13601
X17607Y14601
X17607Y15601
X17607Y16601
X17607Y17601
X32107Y17101
X33107Y17101
X33107Y14601
X32107Y14601
X32107Y11601
X33107Y11601
X33107Y9101
X32107Y9101
X32107Y5101
X33107Y5101
X33107Y3101
X32107Y3101
X32107Y20601
X33107Y20601
X33107Y22601
X32107Y22601
T04
X30607Y24101
X29107Y24101
X27607Y24101
X26107Y24101
X26107Y20101
X27607Y20101
X29107Y20101
X30607Y20101
X30607Y18101
X29107Y18101
X27607Y18101
X26107Y18101
X26107Y14101
X27607Y14101
X29107Y14101
X30607Y14101
X30607Y12101
X29107Y12101
X27607Y12101
X26107Y12101
X26107Y8101
X27607Y8101
X29107Y8101
X30607Y8101
X30607Y6601
X29107Y6601
X27607Y6601
X26107Y6601
X26107Y2601
X27607Y2601
X29107Y2601
X30607Y2601
T05
X22657Y6101
X21557Y6101
X15107Y8101
X14107Y8101
X13107Y8101
X7107Y3601
X6107Y3601
X5107Y3601
X2057Y6601
X2157Y7601
X2057Y8601
X2157Y9601
X2057Y10601
X2157Y11601
X2057Y12601
X2157Y13601
X4507Y12101
X4607Y11101
X4507Y10101
X4607Y9101
X4507Y8101
X4607Y13101
X4607Y16031
X4607Y17171
X2157Y17101
X2057Y18101
X2157Y19101
X2057Y20101
X2157Y21101
X2057Y22101
X2157Y23101
X2057Y16101
T06
X6583Y26160
X7583Y26160
X8583Y26160
X9583Y26160
X10583Y26160
X11583Y26160
X12583Y26160
X13583Y26160
X13083Y28160
X12083Y28160
X11083Y28160
X10083Y28160
X9083Y28160
X8083Y28160
X7083Y28160
X24083Y26160
X25083Y26160
X26083Y26160
X27083Y26160
X28083Y26160
X29083Y26160
X30083Y26160
X31083Y26160
X30583Y28160
X29583Y28160
X28583Y28160
X27583Y28160
X26583Y28160
X25583Y28160
X24583Y28160
T07
X35607Y22601
X35607Y20632
X35607Y16601
X35607Y14632
X35607Y11101
X35607Y9132
X35607Y5101
X35607Y3132
X21607Y2601
X19638Y2601
T08
X2107Y2101
X10107Y2101
X10107Y23101
X1107Y30601
X35607Y1101
X36607Y30601
T09
X32607Y30451
X22607Y30451
X15107Y30451
X5107Y30451
T10
X14107Y2201
M30
