G75*
G70*
%OFA0B0*%
%FSLAX24Y24*%
%IPPOS*%
%LPD*%
%AMOC8*
5,1,8,0,0,1.08239X$1,22.5*
%
%ADD10C,0.0867*%
%ADD11C,0.0640*%
%ADD12C,0.0730*%
%ADD13C,0.0720*%
%ADD14C,0.1380*%
%ADD15C,0.0050*%
%ADD16R,0.0730X0.0730*%
%ADD17R,0.0880X0.0880*%
%ADD18C,0.0880*%
%ADD19C,0.0820*%
%ADD20C,0.1260*%
%ADD21C,0.0828*%
%ADD22C,0.0860*%
%ADD23R,0.0820X0.0820*%
D10*
X001488Y001488D03*
X015061Y011912D03*
X001188Y030209D03*
X036996Y030509D03*
D11*
X023201Y018381D02*
X023201Y017821D01*
X022201Y017821D02*
X022201Y018381D01*
X021201Y018381D02*
X021201Y017821D01*
X020201Y017821D02*
X020201Y018381D01*
X019201Y018381D02*
X019201Y017821D01*
X018201Y017821D02*
X018201Y018381D01*
X017201Y018381D02*
X017201Y017821D01*
X016201Y017821D02*
X016201Y018381D01*
X015201Y018381D02*
X015201Y017821D01*
X014201Y017821D02*
X014201Y018381D01*
X013201Y018381D02*
X013201Y017821D01*
X012201Y017821D02*
X012201Y018381D01*
X011201Y018381D02*
X011201Y017821D01*
X010201Y017821D02*
X010201Y018381D01*
X010201Y015381D02*
X010201Y014821D01*
X011201Y014821D02*
X011201Y015381D01*
X012201Y015381D02*
X012201Y014821D01*
X013201Y014821D02*
X013201Y015381D01*
X014201Y015381D02*
X014201Y014821D01*
X015201Y014821D02*
X015201Y015381D01*
X016201Y015381D02*
X016201Y014821D01*
X017201Y014821D02*
X017201Y015381D01*
X018201Y015381D02*
X018201Y014821D01*
X019201Y014821D02*
X019201Y015381D01*
X020201Y015381D02*
X020201Y014821D01*
X021201Y014821D02*
X021201Y015381D01*
X022201Y015381D02*
X022201Y014821D01*
X023201Y014821D02*
X023201Y015381D01*
D12*
X013601Y006601D03*
X011101Y006601D03*
X011101Y010601D03*
X012101Y010601D03*
X012101Y012101D03*
X011101Y012101D03*
D13*
X007101Y008921D02*
X007101Y008281D01*
X006101Y008281D02*
X006101Y008921D01*
X005101Y008921D02*
X005101Y008281D01*
D14*
X006101Y002701D03*
D15*
X010809Y008811D02*
X010763Y008856D01*
X010725Y008909D01*
X010697Y008967D01*
X010679Y009029D01*
X010673Y009094D01*
X010678Y009160D01*
X010694Y009224D01*
X010721Y009284D01*
X010759Y009339D01*
X010805Y009386D01*
X010859Y009425D01*
X010918Y009453D01*
X010982Y009471D01*
X011048Y009478D01*
X011114Y009471D01*
X011177Y009453D01*
X011237Y009424D01*
X011290Y009385D01*
X011337Y009338D01*
X011374Y009283D01*
X011401Y009223D01*
X011417Y009159D01*
X011422Y009093D01*
X011414Y009021D01*
X011392Y008952D01*
X011357Y008888D01*
X011311Y008833D01*
X011254Y008788D01*
X011190Y008754D01*
X011121Y008734D01*
X011049Y008728D01*
X010984Y008733D01*
X010922Y008748D01*
X010863Y008775D01*
X010809Y008811D01*
X010840Y008790D02*
X011257Y008790D01*
X011316Y008839D02*
X010781Y008839D01*
X010741Y008887D02*
X011356Y008887D01*
X011383Y008936D02*
X010712Y008936D01*
X010692Y008984D02*
X011402Y008984D01*
X011415Y009033D02*
X010679Y009033D01*
X010674Y009081D02*
X011421Y009081D01*
X011419Y009130D02*
X010676Y009130D01*
X010683Y009178D02*
X011412Y009178D01*
X011399Y009227D02*
X010696Y009227D01*
X010717Y009275D02*
X011377Y009275D01*
X011346Y009324D02*
X010749Y009324D01*
X010792Y009373D02*
X011303Y009373D01*
X011241Y009421D02*
X010854Y009421D01*
X010976Y009470D02*
X011119Y009470D01*
X011796Y009224D02*
X011823Y009284D01*
X011861Y009339D01*
X011907Y009386D01*
X011961Y009425D01*
X012020Y009453D01*
X012084Y009471D01*
X012150Y009478D01*
X012216Y009471D01*
X012279Y009453D01*
X012339Y009424D01*
X012392Y009385D01*
X012439Y009338D01*
X012476Y009283D01*
X012503Y009223D01*
X012519Y009159D01*
X012524Y009093D01*
X012516Y009021D01*
X012494Y008952D01*
X012459Y008888D01*
X012413Y008833D01*
X012356Y008788D01*
X012292Y008754D01*
X012223Y008734D01*
X012151Y008728D01*
X012086Y008733D01*
X012024Y008748D01*
X011965Y008775D01*
X011911Y008811D01*
X011865Y008856D01*
X011827Y008909D01*
X011799Y008967D01*
X011781Y009029D01*
X011775Y009094D01*
X011780Y009160D01*
X011796Y009224D01*
X011798Y009227D02*
X012501Y009227D01*
X012514Y009178D02*
X011785Y009178D01*
X011778Y009130D02*
X012521Y009130D01*
X012523Y009081D02*
X011776Y009081D01*
X011781Y009033D02*
X012517Y009033D01*
X012504Y008984D02*
X011794Y008984D01*
X011814Y008936D02*
X012485Y008936D01*
X012458Y008887D02*
X011843Y008887D01*
X011883Y008839D02*
X012418Y008839D01*
X012359Y008790D02*
X011942Y008790D01*
X012051Y008741D02*
X012249Y008741D01*
X012479Y009275D02*
X011819Y009275D01*
X011851Y009324D02*
X012448Y009324D01*
X012405Y009373D02*
X011894Y009373D01*
X011956Y009421D02*
X012343Y009421D01*
X012221Y009470D02*
X012078Y009470D01*
X011146Y008741D02*
X010949Y008741D01*
D16*
X012101Y006601D03*
X014601Y006601D03*
D17*
X033101Y002101D03*
X037101Y005101D03*
X037601Y026101D03*
X031101Y029601D03*
X004601Y029101D03*
D18*
X006569Y029101D03*
X033069Y029601D03*
X037601Y028069D03*
X037101Y003132D03*
X031132Y002101D03*
D19*
X028101Y002671D03*
X028101Y001531D03*
X026101Y001501D03*
X025101Y001601D03*
X024101Y001501D03*
X023101Y001601D03*
X022101Y001501D03*
X021101Y001601D03*
X018601Y001551D03*
X017601Y001651D03*
X016601Y001551D03*
X015601Y001651D03*
X014601Y001551D03*
X013601Y001651D03*
X012601Y001551D03*
X012601Y003551D03*
X013601Y003651D03*
X014601Y003551D03*
X015601Y003651D03*
X016601Y003551D03*
X017601Y003651D03*
X018601Y003551D03*
X029001Y006101D03*
X030001Y006101D03*
X031501Y006001D03*
X032501Y006001D03*
X023401Y021901D03*
X022401Y021901D03*
X022601Y024001D03*
X023601Y024001D03*
X030101Y025701D03*
X031101Y025701D03*
X032301Y025701D03*
X033301Y025701D03*
X011401Y024601D03*
X010401Y024601D03*
X010301Y022201D03*
X011301Y022201D03*
X002601Y013101D03*
X002601Y012101D03*
X002601Y011101D03*
D20*
X014001Y030751D03*
X024001Y030751D03*
X037751Y020501D03*
X037751Y010501D03*
D21*
X035460Y012524D03*
X035460Y013524D03*
X035460Y014524D03*
X035460Y015524D03*
X035460Y016524D03*
X035460Y017524D03*
X035460Y018524D03*
X033460Y018024D03*
X033460Y019024D03*
X033460Y017024D03*
X033460Y016024D03*
X033460Y015024D03*
X033460Y014024D03*
X033460Y013024D03*
X033460Y012024D03*
X022477Y026460D03*
X021477Y026460D03*
X020477Y026460D03*
X019477Y026460D03*
X018477Y026460D03*
X017477Y026460D03*
X016477Y026460D03*
X015477Y026460D03*
X015977Y028460D03*
X016977Y028460D03*
X017977Y028460D03*
X018977Y028460D03*
X019977Y028460D03*
X020977Y028460D03*
X021977Y028460D03*
D22*
X025401Y024601D03*
X027201Y024701D03*
X028501Y023301D03*
X028601Y021601D03*
X027201Y020701D03*
X025401Y020601D03*
X027501Y018701D03*
X029301Y018701D03*
X031101Y018601D03*
X032601Y021601D03*
X032501Y023301D03*
X031101Y014601D03*
X029301Y014701D03*
X027501Y014701D03*
X028201Y012901D03*
X028201Y011501D03*
X026201Y012101D03*
X023901Y012001D03*
X021601Y012001D03*
X019401Y012101D03*
X017201Y012201D03*
X017201Y008201D03*
X019401Y008101D03*
X021601Y008001D03*
X023901Y008001D03*
X026201Y008101D03*
X028201Y008401D03*
X028201Y009901D03*
X032201Y009901D03*
X032201Y008401D03*
X032201Y011501D03*
X032201Y012901D03*
D23*
X011601Y003651D03*
X011601Y001651D03*
M02*
