G75*
G70*
%OFA0B0*%
%FSLAX24Y24*%
%IPPOS*%
%LPD*%
%AMOC8*
5,1,8,0,0,1.08239X$1,22.5*
%
%ADD10C,0.0560*%
%ADD11C,0.0650*%
%ADD12C,0.0640*%
%ADD13C,0.0800*%
%ADD14R,0.0650X0.0650*%
%ADD15R,0.0800X0.0800*%
%ADD16C,0.0740*%
%ADD17C,0.0748*%
%ADD18C,0.0780*%
%ADD19R,0.0740X0.0740*%
%ADD20C,0.0350*%
%ADD21C,0.0080*%
%ADD22C,0.0400*%
%ADD23C,0.0150*%
D10*
X014327Y010601D02*
X014887Y010601D01*
X014887Y011601D02*
X014327Y011601D01*
X014327Y012601D02*
X014887Y012601D01*
X014887Y013601D02*
X014327Y013601D01*
X014327Y014601D02*
X014887Y014601D01*
X014887Y015601D02*
X014327Y015601D01*
X014327Y016601D02*
X014887Y016601D01*
X014887Y017601D02*
X014327Y017601D01*
X014327Y018601D02*
X014887Y018601D01*
X014887Y019601D02*
X014327Y019601D01*
X014327Y020601D02*
X014887Y020601D01*
X014887Y021601D02*
X014327Y021601D01*
X014327Y022601D02*
X014887Y022601D01*
X014887Y023601D02*
X014327Y023601D01*
X017327Y023601D02*
X017887Y023601D01*
X017887Y022601D02*
X017327Y022601D01*
X017327Y021601D02*
X017887Y021601D01*
X017887Y020601D02*
X017327Y020601D01*
X017327Y019601D02*
X017887Y019601D01*
X017887Y018601D02*
X017327Y018601D01*
X017327Y017601D02*
X017887Y017601D01*
X017887Y016601D02*
X017327Y016601D01*
X017327Y015601D02*
X017887Y015601D01*
X017887Y014601D02*
X017327Y014601D01*
X017327Y013601D02*
X017887Y013601D01*
X017887Y012601D02*
X017327Y012601D01*
X017327Y011601D02*
X017887Y011601D01*
X017887Y010601D02*
X017327Y010601D01*
D11*
X021607Y008601D03*
X022607Y008601D03*
X022607Y018601D03*
X021607Y018601D03*
X009107Y010601D03*
X009107Y007101D03*
D12*
X013107Y007781D02*
X013107Y008421D01*
X014107Y008421D02*
X014107Y007781D01*
X015107Y007781D02*
X015107Y008421D01*
D13*
X019638Y002601D03*
X021557Y006101D03*
X022657Y006101D03*
X035607Y003132D03*
X035607Y009132D03*
X035607Y014632D03*
X035607Y020632D03*
D14*
X010107Y010601D03*
X010107Y007101D03*
D15*
X021607Y002601D03*
X035607Y005101D03*
X035607Y011101D03*
X035607Y016601D03*
X035607Y022601D03*
D16*
X005107Y003601D03*
X006107Y003601D03*
X007107Y003601D03*
X004507Y008101D03*
X004607Y009101D03*
X004507Y010101D03*
X004607Y011101D03*
X004507Y012101D03*
X004607Y013101D03*
X002057Y012601D03*
X002157Y011601D03*
X002057Y010601D03*
X002157Y009601D03*
X002057Y008601D03*
X002157Y007601D03*
X002057Y006601D03*
X002057Y016101D03*
X002157Y017101D03*
X002057Y018101D03*
X002157Y019101D03*
X002057Y020101D03*
X002157Y021101D03*
X002057Y022101D03*
X004607Y017171D03*
X004607Y016031D03*
X032107Y017101D03*
X033107Y017101D03*
X033107Y014601D03*
X032107Y014601D03*
X032107Y011601D03*
X033107Y011601D03*
X033107Y009101D03*
X032107Y009101D03*
X032107Y005101D03*
X033107Y005101D03*
X033107Y003101D03*
X032107Y003101D03*
X032107Y020601D03*
X033107Y020601D03*
X033107Y022601D03*
X032107Y022601D03*
D17*
X031083Y026160D03*
X030083Y026160D03*
X029083Y026160D03*
X028083Y026160D03*
X027083Y026160D03*
X026083Y026160D03*
X025083Y026160D03*
X024083Y026160D03*
X024583Y028160D03*
X025583Y028160D03*
X026583Y028160D03*
X027583Y028160D03*
X028583Y028160D03*
X029583Y028160D03*
X030583Y028160D03*
X013583Y026160D03*
X012583Y026160D03*
X011583Y026160D03*
X010583Y026160D03*
X009583Y026160D03*
X008583Y026160D03*
X007583Y026160D03*
X006583Y026160D03*
X007083Y028160D03*
X008083Y028160D03*
X009083Y028160D03*
X010083Y028160D03*
X011083Y028160D03*
X012083Y028160D03*
X013083Y028160D03*
D18*
X026107Y024101D03*
X027607Y024101D03*
X029107Y024101D03*
X030607Y024101D03*
X030607Y020101D03*
X029107Y020101D03*
X027607Y020101D03*
X026107Y020101D03*
X026107Y018101D03*
X027607Y018101D03*
X029107Y018101D03*
X030607Y018101D03*
X030607Y014101D03*
X029107Y014101D03*
X027607Y014101D03*
X026107Y014101D03*
X026107Y012101D03*
X027607Y012101D03*
X029107Y012101D03*
X030607Y012101D03*
X030607Y008101D03*
X029107Y008101D03*
X027607Y008101D03*
X026107Y008101D03*
X026107Y006601D03*
X027607Y006601D03*
X029107Y006601D03*
X030607Y006601D03*
X030607Y002601D03*
X029107Y002601D03*
X027607Y002601D03*
X026107Y002601D03*
D19*
X002157Y013601D03*
X002157Y023101D03*
D20*
X006583Y026160D02*
X006607Y026201D01*
X007907Y027501D01*
X009407Y027501D01*
X009507Y027601D01*
X009607Y027501D01*
X012207Y027501D01*
X013507Y026201D01*
X013583Y026160D01*
X013707Y026201D01*
X024007Y026201D01*
X024083Y026160D01*
X023507Y025101D02*
X025207Y023401D01*
X028407Y023401D01*
X029107Y024101D01*
X027607Y024101D02*
X026907Y024801D01*
X024507Y024801D01*
X023507Y025101D02*
X008607Y025101D01*
X007607Y026101D01*
X007583Y026160D01*
X009507Y027601D02*
X010007Y028101D01*
X010083Y028160D01*
X007807Y028901D02*
X019607Y028901D01*
X023807Y028401D02*
X024807Y029401D01*
X031707Y029401D01*
X036307Y024801D01*
X036307Y016601D01*
X035607Y016601D01*
X035407Y016401D01*
X032807Y016401D01*
X032107Y017101D01*
X031807Y017401D01*
X029807Y017401D01*
X029107Y018101D01*
X027607Y018101D02*
X025007Y015501D01*
X024907Y015501D01*
X024807Y015401D01*
X025507Y014701D01*
X025607Y014801D01*
X031907Y014801D01*
X032107Y014601D01*
X032807Y015301D01*
X035007Y015301D01*
X035607Y014701D01*
X035607Y014632D01*
X032107Y011601D02*
X032807Y010901D01*
X035407Y010901D01*
X035607Y011101D01*
X035007Y009801D02*
X035607Y009201D01*
X035607Y009132D01*
X035007Y009801D02*
X032807Y009801D01*
X032107Y009101D01*
X032007Y009001D01*
X028907Y009001D01*
X027907Y008001D01*
X027607Y008101D01*
X029107Y006601D01*
X029907Y005901D02*
X027307Y005901D01*
X026807Y006401D01*
X026807Y008101D01*
X026107Y008101D01*
X025907Y006801D02*
X025407Y006801D01*
X025407Y012101D01*
X026107Y012101D01*
X026107Y014101D02*
X025507Y014701D01*
X024807Y015401D02*
X022607Y015401D01*
X021207Y016801D01*
X021607Y017601D02*
X022607Y018601D01*
X023307Y019301D01*
X025307Y019301D01*
X026107Y020101D01*
X026807Y020801D01*
X028407Y020801D01*
X029107Y020101D01*
X029407Y021301D02*
X030607Y020101D01*
X031607Y020101D01*
X032107Y020601D01*
X032807Y021301D01*
X035007Y021301D01*
X035607Y020701D01*
X035607Y020632D01*
X035607Y022601D02*
X034907Y023301D01*
X032807Y023301D01*
X032107Y022601D01*
X031807Y023301D02*
X030907Y022401D01*
X031807Y023301D02*
X031807Y026901D01*
X030607Y028101D01*
X030583Y028160D01*
X031507Y028901D02*
X025307Y028901D01*
X024607Y028201D01*
X024583Y028160D01*
X023807Y028401D02*
X013307Y028401D01*
X013107Y028201D01*
X013083Y028160D01*
X013507Y024601D02*
X013607Y024501D01*
X019607Y024501D01*
X020907Y023301D02*
X022907Y021301D01*
X029407Y021301D01*
X029107Y014101D02*
X030607Y014101D01*
X030607Y012101D02*
X029107Y012101D01*
X025907Y006801D02*
X026107Y006601D01*
X025407Y006801D02*
X022307Y006801D01*
X021607Y006101D01*
X021557Y006101D01*
X016107Y006101D01*
X015107Y007101D01*
X010107Y007101D01*
X008507Y008701D01*
X009607Y010001D02*
X009107Y010501D01*
X009107Y010601D01*
X009607Y010001D02*
X014107Y010001D01*
X014107Y009201D01*
X022007Y009201D01*
X022607Y008601D01*
X022657Y006101D02*
X022607Y006101D01*
X022607Y005501D01*
X022707Y005401D01*
X024807Y005401D01*
X027607Y002601D01*
X029907Y005901D02*
X030607Y006601D01*
X032107Y005101D02*
X032807Y005801D01*
X034907Y005801D01*
X035607Y005101D01*
X035007Y003801D02*
X035607Y003201D01*
X035607Y003132D01*
X035007Y003801D02*
X032807Y003801D01*
X032107Y003101D01*
X022607Y005501D02*
X019707Y002601D01*
X019638Y002601D01*
X015107Y007101D02*
X015107Y008101D01*
X014107Y008101D02*
X014107Y009201D01*
X017607Y017601D02*
X021607Y017601D01*
X007807Y028901D02*
X007107Y028201D01*
X007083Y028160D01*
D21*
X006807Y024101D02*
X002307Y019601D01*
X001907Y019601D01*
X001507Y019201D01*
X001507Y017601D01*
X004207Y017601D01*
X004607Y017201D01*
X004607Y017171D01*
X004607Y016031D02*
X004607Y016001D01*
X015107Y016001D01*
X016907Y014201D01*
X018307Y014201D01*
X018307Y012301D01*
X017607Y011601D01*
X017607Y012601D02*
X016407Y013801D01*
X015307Y013801D01*
X015107Y014001D01*
X008507Y014001D01*
X008007Y014501D01*
X008107Y015001D02*
X015107Y015001D01*
X016107Y014001D01*
X017207Y014001D01*
X017607Y013601D01*
X017307Y015001D02*
X024407Y015001D01*
X026707Y012701D01*
X032007Y012701D01*
X033107Y011601D01*
X033107Y017101D02*
X031507Y018701D01*
X024307Y018701D01*
X024207Y018801D01*
X025207Y017201D02*
X019207Y017201D01*
X017607Y015601D01*
X017307Y015001D02*
X016107Y016201D01*
X014107Y016201D01*
X012207Y018101D01*
X010807Y020201D02*
X017207Y020201D01*
X017607Y020601D01*
X017607Y019601D02*
X018607Y018601D01*
X021607Y018601D01*
X018907Y018101D02*
X018107Y018101D01*
X017607Y018601D01*
X014607Y021601D02*
X015007Y022001D01*
X018407Y022001D01*
X020107Y023701D01*
X021007Y023701D01*
X021707Y023001D01*
X029707Y023001D01*
X029707Y024301D01*
X029307Y024701D01*
X029107Y024701D01*
X029107Y026101D01*
X029083Y026160D01*
X026583Y028160D02*
X026507Y028101D01*
X025507Y027101D01*
X016507Y027101D01*
X015807Y026701D02*
X025507Y026701D01*
X026007Y026201D01*
X026083Y026160D01*
X024207Y022601D02*
X024807Y022001D01*
X032507Y022001D01*
X033107Y022601D01*
X018507Y022601D02*
X017907Y023201D01*
X016507Y023201D01*
X016107Y023601D01*
X014607Y023601D01*
X013207Y023601D01*
X013107Y023701D01*
X012607Y022601D02*
X014607Y022601D01*
X015807Y022601D01*
X016207Y023001D01*
X017107Y024101D02*
X006807Y024101D01*
X010707Y020301D02*
X010807Y020201D01*
X011707Y021601D02*
X014607Y021601D01*
X012607Y022601D02*
X012007Y022001D01*
X011707Y021601D02*
X011507Y021801D01*
X015807Y026701D02*
X015407Y027101D01*
X017107Y024101D02*
X017607Y023601D01*
X014607Y015601D02*
X014407Y015401D01*
X006907Y015401D01*
X004607Y013101D01*
X004307Y012601D02*
X003907Y012201D01*
X003907Y009601D01*
X004707Y009601D01*
X005007Y009901D01*
X005007Y011101D01*
X004607Y011101D01*
X004107Y011301D02*
X004407Y011601D01*
X013607Y011601D01*
X014607Y012601D01*
X013607Y012601D02*
X014607Y013601D01*
X013607Y012601D02*
X004307Y012601D01*
X004507Y012101D02*
X013407Y012101D01*
X013507Y012201D01*
X014307Y011301D02*
X006807Y011301D01*
X004607Y009101D01*
X004507Y010101D02*
X004107Y010101D01*
X004107Y011301D01*
X004507Y008101D02*
X007507Y011101D01*
X014107Y011101D01*
X014607Y010601D01*
X014307Y011301D02*
X014607Y011601D01*
X015607Y005901D02*
X013907Y004201D01*
X005707Y004201D01*
X005107Y003601D01*
D22*
X008507Y008701D03*
X013107Y010601D03*
X013507Y012201D03*
X008007Y014501D03*
X008107Y015001D03*
X012207Y018101D03*
X010707Y020301D03*
X011507Y021801D03*
X012007Y022001D03*
X013107Y023701D03*
X013507Y024601D03*
X016207Y023001D03*
X018507Y022601D03*
X019607Y024501D03*
X020907Y023301D03*
X024207Y022601D03*
X024507Y024801D03*
X019607Y028901D03*
X016507Y027101D03*
X015407Y027101D03*
X024207Y018801D03*
X025207Y017201D03*
X021207Y016801D03*
X018907Y018101D03*
X030907Y022401D03*
X031507Y028901D03*
X015607Y005901D03*
D23*
X013107Y010601D02*
X010107Y010601D01*
X016607Y016601D02*
X017607Y016601D01*
X016607Y016601D02*
X014607Y018601D01*
X002707Y018601D01*
X002207Y019101D01*
X002157Y019101D01*
X010607Y026101D02*
X010583Y026160D01*
X010607Y026101D02*
X011107Y025601D01*
X027507Y025601D01*
X028007Y026101D01*
X028083Y026160D01*
M02*
