G75*
G70*
%OFA0B0*%
%FSLAX24Y24*%
%IPPOS*%
%LPD*%
%AMOC8*
5,1,8,0,0,1.08239X$1,22.5*
%
%ADD10C,0.0560*%
%ADD11C,0.0650*%
%ADD12C,0.0640*%
%ADD13C,0.0800*%
%ADD14R,0.0650X0.0650*%
%ADD15R,0.0800X0.0800*%
%ADD16C,0.0740*%
%ADD17C,0.0748*%
%ADD18C,0.0780*%
%ADD19R,0.0740X0.0740*%
%ADD20C,0.0200*%
%ADD21C,0.0400*%
%ADD22C,0.0080*%
D10*
X014327Y010601D02*
X014887Y010601D01*
X014887Y011601D02*
X014327Y011601D01*
X014327Y012601D02*
X014887Y012601D01*
X014887Y013601D02*
X014327Y013601D01*
X014327Y014601D02*
X014887Y014601D01*
X014887Y015601D02*
X014327Y015601D01*
X014327Y016601D02*
X014887Y016601D01*
X014887Y017601D02*
X014327Y017601D01*
X014327Y018601D02*
X014887Y018601D01*
X014887Y019601D02*
X014327Y019601D01*
X014327Y020601D02*
X014887Y020601D01*
X014887Y021601D02*
X014327Y021601D01*
X014327Y022601D02*
X014887Y022601D01*
X014887Y023601D02*
X014327Y023601D01*
X017327Y023601D02*
X017887Y023601D01*
X017887Y022601D02*
X017327Y022601D01*
X017327Y021601D02*
X017887Y021601D01*
X017887Y020601D02*
X017327Y020601D01*
X017327Y019601D02*
X017887Y019601D01*
X017887Y018601D02*
X017327Y018601D01*
X017327Y017601D02*
X017887Y017601D01*
X017887Y016601D02*
X017327Y016601D01*
X017327Y015601D02*
X017887Y015601D01*
X017887Y014601D02*
X017327Y014601D01*
X017327Y013601D02*
X017887Y013601D01*
X017887Y012601D02*
X017327Y012601D01*
X017327Y011601D02*
X017887Y011601D01*
X017887Y010601D02*
X017327Y010601D01*
D11*
X021607Y008601D03*
X022607Y008601D03*
X022607Y018601D03*
X021607Y018601D03*
X009107Y010601D03*
X009107Y007101D03*
D12*
X013107Y007781D02*
X013107Y008421D01*
X014107Y008421D02*
X014107Y007781D01*
X015107Y007781D02*
X015107Y008421D01*
D13*
X019638Y002601D03*
X021557Y006101D03*
X022657Y006101D03*
X035607Y003132D03*
X035607Y009132D03*
X035607Y014632D03*
X035607Y020632D03*
D14*
X010107Y010601D03*
X010107Y007101D03*
D15*
X021607Y002601D03*
X035607Y005101D03*
X035607Y011101D03*
X035607Y016601D03*
X035607Y022601D03*
D16*
X033107Y022601D03*
X032107Y022601D03*
X032107Y020601D03*
X033107Y020601D03*
X033107Y017101D03*
X032107Y017101D03*
X032107Y014601D03*
X033107Y014601D03*
X033107Y011601D03*
X032107Y011601D03*
X032107Y009101D03*
X033107Y009101D03*
X033107Y005101D03*
X032107Y005101D03*
X032107Y003101D03*
X033107Y003101D03*
X007107Y003601D03*
X006107Y003601D03*
X005107Y003601D03*
X002057Y006601D03*
X002157Y007601D03*
X002057Y008601D03*
X002157Y009601D03*
X002057Y010601D03*
X002157Y011601D03*
X002057Y012601D03*
X004507Y012101D03*
X004607Y011101D03*
X004507Y010101D03*
X004607Y009101D03*
X004507Y008101D03*
X004607Y013101D03*
X004607Y016031D03*
X004607Y017171D03*
X002157Y017101D03*
X002057Y018101D03*
X002157Y019101D03*
X002057Y020101D03*
X002157Y021101D03*
X002057Y022101D03*
X002057Y016101D03*
D17*
X006583Y026160D03*
X007583Y026160D03*
X008583Y026160D03*
X009583Y026160D03*
X010583Y026160D03*
X011583Y026160D03*
X012583Y026160D03*
X013583Y026160D03*
X013083Y028160D03*
X012083Y028160D03*
X011083Y028160D03*
X010083Y028160D03*
X009083Y028160D03*
X008083Y028160D03*
X007083Y028160D03*
X024083Y026160D03*
X025083Y026160D03*
X026083Y026160D03*
X027083Y026160D03*
X028083Y026160D03*
X029083Y026160D03*
X030083Y026160D03*
X031083Y026160D03*
X030583Y028160D03*
X029583Y028160D03*
X028583Y028160D03*
X027583Y028160D03*
X026583Y028160D03*
X025583Y028160D03*
X024583Y028160D03*
D18*
X026107Y024101D03*
X027607Y024101D03*
X029107Y024101D03*
X030607Y024101D03*
X030607Y020101D03*
X029107Y020101D03*
X027607Y020101D03*
X026107Y020101D03*
X026107Y018101D03*
X027607Y018101D03*
X029107Y018101D03*
X030607Y018101D03*
X030607Y014101D03*
X029107Y014101D03*
X027607Y014101D03*
X026107Y014101D03*
X026107Y012101D03*
X027607Y012101D03*
X029107Y012101D03*
X030607Y012101D03*
X030607Y008101D03*
X029107Y008101D03*
X027607Y008101D03*
X026107Y008101D03*
X026107Y006601D03*
X027607Y006601D03*
X029107Y006601D03*
X030607Y006601D03*
X030607Y002601D03*
X029107Y002601D03*
X027607Y002601D03*
X026107Y002601D03*
D19*
X002157Y013601D03*
X002157Y023101D03*
D20*
X007607Y024601D02*
X024607Y024601D01*
X026107Y023101D01*
X028107Y023101D01*
X029107Y024101D01*
X028607Y025101D02*
X029607Y025101D01*
X030607Y024101D01*
X030607Y025601D02*
X036607Y025601D01*
X037607Y024601D01*
X037607Y001601D01*
X027107Y001601D01*
X026107Y002601D01*
X026607Y003601D02*
X020607Y003601D01*
X019607Y002601D01*
X019638Y002601D01*
X019607Y002601D02*
X018107Y004101D01*
X009107Y004101D01*
X009107Y007101D01*
X006107Y004101D01*
X005607Y004101D01*
X006107Y003601D01*
X005607Y004101D02*
X003107Y006601D01*
X002057Y006601D01*
X010107Y007101D02*
X010607Y006601D01*
X014107Y006601D01*
X015107Y007601D01*
X015107Y008101D01*
X020607Y006101D02*
X020607Y005101D01*
X032107Y005101D01*
X033107Y006101D01*
X034607Y006101D01*
X035607Y005101D01*
X034607Y004101D02*
X035607Y003101D01*
X035607Y003132D01*
X034607Y004101D02*
X033107Y004101D01*
X032107Y003101D01*
X027607Y002601D02*
X026607Y003601D01*
X026107Y006601D02*
X025607Y007101D01*
X022607Y007101D01*
X021607Y006101D01*
X021557Y006101D01*
X020607Y006101D02*
X022107Y007601D01*
X025607Y007601D01*
X026107Y008101D01*
X027607Y008101D02*
X028607Y009101D01*
X032107Y009101D01*
X033107Y010101D01*
X034607Y010101D01*
X035607Y009101D01*
X035607Y009132D01*
X035107Y010601D02*
X033107Y010601D01*
X024607Y010601D01*
X023607Y013101D02*
X026607Y013101D01*
X027607Y014101D01*
X030107Y016601D02*
X030607Y017101D01*
X029607Y018101D01*
X029107Y018101D01*
X030607Y017101D02*
X032107Y017101D01*
X033107Y018101D01*
X034107Y018101D01*
X035607Y016601D01*
X035607Y014632D02*
X035607Y014601D01*
X034607Y013601D01*
X033107Y013601D01*
X032107Y014601D01*
X030107Y016601D02*
X020607Y016601D01*
X020107Y017101D01*
X021607Y017601D02*
X022607Y018601D01*
X021607Y017601D02*
X017607Y017601D01*
X021107Y021601D02*
X029107Y021601D01*
X034607Y021601D01*
X035607Y020601D01*
X035607Y020632D01*
X035607Y022601D02*
X034607Y023601D01*
X033107Y023601D01*
X032107Y022601D01*
X032107Y020601D02*
X031607Y020101D01*
X030607Y020101D01*
X029107Y021601D01*
X029607Y022101D02*
X026607Y022101D01*
X024607Y024101D01*
X012607Y024101D01*
X014107Y025601D02*
X011107Y025601D01*
X013107Y028101D02*
X013083Y028160D01*
X013107Y028101D02*
X017107Y028101D01*
X016107Y027601D02*
X014107Y025601D01*
X016107Y027601D02*
X008607Y027601D01*
X008107Y028101D01*
X008083Y028160D01*
X007107Y028101D02*
X007083Y028160D01*
X007107Y028101D02*
X008607Y029601D01*
X014607Y029601D01*
X016107Y027601D02*
X022607Y027601D01*
X024107Y029101D01*
X024583Y028160D02*
X024607Y028101D01*
X025607Y029101D01*
X033607Y029101D01*
X032607Y026101D02*
X030607Y028101D01*
X030583Y028160D01*
X029607Y027601D02*
X027107Y027601D01*
X026607Y027101D01*
X025107Y027101D01*
X024107Y026101D01*
X024083Y026160D01*
X027107Y027601D02*
X027607Y028101D01*
X027583Y028160D01*
X029607Y027601D02*
X031107Y026101D01*
X031083Y026160D01*
X030607Y025601D02*
X030107Y026101D01*
X030083Y026160D01*
X028607Y025101D02*
X027607Y024101D01*
X027107Y021101D02*
X028107Y021101D01*
X029107Y020101D01*
X027107Y021101D02*
X026107Y020101D01*
X022107Y020101D01*
X021107Y021601D02*
X019607Y023101D01*
X032107Y011601D02*
X033107Y010601D01*
X035107Y010601D02*
X035607Y011101D01*
X037107Y026101D02*
X032607Y026101D01*
D21*
X031107Y025101D03*
X029607Y022101D03*
X026607Y025101D03*
X022607Y027101D03*
X024107Y029101D03*
X021107Y025101D03*
X020607Y023601D03*
X019607Y023101D03*
X022107Y020101D03*
X023107Y021101D03*
X023107Y019101D03*
X020107Y017101D03*
X016107Y020601D03*
X013607Y018601D03*
X012107Y021101D03*
X012107Y024101D03*
X012607Y024101D03*
X011107Y025601D03*
X007607Y024601D03*
X006107Y020601D03*
X009107Y014101D03*
X009107Y013101D03*
X012607Y011101D03*
X010607Y006101D03*
X023607Y013101D03*
X024607Y010601D03*
X029607Y017101D03*
X037107Y026101D03*
X033607Y029101D03*
X033107Y029601D03*
X017107Y028101D03*
X016107Y026101D03*
X014107Y029101D03*
X014607Y029601D03*
D22*
X005107Y003601D02*
X001107Y003601D01*
X001107Y006601D01*
X001607Y007101D01*
X005107Y007101D01*
X007107Y009101D01*
X016107Y009101D01*
X017607Y010601D01*
X017607Y011601D02*
X018607Y012601D01*
X018607Y014101D01*
X017107Y014101D01*
X015107Y016101D01*
X004607Y016101D01*
X004607Y016031D01*
X004607Y017101D02*
X004607Y017171D01*
X004607Y019601D01*
X007107Y022101D01*
X016107Y022101D01*
X017607Y023601D01*
X018607Y023601D02*
X020607Y023601D01*
X021107Y025101D02*
X026607Y025101D01*
X027607Y025601D02*
X014607Y025601D01*
X014107Y025101D01*
X009607Y025101D01*
X004107Y025101D01*
X002107Y023101D01*
X002157Y023101D01*
X006107Y020601D02*
X014607Y020601D01*
X014607Y019601D02*
X015607Y020601D01*
X016107Y020601D01*
X016107Y019101D02*
X017607Y020601D01*
X018107Y021101D02*
X012107Y021101D01*
X012607Y021601D01*
X014607Y021601D01*
X014607Y023601D02*
X012607Y023601D01*
X012107Y024101D01*
X010607Y026101D02*
X010583Y026160D01*
X010607Y026101D02*
X009607Y025101D01*
X009107Y028101D02*
X009083Y028160D01*
X009107Y028101D02*
X010107Y029101D01*
X014107Y029101D01*
X016107Y026101D02*
X022107Y026101D01*
X023607Y027601D01*
X026107Y027601D01*
X026607Y028101D01*
X026583Y028160D01*
X025107Y029601D02*
X033107Y029601D01*
X029083Y026160D02*
X029107Y026101D01*
X030107Y025101D01*
X030607Y025101D01*
X031607Y024101D01*
X031607Y022101D01*
X035107Y022101D01*
X036607Y020601D01*
X036607Y019101D01*
X023607Y019101D01*
X023107Y019601D01*
X019607Y019601D01*
X018107Y021101D01*
X017607Y021601D02*
X020607Y021601D01*
X021107Y021101D01*
X023107Y021101D01*
X023107Y019101D02*
X025107Y017101D01*
X029607Y017101D01*
X031607Y012101D02*
X032607Y012101D01*
X033107Y011601D01*
X031607Y012101D02*
X030607Y011101D01*
X012607Y011101D01*
X013607Y009601D02*
X004107Y009601D01*
X004107Y008101D01*
X004507Y008101D01*
X004607Y008101D01*
X005107Y007601D02*
X005107Y009101D01*
X004607Y009101D01*
X003607Y010101D02*
X003607Y007601D01*
X005107Y007601D01*
X003607Y010101D02*
X004107Y010601D01*
X005107Y010601D01*
X006107Y011601D01*
X014607Y011601D01*
X014607Y010601D02*
X013607Y009601D01*
X010607Y006101D02*
X012107Y004601D01*
X032607Y004601D01*
X033107Y005101D01*
X035607Y015601D02*
X037107Y017101D01*
X037107Y024601D01*
X031607Y024601D01*
X031107Y025101D01*
X028107Y026101D02*
X028083Y026160D01*
X028107Y026101D02*
X027607Y025601D01*
X025107Y029601D02*
X022607Y027101D01*
X018607Y023601D02*
X017607Y022601D01*
X017607Y019601D02*
X018607Y018601D01*
X021607Y018601D01*
X019107Y016101D02*
X035107Y016101D01*
X035607Y015601D01*
X019107Y016101D02*
X017607Y014601D01*
X017607Y013601D02*
X015607Y013601D01*
X015107Y014101D01*
X009107Y014101D01*
X009107Y013101D02*
X017107Y013101D01*
X017607Y012601D01*
X014607Y013601D02*
X007107Y013601D01*
X004607Y011101D01*
X004607Y012101D02*
X004507Y012101D01*
X004607Y012101D02*
X007107Y014601D01*
X014607Y014601D01*
X014107Y015101D02*
X006607Y015101D01*
X004607Y013101D01*
X002107Y016101D02*
X002057Y016101D01*
X002107Y016101D02*
X002607Y016601D01*
X012607Y016601D01*
X014607Y018601D01*
X016607Y016601D01*
X017607Y016601D01*
X016107Y019101D02*
X014107Y019101D01*
X013607Y018601D01*
X014607Y015601D02*
X014107Y015101D01*
M02*
