G75*
G70*
%OFA0B0*%
%FSLAX24Y24*%
%IPPOS*%
%LPD*%
%AMOC8*
5,1,8,0,0,1.08239X$1,22.5*
%
%ADD10C,0.0080*%
%ADD11C,0.0001*%
%ADD12C,0.0060*%
%ADD13C,0.0020*%
%ADD14C,0.0040*%
%ADD15R,0.0500X0.0350*%
%ADD16C,0.0100*%
%ADD17C,0.0050*%
%ADD18C,0.0010*%
D10*
X011101Y001351D02*
X011351Y001101D01*
X011851Y001101D01*
X012101Y001351D01*
X012351Y001101D01*
X012851Y001101D01*
X013101Y001351D01*
X013351Y001101D01*
X013851Y001101D01*
X014101Y001351D01*
X014351Y001101D01*
X014851Y001101D01*
X015101Y001351D01*
X015351Y001101D01*
X015851Y001101D01*
X016101Y001351D01*
X016351Y001101D01*
X016851Y001101D01*
X017101Y001351D01*
X017351Y001101D01*
X017851Y001101D01*
X018101Y001351D01*
X018351Y001101D01*
X018851Y001101D01*
X019101Y001351D01*
X019101Y001851D01*
X018851Y002101D01*
X018351Y002101D01*
X018101Y001851D01*
X017851Y002101D01*
X017351Y002101D01*
X017101Y001851D01*
X016851Y002101D01*
X016351Y002101D01*
X016101Y001851D01*
X015851Y002101D01*
X015351Y002101D01*
X015101Y001851D01*
X014851Y002101D01*
X014351Y002101D01*
X014101Y001851D01*
X013851Y002101D01*
X013351Y002101D01*
X013101Y001851D01*
X012851Y002101D01*
X012351Y002101D01*
X012101Y001851D01*
X011851Y002101D01*
X011351Y002101D01*
X011101Y001851D01*
X011101Y001351D01*
X011351Y003101D02*
X011851Y003101D01*
X012101Y003351D01*
X012351Y003101D01*
X012851Y003101D01*
X013101Y003351D01*
X013351Y003101D01*
X013851Y003101D01*
X014101Y003351D01*
X014351Y003101D01*
X014851Y003101D01*
X015101Y003351D01*
X015351Y003101D01*
X015851Y003101D01*
X016101Y003351D01*
X016351Y003101D01*
X016851Y003101D01*
X017101Y003351D01*
X017351Y003101D01*
X017851Y003101D01*
X018101Y003351D01*
X018351Y003101D01*
X018851Y003101D01*
X019101Y003351D01*
X019101Y003851D01*
X018851Y004101D01*
X018351Y004101D01*
X018101Y003851D01*
X017851Y004101D01*
X017351Y004101D01*
X017101Y003851D01*
X016851Y004101D01*
X016351Y004101D01*
X016101Y003851D01*
X015851Y004101D01*
X015351Y004101D01*
X015101Y003851D01*
X014851Y004101D01*
X014351Y004101D01*
X014101Y003851D01*
X013851Y004101D01*
X013351Y004101D01*
X013101Y003851D01*
X012851Y004101D01*
X012351Y004101D01*
X012101Y003851D01*
X011851Y004101D01*
X011351Y004101D01*
X011101Y003851D01*
X011101Y003351D01*
X011351Y003101D01*
X010617Y006601D02*
X010619Y006663D01*
X010625Y006726D01*
X010635Y006787D01*
X010649Y006848D01*
X010666Y006908D01*
X010687Y006967D01*
X010713Y007024D01*
X010741Y007079D01*
X010773Y007133D01*
X010809Y007184D01*
X010847Y007234D01*
X010889Y007280D01*
X010933Y007324D01*
X010981Y007365D01*
X011030Y007403D01*
X011082Y007437D01*
X011136Y007468D01*
X011192Y007496D01*
X011250Y007520D01*
X011309Y007541D01*
X011369Y007557D01*
X011430Y007570D01*
X011492Y007579D01*
X011554Y007584D01*
X011617Y007585D01*
X011679Y007582D01*
X011741Y007575D01*
X011803Y007564D01*
X011863Y007549D01*
X011923Y007531D01*
X011981Y007509D01*
X012038Y007483D01*
X012093Y007453D01*
X012146Y007420D01*
X012197Y007384D01*
X012245Y007345D01*
X012291Y007302D01*
X012334Y007257D01*
X012374Y007209D01*
X012411Y007159D01*
X012445Y007106D01*
X012476Y007052D01*
X012502Y006996D01*
X012526Y006938D01*
X012545Y006878D01*
X012561Y006818D01*
X012573Y006756D01*
X012581Y006695D01*
X012585Y006632D01*
X012585Y006570D01*
X012581Y006507D01*
X012573Y006446D01*
X012561Y006384D01*
X012545Y006324D01*
X012526Y006264D01*
X012502Y006206D01*
X012476Y006150D01*
X012445Y006096D01*
X012411Y006043D01*
X012374Y005993D01*
X012334Y005945D01*
X012291Y005900D01*
X012245Y005857D01*
X012197Y005818D01*
X012146Y005782D01*
X012093Y005749D01*
X012038Y005719D01*
X011981Y005693D01*
X011923Y005671D01*
X011863Y005653D01*
X011803Y005638D01*
X011741Y005627D01*
X011679Y005620D01*
X011617Y005617D01*
X011554Y005618D01*
X011492Y005623D01*
X011430Y005632D01*
X011369Y005645D01*
X011309Y005661D01*
X011250Y005682D01*
X011192Y005706D01*
X011136Y005734D01*
X011082Y005765D01*
X011030Y005799D01*
X010981Y005837D01*
X010933Y005878D01*
X010889Y005922D01*
X010847Y005968D01*
X010809Y006018D01*
X010773Y006069D01*
X010741Y006123D01*
X010713Y006178D01*
X010687Y006235D01*
X010666Y006294D01*
X010649Y006354D01*
X010635Y006415D01*
X010625Y006476D01*
X010619Y006539D01*
X010617Y006601D01*
X010901Y007151D02*
X011301Y007151D01*
X013401Y007151D02*
X013801Y007151D01*
X013117Y006601D02*
X013119Y006663D01*
X013125Y006726D01*
X013135Y006787D01*
X013149Y006848D01*
X013166Y006908D01*
X013187Y006967D01*
X013213Y007024D01*
X013241Y007079D01*
X013273Y007133D01*
X013309Y007184D01*
X013347Y007234D01*
X013389Y007280D01*
X013433Y007324D01*
X013481Y007365D01*
X013530Y007403D01*
X013582Y007437D01*
X013636Y007468D01*
X013692Y007496D01*
X013750Y007520D01*
X013809Y007541D01*
X013869Y007557D01*
X013930Y007570D01*
X013992Y007579D01*
X014054Y007584D01*
X014117Y007585D01*
X014179Y007582D01*
X014241Y007575D01*
X014303Y007564D01*
X014363Y007549D01*
X014423Y007531D01*
X014481Y007509D01*
X014538Y007483D01*
X014593Y007453D01*
X014646Y007420D01*
X014697Y007384D01*
X014745Y007345D01*
X014791Y007302D01*
X014834Y007257D01*
X014874Y007209D01*
X014911Y007159D01*
X014945Y007106D01*
X014976Y007052D01*
X015002Y006996D01*
X015026Y006938D01*
X015045Y006878D01*
X015061Y006818D01*
X015073Y006756D01*
X015081Y006695D01*
X015085Y006632D01*
X015085Y006570D01*
X015081Y006507D01*
X015073Y006446D01*
X015061Y006384D01*
X015045Y006324D01*
X015026Y006264D01*
X015002Y006206D01*
X014976Y006150D01*
X014945Y006096D01*
X014911Y006043D01*
X014874Y005993D01*
X014834Y005945D01*
X014791Y005900D01*
X014745Y005857D01*
X014697Y005818D01*
X014646Y005782D01*
X014593Y005749D01*
X014538Y005719D01*
X014481Y005693D01*
X014423Y005671D01*
X014363Y005653D01*
X014303Y005638D01*
X014241Y005627D01*
X014179Y005620D01*
X014117Y005617D01*
X014054Y005618D01*
X013992Y005623D01*
X013930Y005632D01*
X013869Y005645D01*
X013809Y005661D01*
X013750Y005682D01*
X013692Y005706D01*
X013636Y005734D01*
X013582Y005765D01*
X013530Y005799D01*
X013481Y005837D01*
X013433Y005878D01*
X013389Y005922D01*
X013347Y005968D01*
X013309Y006018D01*
X013273Y006069D01*
X013241Y006123D01*
X013213Y006178D01*
X013187Y006235D01*
X013166Y006294D01*
X013149Y006354D01*
X013135Y006415D01*
X013125Y006476D01*
X013119Y006539D01*
X013117Y006601D01*
X011601Y010351D02*
X011601Y010851D01*
X011601Y011851D02*
X011601Y012351D01*
X009801Y015401D02*
X009701Y015401D01*
X009701Y017801D01*
X009801Y017801D01*
X003457Y014390D02*
X003457Y009811D01*
X001744Y009811D01*
X001744Y014390D01*
X003457Y014390D01*
X003380Y027802D02*
X003380Y028195D01*
X007790Y028195D01*
X007790Y027802D01*
X003380Y027802D01*
X003380Y028195D02*
X003380Y030754D01*
X007790Y030754D01*
X007790Y028195D01*
X015001Y028401D02*
X015001Y029739D01*
X022954Y029739D01*
X022954Y028401D01*
X022957Y028405D02*
X022446Y028405D01*
X021520Y028405D02*
X021442Y028405D01*
X020517Y028405D02*
X020438Y028405D01*
X019513Y028405D02*
X019434Y028405D01*
X018509Y028405D02*
X018430Y028405D01*
X017524Y028405D02*
X017446Y028405D01*
X016520Y028405D02*
X016442Y028405D01*
X015517Y028405D02*
X015005Y028405D01*
X015001Y029739D02*
X015001Y030369D01*
X022954Y030369D01*
X022954Y029739D01*
X029880Y028695D02*
X029880Y028302D01*
X034290Y028302D01*
X034290Y028695D01*
X029880Y028695D01*
X029880Y031254D01*
X034290Y031254D01*
X034290Y028695D01*
X035947Y029290D02*
X038506Y029290D01*
X038506Y024880D01*
X035947Y024880D01*
X035947Y029290D01*
X038506Y029290D02*
X038900Y029290D01*
X038900Y024880D01*
X038506Y024880D01*
X037369Y019501D02*
X036739Y019501D01*
X036739Y011548D01*
X035401Y011548D01*
X035405Y011544D02*
X035405Y012056D01*
X035405Y012981D02*
X035405Y013060D01*
X035405Y013985D02*
X035405Y014064D01*
X035405Y014989D02*
X035405Y015068D01*
X035405Y015993D02*
X035405Y016072D01*
X035405Y016977D02*
X035405Y017056D01*
X035405Y017981D02*
X035405Y018060D01*
X035405Y018985D02*
X035405Y019497D01*
X035401Y019501D02*
X036739Y019501D01*
X037369Y019501D02*
X037369Y011548D01*
X036739Y011548D01*
X036195Y006321D02*
X035802Y006321D01*
X035802Y001912D01*
X036195Y001912D01*
X036195Y006321D01*
X038754Y006321D01*
X038754Y001912D01*
X036195Y001912D01*
X034321Y003006D02*
X034321Y000447D01*
X029912Y000447D01*
X029912Y003006D01*
X034321Y003006D01*
X034321Y003400D01*
X029912Y003400D01*
X029912Y003006D01*
X028601Y002851D02*
X028601Y002351D01*
X028351Y002101D01*
X028601Y001851D01*
X028601Y001351D01*
X028351Y001101D01*
X027851Y001101D01*
X027601Y001351D01*
X027601Y001851D01*
X027851Y002101D01*
X027601Y002351D01*
X027601Y002851D01*
X027851Y003101D01*
X028351Y003101D01*
X028601Y002851D01*
X026601Y001801D02*
X026601Y001301D01*
X026351Y001051D01*
X025851Y001051D01*
X025601Y001301D01*
X025601Y001801D01*
X025851Y002051D01*
X026351Y002051D01*
X026601Y001801D01*
X025601Y001801D02*
X025351Y002051D01*
X024851Y002051D01*
X024601Y001801D01*
X024601Y001301D01*
X024351Y001051D01*
X023851Y001051D01*
X023601Y001301D01*
X023601Y001801D01*
X023851Y002051D01*
X024351Y002051D01*
X024601Y001801D01*
X024601Y001301D02*
X024851Y001051D01*
X025351Y001051D01*
X025601Y001301D01*
X023601Y001301D02*
X023351Y001051D01*
X022851Y001051D01*
X022601Y001301D01*
X022601Y001801D01*
X022851Y002051D01*
X023351Y002051D01*
X023601Y001801D01*
X022601Y001801D02*
X022351Y002051D01*
X021851Y002051D01*
X021601Y001801D01*
X021601Y001301D01*
X021351Y001051D01*
X020851Y001051D01*
X020601Y001301D01*
X020601Y001801D01*
X020851Y002051D01*
X021351Y002051D01*
X021601Y001801D01*
X021601Y001301D02*
X021851Y001051D01*
X022351Y001051D01*
X022601Y001301D01*
X023601Y015401D02*
X023701Y015401D01*
X023701Y016101D01*
X023657Y016103D01*
X023614Y016109D01*
X023572Y016118D01*
X023530Y016131D01*
X023490Y016148D01*
X023451Y016168D01*
X023414Y016191D01*
X023380Y016218D01*
X023347Y016247D01*
X023318Y016280D01*
X023291Y016314D01*
X023268Y016351D01*
X023248Y016390D01*
X023231Y016430D01*
X023218Y016472D01*
X023209Y016514D01*
X023203Y016557D01*
X023201Y016601D01*
X023203Y016645D01*
X023209Y016688D01*
X023218Y016730D01*
X023231Y016772D01*
X023248Y016812D01*
X023268Y016851D01*
X023291Y016888D01*
X023318Y016922D01*
X023347Y016955D01*
X023380Y016984D01*
X023414Y017011D01*
X023451Y017034D01*
X023490Y017054D01*
X023530Y017071D01*
X023572Y017084D01*
X023614Y017093D01*
X023657Y017099D01*
X023701Y017101D01*
X023701Y017801D01*
X023601Y017801D01*
D11*
X016872Y022460D02*
X016864Y022443D01*
X016865Y022443D02*
X016831Y022458D01*
X016796Y022470D01*
X016761Y022480D01*
X016725Y022486D01*
X016688Y022491D01*
X016651Y022492D01*
X016651Y022510D01*
X016651Y022511D01*
X016690Y022510D01*
X016728Y022505D01*
X016765Y022498D01*
X016802Y022488D01*
X016838Y022476D01*
X016873Y022460D01*
X016872Y022459D01*
X016838Y022475D01*
X016802Y022487D01*
X016765Y022497D01*
X016727Y022504D01*
X016690Y022509D01*
X016651Y022510D01*
X016651Y022509D01*
X016689Y022508D01*
X016727Y022503D01*
X016765Y022496D01*
X016801Y022486D01*
X016837Y022474D01*
X016872Y022458D01*
X016837Y022473D01*
X016801Y022485D01*
X016764Y022495D01*
X016727Y022502D01*
X016689Y022507D01*
X016651Y022508D01*
X016651Y022507D01*
X016689Y022506D01*
X016727Y022501D01*
X016764Y022494D01*
X016801Y022484D01*
X016836Y022472D01*
X016871Y022457D01*
X016871Y022456D01*
X016836Y022471D01*
X016800Y022483D01*
X016764Y022493D01*
X016727Y022500D01*
X016689Y022505D01*
X016651Y022506D01*
X016651Y022505D01*
X016689Y022504D01*
X016727Y022499D01*
X016764Y022492D01*
X016800Y022482D01*
X016836Y022470D01*
X016870Y022455D01*
X016870Y022454D01*
X016835Y022469D01*
X016800Y022481D01*
X016763Y022491D01*
X016727Y022498D01*
X016689Y022503D01*
X016651Y022504D01*
X016651Y022503D01*
X016689Y022502D01*
X016726Y022497D01*
X016763Y022490D01*
X016800Y022481D01*
X016835Y022468D01*
X016869Y022453D01*
X016869Y022452D01*
X016835Y022467D01*
X016799Y022480D01*
X016763Y022489D01*
X016726Y022496D01*
X016689Y022501D01*
X016651Y022502D01*
X016651Y022501D01*
X016689Y022500D01*
X016726Y022495D01*
X016763Y022488D01*
X016799Y022479D01*
X016834Y022466D01*
X016869Y022451D01*
X016868Y022450D01*
X016834Y022465D01*
X016799Y022478D01*
X016763Y022487D01*
X016726Y022494D01*
X016689Y022499D01*
X016651Y022500D01*
X016651Y022499D01*
X016689Y022498D01*
X016726Y022493D01*
X016762Y022486D01*
X016798Y022477D01*
X016833Y022464D01*
X016868Y022449D01*
X016867Y022449D01*
X016833Y022463D01*
X016798Y022476D01*
X016762Y022485D01*
X016726Y022492D01*
X016689Y022497D01*
X016651Y022498D01*
X016651Y022497D01*
X016689Y022496D01*
X016725Y022491D01*
X016762Y022484D01*
X016798Y022475D01*
X016833Y022462D01*
X016867Y022448D01*
X016866Y022447D01*
X016832Y022462D01*
X016797Y022474D01*
X016762Y022483D01*
X016725Y022490D01*
X016689Y022495D01*
X016651Y022496D01*
X016651Y022495D01*
X016688Y022494D01*
X016725Y022489D01*
X016761Y022482D01*
X016797Y022473D01*
X016832Y022461D01*
X016866Y022446D01*
X016865Y022445D01*
X016832Y022460D01*
X016797Y022472D01*
X016761Y022482D01*
X016725Y022488D01*
X016688Y022493D01*
X016651Y022494D01*
X016651Y022493D01*
X016688Y022492D01*
X016725Y022487D01*
X016761Y022481D01*
X016797Y022471D01*
X016831Y022459D01*
X016865Y022444D01*
X016651Y021492D02*
X016651Y021511D01*
X016651Y021510D02*
X016688Y021511D01*
X016725Y021516D01*
X016761Y021522D01*
X016796Y021532D01*
X016831Y021544D01*
X016865Y021559D01*
X016872Y021542D01*
X016873Y021542D01*
X016838Y021526D01*
X016802Y021514D01*
X016765Y021504D01*
X016728Y021497D01*
X016690Y021492D01*
X016651Y021491D01*
X016651Y021492D01*
X016690Y021493D01*
X016727Y021498D01*
X016765Y021505D01*
X016802Y021515D01*
X016838Y021527D01*
X016872Y021543D01*
X016872Y021544D01*
X016837Y021528D01*
X016801Y021516D01*
X016765Y021506D01*
X016727Y021499D01*
X016689Y021494D01*
X016651Y021493D01*
X016651Y021494D01*
X016689Y021495D01*
X016727Y021500D01*
X016764Y021507D01*
X016801Y021517D01*
X016837Y021529D01*
X016872Y021544D01*
X016871Y021545D01*
X016836Y021530D01*
X016801Y021518D01*
X016764Y021508D01*
X016727Y021501D01*
X016689Y021496D01*
X016651Y021495D01*
X016651Y021496D01*
X016689Y021497D01*
X016727Y021502D01*
X016764Y021509D01*
X016800Y021519D01*
X016836Y021531D01*
X016871Y021546D01*
X016870Y021547D01*
X016836Y021532D01*
X016800Y021520D01*
X016764Y021510D01*
X016727Y021503D01*
X016689Y021498D01*
X016651Y021497D01*
X016651Y021498D01*
X016689Y021499D01*
X016727Y021504D01*
X016763Y021511D01*
X016800Y021521D01*
X016835Y021533D01*
X016870Y021548D01*
X016869Y021549D01*
X016835Y021534D01*
X016800Y021521D01*
X016763Y021512D01*
X016726Y021505D01*
X016689Y021500D01*
X016651Y021499D01*
X016651Y021500D01*
X016689Y021501D01*
X016726Y021506D01*
X016763Y021513D01*
X016799Y021522D01*
X016835Y021535D01*
X016869Y021550D01*
X016869Y021551D01*
X016834Y021536D01*
X016799Y021523D01*
X016763Y021514D01*
X016726Y021507D01*
X016689Y021502D01*
X016651Y021501D01*
X016651Y021502D01*
X016689Y021503D01*
X016726Y021508D01*
X016763Y021515D01*
X016799Y021524D01*
X016834Y021537D01*
X016868Y021552D01*
X016868Y021553D01*
X016833Y021538D01*
X016798Y021525D01*
X016762Y021516D01*
X016726Y021509D01*
X016689Y021504D01*
X016651Y021503D01*
X016651Y021504D01*
X016689Y021505D01*
X016726Y021510D01*
X016762Y021517D01*
X016798Y021526D01*
X016833Y021539D01*
X016867Y021553D01*
X016867Y021554D01*
X016833Y021540D01*
X016798Y021527D01*
X016762Y021518D01*
X016725Y021511D01*
X016689Y021506D01*
X016651Y021505D01*
X016651Y021506D01*
X016689Y021507D01*
X016725Y021512D01*
X016762Y021519D01*
X016797Y021528D01*
X016832Y021540D01*
X016866Y021555D01*
X016866Y021556D01*
X016832Y021541D01*
X016797Y021529D01*
X016761Y021520D01*
X016725Y021513D01*
X016688Y021508D01*
X016651Y021507D01*
X016651Y021508D01*
X016688Y021509D01*
X016725Y021514D01*
X016761Y021520D01*
X016797Y021530D01*
X016832Y021542D01*
X016865Y021557D01*
X016865Y021558D01*
X016831Y021543D01*
X016797Y021531D01*
X016761Y021521D01*
X016725Y021515D01*
X016688Y021510D01*
X016651Y021509D01*
X016651Y021192D02*
X016651Y021211D01*
X016652Y021210D02*
X016706Y021212D01*
X016761Y021218D01*
X016815Y021227D01*
X016868Y021240D01*
X016921Y021257D01*
X016972Y021278D01*
X017021Y021302D01*
X017069Y021329D01*
X017114Y021360D01*
X017158Y021394D01*
X017199Y021430D01*
X017237Y021469D01*
X017272Y021511D01*
X017305Y021556D01*
X017320Y021545D01*
X017287Y021500D01*
X017251Y021457D01*
X017212Y021416D01*
X017170Y021379D01*
X017125Y021344D01*
X017079Y021313D01*
X017030Y021285D01*
X016979Y021261D01*
X016927Y021240D01*
X016874Y021222D01*
X016819Y021209D01*
X016764Y021199D01*
X016708Y021193D01*
X016652Y021191D01*
X016652Y021192D01*
X016708Y021194D01*
X016764Y021200D01*
X016819Y021210D01*
X016873Y021223D01*
X016927Y021240D01*
X016979Y021261D01*
X017029Y021286D01*
X017078Y021314D01*
X017125Y021345D01*
X017169Y021380D01*
X017211Y021417D01*
X017250Y021457D01*
X017286Y021500D01*
X017320Y021546D01*
X017319Y021546D01*
X017286Y021501D01*
X017249Y021458D01*
X017210Y021418D01*
X017168Y021380D01*
X017124Y021346D01*
X017078Y021315D01*
X017029Y021287D01*
X016978Y021262D01*
X016926Y021241D01*
X016873Y021224D01*
X016819Y021211D01*
X016763Y021201D01*
X016708Y021195D01*
X016652Y021193D01*
X016652Y021194D01*
X016708Y021196D01*
X016763Y021202D01*
X016818Y021212D01*
X016873Y021225D01*
X016926Y021242D01*
X016978Y021263D01*
X017028Y021288D01*
X017077Y021316D01*
X017124Y021347D01*
X017168Y021381D01*
X017210Y021419D01*
X017249Y021459D01*
X017285Y021502D01*
X017318Y021547D01*
X017317Y021547D01*
X017284Y021502D01*
X017248Y021459D01*
X017209Y021419D01*
X017167Y021382D01*
X017123Y021348D01*
X017077Y021316D01*
X017028Y021289D01*
X016978Y021264D01*
X016926Y021243D01*
X016873Y021226D01*
X016818Y021213D01*
X016763Y021203D01*
X016707Y021197D01*
X016652Y021195D01*
X016652Y021196D01*
X016707Y021198D01*
X016763Y021204D01*
X016818Y021214D01*
X016872Y021227D01*
X016925Y021244D01*
X016977Y021265D01*
X017028Y021289D01*
X017076Y021317D01*
X017122Y021348D01*
X017167Y021383D01*
X017208Y021420D01*
X017247Y021460D01*
X017283Y021503D01*
X017316Y021548D01*
X017315Y021548D01*
X017282Y021503D01*
X017246Y021461D01*
X017208Y021421D01*
X017166Y021384D01*
X017122Y021349D01*
X017075Y021318D01*
X017027Y021290D01*
X016977Y021266D01*
X016925Y021245D01*
X016872Y021228D01*
X016818Y021214D01*
X016763Y021205D01*
X016707Y021199D01*
X016652Y021197D01*
X016652Y021198D01*
X016707Y021200D01*
X016763Y021206D01*
X016818Y021215D01*
X016872Y021229D01*
X016925Y021246D01*
X016976Y021267D01*
X017027Y021291D01*
X017075Y021319D01*
X017121Y021350D01*
X017165Y021384D01*
X017207Y021421D01*
X017246Y021461D01*
X017282Y021504D01*
X017315Y021549D01*
X017314Y021549D01*
X017281Y021505D01*
X017245Y021462D01*
X017206Y021422D01*
X017165Y021385D01*
X017121Y021351D01*
X017074Y021320D01*
X017026Y021292D01*
X016976Y021268D01*
X016924Y021247D01*
X016871Y021230D01*
X016817Y021216D01*
X016763Y021207D01*
X016707Y021201D01*
X016652Y021199D01*
X016652Y021200D01*
X016707Y021202D01*
X016762Y021208D01*
X016817Y021217D01*
X016871Y021231D01*
X016924Y021248D01*
X016976Y021269D01*
X017026Y021293D01*
X017074Y021321D01*
X017120Y021352D01*
X017164Y021386D01*
X017205Y021423D01*
X017244Y021463D01*
X017280Y021505D01*
X017313Y021550D01*
X017312Y021551D01*
X017279Y021506D01*
X017243Y021463D01*
X017205Y021424D01*
X017163Y021387D01*
X017119Y021353D01*
X017073Y021322D01*
X017025Y021294D01*
X016975Y021270D01*
X016924Y021249D01*
X016871Y021232D01*
X016817Y021218D01*
X016762Y021209D01*
X016707Y021203D01*
X016652Y021201D01*
X016652Y021202D01*
X016707Y021204D01*
X016762Y021210D01*
X016817Y021219D01*
X016871Y021233D01*
X016923Y021250D01*
X016975Y021271D01*
X017025Y021295D01*
X017073Y021322D01*
X017119Y021353D01*
X017163Y021387D01*
X017204Y021424D01*
X017243Y021464D01*
X017279Y021506D01*
X017311Y021551D01*
X017311Y021552D01*
X017278Y021507D01*
X017242Y021465D01*
X017203Y021425D01*
X017162Y021388D01*
X017118Y021354D01*
X017072Y021323D01*
X017024Y021296D01*
X016974Y021271D01*
X016923Y021251D01*
X016870Y021234D01*
X016817Y021220D01*
X016762Y021211D01*
X016707Y021205D01*
X016652Y021203D01*
X016652Y021204D01*
X016707Y021206D01*
X016762Y021212D01*
X016816Y021221D01*
X016870Y021235D01*
X016923Y021252D01*
X016974Y021272D01*
X017024Y021297D01*
X017072Y021324D01*
X017118Y021355D01*
X017161Y021389D01*
X017203Y021426D01*
X017241Y021465D01*
X017277Y021508D01*
X017310Y021552D01*
X017309Y021553D01*
X017276Y021508D01*
X017241Y021466D01*
X017202Y021427D01*
X017161Y021390D01*
X017117Y021356D01*
X017071Y021325D01*
X017023Y021297D01*
X016974Y021273D01*
X016922Y021253D01*
X016870Y021236D01*
X016816Y021222D01*
X016762Y021213D01*
X016707Y021207D01*
X016652Y021205D01*
X016652Y021206D01*
X016707Y021208D01*
X016762Y021214D01*
X016816Y021223D01*
X016870Y021237D01*
X016922Y021254D01*
X016973Y021274D01*
X017023Y021298D01*
X017071Y021326D01*
X017117Y021357D01*
X017160Y021390D01*
X017201Y021427D01*
X017240Y021467D01*
X017275Y021509D01*
X017308Y021553D01*
X017307Y021554D01*
X017275Y021510D01*
X017239Y021467D01*
X017201Y021428D01*
X017160Y021391D01*
X017116Y021357D01*
X017070Y021327D01*
X017022Y021299D01*
X016973Y021275D01*
X016922Y021255D01*
X016869Y021238D01*
X016816Y021224D01*
X016761Y021215D01*
X016707Y021209D01*
X016652Y021207D01*
X016652Y021208D01*
X016707Y021210D01*
X016761Y021216D01*
X016816Y021225D01*
X016869Y021239D01*
X016921Y021256D01*
X016972Y021276D01*
X017022Y021300D01*
X017070Y021328D01*
X017115Y021358D01*
X017159Y021392D01*
X017200Y021429D01*
X017238Y021468D01*
X017274Y021510D01*
X017306Y021555D01*
X017273Y021511D01*
X017238Y021469D01*
X017199Y021429D01*
X017158Y021393D01*
X017115Y021359D01*
X017069Y021328D01*
X017021Y021301D01*
X016972Y021277D01*
X016921Y021256D01*
X016869Y021240D01*
X016815Y021226D01*
X016761Y021217D01*
X016706Y021211D01*
X016652Y021209D01*
X017320Y022457D02*
X017304Y022446D01*
X017305Y022446D02*
X017272Y022491D01*
X017237Y022533D01*
X017198Y022572D01*
X017158Y022609D01*
X017114Y022642D01*
X017069Y022673D01*
X017021Y022700D01*
X016972Y022724D01*
X016921Y022745D01*
X016868Y022762D01*
X016815Y022775D01*
X016761Y022784D01*
X016706Y022790D01*
X016651Y022792D01*
X016651Y022810D01*
X016651Y022811D01*
X016708Y022809D01*
X016764Y022803D01*
X016819Y022793D01*
X016874Y022780D01*
X016927Y022762D01*
X016979Y022742D01*
X017030Y022717D01*
X017079Y022689D01*
X017125Y022658D01*
X017170Y022623D01*
X017212Y022586D01*
X017251Y022545D01*
X017287Y022502D01*
X017320Y022457D01*
X017320Y022456D01*
X017286Y022502D01*
X017250Y022545D01*
X017211Y022585D01*
X017169Y022622D01*
X017125Y022657D01*
X017078Y022688D01*
X017029Y022716D01*
X016979Y022741D01*
X016927Y022762D01*
X016873Y022779D01*
X016819Y022792D01*
X016763Y022802D01*
X016708Y022808D01*
X016651Y022810D01*
X016651Y022809D01*
X016708Y022807D01*
X016763Y022801D01*
X016819Y022791D01*
X016873Y022778D01*
X016926Y022761D01*
X016978Y022740D01*
X017029Y022715D01*
X017078Y022687D01*
X017124Y022656D01*
X017168Y022622D01*
X017210Y022584D01*
X017249Y022544D01*
X017286Y022501D01*
X017319Y022456D01*
X017318Y022455D01*
X017285Y022501D01*
X017249Y022543D01*
X017210Y022583D01*
X017168Y022621D01*
X017124Y022655D01*
X017077Y022686D01*
X017028Y022714D01*
X016978Y022739D01*
X016926Y022760D01*
X016873Y022777D01*
X016818Y022790D01*
X016763Y022800D01*
X016707Y022806D01*
X016651Y022808D01*
X016651Y022807D01*
X016707Y022805D01*
X016763Y022799D01*
X016818Y022789D01*
X016872Y022776D01*
X016926Y022759D01*
X016978Y022738D01*
X017028Y022713D01*
X017076Y022686D01*
X017123Y022654D01*
X017167Y022620D01*
X017209Y022583D01*
X017248Y022543D01*
X017284Y022500D01*
X017317Y022455D01*
X017316Y022454D01*
X017283Y022499D01*
X017247Y022542D01*
X017208Y022582D01*
X017167Y022619D01*
X017122Y022654D01*
X017076Y022685D01*
X017028Y022713D01*
X016977Y022737D01*
X016925Y022758D01*
X016872Y022775D01*
X016818Y022788D01*
X016763Y022798D01*
X016707Y022804D01*
X016651Y022806D01*
X016651Y022805D01*
X016707Y022803D01*
X016763Y022797D01*
X016818Y022788D01*
X016872Y022774D01*
X016925Y022757D01*
X016977Y022736D01*
X017027Y022712D01*
X017075Y022684D01*
X017122Y022653D01*
X017166Y022619D01*
X017207Y022581D01*
X017246Y022541D01*
X017282Y022499D01*
X017315Y022454D01*
X017315Y022453D01*
X017282Y022498D01*
X017246Y022541D01*
X017207Y022581D01*
X017165Y022618D01*
X017121Y022652D01*
X017075Y022683D01*
X017027Y022711D01*
X016976Y022735D01*
X016925Y022756D01*
X016872Y022773D01*
X016818Y022787D01*
X016763Y022796D01*
X016707Y022802D01*
X016651Y022804D01*
X016651Y022803D01*
X016707Y022801D01*
X016763Y022795D01*
X016817Y022786D01*
X016871Y022772D01*
X016924Y022755D01*
X016976Y022734D01*
X017026Y022710D01*
X017074Y022682D01*
X017121Y022651D01*
X017165Y022617D01*
X017206Y022580D01*
X017245Y022540D01*
X017281Y022497D01*
X017314Y022453D01*
X017313Y022452D01*
X017280Y022497D01*
X017244Y022539D01*
X017205Y022579D01*
X017164Y022616D01*
X017120Y022650D01*
X017074Y022681D01*
X017026Y022709D01*
X016976Y022733D01*
X016924Y022754D01*
X016871Y022771D01*
X016817Y022785D01*
X016762Y022794D01*
X016707Y022800D01*
X016651Y022802D01*
X016651Y022801D01*
X016707Y022799D01*
X016762Y022793D01*
X016817Y022784D01*
X016871Y022770D01*
X016924Y022753D01*
X016975Y022732D01*
X017025Y022708D01*
X017073Y022680D01*
X017119Y022649D01*
X017163Y022615D01*
X017205Y022578D01*
X017243Y022539D01*
X017279Y022496D01*
X017312Y022451D01*
X017311Y022451D01*
X017279Y022496D01*
X017243Y022538D01*
X017204Y022578D01*
X017163Y022615D01*
X017119Y022649D01*
X017073Y022680D01*
X017025Y022707D01*
X016975Y022731D01*
X016923Y022752D01*
X016871Y022769D01*
X016817Y022783D01*
X016762Y022792D01*
X016707Y022798D01*
X016651Y022800D01*
X016651Y022799D01*
X016707Y022797D01*
X016762Y022791D01*
X016817Y022782D01*
X016870Y022768D01*
X016923Y022751D01*
X016974Y022731D01*
X017024Y022706D01*
X017072Y022679D01*
X017118Y022648D01*
X017162Y022614D01*
X017203Y022577D01*
X017242Y022537D01*
X017278Y022495D01*
X017311Y022450D01*
X017310Y022450D01*
X017277Y022494D01*
X017241Y022537D01*
X017203Y022576D01*
X017161Y022613D01*
X017118Y022647D01*
X017072Y022678D01*
X017024Y022705D01*
X016974Y022730D01*
X016923Y022750D01*
X016870Y022767D01*
X016816Y022781D01*
X016762Y022790D01*
X016707Y022796D01*
X016651Y022798D01*
X016651Y022797D01*
X016707Y022795D01*
X016762Y022789D01*
X016816Y022780D01*
X016870Y022766D01*
X016922Y022749D01*
X016974Y022729D01*
X017023Y022705D01*
X017071Y022677D01*
X017117Y022646D01*
X017161Y022612D01*
X017202Y022576D01*
X017240Y022536D01*
X017276Y022494D01*
X017309Y022449D01*
X017308Y022449D01*
X017275Y022493D01*
X017240Y022535D01*
X017201Y022575D01*
X017160Y022612D01*
X017117Y022645D01*
X017071Y022676D01*
X017023Y022704D01*
X016973Y022728D01*
X016922Y022748D01*
X016869Y022765D01*
X016816Y022779D01*
X016762Y022788D01*
X016707Y022794D01*
X016651Y022796D01*
X016651Y022795D01*
X016707Y022793D01*
X016761Y022787D01*
X016816Y022778D01*
X016869Y022764D01*
X016922Y022747D01*
X016973Y022727D01*
X017022Y022703D01*
X017070Y022675D01*
X017116Y022645D01*
X017159Y022611D01*
X017201Y022574D01*
X017239Y022535D01*
X017275Y022492D01*
X017307Y022448D01*
X017306Y022447D01*
X017274Y022492D01*
X017238Y022534D01*
X017200Y022573D01*
X017159Y022610D01*
X017115Y022644D01*
X017070Y022674D01*
X017022Y022702D01*
X016972Y022726D01*
X016921Y022747D01*
X016869Y022763D01*
X016815Y022777D01*
X016761Y022786D01*
X016707Y022792D01*
X016651Y022794D01*
X016651Y022793D01*
X016706Y022791D01*
X016761Y022785D01*
X016815Y022776D01*
X016869Y022763D01*
X016921Y022746D01*
X016972Y022725D01*
X017021Y022701D01*
X017069Y022674D01*
X017115Y022643D01*
X017158Y022609D01*
X017199Y022573D01*
X017238Y022533D01*
X017273Y022491D01*
X017306Y022447D01*
X013951Y022810D02*
X013951Y022791D01*
X013950Y022792D02*
X013896Y022790D01*
X013841Y022784D01*
X013787Y022775D01*
X013734Y022762D01*
X013681Y022745D01*
X013630Y022724D01*
X013581Y022700D01*
X013533Y022673D01*
X013488Y022642D01*
X013444Y022609D01*
X013403Y022572D01*
X013365Y022533D01*
X013330Y022491D01*
X013297Y022446D01*
X013282Y022457D01*
X013315Y022502D01*
X013351Y022545D01*
X013390Y022586D01*
X013432Y022623D01*
X013477Y022658D01*
X013523Y022689D01*
X013572Y022717D01*
X013623Y022741D01*
X013675Y022762D01*
X013728Y022780D01*
X013783Y022793D01*
X013838Y022803D01*
X013894Y022809D01*
X013950Y022811D01*
X013950Y022810D01*
X013894Y022808D01*
X013838Y022802D01*
X013783Y022792D01*
X013729Y022779D01*
X013675Y022762D01*
X013623Y022741D01*
X013573Y022716D01*
X013524Y022688D01*
X013477Y022657D01*
X013433Y022622D01*
X013391Y022585D01*
X013352Y022545D01*
X013316Y022502D01*
X013282Y022456D01*
X013283Y022456D01*
X013316Y022501D01*
X013353Y022544D01*
X013392Y022584D01*
X013434Y022622D01*
X013478Y022656D01*
X013524Y022687D01*
X013573Y022715D01*
X013624Y022740D01*
X013676Y022761D01*
X013729Y022778D01*
X013783Y022791D01*
X013839Y022801D01*
X013894Y022807D01*
X013950Y022809D01*
X013950Y022808D01*
X013894Y022806D01*
X013839Y022800D01*
X013784Y022790D01*
X013729Y022777D01*
X013676Y022760D01*
X013624Y022739D01*
X013574Y022714D01*
X013525Y022686D01*
X013478Y022655D01*
X013434Y022621D01*
X013392Y022583D01*
X013353Y022543D01*
X013317Y022501D01*
X013284Y022455D01*
X013285Y022455D01*
X013318Y022500D01*
X013354Y022543D01*
X013393Y022583D01*
X013435Y022620D01*
X013479Y022654D01*
X013525Y022686D01*
X013574Y022713D01*
X013624Y022738D01*
X013676Y022759D01*
X013729Y022776D01*
X013784Y022789D01*
X013839Y022799D01*
X013895Y022805D01*
X013950Y022807D01*
X013950Y022806D01*
X013895Y022804D01*
X013839Y022798D01*
X013784Y022788D01*
X013730Y022775D01*
X013677Y022758D01*
X013625Y022737D01*
X013574Y022713D01*
X013526Y022685D01*
X013480Y022654D01*
X013435Y022619D01*
X013394Y022582D01*
X013355Y022542D01*
X013319Y022499D01*
X013286Y022454D01*
X013287Y022454D01*
X013320Y022499D01*
X013356Y022541D01*
X013394Y022581D01*
X013436Y022618D01*
X013480Y022653D01*
X013527Y022684D01*
X013575Y022712D01*
X013625Y022736D01*
X013677Y022757D01*
X013730Y022774D01*
X013784Y022788D01*
X013839Y022797D01*
X013895Y022803D01*
X013950Y022805D01*
X013950Y022804D01*
X013895Y022802D01*
X013839Y022796D01*
X013784Y022787D01*
X013730Y022773D01*
X013677Y022756D01*
X013626Y022735D01*
X013575Y022711D01*
X013527Y022683D01*
X013481Y022652D01*
X013437Y022618D01*
X013395Y022581D01*
X013356Y022541D01*
X013320Y022498D01*
X013287Y022453D01*
X013288Y022453D01*
X013321Y022497D01*
X013357Y022540D01*
X013396Y022580D01*
X013437Y022617D01*
X013481Y022651D01*
X013528Y022682D01*
X013576Y022710D01*
X013626Y022734D01*
X013678Y022755D01*
X013731Y022772D01*
X013785Y022786D01*
X013839Y022795D01*
X013895Y022801D01*
X013950Y022803D01*
X013950Y022802D01*
X013895Y022800D01*
X013840Y022794D01*
X013785Y022785D01*
X013731Y022771D01*
X013678Y022754D01*
X013626Y022733D01*
X013576Y022709D01*
X013528Y022681D01*
X013482Y022650D01*
X013438Y022616D01*
X013397Y022579D01*
X013358Y022539D01*
X013322Y022497D01*
X013289Y022452D01*
X013290Y022451D01*
X013323Y022496D01*
X013359Y022539D01*
X013397Y022578D01*
X013439Y022615D01*
X013483Y022649D01*
X013529Y022680D01*
X013577Y022708D01*
X013627Y022732D01*
X013678Y022753D01*
X013731Y022770D01*
X013785Y022784D01*
X013840Y022793D01*
X013895Y022799D01*
X013950Y022801D01*
X013950Y022800D01*
X013895Y022798D01*
X013840Y022792D01*
X013785Y022783D01*
X013731Y022769D01*
X013679Y022752D01*
X013627Y022731D01*
X013577Y022707D01*
X013529Y022680D01*
X013483Y022649D01*
X013439Y022615D01*
X013398Y022578D01*
X013359Y022538D01*
X013323Y022496D01*
X013291Y022451D01*
X013291Y022450D01*
X013324Y022495D01*
X013360Y022537D01*
X013399Y022577D01*
X013440Y022614D01*
X013484Y022648D01*
X013530Y022679D01*
X013578Y022706D01*
X013628Y022731D01*
X013679Y022751D01*
X013732Y022768D01*
X013785Y022782D01*
X013840Y022791D01*
X013895Y022797D01*
X013950Y022799D01*
X013950Y022798D01*
X013895Y022796D01*
X013840Y022790D01*
X013786Y022781D01*
X013732Y022767D01*
X013679Y022750D01*
X013628Y022730D01*
X013578Y022705D01*
X013530Y022678D01*
X013484Y022647D01*
X013441Y022613D01*
X013399Y022576D01*
X013361Y022537D01*
X013325Y022494D01*
X013292Y022450D01*
X013293Y022449D01*
X013326Y022494D01*
X013362Y022536D01*
X013400Y022576D01*
X013441Y022612D01*
X013485Y022646D01*
X013531Y022677D01*
X013579Y022705D01*
X013628Y022729D01*
X013680Y022749D01*
X013732Y022766D01*
X013786Y022780D01*
X013840Y022789D01*
X013895Y022795D01*
X013950Y022797D01*
X013950Y022796D01*
X013895Y022794D01*
X013840Y022788D01*
X013786Y022779D01*
X013732Y022765D01*
X013680Y022748D01*
X013629Y022728D01*
X013579Y022704D01*
X013531Y022676D01*
X013485Y022645D01*
X013442Y022612D01*
X013401Y022575D01*
X013362Y022535D01*
X013327Y022493D01*
X013294Y022449D01*
X013295Y022448D01*
X013327Y022492D01*
X013363Y022535D01*
X013401Y022574D01*
X013443Y022611D01*
X013486Y022645D01*
X013532Y022675D01*
X013580Y022703D01*
X013629Y022727D01*
X013680Y022747D01*
X013733Y022764D01*
X013786Y022778D01*
X013841Y022787D01*
X013895Y022793D01*
X013950Y022795D01*
X013950Y022794D01*
X013895Y022792D01*
X013841Y022786D01*
X013786Y022777D01*
X013733Y022763D01*
X013681Y022747D01*
X013630Y022726D01*
X013580Y022702D01*
X013532Y022674D01*
X013487Y022644D01*
X013443Y022610D01*
X013402Y022573D01*
X013364Y022534D01*
X013328Y022492D01*
X013296Y022447D01*
X013329Y022491D01*
X013364Y022533D01*
X013403Y022573D01*
X013444Y022609D01*
X013487Y022643D01*
X013533Y022674D01*
X013581Y022701D01*
X013630Y022725D01*
X013681Y022746D01*
X013733Y022762D01*
X013787Y022776D01*
X013841Y022785D01*
X013896Y022791D01*
X013950Y022793D01*
X013951Y022510D02*
X013951Y022491D01*
X013951Y022492D02*
X013914Y022491D01*
X013877Y022486D01*
X013841Y022480D01*
X013806Y022470D01*
X013771Y022458D01*
X013737Y022443D01*
X013730Y022460D01*
X013729Y022460D01*
X013764Y022476D01*
X013800Y022488D01*
X013837Y022498D01*
X013874Y022505D01*
X013912Y022510D01*
X013951Y022511D01*
X013951Y022510D01*
X013912Y022509D01*
X013875Y022504D01*
X013837Y022497D01*
X013800Y022487D01*
X013764Y022475D01*
X013730Y022459D01*
X013730Y022458D01*
X013765Y022474D01*
X013801Y022486D01*
X013837Y022496D01*
X013875Y022503D01*
X013913Y022508D01*
X013951Y022509D01*
X013951Y022508D01*
X013913Y022507D01*
X013875Y022502D01*
X013838Y022495D01*
X013801Y022485D01*
X013765Y022473D01*
X013730Y022458D01*
X013731Y022457D01*
X013766Y022472D01*
X013801Y022484D01*
X013838Y022494D01*
X013875Y022501D01*
X013913Y022506D01*
X013951Y022507D01*
X013951Y022506D01*
X013913Y022505D01*
X013875Y022500D01*
X013838Y022493D01*
X013802Y022483D01*
X013766Y022471D01*
X013731Y022456D01*
X013732Y022455D01*
X013766Y022470D01*
X013802Y022482D01*
X013838Y022492D01*
X013875Y022499D01*
X013913Y022504D01*
X013951Y022505D01*
X013951Y022504D01*
X013913Y022503D01*
X013875Y022498D01*
X013839Y022491D01*
X013802Y022481D01*
X013767Y022469D01*
X013732Y022454D01*
X013733Y022453D01*
X013767Y022468D01*
X013802Y022481D01*
X013839Y022490D01*
X013876Y022497D01*
X013913Y022502D01*
X013951Y022503D01*
X013951Y022502D01*
X013913Y022501D01*
X013876Y022496D01*
X013839Y022489D01*
X013803Y022480D01*
X013767Y022467D01*
X013733Y022452D01*
X013733Y022451D01*
X013768Y022466D01*
X013803Y022479D01*
X013839Y022488D01*
X013876Y022495D01*
X013913Y022500D01*
X013951Y022501D01*
X013951Y022500D01*
X013913Y022499D01*
X013876Y022494D01*
X013839Y022487D01*
X013803Y022478D01*
X013768Y022465D01*
X013734Y022450D01*
X013734Y022449D01*
X013769Y022464D01*
X013804Y022477D01*
X013840Y022486D01*
X013876Y022493D01*
X013913Y022498D01*
X013951Y022499D01*
X013951Y022498D01*
X013913Y022497D01*
X013876Y022492D01*
X013840Y022485D01*
X013804Y022476D01*
X013769Y022463D01*
X013735Y022449D01*
X013735Y022448D01*
X013769Y022462D01*
X013804Y022475D01*
X013840Y022484D01*
X013877Y022491D01*
X013913Y022496D01*
X013951Y022497D01*
X013951Y022496D01*
X013913Y022495D01*
X013877Y022490D01*
X013840Y022483D01*
X013805Y022474D01*
X013770Y022462D01*
X013736Y022447D01*
X013736Y022446D01*
X013770Y022461D01*
X013805Y022473D01*
X013841Y022482D01*
X013877Y022489D01*
X013914Y022494D01*
X013951Y022495D01*
X013951Y022494D01*
X013914Y022493D01*
X013877Y022488D01*
X013841Y022482D01*
X013805Y022472D01*
X013770Y022460D01*
X013737Y022445D01*
X013737Y022444D01*
X013771Y022459D01*
X013805Y022471D01*
X013841Y022481D01*
X013877Y022487D01*
X013914Y022492D01*
X013951Y022493D01*
X013730Y021542D02*
X013738Y021559D01*
X013737Y021559D02*
X013771Y021544D01*
X013806Y021532D01*
X013841Y021522D01*
X013877Y021516D01*
X013914Y021511D01*
X013951Y021510D01*
X013951Y021492D01*
X013951Y021491D01*
X013912Y021492D01*
X013874Y021497D01*
X013837Y021504D01*
X013800Y021514D01*
X013764Y021526D01*
X013729Y021542D01*
X013730Y021543D01*
X013764Y021527D01*
X013800Y021515D01*
X013837Y021505D01*
X013875Y021498D01*
X013912Y021493D01*
X013951Y021492D01*
X013951Y021493D01*
X013913Y021494D01*
X013875Y021499D01*
X013837Y021506D01*
X013801Y021516D01*
X013765Y021528D01*
X013730Y021544D01*
X013765Y021529D01*
X013801Y021517D01*
X013838Y021507D01*
X013875Y021500D01*
X013913Y021495D01*
X013951Y021494D01*
X013951Y021495D01*
X013913Y021496D01*
X013875Y021501D01*
X013838Y021508D01*
X013801Y021518D01*
X013766Y021530D01*
X013731Y021545D01*
X013731Y021546D01*
X013766Y021531D01*
X013802Y021519D01*
X013838Y021509D01*
X013875Y021502D01*
X013913Y021497D01*
X013951Y021496D01*
X013951Y021497D01*
X013913Y021498D01*
X013875Y021503D01*
X013838Y021510D01*
X013802Y021520D01*
X013766Y021532D01*
X013732Y021547D01*
X013732Y021548D01*
X013767Y021533D01*
X013802Y021521D01*
X013839Y021511D01*
X013875Y021504D01*
X013913Y021499D01*
X013951Y021498D01*
X013951Y021499D01*
X013913Y021500D01*
X013876Y021505D01*
X013839Y021512D01*
X013802Y021521D01*
X013767Y021534D01*
X013733Y021549D01*
X013733Y021550D01*
X013767Y021535D01*
X013803Y021522D01*
X013839Y021513D01*
X013876Y021506D01*
X013913Y021501D01*
X013951Y021500D01*
X013951Y021501D01*
X013913Y021502D01*
X013876Y021507D01*
X013839Y021514D01*
X013803Y021523D01*
X013768Y021536D01*
X013733Y021551D01*
X013734Y021552D01*
X013768Y021537D01*
X013803Y021524D01*
X013839Y021515D01*
X013876Y021508D01*
X013913Y021503D01*
X013951Y021502D01*
X013951Y021503D01*
X013913Y021504D01*
X013876Y021509D01*
X013840Y021516D01*
X013804Y021525D01*
X013769Y021538D01*
X013734Y021553D01*
X013735Y021553D01*
X013769Y021539D01*
X013804Y021526D01*
X013840Y021517D01*
X013876Y021510D01*
X013913Y021505D01*
X013951Y021504D01*
X013951Y021505D01*
X013913Y021506D01*
X013877Y021511D01*
X013840Y021518D01*
X013804Y021527D01*
X013769Y021540D01*
X013735Y021554D01*
X013736Y021555D01*
X013770Y021540D01*
X013805Y021528D01*
X013840Y021519D01*
X013877Y021512D01*
X013913Y021507D01*
X013951Y021506D01*
X013951Y021507D01*
X013914Y021508D01*
X013877Y021513D01*
X013841Y021520D01*
X013805Y021529D01*
X013770Y021541D01*
X013736Y021556D01*
X013737Y021557D01*
X013770Y021542D01*
X013805Y021530D01*
X013841Y021520D01*
X013877Y021514D01*
X013914Y021509D01*
X013951Y021508D01*
X013951Y021509D01*
X013914Y021510D01*
X013877Y021515D01*
X013841Y021521D01*
X013805Y021531D01*
X013771Y021543D01*
X013737Y021558D01*
X013282Y021545D02*
X013298Y021556D01*
X013297Y021556D02*
X013330Y021511D01*
X013365Y021469D01*
X013404Y021430D01*
X013444Y021393D01*
X013488Y021360D01*
X013533Y021329D01*
X013581Y021302D01*
X013630Y021278D01*
X013681Y021257D01*
X013734Y021240D01*
X013787Y021227D01*
X013841Y021218D01*
X013896Y021212D01*
X013951Y021210D01*
X013951Y021192D01*
X013951Y021191D01*
X013894Y021193D01*
X013838Y021199D01*
X013783Y021209D01*
X013728Y021222D01*
X013675Y021240D01*
X013623Y021260D01*
X013572Y021285D01*
X013523Y021313D01*
X013477Y021344D01*
X013432Y021379D01*
X013390Y021416D01*
X013351Y021457D01*
X013315Y021500D01*
X013282Y021545D01*
X013282Y021546D01*
X013316Y021500D01*
X013352Y021457D01*
X013391Y021417D01*
X013433Y021380D01*
X013477Y021345D01*
X013524Y021314D01*
X013573Y021286D01*
X013623Y021261D01*
X013675Y021240D01*
X013729Y021223D01*
X013783Y021210D01*
X013839Y021200D01*
X013894Y021194D01*
X013951Y021192D01*
X013951Y021193D01*
X013894Y021195D01*
X013839Y021201D01*
X013783Y021211D01*
X013729Y021224D01*
X013676Y021241D01*
X013624Y021262D01*
X013573Y021287D01*
X013524Y021315D01*
X013478Y021346D01*
X013434Y021380D01*
X013392Y021418D01*
X013353Y021458D01*
X013316Y021501D01*
X013283Y021546D01*
X013284Y021547D01*
X013317Y021501D01*
X013353Y021459D01*
X013392Y021419D01*
X013434Y021381D01*
X013478Y021347D01*
X013525Y021316D01*
X013574Y021288D01*
X013624Y021263D01*
X013676Y021242D01*
X013729Y021225D01*
X013784Y021212D01*
X013839Y021202D01*
X013895Y021196D01*
X013951Y021194D01*
X013951Y021195D01*
X013895Y021197D01*
X013839Y021203D01*
X013784Y021213D01*
X013730Y021226D01*
X013676Y021243D01*
X013624Y021264D01*
X013574Y021289D01*
X013526Y021316D01*
X013479Y021348D01*
X013435Y021382D01*
X013393Y021419D01*
X013354Y021459D01*
X013318Y021502D01*
X013285Y021547D01*
X013286Y021548D01*
X013319Y021503D01*
X013355Y021460D01*
X013394Y021420D01*
X013435Y021383D01*
X013480Y021348D01*
X013526Y021317D01*
X013574Y021289D01*
X013625Y021265D01*
X013677Y021244D01*
X013730Y021227D01*
X013784Y021214D01*
X013839Y021204D01*
X013895Y021198D01*
X013951Y021196D01*
X013951Y021197D01*
X013895Y021199D01*
X013839Y021205D01*
X013784Y021214D01*
X013730Y021228D01*
X013677Y021245D01*
X013625Y021266D01*
X013575Y021290D01*
X013527Y021318D01*
X013480Y021349D01*
X013436Y021383D01*
X013395Y021421D01*
X013356Y021461D01*
X013320Y021503D01*
X013287Y021548D01*
X013287Y021549D01*
X013320Y021504D01*
X013356Y021461D01*
X013395Y021421D01*
X013437Y021384D01*
X013481Y021350D01*
X013527Y021319D01*
X013575Y021291D01*
X013626Y021267D01*
X013677Y021246D01*
X013730Y021229D01*
X013784Y021215D01*
X013839Y021206D01*
X013895Y021200D01*
X013951Y021198D01*
X013951Y021199D01*
X013895Y021201D01*
X013839Y021207D01*
X013785Y021216D01*
X013731Y021230D01*
X013678Y021247D01*
X013626Y021268D01*
X013576Y021292D01*
X013528Y021320D01*
X013481Y021351D01*
X013437Y021385D01*
X013396Y021422D01*
X013357Y021462D01*
X013321Y021505D01*
X013288Y021549D01*
X013289Y021550D01*
X013322Y021505D01*
X013358Y021463D01*
X013397Y021423D01*
X013438Y021386D01*
X013482Y021352D01*
X013528Y021321D01*
X013576Y021293D01*
X013626Y021269D01*
X013678Y021248D01*
X013731Y021231D01*
X013785Y021217D01*
X013840Y021208D01*
X013895Y021202D01*
X013951Y021200D01*
X013951Y021201D01*
X013895Y021203D01*
X013840Y021209D01*
X013785Y021218D01*
X013731Y021232D01*
X013678Y021249D01*
X013627Y021270D01*
X013577Y021294D01*
X013529Y021322D01*
X013483Y021353D01*
X013439Y021387D01*
X013397Y021424D01*
X013359Y021463D01*
X013323Y021506D01*
X013290Y021551D01*
X013291Y021551D01*
X013323Y021506D01*
X013359Y021464D01*
X013398Y021424D01*
X013439Y021387D01*
X013483Y021353D01*
X013529Y021322D01*
X013577Y021295D01*
X013627Y021271D01*
X013679Y021250D01*
X013731Y021233D01*
X013785Y021219D01*
X013840Y021210D01*
X013895Y021204D01*
X013951Y021202D01*
X013951Y021203D01*
X013895Y021205D01*
X013840Y021211D01*
X013785Y021220D01*
X013732Y021234D01*
X013679Y021251D01*
X013628Y021271D01*
X013578Y021296D01*
X013530Y021323D01*
X013484Y021354D01*
X013440Y021388D01*
X013399Y021425D01*
X013360Y021465D01*
X013324Y021507D01*
X013291Y021552D01*
X013292Y021552D01*
X013325Y021508D01*
X013361Y021465D01*
X013399Y021426D01*
X013441Y021389D01*
X013484Y021355D01*
X013530Y021324D01*
X013578Y021297D01*
X013628Y021272D01*
X013679Y021252D01*
X013732Y021235D01*
X013786Y021221D01*
X013840Y021212D01*
X013895Y021206D01*
X013951Y021204D01*
X013951Y021205D01*
X013895Y021207D01*
X013840Y021213D01*
X013786Y021222D01*
X013732Y021236D01*
X013680Y021253D01*
X013628Y021273D01*
X013579Y021297D01*
X013531Y021325D01*
X013485Y021356D01*
X013441Y021390D01*
X013400Y021426D01*
X013362Y021466D01*
X013326Y021508D01*
X013293Y021553D01*
X013294Y021553D01*
X013327Y021509D01*
X013362Y021467D01*
X013401Y021427D01*
X013442Y021390D01*
X013485Y021357D01*
X013531Y021326D01*
X013579Y021298D01*
X013629Y021274D01*
X013680Y021254D01*
X013733Y021237D01*
X013786Y021223D01*
X013840Y021214D01*
X013895Y021208D01*
X013951Y021206D01*
X013951Y021207D01*
X013895Y021209D01*
X013841Y021215D01*
X013786Y021224D01*
X013733Y021238D01*
X013680Y021255D01*
X013629Y021275D01*
X013580Y021299D01*
X013532Y021327D01*
X013486Y021357D01*
X013443Y021391D01*
X013401Y021428D01*
X013363Y021467D01*
X013327Y021510D01*
X013295Y021554D01*
X013296Y021555D01*
X013328Y021510D01*
X013364Y021468D01*
X013402Y021429D01*
X013443Y021392D01*
X013487Y021358D01*
X013532Y021328D01*
X013580Y021300D01*
X013630Y021276D01*
X013681Y021255D01*
X013733Y021239D01*
X013787Y021225D01*
X013841Y021216D01*
X013895Y021210D01*
X013951Y021208D01*
X013951Y021209D01*
X013896Y021211D01*
X013841Y021217D01*
X013787Y021226D01*
X013733Y021239D01*
X013681Y021256D01*
X013630Y021277D01*
X013581Y021301D01*
X013533Y021328D01*
X013487Y021359D01*
X013444Y021393D01*
X013403Y021429D01*
X013364Y021469D01*
X013329Y021511D01*
X013296Y021555D01*
D12*
X004051Y002101D02*
X004051Y001351D01*
X008151Y001351D01*
X008151Y002101D01*
X007801Y002101D01*
X007801Y002701D01*
X008151Y002701D01*
X008151Y007601D01*
X004051Y007601D01*
X004051Y002701D01*
X004401Y002701D01*
X004401Y002101D01*
X004051Y002101D01*
X005391Y002701D02*
X005393Y002754D01*
X005399Y002807D01*
X005409Y002859D01*
X005423Y002910D01*
X005440Y002960D01*
X005461Y003009D01*
X005486Y003056D01*
X005514Y003101D01*
X005546Y003144D01*
X005581Y003184D01*
X005618Y003221D01*
X005658Y003256D01*
X005701Y003288D01*
X005746Y003316D01*
X005793Y003341D01*
X005842Y003362D01*
X005892Y003379D01*
X005943Y003393D01*
X005995Y003403D01*
X006048Y003409D01*
X006101Y003411D01*
X006154Y003409D01*
X006207Y003403D01*
X006259Y003393D01*
X006310Y003379D01*
X006360Y003362D01*
X006409Y003341D01*
X006456Y003316D01*
X006501Y003288D01*
X006544Y003256D01*
X006584Y003221D01*
X006621Y003184D01*
X006656Y003144D01*
X006688Y003101D01*
X006716Y003056D01*
X006741Y003009D01*
X006762Y002960D01*
X006779Y002910D01*
X006793Y002859D01*
X006803Y002807D01*
X006809Y002754D01*
X006811Y002701D01*
X006809Y002648D01*
X006803Y002595D01*
X006793Y002543D01*
X006779Y002492D01*
X006762Y002442D01*
X006741Y002393D01*
X006716Y002346D01*
X006688Y002301D01*
X006656Y002258D01*
X006621Y002218D01*
X006584Y002181D01*
X006544Y002146D01*
X006501Y002114D01*
X006456Y002086D01*
X006409Y002061D01*
X006360Y002040D01*
X006310Y002023D01*
X006259Y002009D01*
X006207Y001999D01*
X006154Y001993D01*
X006101Y001991D01*
X006048Y001993D01*
X005995Y001999D01*
X005943Y002009D01*
X005892Y002023D01*
X005842Y002040D01*
X005793Y002061D01*
X005746Y002086D01*
X005701Y002114D01*
X005658Y002146D01*
X005618Y002181D01*
X005581Y002218D01*
X005546Y002258D01*
X005514Y002301D01*
X005486Y002346D01*
X005461Y002393D01*
X005440Y002442D01*
X005423Y002492D01*
X005409Y002543D01*
X005399Y002595D01*
X005393Y002648D01*
X005391Y002701D01*
X013151Y021051D02*
X017451Y021051D01*
X017468Y021053D01*
X017485Y021057D01*
X017501Y021064D01*
X017515Y021074D01*
X017528Y021087D01*
X017538Y021101D01*
X017545Y021117D01*
X017549Y021134D01*
X017551Y021151D01*
X017551Y021551D01*
X017551Y022451D02*
X017551Y022851D01*
X017549Y022868D01*
X017545Y022885D01*
X017538Y022901D01*
X017528Y022915D01*
X017515Y022928D01*
X017501Y022938D01*
X017485Y022945D01*
X017468Y022949D01*
X017451Y022951D01*
X013151Y022951D01*
X013134Y022949D01*
X013117Y022945D01*
X013101Y022938D01*
X013087Y022928D01*
X013074Y022915D01*
X013064Y022901D01*
X013057Y022885D01*
X013053Y022868D01*
X013051Y022851D01*
X013051Y022451D01*
X013051Y021551D02*
X013051Y021151D01*
X013053Y021134D01*
X013057Y021117D01*
X013064Y021101D01*
X013074Y021087D01*
X013087Y021074D01*
X013101Y021064D01*
X013117Y021057D01*
X013134Y021053D01*
X013151Y021051D01*
X015051Y021751D02*
X015051Y022001D01*
X015051Y022251D01*
X015201Y022251D02*
X015401Y022251D01*
X015401Y021751D01*
X015201Y021751D01*
X015201Y022251D01*
X015551Y022251D02*
X015551Y022001D01*
X015551Y021751D01*
D13*
X015551Y022001D02*
X015701Y022001D01*
X015051Y022001D02*
X014901Y022001D01*
X013951Y022501D02*
X016651Y022501D01*
X016651Y022801D02*
X013951Y022801D01*
X013951Y021501D02*
X016651Y021501D01*
X016651Y021201D02*
X013951Y021201D01*
X007901Y007351D02*
X004301Y007351D01*
X004301Y004101D01*
X007901Y004101D01*
X007901Y007351D01*
D14*
X006969Y003981D02*
X006852Y003981D01*
X006793Y003923D01*
X006969Y003981D02*
X007027Y003923D01*
X007027Y003864D01*
X006793Y003631D01*
X007027Y003631D01*
X007153Y003631D02*
X007153Y003864D01*
X007211Y003864D01*
X007269Y003806D01*
X007328Y003864D01*
X007386Y003806D01*
X007386Y003631D01*
X007269Y003631D02*
X007269Y003806D01*
X007512Y003864D02*
X007570Y003864D01*
X007628Y003806D01*
X007687Y003864D01*
X007745Y003806D01*
X007745Y003631D01*
X007628Y003631D02*
X007628Y003806D01*
X007512Y003864D02*
X007512Y003631D01*
X006671Y003631D02*
X006554Y003514D01*
X006612Y003631D02*
X006671Y003631D01*
X006671Y003689D01*
X006612Y003689D01*
X006612Y003631D01*
X006428Y003689D02*
X006370Y003631D01*
X006253Y003631D01*
X006195Y003689D01*
X006195Y003806D02*
X006312Y003864D01*
X006370Y003864D01*
X006428Y003806D01*
X006428Y003689D01*
X006195Y003806D02*
X006195Y003981D01*
X006428Y003981D01*
X005953Y003981D02*
X005953Y003631D01*
X006069Y003631D02*
X005836Y003631D01*
X005710Y003631D02*
X005710Y003864D01*
X005594Y003981D01*
X005477Y003864D01*
X005477Y003631D01*
X005477Y003806D02*
X005710Y003806D01*
X005836Y003864D02*
X005953Y003981D01*
D15*
X006101Y007776D03*
X007101Y007776D03*
X005101Y007776D03*
D16*
X010551Y008601D02*
X010551Y009601D01*
X012651Y009601D01*
X012651Y008601D01*
X010551Y008601D01*
X011601Y008851D02*
X011601Y009351D01*
X016701Y008951D02*
X017201Y008951D01*
X017201Y008701D01*
X017201Y008951D02*
X017701Y008951D01*
X017701Y010951D01*
X016701Y010951D01*
X016701Y008951D01*
X016701Y010951D02*
X016701Y011451D01*
X017201Y011451D01*
X017201Y011701D01*
X017201Y011451D02*
X017701Y011451D01*
X017701Y010951D01*
X018901Y010851D02*
X019901Y010851D01*
X019901Y011351D01*
X019401Y011351D01*
X019401Y011601D01*
X019401Y011351D02*
X018901Y011351D01*
X018901Y010851D01*
X018901Y008851D01*
X019401Y008851D01*
X019401Y008601D01*
X019401Y008851D02*
X019901Y008851D01*
X019901Y010851D01*
X021101Y010751D02*
X022101Y010751D01*
X022101Y011251D01*
X021601Y011251D01*
X021601Y011501D01*
X021601Y011251D02*
X021101Y011251D01*
X021101Y010751D01*
X021101Y008751D01*
X021601Y008751D01*
X021601Y008501D01*
X021601Y008751D02*
X022101Y008751D01*
X022101Y010751D01*
X023401Y010751D02*
X024401Y010751D01*
X024401Y011251D01*
X023901Y011251D01*
X023901Y011501D01*
X023901Y011251D02*
X023401Y011251D01*
X023401Y010751D01*
X023401Y008751D01*
X023901Y008751D01*
X023901Y008501D01*
X023901Y008751D02*
X024401Y008751D01*
X024401Y010751D01*
X025701Y010851D02*
X026701Y010851D01*
X026701Y011351D01*
X026201Y011351D01*
X026201Y011601D01*
X026201Y011351D02*
X025701Y011351D01*
X025701Y010851D01*
X025701Y008851D01*
X026201Y008851D01*
X026201Y008601D01*
X026201Y008851D02*
X026701Y008851D01*
X026701Y010851D01*
X028701Y011501D02*
X028951Y011501D01*
X028951Y011001D01*
X029451Y011001D01*
X029451Y012001D01*
X028951Y012001D01*
X028951Y011501D01*
X029451Y012001D02*
X031451Y012001D01*
X031451Y011501D01*
X031701Y011501D01*
X031451Y011501D02*
X031451Y011001D01*
X029451Y011001D01*
X029451Y010401D02*
X028951Y010401D01*
X028951Y009901D01*
X028701Y009901D01*
X028951Y009901D02*
X028951Y009401D01*
X029451Y009401D01*
X029451Y010401D01*
X031451Y010401D01*
X031451Y009901D01*
X031701Y009901D01*
X031451Y009901D02*
X031451Y009401D01*
X029451Y009401D01*
X029451Y008901D02*
X028951Y008901D01*
X028951Y008401D01*
X028701Y008401D01*
X028951Y008401D02*
X028951Y007901D01*
X029451Y007901D01*
X029451Y008901D01*
X031451Y008901D01*
X031451Y008401D01*
X031701Y008401D01*
X031451Y008401D02*
X031451Y007901D01*
X029451Y007901D01*
X030121Y006611D02*
X030121Y006411D01*
X030121Y005771D02*
X030121Y005591D01*
X032621Y005491D02*
X032621Y005671D01*
X032621Y006311D02*
X032621Y006511D01*
X031451Y012401D02*
X029451Y012401D01*
X029451Y013401D01*
X028951Y013401D01*
X028951Y012901D01*
X028701Y012901D01*
X028951Y012901D02*
X028951Y012401D01*
X029451Y012401D01*
X029451Y013401D02*
X031451Y013401D01*
X031451Y012901D01*
X031701Y012901D01*
X031451Y012901D02*
X031451Y012401D01*
X031101Y015101D02*
X031101Y015351D01*
X031601Y015351D01*
X031601Y017351D01*
X030601Y017351D01*
X030601Y015351D01*
X031101Y015351D01*
X029801Y015451D02*
X029801Y017451D01*
X028801Y017451D01*
X028801Y015451D01*
X029301Y015451D01*
X029301Y015201D01*
X029301Y015451D02*
X029801Y015451D01*
X028001Y015451D02*
X028001Y017451D01*
X027001Y017451D01*
X027001Y015451D01*
X027501Y015451D01*
X027501Y015201D01*
X027501Y015451D02*
X028001Y015451D01*
X028001Y017451D02*
X028001Y017951D01*
X027501Y017951D01*
X027501Y018201D01*
X027501Y017951D02*
X027001Y017951D01*
X027001Y017451D01*
X028801Y017451D02*
X028801Y017951D01*
X029301Y017951D01*
X029301Y018201D01*
X029301Y017951D02*
X029801Y017951D01*
X029801Y017451D01*
X030601Y017351D02*
X030601Y017851D01*
X031101Y017851D01*
X031101Y018101D01*
X031101Y017851D02*
X031601Y017851D01*
X031601Y017351D01*
X031351Y021101D02*
X029351Y021101D01*
X029351Y021601D01*
X029101Y021601D01*
X029351Y021601D02*
X029351Y022101D01*
X031351Y022101D01*
X031351Y021101D01*
X031851Y021101D01*
X031851Y021601D01*
X032101Y021601D01*
X031851Y021601D02*
X031851Y022101D01*
X031351Y022101D01*
X031251Y022801D02*
X031251Y023801D01*
X029251Y023801D01*
X029251Y023301D01*
X029001Y023301D01*
X029251Y023301D02*
X029251Y022801D01*
X031251Y022801D01*
X031751Y022801D01*
X031751Y023301D01*
X032001Y023301D01*
X031751Y023301D02*
X031751Y023801D01*
X031251Y023801D01*
X031221Y025191D02*
X031221Y025371D01*
X031221Y026011D02*
X031221Y026211D01*
X033421Y026211D02*
X033421Y026011D01*
X033421Y025371D02*
X033421Y025191D01*
X027701Y023951D02*
X027701Y023451D01*
X026701Y023451D01*
X026701Y021451D01*
X027201Y021451D01*
X027201Y021201D01*
X027201Y021451D02*
X027701Y021451D01*
X027701Y023451D01*
X027701Y023951D02*
X027201Y023951D01*
X027201Y024201D01*
X027201Y023951D02*
X026701Y023951D01*
X026701Y023451D01*
X025901Y023351D02*
X024901Y023351D01*
X024901Y021351D01*
X025401Y021351D01*
X025401Y021101D01*
X025401Y021351D02*
X025901Y021351D01*
X025901Y023351D01*
X025901Y023851D01*
X025401Y023851D01*
X025401Y024101D01*
X025401Y023851D02*
X024901Y023851D01*
X024901Y023351D01*
X023721Y023491D02*
X023721Y023671D01*
X023721Y024311D02*
X023721Y024511D01*
X023521Y022411D02*
X023521Y022211D01*
X023521Y021571D02*
X023521Y021391D01*
X011421Y021691D02*
X011421Y021871D01*
X011421Y022511D02*
X011421Y022711D01*
X011521Y024091D02*
X011521Y024271D01*
X011521Y024911D02*
X011521Y025111D01*
D17*
X025226Y023434D02*
X025576Y023434D01*
X025576Y023317D02*
X025576Y023551D01*
X025342Y023317D02*
X025226Y023434D01*
X025284Y023183D02*
X025517Y022949D01*
X025576Y023007D01*
X025576Y023124D01*
X025517Y023183D01*
X025284Y023183D01*
X025226Y023124D01*
X025226Y023007D01*
X025284Y022949D01*
X025517Y022949D01*
X025517Y022814D02*
X025576Y022756D01*
X025576Y022639D01*
X025517Y022581D01*
X025284Y022814D01*
X025517Y022814D01*
X025284Y022814D02*
X025226Y022756D01*
X025226Y022639D01*
X025284Y022581D01*
X025517Y022581D01*
X025401Y022446D02*
X025401Y022212D01*
X025226Y022388D01*
X025576Y022388D01*
X025576Y022078D02*
X025401Y022078D01*
X025342Y022019D01*
X025342Y021844D01*
X025576Y021844D01*
X025576Y021709D02*
X025576Y021476D01*
X025576Y021593D02*
X025226Y021593D01*
X025342Y021476D01*
X027026Y021693D02*
X027376Y021693D01*
X027376Y021809D02*
X027376Y021576D01*
X027142Y021576D02*
X027026Y021693D01*
X027142Y021944D02*
X027142Y022119D01*
X027201Y022178D01*
X027376Y022178D01*
X027201Y022312D02*
X027026Y022488D01*
X027376Y022488D01*
X027201Y022546D02*
X027201Y022312D01*
X027142Y021944D02*
X027376Y021944D01*
X027317Y022681D02*
X027084Y022914D01*
X027317Y022914D01*
X027376Y022856D01*
X027376Y022739D01*
X027317Y022681D01*
X027084Y022681D01*
X027026Y022739D01*
X027026Y022856D01*
X027084Y022914D01*
X027084Y023049D02*
X027026Y023107D01*
X027026Y023224D01*
X027084Y023283D01*
X027317Y023049D01*
X027376Y023107D01*
X027376Y023224D01*
X027317Y023283D01*
X027084Y023283D01*
X027142Y023417D02*
X027026Y023534D01*
X027376Y023534D01*
X027376Y023417D02*
X027376Y023651D01*
X027317Y023049D02*
X027084Y023049D01*
X029376Y023126D02*
X029609Y023126D01*
X029493Y023126D02*
X029493Y023476D01*
X029376Y023359D01*
X029744Y023359D02*
X029744Y023126D01*
X029744Y023359D02*
X029919Y023359D01*
X029978Y023301D01*
X029978Y023126D01*
X030112Y023301D02*
X030288Y023476D01*
X030288Y023126D01*
X030346Y023301D02*
X030112Y023301D01*
X030481Y023418D02*
X030539Y023476D01*
X030656Y023476D01*
X030714Y023418D01*
X030481Y023184D01*
X030539Y023126D01*
X030656Y023126D01*
X030714Y023184D01*
X030714Y023418D01*
X030849Y023418D02*
X030907Y023476D01*
X031024Y023476D01*
X031083Y023418D01*
X030849Y023184D01*
X030907Y023126D01*
X031024Y023126D01*
X031083Y023184D01*
X031083Y023418D01*
X031217Y023359D02*
X031334Y023476D01*
X031334Y023126D01*
X031217Y023126D02*
X031451Y023126D01*
X030849Y023184D02*
X030849Y023418D01*
X030481Y023418D02*
X030481Y023184D01*
X030388Y021776D02*
X030212Y021601D01*
X030446Y021601D01*
X030581Y021484D02*
X030581Y021718D01*
X030639Y021776D01*
X030756Y021776D01*
X030814Y021718D01*
X030581Y021484D01*
X030639Y021426D01*
X030756Y021426D01*
X030814Y021484D01*
X030814Y021718D01*
X030949Y021718D02*
X030949Y021484D01*
X031183Y021718D01*
X031183Y021484D01*
X031124Y021426D01*
X031007Y021426D01*
X030949Y021484D01*
X030949Y021718D02*
X031007Y021776D01*
X031124Y021776D01*
X031183Y021718D01*
X031317Y021659D02*
X031434Y021776D01*
X031434Y021426D01*
X031317Y021426D02*
X031551Y021426D01*
X030388Y021426D02*
X030388Y021776D01*
X030078Y021601D02*
X030078Y021426D01*
X030078Y021601D02*
X030019Y021659D01*
X029844Y021659D01*
X029844Y021426D01*
X029709Y021426D02*
X029476Y021426D01*
X029593Y021426D02*
X029593Y021776D01*
X029476Y021659D01*
X029476Y017651D02*
X029476Y017417D01*
X029476Y017534D02*
X029126Y017534D01*
X029242Y017417D01*
X029184Y017283D02*
X029417Y017049D01*
X029476Y017107D01*
X029476Y017224D01*
X029417Y017283D01*
X029184Y017283D01*
X029126Y017224D01*
X029126Y017107D01*
X029184Y017049D01*
X029417Y017049D01*
X029417Y016914D02*
X029476Y016856D01*
X029476Y016739D01*
X029417Y016681D01*
X029184Y016914D01*
X029417Y016914D01*
X029184Y016914D02*
X029126Y016856D01*
X029126Y016739D01*
X029184Y016681D01*
X029417Y016681D01*
X029301Y016546D02*
X029301Y016312D01*
X029126Y016488D01*
X029476Y016488D01*
X029476Y016178D02*
X029301Y016178D01*
X029242Y016119D01*
X029242Y015944D01*
X029476Y015944D01*
X029476Y015809D02*
X029476Y015576D01*
X029476Y015693D02*
X029126Y015693D01*
X029242Y015576D01*
X027676Y015576D02*
X027676Y015809D01*
X027676Y015693D02*
X027326Y015693D01*
X027442Y015576D01*
X027442Y015944D02*
X027442Y016119D01*
X027501Y016178D01*
X027676Y016178D01*
X027501Y016312D02*
X027501Y016546D01*
X027617Y016681D02*
X027384Y016914D01*
X027617Y016914D01*
X027676Y016856D01*
X027676Y016739D01*
X027617Y016681D01*
X027384Y016681D01*
X027326Y016739D01*
X027326Y016856D01*
X027384Y016914D01*
X027384Y017049D02*
X027326Y017107D01*
X027326Y017224D01*
X027384Y017283D01*
X027617Y017049D01*
X027676Y017107D01*
X027676Y017224D01*
X027617Y017283D01*
X027384Y017283D01*
X027442Y017417D02*
X027326Y017534D01*
X027676Y017534D01*
X027676Y017417D02*
X027676Y017651D01*
X027617Y017049D02*
X027384Y017049D01*
X027326Y016488D02*
X027501Y016312D01*
X027676Y016488D02*
X027326Y016488D01*
X027442Y015944D02*
X027676Y015944D01*
X030926Y015593D02*
X031276Y015593D01*
X031276Y015709D02*
X031276Y015476D01*
X031042Y015476D02*
X030926Y015593D01*
X031042Y015844D02*
X031042Y016019D01*
X031101Y016078D01*
X031276Y016078D01*
X031101Y016212D02*
X031101Y016446D01*
X031217Y016581D02*
X030984Y016814D01*
X031217Y016814D01*
X031276Y016756D01*
X031276Y016639D01*
X031217Y016581D01*
X030984Y016581D01*
X030926Y016639D01*
X030926Y016756D01*
X030984Y016814D01*
X030984Y016949D02*
X030926Y017007D01*
X030926Y017124D01*
X030984Y017183D01*
X031217Y016949D01*
X031276Y017007D01*
X031276Y017124D01*
X031217Y017183D01*
X030984Y017183D01*
X031042Y017317D02*
X030926Y017434D01*
X031276Y017434D01*
X031276Y017317D02*
X031276Y017551D01*
X031217Y016949D02*
X030984Y016949D01*
X030926Y016388D02*
X031101Y016212D01*
X031276Y016388D02*
X030926Y016388D01*
X031042Y015844D02*
X031276Y015844D01*
X031124Y013076D02*
X031124Y012726D01*
X031007Y012726D02*
X031241Y012726D01*
X031007Y012959D02*
X031124Y013076D01*
X030873Y013018D02*
X030639Y012784D01*
X030697Y012726D01*
X030814Y012726D01*
X030873Y012784D01*
X030873Y013018D01*
X030814Y013076D01*
X030697Y013076D01*
X030639Y013018D01*
X030639Y012784D01*
X030504Y012784D02*
X030446Y012726D01*
X030329Y012726D01*
X030271Y012784D01*
X030504Y013018D01*
X030504Y012784D01*
X030271Y012784D02*
X030271Y013018D01*
X030329Y013076D01*
X030446Y013076D01*
X030504Y013018D01*
X030136Y012901D02*
X029903Y012901D01*
X030078Y013076D01*
X030078Y012726D01*
X029768Y012726D02*
X029768Y012901D01*
X029709Y012959D01*
X029534Y012959D01*
X029534Y012726D01*
X029399Y012726D02*
X029166Y012726D01*
X029283Y012726D02*
X029283Y013076D01*
X029166Y012959D01*
X029283Y011676D02*
X029166Y011559D01*
X029283Y011676D02*
X029283Y011326D01*
X029399Y011326D02*
X029166Y011326D01*
X029534Y011326D02*
X029534Y011559D01*
X029709Y011559D01*
X029768Y011501D01*
X029768Y011326D01*
X029903Y011501D02*
X030136Y011501D01*
X030271Y011618D02*
X030329Y011676D01*
X030446Y011676D01*
X030504Y011618D01*
X030271Y011384D01*
X030329Y011326D01*
X030446Y011326D01*
X030504Y011384D01*
X030504Y011618D01*
X030639Y011618D02*
X030697Y011676D01*
X030814Y011676D01*
X030873Y011618D01*
X030639Y011384D01*
X030697Y011326D01*
X030814Y011326D01*
X030873Y011384D01*
X030873Y011618D01*
X031007Y011559D02*
X031124Y011676D01*
X031124Y011326D01*
X031007Y011326D02*
X031241Y011326D01*
X030639Y011384D02*
X030639Y011618D01*
X030271Y011618D02*
X030271Y011384D01*
X030078Y011326D02*
X030078Y011676D01*
X029903Y011501D01*
X030078Y010076D02*
X029903Y009901D01*
X030136Y009901D01*
X030271Y010018D02*
X030329Y010076D01*
X030446Y010076D01*
X030504Y010018D01*
X030271Y009784D01*
X030329Y009726D01*
X030446Y009726D01*
X030504Y009784D01*
X030504Y010018D01*
X030639Y010018D02*
X030697Y010076D01*
X030814Y010076D01*
X030873Y010018D01*
X030639Y009784D01*
X030697Y009726D01*
X030814Y009726D01*
X030873Y009784D01*
X030873Y010018D01*
X031007Y009959D02*
X031124Y010076D01*
X031124Y009726D01*
X031007Y009726D02*
X031241Y009726D01*
X030639Y009784D02*
X030639Y010018D01*
X030271Y010018D02*
X030271Y009784D01*
X030078Y009726D02*
X030078Y010076D01*
X029768Y009901D02*
X029768Y009726D01*
X029768Y009901D02*
X029709Y009959D01*
X029534Y009959D01*
X029534Y009726D01*
X029399Y009726D02*
X029166Y009726D01*
X029283Y009726D02*
X029283Y010076D01*
X029166Y009959D01*
X029283Y008576D02*
X029166Y008459D01*
X029283Y008576D02*
X029283Y008226D01*
X029399Y008226D02*
X029166Y008226D01*
X029534Y008226D02*
X029534Y008459D01*
X029709Y008459D01*
X029768Y008401D01*
X029768Y008226D01*
X029903Y008401D02*
X030136Y008401D01*
X030271Y008518D02*
X030329Y008576D01*
X030446Y008576D01*
X030504Y008518D01*
X030271Y008284D01*
X030329Y008226D01*
X030446Y008226D01*
X030504Y008284D01*
X030504Y008518D01*
X030639Y008518D02*
X030697Y008576D01*
X030814Y008576D01*
X030873Y008518D01*
X030639Y008284D01*
X030697Y008226D01*
X030814Y008226D01*
X030873Y008284D01*
X030873Y008518D01*
X031007Y008459D02*
X031124Y008576D01*
X031124Y008226D01*
X031007Y008226D02*
X031241Y008226D01*
X030639Y008284D02*
X030639Y008518D01*
X030271Y008518D02*
X030271Y008284D01*
X030078Y008226D02*
X030078Y008576D01*
X029903Y008401D01*
X026376Y008976D02*
X026376Y009209D01*
X026376Y009093D02*
X026026Y009093D01*
X026142Y008976D01*
X026142Y009344D02*
X026142Y009519D01*
X026201Y009578D01*
X026376Y009578D01*
X026201Y009712D02*
X026026Y009888D01*
X026376Y009888D01*
X026201Y009946D02*
X026201Y009712D01*
X026142Y009344D02*
X026376Y009344D01*
X026317Y010081D02*
X026084Y010314D01*
X026317Y010314D01*
X026376Y010256D01*
X026376Y010139D01*
X026317Y010081D01*
X026084Y010081D01*
X026026Y010139D01*
X026026Y010256D01*
X026084Y010314D01*
X026084Y010449D02*
X026026Y010507D01*
X026026Y010624D01*
X026084Y010683D01*
X026317Y010449D01*
X026376Y010507D01*
X026376Y010624D01*
X026317Y010683D01*
X026084Y010683D01*
X026142Y010817D02*
X026026Y010934D01*
X026376Y010934D01*
X026376Y010817D02*
X026376Y011051D01*
X026317Y010449D02*
X026084Y010449D01*
X024076Y010407D02*
X024017Y010349D01*
X023784Y010583D01*
X024017Y010583D01*
X024076Y010524D01*
X024076Y010407D01*
X024017Y010349D02*
X023784Y010349D01*
X023726Y010407D01*
X023726Y010524D01*
X023784Y010583D01*
X023842Y010717D02*
X023726Y010834D01*
X024076Y010834D01*
X024076Y010717D02*
X024076Y010951D01*
X024017Y010214D02*
X024076Y010156D01*
X024076Y010039D01*
X024017Y009981D01*
X023784Y010214D01*
X024017Y010214D01*
X023784Y010214D02*
X023726Y010156D01*
X023726Y010039D01*
X023784Y009981D01*
X024017Y009981D01*
X023901Y009846D02*
X023901Y009612D01*
X023726Y009788D01*
X024076Y009788D01*
X024076Y009478D02*
X023901Y009478D01*
X023842Y009419D01*
X023842Y009244D01*
X024076Y009244D01*
X024076Y009109D02*
X024076Y008876D01*
X024076Y008993D02*
X023726Y008993D01*
X023842Y008876D01*
X021776Y008876D02*
X021776Y009109D01*
X021776Y008993D02*
X021426Y008993D01*
X021542Y008876D01*
X021542Y009244D02*
X021542Y009419D01*
X021601Y009478D01*
X021776Y009478D01*
X021601Y009612D02*
X021601Y009846D01*
X021717Y009981D02*
X021484Y010214D01*
X021717Y010214D01*
X021776Y010156D01*
X021776Y010039D01*
X021717Y009981D01*
X021484Y009981D01*
X021426Y010039D01*
X021426Y010156D01*
X021484Y010214D01*
X021484Y010349D02*
X021426Y010407D01*
X021426Y010524D01*
X021484Y010583D01*
X021717Y010349D01*
X021776Y010407D01*
X021776Y010524D01*
X021717Y010583D01*
X021484Y010583D01*
X021542Y010717D02*
X021426Y010834D01*
X021776Y010834D01*
X021776Y010717D02*
X021776Y010951D01*
X021717Y010349D02*
X021484Y010349D01*
X021426Y009788D02*
X021601Y009612D01*
X021776Y009788D02*
X021426Y009788D01*
X021542Y009244D02*
X021776Y009244D01*
X019576Y009209D02*
X019576Y008976D01*
X019576Y009093D02*
X019226Y009093D01*
X019342Y008976D01*
X019342Y009344D02*
X019342Y009519D01*
X019401Y009578D01*
X019576Y009578D01*
X019401Y009712D02*
X019226Y009888D01*
X019576Y009888D01*
X019401Y009946D02*
X019401Y009712D01*
X019342Y009344D02*
X019576Y009344D01*
X019517Y010081D02*
X019284Y010314D01*
X019517Y010314D01*
X019576Y010256D01*
X019576Y010139D01*
X019517Y010081D01*
X019284Y010081D01*
X019226Y010139D01*
X019226Y010256D01*
X019284Y010314D01*
X019284Y010449D02*
X019226Y010507D01*
X019226Y010624D01*
X019284Y010683D01*
X019517Y010449D01*
X019576Y010507D01*
X019576Y010624D01*
X019517Y010683D01*
X019284Y010683D01*
X019342Y010817D02*
X019226Y010934D01*
X019576Y010934D01*
X019576Y010817D02*
X019576Y011051D01*
X019517Y010449D02*
X019284Y010449D01*
X017376Y010356D02*
X017376Y010239D01*
X017317Y010181D01*
X017084Y010414D01*
X017317Y010414D01*
X017376Y010356D01*
X017317Y010181D02*
X017084Y010181D01*
X017026Y010239D01*
X017026Y010356D01*
X017084Y010414D01*
X017084Y010549D02*
X017026Y010607D01*
X017026Y010724D01*
X017084Y010783D01*
X017317Y010549D01*
X017376Y010607D01*
X017376Y010724D01*
X017317Y010783D01*
X017084Y010783D01*
X017142Y010917D02*
X017026Y011034D01*
X017376Y011034D01*
X017376Y010917D02*
X017376Y011151D01*
X017317Y010549D02*
X017084Y010549D01*
X017201Y010046D02*
X017201Y009812D01*
X017026Y009988D01*
X017376Y009988D01*
X017376Y009678D02*
X017201Y009678D01*
X017142Y009619D01*
X017142Y009444D01*
X017376Y009444D01*
X017376Y009309D02*
X017376Y009076D01*
X017376Y009193D02*
X017026Y009193D01*
X017142Y009076D01*
D18*
X028770Y005678D02*
X028848Y005723D01*
X028848Y005722D02*
X028876Y005678D01*
X028907Y005636D01*
X028940Y005596D01*
X028976Y005558D01*
X029015Y005523D01*
X029056Y005491D01*
X029100Y005461D01*
X029145Y005435D01*
X029192Y005412D01*
X029240Y005392D01*
X029290Y005376D01*
X029340Y005363D01*
X029392Y005354D01*
X029444Y005348D01*
X029496Y005346D01*
X029497Y005257D01*
X029496Y005256D01*
X029441Y005258D01*
X029387Y005264D01*
X029332Y005273D01*
X029279Y005286D01*
X029227Y005302D01*
X029175Y005321D01*
X029125Y005344D01*
X029077Y005370D01*
X029030Y005399D01*
X028986Y005431D01*
X028943Y005466D01*
X028903Y005504D01*
X028866Y005544D01*
X028831Y005586D01*
X028799Y005631D01*
X028770Y005677D01*
X028778Y005682D01*
X028806Y005636D01*
X028838Y005592D01*
X028873Y005550D01*
X028910Y005510D01*
X028949Y005473D01*
X028991Y005438D01*
X029035Y005407D01*
X029081Y005378D01*
X029129Y005352D01*
X029179Y005330D01*
X029229Y005310D01*
X029281Y005294D01*
X029334Y005282D01*
X029388Y005273D01*
X029442Y005267D01*
X029496Y005265D01*
X029496Y005274D01*
X029442Y005276D01*
X029389Y005282D01*
X029336Y005291D01*
X029284Y005303D01*
X029232Y005319D01*
X029182Y005338D01*
X029133Y005360D01*
X029086Y005386D01*
X029040Y005414D01*
X028997Y005446D01*
X028955Y005480D01*
X028916Y005516D01*
X028879Y005556D01*
X028845Y005597D01*
X028814Y005641D01*
X028785Y005686D01*
X028793Y005691D01*
X028823Y005643D01*
X028857Y005597D01*
X028893Y005554D01*
X028933Y005513D01*
X028975Y005475D01*
X029019Y005440D01*
X029066Y005408D01*
X029115Y005380D01*
X029166Y005355D01*
X029219Y005333D01*
X029272Y005316D01*
X029327Y005302D01*
X029383Y005292D01*
X029439Y005285D01*
X029496Y005283D01*
X029496Y005292D01*
X029440Y005294D01*
X029384Y005300D01*
X029329Y005310D01*
X029275Y005324D01*
X029222Y005342D01*
X029170Y005363D01*
X029119Y005388D01*
X029071Y005416D01*
X029025Y005447D01*
X028980Y005482D01*
X028939Y005519D01*
X028900Y005560D01*
X028864Y005602D01*
X028831Y005648D01*
X028801Y005695D01*
X028809Y005700D01*
X028838Y005653D01*
X028871Y005608D01*
X028907Y005566D01*
X028945Y005526D01*
X028986Y005489D01*
X029030Y005454D01*
X029076Y005423D01*
X029124Y005396D01*
X029173Y005371D01*
X029225Y005350D01*
X029277Y005333D01*
X029331Y005319D01*
X029386Y005309D01*
X029441Y005303D01*
X029496Y005301D01*
X029496Y005310D01*
X029441Y005312D01*
X029387Y005318D01*
X029333Y005328D01*
X029280Y005342D01*
X029228Y005359D01*
X029177Y005379D01*
X029128Y005404D01*
X029081Y005431D01*
X029035Y005462D01*
X028992Y005495D01*
X028951Y005532D01*
X028913Y005572D01*
X028878Y005614D01*
X028846Y005658D01*
X028817Y005704D01*
X028825Y005709D01*
X028853Y005663D01*
X028885Y005619D01*
X028920Y005578D01*
X028958Y005539D01*
X028998Y005502D01*
X029040Y005469D01*
X029085Y005439D01*
X029132Y005411D01*
X029181Y005388D01*
X029231Y005367D01*
X029282Y005350D01*
X029335Y005337D01*
X029388Y005327D01*
X029442Y005321D01*
X029496Y005319D01*
X029496Y005328D01*
X029443Y005330D01*
X029389Y005336D01*
X029337Y005346D01*
X029285Y005359D01*
X029234Y005376D01*
X029184Y005396D01*
X029136Y005419D01*
X029090Y005446D01*
X029046Y005476D01*
X029004Y005509D01*
X028964Y005545D01*
X028927Y005584D01*
X028892Y005625D01*
X028861Y005668D01*
X028832Y005713D01*
X028840Y005718D01*
X028868Y005673D01*
X028899Y005630D01*
X028933Y005590D01*
X028970Y005552D01*
X029009Y005516D01*
X029051Y005484D01*
X029095Y005454D01*
X029141Y005427D01*
X029188Y005404D01*
X029237Y005384D01*
X029287Y005367D01*
X029339Y005354D01*
X029391Y005345D01*
X029443Y005339D01*
X029496Y005337D01*
X029505Y005257D02*
X029505Y005347D01*
X029506Y005346D02*
X029560Y005348D01*
X029613Y005354D01*
X029666Y005364D01*
X029718Y005378D01*
X029769Y005395D01*
X029819Y005416D01*
X029867Y005440D01*
X029913Y005468D01*
X029957Y005499D01*
X029998Y005533D01*
X030038Y005570D01*
X030074Y005609D01*
X030142Y005552D01*
X030143Y005551D01*
X030105Y005510D01*
X030065Y005472D01*
X030022Y005436D01*
X029977Y005403D01*
X029930Y005373D01*
X029882Y005347D01*
X029831Y005323D01*
X029779Y005303D01*
X029726Y005287D01*
X029672Y005273D01*
X029617Y005264D01*
X029562Y005258D01*
X029506Y005256D01*
X029506Y005265D01*
X029561Y005267D01*
X029616Y005273D01*
X029670Y005282D01*
X029724Y005295D01*
X029776Y005312D01*
X029828Y005331D01*
X029878Y005355D01*
X029926Y005381D01*
X029972Y005411D01*
X030017Y005443D01*
X030059Y005478D01*
X030099Y005517D01*
X030136Y005557D01*
X030129Y005563D01*
X030092Y005523D01*
X030053Y005485D01*
X030011Y005450D01*
X029967Y005418D01*
X029921Y005389D01*
X029873Y005363D01*
X029824Y005340D01*
X029773Y005320D01*
X029721Y005304D01*
X029668Y005291D01*
X029615Y005282D01*
X029560Y005276D01*
X029506Y005274D01*
X029506Y005283D01*
X029560Y005285D01*
X029613Y005291D01*
X029666Y005300D01*
X029719Y005313D01*
X029770Y005329D01*
X029821Y005348D01*
X029869Y005371D01*
X029917Y005396D01*
X029962Y005425D01*
X030006Y005457D01*
X030047Y005492D01*
X030086Y005529D01*
X030122Y005569D01*
X030115Y005575D01*
X030079Y005535D01*
X030041Y005498D01*
X030000Y005464D01*
X029957Y005433D01*
X029912Y005404D01*
X029865Y005379D01*
X029817Y005356D01*
X029767Y005337D01*
X029716Y005321D01*
X029665Y005309D01*
X029612Y005300D01*
X029559Y005294D01*
X029506Y005292D01*
X029506Y005301D01*
X029559Y005303D01*
X029611Y005309D01*
X029663Y005318D01*
X029714Y005330D01*
X029764Y005346D01*
X029814Y005365D01*
X029861Y005387D01*
X029908Y005412D01*
X029952Y005440D01*
X029994Y005471D01*
X030035Y005505D01*
X030073Y005542D01*
X030108Y005580D01*
X030102Y005586D01*
X030066Y005548D01*
X030029Y005512D01*
X029989Y005478D01*
X029947Y005448D01*
X029903Y005420D01*
X029857Y005395D01*
X029810Y005373D01*
X029761Y005354D01*
X029712Y005339D01*
X029661Y005326D01*
X029610Y005318D01*
X029558Y005312D01*
X029506Y005310D01*
X029506Y005319D01*
X029562Y005321D01*
X029617Y005328D01*
X029672Y005338D01*
X029726Y005352D01*
X029779Y005370D01*
X029830Y005392D01*
X029880Y005417D01*
X029928Y005446D01*
X029973Y005478D01*
X030016Y005513D01*
X030057Y005551D01*
X030095Y005592D01*
X030088Y005598D01*
X030051Y005557D01*
X030010Y005520D01*
X029968Y005485D01*
X029923Y005453D01*
X029875Y005425D01*
X029826Y005400D01*
X029775Y005378D01*
X029723Y005361D01*
X029670Y005347D01*
X029616Y005337D01*
X029561Y005330D01*
X029506Y005328D01*
X029506Y005337D01*
X029560Y005339D01*
X029615Y005345D01*
X029668Y005355D01*
X029721Y005369D01*
X029772Y005387D01*
X029822Y005408D01*
X029871Y005433D01*
X029918Y005461D01*
X029962Y005492D01*
X030004Y005526D01*
X030044Y005564D01*
X030081Y005604D01*
X029496Y006945D02*
X029496Y006855D01*
X029496Y006856D02*
X029442Y006854D01*
X029389Y006848D01*
X029336Y006838D01*
X029284Y006824D01*
X029233Y006807D01*
X029184Y006786D01*
X029136Y006762D01*
X029090Y006734D01*
X029046Y006703D01*
X029004Y006669D01*
X028965Y006633D01*
X028928Y006593D01*
X028895Y006551D01*
X028864Y006507D01*
X028837Y006461D01*
X028758Y006503D01*
X028786Y006552D01*
X028818Y006598D01*
X028853Y006643D01*
X028890Y006685D01*
X028931Y006724D01*
X028974Y006761D01*
X029019Y006795D01*
X029066Y006826D01*
X029116Y006853D01*
X029167Y006877D01*
X029219Y006898D01*
X029273Y006915D01*
X029328Y006928D01*
X029383Y006938D01*
X029440Y006944D01*
X029496Y006946D01*
X029496Y006937D01*
X029440Y006935D01*
X029385Y006929D01*
X029330Y006919D01*
X029275Y006906D01*
X029222Y006889D01*
X029170Y006869D01*
X029120Y006845D01*
X029071Y006818D01*
X029024Y006788D01*
X028979Y006754D01*
X028937Y006718D01*
X028897Y006679D01*
X028860Y006637D01*
X028825Y006593D01*
X028794Y006547D01*
X028766Y006499D01*
X028774Y006495D01*
X028802Y006542D01*
X028833Y006588D01*
X028867Y006631D01*
X028903Y006673D01*
X028943Y006711D01*
X028985Y006747D01*
X029029Y006780D01*
X029075Y006810D01*
X029124Y006837D01*
X029174Y006860D01*
X029225Y006881D01*
X029278Y006897D01*
X029331Y006910D01*
X029386Y006920D01*
X029441Y006926D01*
X029496Y006928D01*
X029496Y006919D01*
X029441Y006917D01*
X029387Y006911D01*
X029333Y006902D01*
X029280Y006889D01*
X029228Y006872D01*
X029177Y006852D01*
X029128Y006829D01*
X029080Y006802D01*
X029034Y006773D01*
X028990Y006740D01*
X028949Y006705D01*
X028910Y006666D01*
X028873Y006626D01*
X028840Y006583D01*
X028809Y006537D01*
X028782Y006490D01*
X028790Y006486D01*
X028817Y006533D01*
X028847Y006577D01*
X028880Y006620D01*
X028916Y006660D01*
X028955Y006698D01*
X028996Y006733D01*
X029039Y006765D01*
X029085Y006795D01*
X029132Y006821D01*
X029181Y006844D01*
X029231Y006864D01*
X029283Y006880D01*
X029335Y006893D01*
X029388Y006902D01*
X029442Y006908D01*
X029496Y006910D01*
X029496Y006901D01*
X029443Y006899D01*
X029389Y006893D01*
X029337Y006884D01*
X029285Y006871D01*
X029234Y006855D01*
X029184Y006836D01*
X029136Y006813D01*
X029089Y006787D01*
X029045Y006758D01*
X029002Y006726D01*
X028961Y006691D01*
X028923Y006654D01*
X028887Y006614D01*
X028854Y006572D01*
X028824Y006528D01*
X028797Y006482D01*
X028805Y006478D01*
X028832Y006523D01*
X028862Y006567D01*
X028894Y006608D01*
X028929Y006648D01*
X028967Y006685D01*
X029007Y006719D01*
X029050Y006751D01*
X029094Y006779D01*
X029140Y006805D01*
X029188Y006827D01*
X029237Y006847D01*
X029287Y006863D01*
X029339Y006875D01*
X029391Y006884D01*
X029443Y006890D01*
X029496Y006892D01*
X029496Y006883D01*
X029440Y006881D01*
X029385Y006874D01*
X029330Y006864D01*
X029276Y006850D01*
X029224Y006832D01*
X029172Y006811D01*
X029123Y006785D01*
X029075Y006757D01*
X029029Y006725D01*
X028986Y006690D01*
X028946Y006652D01*
X028908Y006611D01*
X028873Y006567D01*
X028842Y006521D01*
X028813Y006473D01*
X028821Y006469D01*
X028849Y006517D01*
X028880Y006562D01*
X028915Y006605D01*
X028952Y006645D01*
X028992Y006683D01*
X029035Y006718D01*
X029080Y006749D01*
X029127Y006778D01*
X029176Y006802D01*
X029227Y006824D01*
X029279Y006841D01*
X029332Y006855D01*
X029386Y006865D01*
X029441Y006872D01*
X029496Y006874D01*
X029496Y006865D01*
X029442Y006863D01*
X029388Y006857D01*
X029334Y006847D01*
X029282Y006833D01*
X029230Y006815D01*
X029180Y006794D01*
X029131Y006770D01*
X029085Y006742D01*
X029040Y006710D01*
X028998Y006676D01*
X028959Y006639D01*
X028922Y006599D01*
X028888Y006557D01*
X028857Y006512D01*
X028829Y006465D01*
X030146Y006645D02*
X030077Y006588D01*
X030078Y006588D02*
X030041Y006628D01*
X030002Y006666D01*
X029960Y006700D01*
X029916Y006732D01*
X029870Y006760D01*
X029821Y006785D01*
X029771Y006806D01*
X029720Y006824D01*
X029667Y006837D01*
X029614Y006847D01*
X029560Y006854D01*
X029506Y006856D01*
X029505Y006945D01*
X029506Y006946D01*
X029562Y006944D01*
X029618Y006938D01*
X029673Y006928D01*
X029728Y006915D01*
X029781Y006898D01*
X029834Y006878D01*
X029885Y006854D01*
X029934Y006827D01*
X029981Y006796D01*
X030026Y006763D01*
X030069Y006727D01*
X030109Y006688D01*
X030147Y006646D01*
X030140Y006640D01*
X030103Y006681D01*
X030063Y006720D01*
X030021Y006756D01*
X029976Y006789D01*
X029929Y006819D01*
X029881Y006846D01*
X029830Y006869D01*
X029778Y006890D01*
X029725Y006906D01*
X029671Y006919D01*
X029617Y006929D01*
X029562Y006935D01*
X029506Y006937D01*
X029506Y006928D01*
X029561Y006926D01*
X029616Y006920D01*
X029670Y006911D01*
X029723Y006898D01*
X029775Y006881D01*
X029827Y006861D01*
X029876Y006838D01*
X029925Y006811D01*
X029971Y006782D01*
X030015Y006749D01*
X030057Y006713D01*
X030096Y006675D01*
X030133Y006634D01*
X030126Y006629D01*
X030090Y006669D01*
X030051Y006707D01*
X030009Y006742D01*
X029966Y006774D01*
X029920Y006804D01*
X029872Y006830D01*
X029823Y006853D01*
X029773Y006873D01*
X029721Y006889D01*
X029668Y006902D01*
X029614Y006911D01*
X029560Y006917D01*
X029506Y006919D01*
X029506Y006910D01*
X029560Y006908D01*
X029613Y006902D01*
X029666Y006893D01*
X029718Y006880D01*
X029770Y006864D01*
X029820Y006845D01*
X029868Y006822D01*
X029915Y006796D01*
X029961Y006767D01*
X030004Y006735D01*
X030045Y006700D01*
X030083Y006663D01*
X030119Y006623D01*
X030112Y006617D01*
X030077Y006656D01*
X030039Y006693D01*
X029998Y006728D01*
X029955Y006759D01*
X029911Y006788D01*
X029864Y006814D01*
X029816Y006836D01*
X029767Y006856D01*
X029716Y006872D01*
X029664Y006884D01*
X029612Y006893D01*
X029559Y006899D01*
X029506Y006901D01*
X029506Y006892D01*
X029558Y006890D01*
X029611Y006884D01*
X029662Y006875D01*
X029713Y006863D01*
X029764Y006847D01*
X029813Y006828D01*
X029860Y006806D01*
X029906Y006780D01*
X029950Y006752D01*
X029992Y006721D01*
X030033Y006687D01*
X030070Y006650D01*
X030105Y006611D01*
X030099Y006605D01*
X030064Y006644D01*
X030026Y006680D01*
X029987Y006714D01*
X029945Y006745D01*
X029901Y006773D01*
X029856Y006798D01*
X029809Y006820D01*
X029761Y006839D01*
X029711Y006854D01*
X029661Y006867D01*
X029610Y006875D01*
X029558Y006881D01*
X029506Y006883D01*
X029506Y006874D01*
X029557Y006872D01*
X029608Y006867D01*
X029659Y006858D01*
X029709Y006846D01*
X029758Y006830D01*
X029805Y006812D01*
X029852Y006790D01*
X029897Y006765D01*
X029940Y006737D01*
X029981Y006707D01*
X030020Y006674D01*
X030057Y006638D01*
X030092Y006600D01*
X030085Y006594D01*
X030048Y006635D01*
X030008Y006673D01*
X029966Y006707D01*
X029921Y006739D01*
X029874Y006768D01*
X029825Y006793D01*
X029774Y006814D01*
X029723Y006832D01*
X029669Y006846D01*
X029615Y006856D01*
X029561Y006863D01*
X029506Y006865D01*
X031270Y005578D02*
X031348Y005623D01*
X031348Y005622D02*
X031376Y005578D01*
X031407Y005536D01*
X031440Y005496D01*
X031476Y005458D01*
X031515Y005423D01*
X031556Y005391D01*
X031600Y005361D01*
X031645Y005335D01*
X031692Y005312D01*
X031740Y005292D01*
X031790Y005276D01*
X031840Y005263D01*
X031892Y005254D01*
X031944Y005248D01*
X031996Y005246D01*
X031997Y005157D01*
X031996Y005156D01*
X031941Y005158D01*
X031887Y005164D01*
X031832Y005173D01*
X031779Y005186D01*
X031727Y005202D01*
X031675Y005221D01*
X031625Y005244D01*
X031577Y005270D01*
X031530Y005299D01*
X031486Y005331D01*
X031443Y005366D01*
X031403Y005404D01*
X031366Y005444D01*
X031331Y005486D01*
X031299Y005531D01*
X031270Y005577D01*
X031278Y005582D01*
X031306Y005536D01*
X031338Y005492D01*
X031373Y005450D01*
X031410Y005410D01*
X031449Y005373D01*
X031491Y005338D01*
X031535Y005307D01*
X031581Y005278D01*
X031629Y005252D01*
X031679Y005230D01*
X031729Y005210D01*
X031781Y005194D01*
X031834Y005182D01*
X031888Y005173D01*
X031942Y005167D01*
X031996Y005165D01*
X031996Y005174D01*
X031942Y005176D01*
X031889Y005182D01*
X031836Y005191D01*
X031784Y005203D01*
X031732Y005219D01*
X031682Y005238D01*
X031633Y005260D01*
X031586Y005286D01*
X031540Y005314D01*
X031497Y005346D01*
X031455Y005380D01*
X031416Y005416D01*
X031379Y005456D01*
X031345Y005497D01*
X031314Y005541D01*
X031285Y005586D01*
X031293Y005591D01*
X031323Y005543D01*
X031357Y005497D01*
X031393Y005454D01*
X031433Y005413D01*
X031475Y005375D01*
X031519Y005340D01*
X031566Y005308D01*
X031615Y005280D01*
X031666Y005255D01*
X031719Y005233D01*
X031772Y005216D01*
X031827Y005202D01*
X031883Y005192D01*
X031939Y005185D01*
X031996Y005183D01*
X031996Y005192D01*
X031940Y005194D01*
X031884Y005200D01*
X031829Y005210D01*
X031775Y005224D01*
X031722Y005242D01*
X031670Y005263D01*
X031619Y005288D01*
X031571Y005316D01*
X031525Y005347D01*
X031480Y005382D01*
X031439Y005419D01*
X031400Y005460D01*
X031364Y005502D01*
X031331Y005548D01*
X031301Y005595D01*
X031309Y005600D01*
X031338Y005553D01*
X031371Y005508D01*
X031407Y005466D01*
X031445Y005426D01*
X031486Y005389D01*
X031530Y005354D01*
X031576Y005323D01*
X031624Y005296D01*
X031673Y005271D01*
X031725Y005250D01*
X031777Y005233D01*
X031831Y005219D01*
X031886Y005209D01*
X031941Y005203D01*
X031996Y005201D01*
X031996Y005210D01*
X031941Y005212D01*
X031887Y005218D01*
X031833Y005228D01*
X031780Y005242D01*
X031728Y005259D01*
X031677Y005279D01*
X031628Y005304D01*
X031581Y005331D01*
X031535Y005362D01*
X031492Y005395D01*
X031451Y005432D01*
X031413Y005472D01*
X031378Y005514D01*
X031346Y005558D01*
X031317Y005604D01*
X031325Y005609D01*
X031353Y005563D01*
X031385Y005519D01*
X031420Y005478D01*
X031458Y005439D01*
X031498Y005402D01*
X031540Y005369D01*
X031585Y005339D01*
X031632Y005311D01*
X031681Y005288D01*
X031731Y005267D01*
X031782Y005250D01*
X031835Y005237D01*
X031888Y005227D01*
X031942Y005221D01*
X031996Y005219D01*
X031996Y005228D01*
X031943Y005230D01*
X031889Y005236D01*
X031837Y005246D01*
X031785Y005259D01*
X031734Y005276D01*
X031684Y005296D01*
X031636Y005319D01*
X031590Y005346D01*
X031546Y005376D01*
X031504Y005409D01*
X031464Y005445D01*
X031427Y005484D01*
X031392Y005525D01*
X031361Y005568D01*
X031332Y005613D01*
X031340Y005618D01*
X031368Y005573D01*
X031399Y005530D01*
X031433Y005490D01*
X031470Y005452D01*
X031509Y005416D01*
X031551Y005384D01*
X031595Y005354D01*
X031641Y005327D01*
X031688Y005304D01*
X031737Y005284D01*
X031787Y005267D01*
X031839Y005254D01*
X031891Y005245D01*
X031943Y005239D01*
X031996Y005237D01*
X032005Y005157D02*
X032005Y005247D01*
X032006Y005246D02*
X032060Y005248D01*
X032113Y005254D01*
X032166Y005264D01*
X032218Y005278D01*
X032269Y005295D01*
X032319Y005316D01*
X032367Y005340D01*
X032413Y005368D01*
X032457Y005399D01*
X032498Y005433D01*
X032538Y005470D01*
X032574Y005509D01*
X032642Y005452D01*
X032643Y005451D01*
X032605Y005410D01*
X032565Y005372D01*
X032522Y005336D01*
X032477Y005303D01*
X032430Y005273D01*
X032382Y005247D01*
X032331Y005223D01*
X032279Y005203D01*
X032226Y005187D01*
X032172Y005173D01*
X032117Y005164D01*
X032062Y005158D01*
X032006Y005156D01*
X032006Y005165D01*
X032061Y005167D01*
X032116Y005173D01*
X032170Y005182D01*
X032224Y005195D01*
X032276Y005212D01*
X032328Y005231D01*
X032378Y005255D01*
X032426Y005281D01*
X032472Y005311D01*
X032517Y005343D01*
X032559Y005378D01*
X032599Y005417D01*
X032636Y005457D01*
X032629Y005463D01*
X032592Y005423D01*
X032553Y005385D01*
X032511Y005350D01*
X032467Y005318D01*
X032421Y005289D01*
X032373Y005263D01*
X032324Y005240D01*
X032273Y005220D01*
X032221Y005204D01*
X032168Y005191D01*
X032115Y005182D01*
X032060Y005176D01*
X032006Y005174D01*
X032006Y005183D01*
X032060Y005185D01*
X032113Y005191D01*
X032166Y005200D01*
X032219Y005213D01*
X032270Y005229D01*
X032321Y005248D01*
X032369Y005271D01*
X032417Y005296D01*
X032462Y005325D01*
X032506Y005357D01*
X032547Y005392D01*
X032586Y005429D01*
X032622Y005469D01*
X032615Y005475D01*
X032579Y005435D01*
X032541Y005398D01*
X032500Y005364D01*
X032457Y005333D01*
X032412Y005304D01*
X032365Y005279D01*
X032317Y005256D01*
X032267Y005237D01*
X032216Y005221D01*
X032165Y005209D01*
X032112Y005200D01*
X032059Y005194D01*
X032006Y005192D01*
X032006Y005201D01*
X032059Y005203D01*
X032111Y005209D01*
X032163Y005218D01*
X032214Y005230D01*
X032264Y005246D01*
X032314Y005265D01*
X032361Y005287D01*
X032408Y005312D01*
X032452Y005340D01*
X032494Y005371D01*
X032535Y005405D01*
X032573Y005442D01*
X032608Y005480D01*
X032602Y005486D01*
X032566Y005448D01*
X032529Y005412D01*
X032489Y005378D01*
X032447Y005348D01*
X032403Y005320D01*
X032357Y005295D01*
X032310Y005273D01*
X032261Y005254D01*
X032212Y005239D01*
X032161Y005226D01*
X032110Y005218D01*
X032058Y005212D01*
X032006Y005210D01*
X032006Y005219D01*
X032062Y005221D01*
X032117Y005228D01*
X032172Y005238D01*
X032226Y005252D01*
X032279Y005270D01*
X032330Y005292D01*
X032380Y005317D01*
X032428Y005346D01*
X032473Y005378D01*
X032516Y005413D01*
X032557Y005451D01*
X032595Y005492D01*
X032588Y005498D01*
X032551Y005457D01*
X032510Y005420D01*
X032468Y005385D01*
X032423Y005353D01*
X032375Y005325D01*
X032326Y005300D01*
X032275Y005278D01*
X032223Y005261D01*
X032170Y005247D01*
X032116Y005237D01*
X032061Y005230D01*
X032006Y005228D01*
X032006Y005237D01*
X032060Y005239D01*
X032115Y005245D01*
X032168Y005255D01*
X032221Y005269D01*
X032272Y005287D01*
X032322Y005308D01*
X032371Y005333D01*
X032418Y005361D01*
X032462Y005392D01*
X032504Y005426D01*
X032544Y005464D01*
X032581Y005504D01*
X031996Y006845D02*
X031996Y006755D01*
X031996Y006756D02*
X031942Y006754D01*
X031889Y006748D01*
X031836Y006738D01*
X031784Y006724D01*
X031733Y006707D01*
X031684Y006686D01*
X031636Y006662D01*
X031590Y006634D01*
X031546Y006603D01*
X031504Y006569D01*
X031465Y006533D01*
X031428Y006493D01*
X031395Y006451D01*
X031364Y006407D01*
X031337Y006361D01*
X031258Y006403D01*
X031286Y006452D01*
X031318Y006498D01*
X031353Y006543D01*
X031390Y006585D01*
X031431Y006624D01*
X031474Y006661D01*
X031519Y006695D01*
X031566Y006726D01*
X031616Y006753D01*
X031667Y006777D01*
X031719Y006798D01*
X031773Y006815D01*
X031828Y006828D01*
X031883Y006838D01*
X031940Y006844D01*
X031996Y006846D01*
X031996Y006837D01*
X031940Y006835D01*
X031885Y006829D01*
X031830Y006819D01*
X031775Y006806D01*
X031722Y006789D01*
X031670Y006769D01*
X031620Y006745D01*
X031571Y006718D01*
X031524Y006688D01*
X031479Y006654D01*
X031437Y006618D01*
X031397Y006579D01*
X031360Y006537D01*
X031325Y006493D01*
X031294Y006447D01*
X031266Y006399D01*
X031274Y006395D01*
X031302Y006442D01*
X031333Y006488D01*
X031367Y006531D01*
X031403Y006573D01*
X031443Y006611D01*
X031485Y006647D01*
X031529Y006680D01*
X031575Y006710D01*
X031624Y006737D01*
X031674Y006760D01*
X031725Y006781D01*
X031778Y006797D01*
X031831Y006810D01*
X031886Y006820D01*
X031941Y006826D01*
X031996Y006828D01*
X031996Y006819D01*
X031941Y006817D01*
X031887Y006811D01*
X031833Y006802D01*
X031780Y006789D01*
X031728Y006772D01*
X031677Y006752D01*
X031628Y006729D01*
X031580Y006702D01*
X031534Y006673D01*
X031490Y006640D01*
X031449Y006605D01*
X031410Y006566D01*
X031373Y006526D01*
X031340Y006483D01*
X031309Y006437D01*
X031282Y006390D01*
X031290Y006386D01*
X031317Y006433D01*
X031347Y006477D01*
X031380Y006520D01*
X031416Y006560D01*
X031455Y006598D01*
X031496Y006633D01*
X031539Y006665D01*
X031585Y006695D01*
X031632Y006721D01*
X031681Y006744D01*
X031731Y006764D01*
X031783Y006780D01*
X031835Y006793D01*
X031888Y006802D01*
X031942Y006808D01*
X031996Y006810D01*
X031996Y006801D01*
X031943Y006799D01*
X031889Y006793D01*
X031837Y006784D01*
X031785Y006771D01*
X031734Y006755D01*
X031684Y006736D01*
X031636Y006713D01*
X031589Y006687D01*
X031545Y006658D01*
X031502Y006626D01*
X031461Y006591D01*
X031423Y006554D01*
X031387Y006514D01*
X031354Y006472D01*
X031324Y006428D01*
X031297Y006382D01*
X031305Y006378D01*
X031332Y006423D01*
X031362Y006467D01*
X031394Y006508D01*
X031429Y006548D01*
X031467Y006585D01*
X031507Y006619D01*
X031550Y006651D01*
X031594Y006679D01*
X031640Y006705D01*
X031688Y006727D01*
X031737Y006747D01*
X031787Y006763D01*
X031839Y006775D01*
X031891Y006784D01*
X031943Y006790D01*
X031996Y006792D01*
X031996Y006783D01*
X031940Y006781D01*
X031885Y006774D01*
X031830Y006764D01*
X031776Y006750D01*
X031724Y006732D01*
X031672Y006711D01*
X031623Y006685D01*
X031575Y006657D01*
X031529Y006625D01*
X031486Y006590D01*
X031446Y006552D01*
X031408Y006511D01*
X031373Y006467D01*
X031342Y006421D01*
X031313Y006373D01*
X031321Y006369D01*
X031349Y006417D01*
X031380Y006462D01*
X031415Y006505D01*
X031452Y006545D01*
X031492Y006583D01*
X031535Y006618D01*
X031580Y006649D01*
X031627Y006678D01*
X031676Y006702D01*
X031727Y006724D01*
X031779Y006741D01*
X031832Y006755D01*
X031886Y006765D01*
X031941Y006772D01*
X031996Y006774D01*
X031996Y006765D01*
X031942Y006763D01*
X031888Y006757D01*
X031834Y006747D01*
X031782Y006733D01*
X031730Y006715D01*
X031680Y006694D01*
X031631Y006670D01*
X031585Y006642D01*
X031540Y006610D01*
X031498Y006576D01*
X031459Y006539D01*
X031422Y006499D01*
X031388Y006457D01*
X031357Y006412D01*
X031329Y006365D01*
X032646Y006545D02*
X032577Y006488D01*
X032578Y006488D02*
X032541Y006528D01*
X032502Y006566D01*
X032460Y006600D01*
X032416Y006632D01*
X032370Y006660D01*
X032321Y006685D01*
X032271Y006706D01*
X032220Y006724D01*
X032167Y006737D01*
X032114Y006747D01*
X032060Y006754D01*
X032006Y006756D01*
X032005Y006845D01*
X032006Y006846D01*
X032062Y006844D01*
X032118Y006838D01*
X032173Y006828D01*
X032228Y006815D01*
X032281Y006798D01*
X032334Y006778D01*
X032385Y006754D01*
X032434Y006727D01*
X032481Y006696D01*
X032526Y006663D01*
X032569Y006627D01*
X032609Y006588D01*
X032647Y006546D01*
X032640Y006540D01*
X032603Y006581D01*
X032563Y006620D01*
X032521Y006656D01*
X032476Y006689D01*
X032429Y006719D01*
X032381Y006746D01*
X032330Y006769D01*
X032278Y006790D01*
X032225Y006806D01*
X032171Y006819D01*
X032117Y006829D01*
X032062Y006835D01*
X032006Y006837D01*
X032006Y006828D01*
X032061Y006826D01*
X032116Y006820D01*
X032170Y006811D01*
X032223Y006798D01*
X032275Y006781D01*
X032327Y006761D01*
X032376Y006738D01*
X032425Y006711D01*
X032471Y006682D01*
X032515Y006649D01*
X032557Y006613D01*
X032596Y006575D01*
X032633Y006534D01*
X032626Y006529D01*
X032590Y006569D01*
X032551Y006607D01*
X032509Y006642D01*
X032466Y006674D01*
X032420Y006704D01*
X032372Y006730D01*
X032323Y006753D01*
X032273Y006773D01*
X032221Y006789D01*
X032168Y006802D01*
X032114Y006811D01*
X032060Y006817D01*
X032006Y006819D01*
X032006Y006810D01*
X032060Y006808D01*
X032113Y006802D01*
X032166Y006793D01*
X032218Y006780D01*
X032270Y006764D01*
X032320Y006745D01*
X032368Y006722D01*
X032415Y006696D01*
X032461Y006667D01*
X032504Y006635D01*
X032545Y006600D01*
X032583Y006563D01*
X032619Y006523D01*
X032612Y006517D01*
X032577Y006556D01*
X032539Y006593D01*
X032498Y006628D01*
X032455Y006659D01*
X032411Y006688D01*
X032364Y006714D01*
X032316Y006736D01*
X032267Y006756D01*
X032216Y006772D01*
X032164Y006784D01*
X032112Y006793D01*
X032059Y006799D01*
X032006Y006801D01*
X032006Y006792D01*
X032058Y006790D01*
X032111Y006784D01*
X032162Y006775D01*
X032213Y006763D01*
X032264Y006747D01*
X032313Y006728D01*
X032360Y006706D01*
X032406Y006680D01*
X032450Y006652D01*
X032492Y006621D01*
X032533Y006587D01*
X032570Y006550D01*
X032605Y006511D01*
X032599Y006505D01*
X032564Y006544D01*
X032526Y006580D01*
X032487Y006614D01*
X032445Y006645D01*
X032401Y006673D01*
X032356Y006698D01*
X032309Y006720D01*
X032261Y006739D01*
X032211Y006754D01*
X032161Y006767D01*
X032110Y006775D01*
X032058Y006781D01*
X032006Y006783D01*
X032006Y006774D01*
X032057Y006772D01*
X032108Y006767D01*
X032159Y006758D01*
X032209Y006746D01*
X032258Y006730D01*
X032305Y006712D01*
X032352Y006690D01*
X032397Y006665D01*
X032440Y006637D01*
X032481Y006607D01*
X032520Y006574D01*
X032557Y006538D01*
X032592Y006500D01*
X032585Y006494D01*
X032548Y006535D01*
X032508Y006573D01*
X032466Y006607D01*
X032421Y006639D01*
X032374Y006668D01*
X032325Y006693D01*
X032274Y006714D01*
X032223Y006732D01*
X032169Y006746D01*
X032115Y006756D01*
X032061Y006763D01*
X032006Y006765D01*
X022896Y022745D02*
X022896Y022655D01*
X022896Y022656D02*
X022842Y022654D01*
X022789Y022648D01*
X022736Y022638D01*
X022684Y022624D01*
X022633Y022607D01*
X022584Y022586D01*
X022536Y022562D01*
X022490Y022534D01*
X022446Y022503D01*
X022404Y022469D01*
X022365Y022433D01*
X022328Y022393D01*
X022295Y022351D01*
X022264Y022307D01*
X022237Y022261D01*
X022158Y022303D01*
X022186Y022352D01*
X022218Y022398D01*
X022253Y022443D01*
X022290Y022485D01*
X022331Y022524D01*
X022374Y022561D01*
X022419Y022595D01*
X022466Y022626D01*
X022516Y022653D01*
X022567Y022677D01*
X022619Y022698D01*
X022673Y022715D01*
X022728Y022728D01*
X022783Y022738D01*
X022840Y022744D01*
X022896Y022746D01*
X022896Y022737D01*
X022840Y022735D01*
X022785Y022729D01*
X022730Y022719D01*
X022675Y022706D01*
X022622Y022689D01*
X022570Y022669D01*
X022520Y022645D01*
X022471Y022618D01*
X022424Y022588D01*
X022379Y022554D01*
X022337Y022518D01*
X022297Y022479D01*
X022260Y022437D01*
X022225Y022393D01*
X022194Y022347D01*
X022166Y022299D01*
X022174Y022295D01*
X022202Y022342D01*
X022233Y022388D01*
X022267Y022431D01*
X022303Y022473D01*
X022343Y022511D01*
X022385Y022547D01*
X022429Y022580D01*
X022475Y022610D01*
X022524Y022637D01*
X022574Y022660D01*
X022625Y022681D01*
X022678Y022697D01*
X022731Y022710D01*
X022786Y022720D01*
X022841Y022726D01*
X022896Y022728D01*
X022896Y022719D01*
X022841Y022717D01*
X022787Y022711D01*
X022733Y022702D01*
X022680Y022689D01*
X022628Y022672D01*
X022577Y022652D01*
X022528Y022629D01*
X022480Y022602D01*
X022434Y022573D01*
X022390Y022540D01*
X022349Y022505D01*
X022310Y022466D01*
X022273Y022426D01*
X022240Y022383D01*
X022209Y022337D01*
X022182Y022290D01*
X022190Y022286D01*
X022217Y022333D01*
X022247Y022377D01*
X022280Y022420D01*
X022316Y022460D01*
X022355Y022498D01*
X022396Y022533D01*
X022439Y022565D01*
X022485Y022595D01*
X022532Y022621D01*
X022581Y022644D01*
X022631Y022664D01*
X022683Y022680D01*
X022735Y022693D01*
X022788Y022702D01*
X022842Y022708D01*
X022896Y022710D01*
X022896Y022701D01*
X022843Y022699D01*
X022789Y022693D01*
X022737Y022684D01*
X022685Y022671D01*
X022634Y022655D01*
X022584Y022636D01*
X022536Y022613D01*
X022489Y022587D01*
X022445Y022558D01*
X022402Y022526D01*
X022361Y022491D01*
X022323Y022454D01*
X022287Y022414D01*
X022254Y022372D01*
X022224Y022328D01*
X022197Y022282D01*
X022205Y022278D01*
X022232Y022323D01*
X022262Y022367D01*
X022294Y022408D01*
X022329Y022448D01*
X022367Y022485D01*
X022407Y022519D01*
X022450Y022551D01*
X022494Y022579D01*
X022540Y022605D01*
X022588Y022627D01*
X022637Y022647D01*
X022687Y022663D01*
X022739Y022675D01*
X022791Y022684D01*
X022843Y022690D01*
X022896Y022692D01*
X022896Y022683D01*
X022840Y022681D01*
X022785Y022674D01*
X022730Y022664D01*
X022676Y022650D01*
X022624Y022632D01*
X022572Y022611D01*
X022523Y022585D01*
X022475Y022557D01*
X022429Y022525D01*
X022386Y022490D01*
X022346Y022452D01*
X022308Y022411D01*
X022273Y022367D01*
X022242Y022321D01*
X022213Y022273D01*
X022221Y022269D01*
X022249Y022317D01*
X022280Y022362D01*
X022315Y022405D01*
X022352Y022445D01*
X022392Y022483D01*
X022435Y022518D01*
X022480Y022549D01*
X022527Y022578D01*
X022576Y022602D01*
X022627Y022624D01*
X022679Y022641D01*
X022732Y022655D01*
X022786Y022665D01*
X022841Y022672D01*
X022896Y022674D01*
X022896Y022665D01*
X022842Y022663D01*
X022788Y022657D01*
X022734Y022647D01*
X022682Y022633D01*
X022630Y022615D01*
X022580Y022594D01*
X022531Y022570D01*
X022485Y022542D01*
X022440Y022510D01*
X022398Y022476D01*
X022359Y022439D01*
X022322Y022399D01*
X022288Y022357D01*
X022257Y022312D01*
X022229Y022265D01*
X022170Y021478D02*
X022248Y021523D01*
X022248Y021522D02*
X022276Y021478D01*
X022307Y021436D01*
X022340Y021396D01*
X022376Y021358D01*
X022415Y021323D01*
X022456Y021291D01*
X022500Y021261D01*
X022545Y021235D01*
X022592Y021212D01*
X022640Y021192D01*
X022690Y021176D01*
X022740Y021163D01*
X022792Y021154D01*
X022844Y021148D01*
X022896Y021146D01*
X022897Y021057D01*
X022896Y021056D01*
X022841Y021058D01*
X022787Y021064D01*
X022732Y021073D01*
X022679Y021086D01*
X022627Y021102D01*
X022575Y021121D01*
X022525Y021144D01*
X022477Y021170D01*
X022430Y021199D01*
X022386Y021231D01*
X022343Y021266D01*
X022303Y021304D01*
X022266Y021344D01*
X022231Y021386D01*
X022199Y021431D01*
X022170Y021477D01*
X022178Y021482D01*
X022206Y021436D01*
X022238Y021392D01*
X022273Y021350D01*
X022310Y021310D01*
X022349Y021273D01*
X022391Y021238D01*
X022435Y021207D01*
X022481Y021178D01*
X022529Y021152D01*
X022579Y021130D01*
X022629Y021110D01*
X022681Y021094D01*
X022734Y021082D01*
X022788Y021073D01*
X022842Y021067D01*
X022896Y021065D01*
X022896Y021074D01*
X022842Y021076D01*
X022789Y021082D01*
X022736Y021091D01*
X022684Y021103D01*
X022632Y021119D01*
X022582Y021138D01*
X022533Y021160D01*
X022486Y021186D01*
X022440Y021214D01*
X022397Y021246D01*
X022355Y021280D01*
X022316Y021316D01*
X022279Y021356D01*
X022245Y021397D01*
X022214Y021441D01*
X022185Y021486D01*
X022193Y021491D01*
X022223Y021443D01*
X022257Y021397D01*
X022293Y021354D01*
X022333Y021313D01*
X022375Y021275D01*
X022419Y021240D01*
X022466Y021208D01*
X022515Y021180D01*
X022566Y021155D01*
X022619Y021133D01*
X022672Y021116D01*
X022727Y021102D01*
X022783Y021092D01*
X022839Y021085D01*
X022896Y021083D01*
X022896Y021092D01*
X022840Y021094D01*
X022784Y021100D01*
X022729Y021110D01*
X022675Y021124D01*
X022622Y021142D01*
X022570Y021163D01*
X022519Y021188D01*
X022471Y021216D01*
X022425Y021247D01*
X022380Y021282D01*
X022339Y021319D01*
X022300Y021360D01*
X022264Y021402D01*
X022231Y021448D01*
X022201Y021495D01*
X022209Y021500D01*
X022238Y021453D01*
X022271Y021408D01*
X022307Y021366D01*
X022345Y021326D01*
X022386Y021289D01*
X022430Y021254D01*
X022476Y021223D01*
X022524Y021196D01*
X022573Y021171D01*
X022625Y021150D01*
X022677Y021133D01*
X022731Y021119D01*
X022786Y021109D01*
X022841Y021103D01*
X022896Y021101D01*
X022896Y021110D01*
X022841Y021112D01*
X022787Y021118D01*
X022733Y021128D01*
X022680Y021142D01*
X022628Y021159D01*
X022577Y021179D01*
X022528Y021204D01*
X022481Y021231D01*
X022435Y021262D01*
X022392Y021295D01*
X022351Y021332D01*
X022313Y021372D01*
X022278Y021414D01*
X022246Y021458D01*
X022217Y021504D01*
X022225Y021509D01*
X022253Y021463D01*
X022285Y021419D01*
X022320Y021378D01*
X022358Y021339D01*
X022398Y021302D01*
X022440Y021269D01*
X022485Y021239D01*
X022532Y021211D01*
X022581Y021188D01*
X022631Y021167D01*
X022682Y021150D01*
X022735Y021137D01*
X022788Y021127D01*
X022842Y021121D01*
X022896Y021119D01*
X022896Y021128D01*
X022843Y021130D01*
X022789Y021136D01*
X022737Y021146D01*
X022685Y021159D01*
X022634Y021176D01*
X022584Y021196D01*
X022536Y021219D01*
X022490Y021246D01*
X022446Y021276D01*
X022404Y021309D01*
X022364Y021345D01*
X022327Y021384D01*
X022292Y021425D01*
X022261Y021468D01*
X022232Y021513D01*
X022240Y021518D01*
X022268Y021473D01*
X022299Y021430D01*
X022333Y021390D01*
X022370Y021352D01*
X022409Y021316D01*
X022451Y021284D01*
X022495Y021254D01*
X022541Y021227D01*
X022588Y021204D01*
X022637Y021184D01*
X022687Y021167D01*
X022739Y021154D01*
X022791Y021145D01*
X022843Y021139D01*
X022896Y021137D01*
X022905Y021057D02*
X022905Y021147D01*
X022906Y021146D02*
X022960Y021148D01*
X023013Y021154D01*
X023066Y021164D01*
X023118Y021178D01*
X023169Y021195D01*
X023219Y021216D01*
X023267Y021240D01*
X023313Y021268D01*
X023357Y021299D01*
X023398Y021333D01*
X023438Y021370D01*
X023474Y021409D01*
X023542Y021352D01*
X023543Y021351D01*
X023505Y021310D01*
X023465Y021272D01*
X023422Y021236D01*
X023377Y021203D01*
X023330Y021173D01*
X023282Y021147D01*
X023231Y021123D01*
X023179Y021103D01*
X023126Y021087D01*
X023072Y021073D01*
X023017Y021064D01*
X022962Y021058D01*
X022906Y021056D01*
X022906Y021065D01*
X022961Y021067D01*
X023016Y021073D01*
X023070Y021082D01*
X023124Y021095D01*
X023176Y021112D01*
X023228Y021131D01*
X023278Y021155D01*
X023326Y021181D01*
X023372Y021211D01*
X023417Y021243D01*
X023459Y021278D01*
X023499Y021317D01*
X023536Y021357D01*
X023529Y021363D01*
X023492Y021323D01*
X023453Y021285D01*
X023411Y021250D01*
X023367Y021218D01*
X023321Y021189D01*
X023273Y021163D01*
X023224Y021140D01*
X023173Y021120D01*
X023121Y021104D01*
X023068Y021091D01*
X023015Y021082D01*
X022960Y021076D01*
X022906Y021074D01*
X022906Y021083D01*
X022960Y021085D01*
X023013Y021091D01*
X023066Y021100D01*
X023119Y021113D01*
X023170Y021129D01*
X023221Y021148D01*
X023269Y021171D01*
X023317Y021196D01*
X023362Y021225D01*
X023406Y021257D01*
X023447Y021292D01*
X023486Y021329D01*
X023522Y021369D01*
X023515Y021375D01*
X023479Y021335D01*
X023441Y021298D01*
X023400Y021264D01*
X023357Y021233D01*
X023312Y021204D01*
X023265Y021179D01*
X023217Y021156D01*
X023167Y021137D01*
X023116Y021121D01*
X023065Y021109D01*
X023012Y021100D01*
X022959Y021094D01*
X022906Y021092D01*
X022906Y021101D01*
X022959Y021103D01*
X023011Y021109D01*
X023063Y021118D01*
X023114Y021130D01*
X023164Y021146D01*
X023214Y021165D01*
X023261Y021187D01*
X023308Y021212D01*
X023352Y021240D01*
X023394Y021271D01*
X023435Y021305D01*
X023473Y021342D01*
X023508Y021380D01*
X023502Y021386D01*
X023466Y021348D01*
X023429Y021312D01*
X023389Y021278D01*
X023347Y021248D01*
X023303Y021220D01*
X023257Y021195D01*
X023210Y021173D01*
X023161Y021154D01*
X023112Y021139D01*
X023061Y021126D01*
X023010Y021118D01*
X022958Y021112D01*
X022906Y021110D01*
X022906Y021119D01*
X022962Y021121D01*
X023017Y021128D01*
X023072Y021138D01*
X023126Y021152D01*
X023179Y021170D01*
X023230Y021192D01*
X023280Y021217D01*
X023328Y021246D01*
X023373Y021278D01*
X023416Y021313D01*
X023457Y021351D01*
X023495Y021392D01*
X023488Y021398D01*
X023451Y021357D01*
X023410Y021320D01*
X023368Y021285D01*
X023323Y021253D01*
X023275Y021225D01*
X023226Y021200D01*
X023175Y021178D01*
X023123Y021161D01*
X023070Y021147D01*
X023016Y021137D01*
X022961Y021130D01*
X022906Y021128D01*
X022906Y021137D01*
X022960Y021139D01*
X023015Y021145D01*
X023068Y021155D01*
X023121Y021169D01*
X023172Y021187D01*
X023222Y021208D01*
X023271Y021233D01*
X023318Y021261D01*
X023362Y021292D01*
X023404Y021326D01*
X023444Y021364D01*
X023481Y021404D01*
X023546Y022445D02*
X023477Y022388D01*
X023478Y022388D02*
X023441Y022428D01*
X023402Y022466D01*
X023360Y022500D01*
X023316Y022532D01*
X023270Y022560D01*
X023221Y022585D01*
X023171Y022606D01*
X023120Y022624D01*
X023067Y022637D01*
X023014Y022647D01*
X022960Y022654D01*
X022906Y022656D01*
X022905Y022745D01*
X022906Y022746D01*
X022962Y022744D01*
X023018Y022738D01*
X023073Y022728D01*
X023128Y022715D01*
X023181Y022698D01*
X023234Y022678D01*
X023285Y022654D01*
X023334Y022627D01*
X023381Y022596D01*
X023426Y022563D01*
X023469Y022527D01*
X023509Y022488D01*
X023547Y022446D01*
X023540Y022440D01*
X023503Y022481D01*
X023463Y022520D01*
X023421Y022556D01*
X023376Y022589D01*
X023329Y022619D01*
X023281Y022646D01*
X023230Y022669D01*
X023178Y022690D01*
X023125Y022706D01*
X023071Y022719D01*
X023017Y022729D01*
X022962Y022735D01*
X022906Y022737D01*
X022906Y022728D01*
X022961Y022726D01*
X023016Y022720D01*
X023070Y022711D01*
X023123Y022698D01*
X023175Y022681D01*
X023227Y022661D01*
X023276Y022638D01*
X023325Y022611D01*
X023371Y022582D01*
X023415Y022549D01*
X023457Y022513D01*
X023496Y022475D01*
X023533Y022434D01*
X023526Y022429D01*
X023490Y022469D01*
X023451Y022507D01*
X023409Y022542D01*
X023366Y022574D01*
X023320Y022604D01*
X023272Y022630D01*
X023223Y022653D01*
X023173Y022673D01*
X023121Y022689D01*
X023068Y022702D01*
X023014Y022711D01*
X022960Y022717D01*
X022906Y022719D01*
X022906Y022710D01*
X022960Y022708D01*
X023013Y022702D01*
X023066Y022693D01*
X023118Y022680D01*
X023170Y022664D01*
X023220Y022645D01*
X023268Y022622D01*
X023315Y022596D01*
X023361Y022567D01*
X023404Y022535D01*
X023445Y022500D01*
X023483Y022463D01*
X023519Y022423D01*
X023512Y022417D01*
X023477Y022456D01*
X023439Y022493D01*
X023398Y022528D01*
X023355Y022559D01*
X023311Y022588D01*
X023264Y022614D01*
X023216Y022636D01*
X023167Y022656D01*
X023116Y022672D01*
X023064Y022684D01*
X023012Y022693D01*
X022959Y022699D01*
X022906Y022701D01*
X022906Y022692D01*
X022958Y022690D01*
X023011Y022684D01*
X023062Y022675D01*
X023113Y022663D01*
X023164Y022647D01*
X023213Y022628D01*
X023260Y022606D01*
X023306Y022580D01*
X023350Y022552D01*
X023392Y022521D01*
X023433Y022487D01*
X023470Y022450D01*
X023505Y022411D01*
X023499Y022405D01*
X023464Y022444D01*
X023426Y022480D01*
X023387Y022514D01*
X023345Y022545D01*
X023301Y022573D01*
X023256Y022598D01*
X023209Y022620D01*
X023161Y022639D01*
X023111Y022654D01*
X023061Y022667D01*
X023010Y022675D01*
X022958Y022681D01*
X022906Y022683D01*
X022906Y022674D01*
X022957Y022672D01*
X023008Y022667D01*
X023059Y022658D01*
X023109Y022646D01*
X023158Y022630D01*
X023205Y022612D01*
X023252Y022590D01*
X023297Y022565D01*
X023340Y022537D01*
X023381Y022507D01*
X023420Y022474D01*
X023457Y022438D01*
X023492Y022400D01*
X023485Y022394D01*
X023448Y022435D01*
X023408Y022473D01*
X023366Y022507D01*
X023321Y022539D01*
X023274Y022568D01*
X023225Y022593D01*
X023174Y022614D01*
X023123Y022632D01*
X023069Y022646D01*
X023015Y022656D01*
X022961Y022663D01*
X022906Y022665D01*
X022370Y023578D02*
X022448Y023623D01*
X022448Y023622D02*
X022476Y023578D01*
X022507Y023536D01*
X022540Y023496D01*
X022576Y023458D01*
X022615Y023423D01*
X022656Y023391D01*
X022700Y023361D01*
X022745Y023335D01*
X022792Y023312D01*
X022840Y023292D01*
X022890Y023276D01*
X022940Y023263D01*
X022992Y023254D01*
X023044Y023248D01*
X023096Y023246D01*
X023097Y023157D01*
X023096Y023156D01*
X023041Y023158D01*
X022987Y023164D01*
X022932Y023173D01*
X022879Y023186D01*
X022827Y023202D01*
X022775Y023221D01*
X022725Y023244D01*
X022677Y023270D01*
X022630Y023299D01*
X022586Y023331D01*
X022543Y023366D01*
X022503Y023404D01*
X022466Y023444D01*
X022431Y023486D01*
X022399Y023531D01*
X022370Y023577D01*
X022378Y023582D01*
X022406Y023536D01*
X022438Y023492D01*
X022473Y023450D01*
X022510Y023410D01*
X022549Y023373D01*
X022591Y023338D01*
X022635Y023307D01*
X022681Y023278D01*
X022729Y023252D01*
X022779Y023230D01*
X022829Y023210D01*
X022881Y023194D01*
X022934Y023182D01*
X022988Y023173D01*
X023042Y023167D01*
X023096Y023165D01*
X023096Y023174D01*
X023042Y023176D01*
X022989Y023182D01*
X022936Y023191D01*
X022884Y023203D01*
X022832Y023219D01*
X022782Y023238D01*
X022733Y023260D01*
X022686Y023286D01*
X022640Y023314D01*
X022597Y023346D01*
X022555Y023380D01*
X022516Y023416D01*
X022479Y023456D01*
X022445Y023497D01*
X022414Y023541D01*
X022385Y023586D01*
X022393Y023591D01*
X022423Y023543D01*
X022457Y023497D01*
X022493Y023454D01*
X022533Y023413D01*
X022575Y023375D01*
X022619Y023340D01*
X022666Y023308D01*
X022715Y023280D01*
X022766Y023255D01*
X022819Y023233D01*
X022872Y023216D01*
X022927Y023202D01*
X022983Y023192D01*
X023039Y023185D01*
X023096Y023183D01*
X023096Y023192D01*
X023040Y023194D01*
X022984Y023200D01*
X022929Y023210D01*
X022875Y023224D01*
X022822Y023242D01*
X022770Y023263D01*
X022719Y023288D01*
X022671Y023316D01*
X022625Y023347D01*
X022580Y023382D01*
X022539Y023419D01*
X022500Y023460D01*
X022464Y023502D01*
X022431Y023548D01*
X022401Y023595D01*
X022409Y023600D01*
X022438Y023553D01*
X022471Y023508D01*
X022507Y023466D01*
X022545Y023426D01*
X022586Y023389D01*
X022630Y023354D01*
X022676Y023323D01*
X022724Y023296D01*
X022773Y023271D01*
X022825Y023250D01*
X022877Y023233D01*
X022931Y023219D01*
X022986Y023209D01*
X023041Y023203D01*
X023096Y023201D01*
X023096Y023210D01*
X023041Y023212D01*
X022987Y023218D01*
X022933Y023228D01*
X022880Y023242D01*
X022828Y023259D01*
X022777Y023279D01*
X022728Y023304D01*
X022681Y023331D01*
X022635Y023362D01*
X022592Y023395D01*
X022551Y023432D01*
X022513Y023472D01*
X022478Y023514D01*
X022446Y023558D01*
X022417Y023604D01*
X022425Y023609D01*
X022453Y023563D01*
X022485Y023519D01*
X022520Y023478D01*
X022558Y023439D01*
X022598Y023402D01*
X022640Y023369D01*
X022685Y023339D01*
X022732Y023311D01*
X022781Y023288D01*
X022831Y023267D01*
X022882Y023250D01*
X022935Y023237D01*
X022988Y023227D01*
X023042Y023221D01*
X023096Y023219D01*
X023096Y023228D01*
X023043Y023230D01*
X022989Y023236D01*
X022937Y023246D01*
X022885Y023259D01*
X022834Y023276D01*
X022784Y023296D01*
X022736Y023319D01*
X022690Y023346D01*
X022646Y023376D01*
X022604Y023409D01*
X022564Y023445D01*
X022527Y023484D01*
X022492Y023525D01*
X022461Y023568D01*
X022432Y023613D01*
X022440Y023618D01*
X022468Y023573D01*
X022499Y023530D01*
X022533Y023490D01*
X022570Y023452D01*
X022609Y023416D01*
X022651Y023384D01*
X022695Y023354D01*
X022741Y023327D01*
X022788Y023304D01*
X022837Y023284D01*
X022887Y023267D01*
X022939Y023254D01*
X022991Y023245D01*
X023043Y023239D01*
X023096Y023237D01*
X023105Y023157D02*
X023105Y023247D01*
X023106Y023246D02*
X023160Y023248D01*
X023213Y023254D01*
X023266Y023264D01*
X023318Y023278D01*
X023369Y023295D01*
X023419Y023316D01*
X023467Y023340D01*
X023513Y023368D01*
X023557Y023399D01*
X023598Y023433D01*
X023638Y023470D01*
X023674Y023509D01*
X023742Y023452D01*
X023743Y023451D01*
X023705Y023410D01*
X023665Y023372D01*
X023622Y023336D01*
X023577Y023303D01*
X023530Y023273D01*
X023482Y023247D01*
X023431Y023223D01*
X023379Y023203D01*
X023326Y023187D01*
X023272Y023173D01*
X023217Y023164D01*
X023162Y023158D01*
X023106Y023156D01*
X023106Y023165D01*
X023161Y023167D01*
X023216Y023173D01*
X023270Y023182D01*
X023324Y023195D01*
X023376Y023212D01*
X023428Y023231D01*
X023478Y023255D01*
X023526Y023281D01*
X023572Y023311D01*
X023617Y023343D01*
X023659Y023378D01*
X023699Y023417D01*
X023736Y023457D01*
X023729Y023463D01*
X023692Y023423D01*
X023653Y023385D01*
X023611Y023350D01*
X023567Y023318D01*
X023521Y023289D01*
X023473Y023263D01*
X023424Y023240D01*
X023373Y023220D01*
X023321Y023204D01*
X023268Y023191D01*
X023215Y023182D01*
X023160Y023176D01*
X023106Y023174D01*
X023106Y023183D01*
X023160Y023185D01*
X023213Y023191D01*
X023266Y023200D01*
X023319Y023213D01*
X023370Y023229D01*
X023421Y023248D01*
X023469Y023271D01*
X023517Y023296D01*
X023562Y023325D01*
X023606Y023357D01*
X023647Y023392D01*
X023686Y023429D01*
X023722Y023469D01*
X023715Y023475D01*
X023679Y023435D01*
X023641Y023398D01*
X023600Y023364D01*
X023557Y023333D01*
X023512Y023304D01*
X023465Y023279D01*
X023417Y023256D01*
X023367Y023237D01*
X023316Y023221D01*
X023265Y023209D01*
X023212Y023200D01*
X023159Y023194D01*
X023106Y023192D01*
X023106Y023201D01*
X023159Y023203D01*
X023211Y023209D01*
X023263Y023218D01*
X023314Y023230D01*
X023364Y023246D01*
X023414Y023265D01*
X023461Y023287D01*
X023508Y023312D01*
X023552Y023340D01*
X023594Y023371D01*
X023635Y023405D01*
X023673Y023442D01*
X023708Y023480D01*
X023702Y023486D01*
X023666Y023448D01*
X023629Y023412D01*
X023589Y023378D01*
X023547Y023348D01*
X023503Y023320D01*
X023457Y023295D01*
X023410Y023273D01*
X023361Y023254D01*
X023312Y023239D01*
X023261Y023226D01*
X023210Y023218D01*
X023158Y023212D01*
X023106Y023210D01*
X023106Y023219D01*
X023162Y023221D01*
X023217Y023228D01*
X023272Y023238D01*
X023326Y023252D01*
X023379Y023270D01*
X023430Y023292D01*
X023480Y023317D01*
X023528Y023346D01*
X023573Y023378D01*
X023616Y023413D01*
X023657Y023451D01*
X023695Y023492D01*
X023688Y023498D01*
X023651Y023457D01*
X023610Y023420D01*
X023568Y023385D01*
X023523Y023353D01*
X023475Y023325D01*
X023426Y023300D01*
X023375Y023278D01*
X023323Y023261D01*
X023270Y023247D01*
X023216Y023237D01*
X023161Y023230D01*
X023106Y023228D01*
X023106Y023237D01*
X023160Y023239D01*
X023215Y023245D01*
X023268Y023255D01*
X023321Y023269D01*
X023372Y023287D01*
X023422Y023308D01*
X023471Y023333D01*
X023518Y023361D01*
X023562Y023392D01*
X023604Y023426D01*
X023644Y023464D01*
X023681Y023504D01*
X023096Y024845D02*
X023096Y024755D01*
X023096Y024756D02*
X023042Y024754D01*
X022989Y024748D01*
X022936Y024738D01*
X022884Y024724D01*
X022833Y024707D01*
X022784Y024686D01*
X022736Y024662D01*
X022690Y024634D01*
X022646Y024603D01*
X022604Y024569D01*
X022565Y024533D01*
X022528Y024493D01*
X022495Y024451D01*
X022464Y024407D01*
X022437Y024361D01*
X022358Y024403D01*
X022386Y024452D01*
X022418Y024498D01*
X022453Y024543D01*
X022490Y024585D01*
X022531Y024624D01*
X022574Y024661D01*
X022619Y024695D01*
X022666Y024726D01*
X022716Y024753D01*
X022767Y024777D01*
X022819Y024798D01*
X022873Y024815D01*
X022928Y024828D01*
X022983Y024838D01*
X023040Y024844D01*
X023096Y024846D01*
X023096Y024837D01*
X023040Y024835D01*
X022985Y024829D01*
X022930Y024819D01*
X022875Y024806D01*
X022822Y024789D01*
X022770Y024769D01*
X022720Y024745D01*
X022671Y024718D01*
X022624Y024688D01*
X022579Y024654D01*
X022537Y024618D01*
X022497Y024579D01*
X022460Y024537D01*
X022425Y024493D01*
X022394Y024447D01*
X022366Y024399D01*
X022374Y024395D01*
X022402Y024442D01*
X022433Y024488D01*
X022467Y024531D01*
X022503Y024573D01*
X022543Y024611D01*
X022585Y024647D01*
X022629Y024680D01*
X022675Y024710D01*
X022724Y024737D01*
X022774Y024760D01*
X022825Y024781D01*
X022878Y024797D01*
X022931Y024810D01*
X022986Y024820D01*
X023041Y024826D01*
X023096Y024828D01*
X023096Y024819D01*
X023041Y024817D01*
X022987Y024811D01*
X022933Y024802D01*
X022880Y024789D01*
X022828Y024772D01*
X022777Y024752D01*
X022728Y024729D01*
X022680Y024702D01*
X022634Y024673D01*
X022590Y024640D01*
X022549Y024605D01*
X022510Y024566D01*
X022473Y024526D01*
X022440Y024483D01*
X022409Y024437D01*
X022382Y024390D01*
X022390Y024386D01*
X022417Y024433D01*
X022447Y024477D01*
X022480Y024520D01*
X022516Y024560D01*
X022555Y024598D01*
X022596Y024633D01*
X022639Y024665D01*
X022685Y024695D01*
X022732Y024721D01*
X022781Y024744D01*
X022831Y024764D01*
X022883Y024780D01*
X022935Y024793D01*
X022988Y024802D01*
X023042Y024808D01*
X023096Y024810D01*
X023096Y024801D01*
X023043Y024799D01*
X022989Y024793D01*
X022937Y024784D01*
X022885Y024771D01*
X022834Y024755D01*
X022784Y024736D01*
X022736Y024713D01*
X022689Y024687D01*
X022645Y024658D01*
X022602Y024626D01*
X022561Y024591D01*
X022523Y024554D01*
X022487Y024514D01*
X022454Y024472D01*
X022424Y024428D01*
X022397Y024382D01*
X022405Y024378D01*
X022432Y024423D01*
X022462Y024467D01*
X022494Y024508D01*
X022529Y024548D01*
X022567Y024585D01*
X022607Y024619D01*
X022650Y024651D01*
X022694Y024679D01*
X022740Y024705D01*
X022788Y024727D01*
X022837Y024747D01*
X022887Y024763D01*
X022939Y024775D01*
X022991Y024784D01*
X023043Y024790D01*
X023096Y024792D01*
X023096Y024783D01*
X023040Y024781D01*
X022985Y024774D01*
X022930Y024764D01*
X022876Y024750D01*
X022824Y024732D01*
X022772Y024711D01*
X022723Y024685D01*
X022675Y024657D01*
X022629Y024625D01*
X022586Y024590D01*
X022546Y024552D01*
X022508Y024511D01*
X022473Y024467D01*
X022442Y024421D01*
X022413Y024373D01*
X022421Y024369D01*
X022449Y024417D01*
X022480Y024462D01*
X022515Y024505D01*
X022552Y024545D01*
X022592Y024583D01*
X022635Y024618D01*
X022680Y024649D01*
X022727Y024678D01*
X022776Y024702D01*
X022827Y024724D01*
X022879Y024741D01*
X022932Y024755D01*
X022986Y024765D01*
X023041Y024772D01*
X023096Y024774D01*
X023096Y024765D01*
X023042Y024763D01*
X022988Y024757D01*
X022934Y024747D01*
X022882Y024733D01*
X022830Y024715D01*
X022780Y024694D01*
X022731Y024670D01*
X022685Y024642D01*
X022640Y024610D01*
X022598Y024576D01*
X022559Y024539D01*
X022522Y024499D01*
X022488Y024457D01*
X022457Y024412D01*
X022429Y024365D01*
X023746Y024545D02*
X023677Y024488D01*
X023678Y024488D02*
X023641Y024528D01*
X023602Y024566D01*
X023560Y024600D01*
X023516Y024632D01*
X023470Y024660D01*
X023421Y024685D01*
X023371Y024706D01*
X023320Y024724D01*
X023267Y024737D01*
X023214Y024747D01*
X023160Y024754D01*
X023106Y024756D01*
X023105Y024845D01*
X023106Y024846D01*
X023162Y024844D01*
X023218Y024838D01*
X023273Y024828D01*
X023328Y024815D01*
X023381Y024798D01*
X023434Y024778D01*
X023485Y024754D01*
X023534Y024727D01*
X023581Y024696D01*
X023626Y024663D01*
X023669Y024627D01*
X023709Y024588D01*
X023747Y024546D01*
X023740Y024540D01*
X023703Y024581D01*
X023663Y024620D01*
X023621Y024656D01*
X023576Y024689D01*
X023529Y024719D01*
X023481Y024746D01*
X023430Y024769D01*
X023378Y024790D01*
X023325Y024806D01*
X023271Y024819D01*
X023217Y024829D01*
X023162Y024835D01*
X023106Y024837D01*
X023106Y024828D01*
X023161Y024826D01*
X023216Y024820D01*
X023270Y024811D01*
X023323Y024798D01*
X023375Y024781D01*
X023427Y024761D01*
X023476Y024738D01*
X023525Y024711D01*
X023571Y024682D01*
X023615Y024649D01*
X023657Y024613D01*
X023696Y024575D01*
X023733Y024534D01*
X023726Y024529D01*
X023690Y024569D01*
X023651Y024607D01*
X023609Y024642D01*
X023566Y024674D01*
X023520Y024704D01*
X023472Y024730D01*
X023423Y024753D01*
X023373Y024773D01*
X023321Y024789D01*
X023268Y024802D01*
X023214Y024811D01*
X023160Y024817D01*
X023106Y024819D01*
X023106Y024810D01*
X023160Y024808D01*
X023213Y024802D01*
X023266Y024793D01*
X023318Y024780D01*
X023370Y024764D01*
X023420Y024745D01*
X023468Y024722D01*
X023515Y024696D01*
X023561Y024667D01*
X023604Y024635D01*
X023645Y024600D01*
X023683Y024563D01*
X023719Y024523D01*
X023712Y024517D01*
X023677Y024556D01*
X023639Y024593D01*
X023598Y024628D01*
X023555Y024659D01*
X023511Y024688D01*
X023464Y024714D01*
X023416Y024736D01*
X023367Y024756D01*
X023316Y024772D01*
X023264Y024784D01*
X023212Y024793D01*
X023159Y024799D01*
X023106Y024801D01*
X023106Y024792D01*
X023158Y024790D01*
X023211Y024784D01*
X023262Y024775D01*
X023313Y024763D01*
X023364Y024747D01*
X023413Y024728D01*
X023460Y024706D01*
X023506Y024680D01*
X023550Y024652D01*
X023592Y024621D01*
X023633Y024587D01*
X023670Y024550D01*
X023705Y024511D01*
X023699Y024505D01*
X023664Y024544D01*
X023626Y024580D01*
X023587Y024614D01*
X023545Y024645D01*
X023501Y024673D01*
X023456Y024698D01*
X023409Y024720D01*
X023361Y024739D01*
X023311Y024754D01*
X023261Y024767D01*
X023210Y024775D01*
X023158Y024781D01*
X023106Y024783D01*
X023106Y024774D01*
X023157Y024772D01*
X023208Y024767D01*
X023259Y024758D01*
X023309Y024746D01*
X023358Y024730D01*
X023405Y024712D01*
X023452Y024690D01*
X023497Y024665D01*
X023540Y024637D01*
X023581Y024607D01*
X023620Y024574D01*
X023657Y024538D01*
X023692Y024500D01*
X023685Y024494D01*
X023648Y024535D01*
X023608Y024573D01*
X023566Y024607D01*
X023521Y024639D01*
X023474Y024668D01*
X023425Y024693D01*
X023374Y024714D01*
X023323Y024732D01*
X023269Y024746D01*
X023215Y024756D01*
X023161Y024763D01*
X023106Y024765D01*
X029870Y025278D02*
X029948Y025323D01*
X029948Y025322D02*
X029976Y025278D01*
X030007Y025236D01*
X030040Y025196D01*
X030076Y025158D01*
X030115Y025123D01*
X030156Y025091D01*
X030200Y025061D01*
X030245Y025035D01*
X030292Y025012D01*
X030340Y024992D01*
X030390Y024976D01*
X030440Y024963D01*
X030492Y024954D01*
X030544Y024948D01*
X030596Y024946D01*
X030597Y024857D01*
X030596Y024856D01*
X030541Y024858D01*
X030487Y024864D01*
X030432Y024873D01*
X030379Y024886D01*
X030327Y024902D01*
X030275Y024921D01*
X030225Y024944D01*
X030177Y024970D01*
X030130Y024999D01*
X030086Y025031D01*
X030043Y025066D01*
X030003Y025104D01*
X029966Y025144D01*
X029931Y025186D01*
X029899Y025231D01*
X029870Y025277D01*
X029878Y025282D01*
X029906Y025236D01*
X029938Y025192D01*
X029973Y025150D01*
X030010Y025110D01*
X030049Y025073D01*
X030091Y025038D01*
X030135Y025007D01*
X030181Y024978D01*
X030229Y024952D01*
X030279Y024930D01*
X030329Y024910D01*
X030381Y024894D01*
X030434Y024882D01*
X030488Y024873D01*
X030542Y024867D01*
X030596Y024865D01*
X030596Y024874D01*
X030542Y024876D01*
X030489Y024882D01*
X030436Y024891D01*
X030384Y024903D01*
X030332Y024919D01*
X030282Y024938D01*
X030233Y024960D01*
X030186Y024986D01*
X030140Y025014D01*
X030097Y025046D01*
X030055Y025080D01*
X030016Y025116D01*
X029979Y025156D01*
X029945Y025197D01*
X029914Y025241D01*
X029885Y025286D01*
X029893Y025291D01*
X029923Y025243D01*
X029957Y025197D01*
X029993Y025154D01*
X030033Y025113D01*
X030075Y025075D01*
X030119Y025040D01*
X030166Y025008D01*
X030215Y024980D01*
X030266Y024955D01*
X030319Y024933D01*
X030372Y024916D01*
X030427Y024902D01*
X030483Y024892D01*
X030539Y024885D01*
X030596Y024883D01*
X030596Y024892D01*
X030540Y024894D01*
X030484Y024900D01*
X030429Y024910D01*
X030375Y024924D01*
X030322Y024942D01*
X030270Y024963D01*
X030219Y024988D01*
X030171Y025016D01*
X030125Y025047D01*
X030080Y025082D01*
X030039Y025119D01*
X030000Y025160D01*
X029964Y025202D01*
X029931Y025248D01*
X029901Y025295D01*
X029909Y025300D01*
X029938Y025253D01*
X029971Y025208D01*
X030007Y025166D01*
X030045Y025126D01*
X030086Y025089D01*
X030130Y025054D01*
X030176Y025023D01*
X030224Y024996D01*
X030273Y024971D01*
X030325Y024950D01*
X030377Y024933D01*
X030431Y024919D01*
X030486Y024909D01*
X030541Y024903D01*
X030596Y024901D01*
X030596Y024910D01*
X030541Y024912D01*
X030487Y024918D01*
X030433Y024928D01*
X030380Y024942D01*
X030328Y024959D01*
X030277Y024979D01*
X030228Y025004D01*
X030181Y025031D01*
X030135Y025062D01*
X030092Y025095D01*
X030051Y025132D01*
X030013Y025172D01*
X029978Y025214D01*
X029946Y025258D01*
X029917Y025304D01*
X029925Y025309D01*
X029953Y025263D01*
X029985Y025219D01*
X030020Y025178D01*
X030058Y025139D01*
X030098Y025102D01*
X030140Y025069D01*
X030185Y025039D01*
X030232Y025011D01*
X030281Y024988D01*
X030331Y024967D01*
X030382Y024950D01*
X030435Y024937D01*
X030488Y024927D01*
X030542Y024921D01*
X030596Y024919D01*
X030596Y024928D01*
X030543Y024930D01*
X030489Y024936D01*
X030437Y024946D01*
X030385Y024959D01*
X030334Y024976D01*
X030284Y024996D01*
X030236Y025019D01*
X030190Y025046D01*
X030146Y025076D01*
X030104Y025109D01*
X030064Y025145D01*
X030027Y025184D01*
X029992Y025225D01*
X029961Y025268D01*
X029932Y025313D01*
X029940Y025318D01*
X029968Y025273D01*
X029999Y025230D01*
X030033Y025190D01*
X030070Y025152D01*
X030109Y025116D01*
X030151Y025084D01*
X030195Y025054D01*
X030241Y025027D01*
X030288Y025004D01*
X030337Y024984D01*
X030387Y024967D01*
X030439Y024954D01*
X030491Y024945D01*
X030543Y024939D01*
X030596Y024937D01*
X030605Y024857D02*
X030605Y024947D01*
X030606Y024946D02*
X030660Y024948D01*
X030713Y024954D01*
X030766Y024964D01*
X030818Y024978D01*
X030869Y024995D01*
X030919Y025016D01*
X030967Y025040D01*
X031013Y025068D01*
X031057Y025099D01*
X031098Y025133D01*
X031138Y025170D01*
X031174Y025209D01*
X031242Y025152D01*
X031243Y025151D01*
X031205Y025110D01*
X031165Y025072D01*
X031122Y025036D01*
X031077Y025003D01*
X031030Y024973D01*
X030982Y024947D01*
X030931Y024923D01*
X030879Y024903D01*
X030826Y024887D01*
X030772Y024873D01*
X030717Y024864D01*
X030662Y024858D01*
X030606Y024856D01*
X030606Y024865D01*
X030661Y024867D01*
X030716Y024873D01*
X030770Y024882D01*
X030824Y024895D01*
X030876Y024912D01*
X030928Y024931D01*
X030978Y024955D01*
X031026Y024981D01*
X031072Y025011D01*
X031117Y025043D01*
X031159Y025078D01*
X031199Y025117D01*
X031236Y025157D01*
X031229Y025163D01*
X031192Y025123D01*
X031153Y025085D01*
X031111Y025050D01*
X031067Y025018D01*
X031021Y024989D01*
X030973Y024963D01*
X030924Y024940D01*
X030873Y024920D01*
X030821Y024904D01*
X030768Y024891D01*
X030715Y024882D01*
X030660Y024876D01*
X030606Y024874D01*
X030606Y024883D01*
X030660Y024885D01*
X030713Y024891D01*
X030766Y024900D01*
X030819Y024913D01*
X030870Y024929D01*
X030921Y024948D01*
X030969Y024971D01*
X031017Y024996D01*
X031062Y025025D01*
X031106Y025057D01*
X031147Y025092D01*
X031186Y025129D01*
X031222Y025169D01*
X031215Y025175D01*
X031179Y025135D01*
X031141Y025098D01*
X031100Y025064D01*
X031057Y025033D01*
X031012Y025004D01*
X030965Y024979D01*
X030917Y024956D01*
X030867Y024937D01*
X030816Y024921D01*
X030765Y024909D01*
X030712Y024900D01*
X030659Y024894D01*
X030606Y024892D01*
X030606Y024901D01*
X030659Y024903D01*
X030711Y024909D01*
X030763Y024918D01*
X030814Y024930D01*
X030864Y024946D01*
X030914Y024965D01*
X030961Y024987D01*
X031008Y025012D01*
X031052Y025040D01*
X031094Y025071D01*
X031135Y025105D01*
X031173Y025142D01*
X031208Y025180D01*
X031202Y025186D01*
X031166Y025148D01*
X031129Y025112D01*
X031089Y025078D01*
X031047Y025048D01*
X031003Y025020D01*
X030957Y024995D01*
X030910Y024973D01*
X030861Y024954D01*
X030812Y024939D01*
X030761Y024926D01*
X030710Y024918D01*
X030658Y024912D01*
X030606Y024910D01*
X030606Y024919D01*
X030662Y024921D01*
X030717Y024928D01*
X030772Y024938D01*
X030826Y024952D01*
X030879Y024970D01*
X030930Y024992D01*
X030980Y025017D01*
X031028Y025046D01*
X031073Y025078D01*
X031116Y025113D01*
X031157Y025151D01*
X031195Y025192D01*
X031188Y025198D01*
X031151Y025157D01*
X031110Y025120D01*
X031068Y025085D01*
X031023Y025053D01*
X030975Y025025D01*
X030926Y025000D01*
X030875Y024978D01*
X030823Y024961D01*
X030770Y024947D01*
X030716Y024937D01*
X030661Y024930D01*
X030606Y024928D01*
X030606Y024937D01*
X030660Y024939D01*
X030715Y024945D01*
X030768Y024955D01*
X030821Y024969D01*
X030872Y024987D01*
X030922Y025008D01*
X030971Y025033D01*
X031018Y025061D01*
X031062Y025092D01*
X031104Y025126D01*
X031144Y025164D01*
X031181Y025204D01*
X030596Y026545D02*
X030596Y026455D01*
X030596Y026456D02*
X030542Y026454D01*
X030489Y026448D01*
X030436Y026438D01*
X030384Y026424D01*
X030333Y026407D01*
X030284Y026386D01*
X030236Y026362D01*
X030190Y026334D01*
X030146Y026303D01*
X030104Y026269D01*
X030065Y026233D01*
X030028Y026193D01*
X029995Y026151D01*
X029964Y026107D01*
X029937Y026061D01*
X029858Y026103D01*
X029886Y026152D01*
X029918Y026198D01*
X029953Y026243D01*
X029990Y026285D01*
X030031Y026324D01*
X030074Y026361D01*
X030119Y026395D01*
X030166Y026426D01*
X030216Y026453D01*
X030267Y026477D01*
X030319Y026498D01*
X030373Y026515D01*
X030428Y026528D01*
X030483Y026538D01*
X030540Y026544D01*
X030596Y026546D01*
X030596Y026537D01*
X030540Y026535D01*
X030485Y026529D01*
X030430Y026519D01*
X030375Y026506D01*
X030322Y026489D01*
X030270Y026469D01*
X030220Y026445D01*
X030171Y026418D01*
X030124Y026388D01*
X030079Y026354D01*
X030037Y026318D01*
X029997Y026279D01*
X029960Y026237D01*
X029925Y026193D01*
X029894Y026147D01*
X029866Y026099D01*
X029874Y026095D01*
X029902Y026142D01*
X029933Y026188D01*
X029967Y026231D01*
X030003Y026273D01*
X030043Y026311D01*
X030085Y026347D01*
X030129Y026380D01*
X030175Y026410D01*
X030224Y026437D01*
X030274Y026460D01*
X030325Y026481D01*
X030378Y026497D01*
X030431Y026510D01*
X030486Y026520D01*
X030541Y026526D01*
X030596Y026528D01*
X030596Y026519D01*
X030541Y026517D01*
X030487Y026511D01*
X030433Y026502D01*
X030380Y026489D01*
X030328Y026472D01*
X030277Y026452D01*
X030228Y026429D01*
X030180Y026402D01*
X030134Y026373D01*
X030090Y026340D01*
X030049Y026305D01*
X030010Y026266D01*
X029973Y026226D01*
X029940Y026183D01*
X029909Y026137D01*
X029882Y026090D01*
X029890Y026086D01*
X029917Y026133D01*
X029947Y026177D01*
X029980Y026220D01*
X030016Y026260D01*
X030055Y026298D01*
X030096Y026333D01*
X030139Y026365D01*
X030185Y026395D01*
X030232Y026421D01*
X030281Y026444D01*
X030331Y026464D01*
X030383Y026480D01*
X030435Y026493D01*
X030488Y026502D01*
X030542Y026508D01*
X030596Y026510D01*
X030596Y026501D01*
X030543Y026499D01*
X030489Y026493D01*
X030437Y026484D01*
X030385Y026471D01*
X030334Y026455D01*
X030284Y026436D01*
X030236Y026413D01*
X030189Y026387D01*
X030145Y026358D01*
X030102Y026326D01*
X030061Y026291D01*
X030023Y026254D01*
X029987Y026214D01*
X029954Y026172D01*
X029924Y026128D01*
X029897Y026082D01*
X029905Y026078D01*
X029932Y026123D01*
X029962Y026167D01*
X029994Y026208D01*
X030029Y026248D01*
X030067Y026285D01*
X030107Y026319D01*
X030150Y026351D01*
X030194Y026379D01*
X030240Y026405D01*
X030288Y026427D01*
X030337Y026447D01*
X030387Y026463D01*
X030439Y026475D01*
X030491Y026484D01*
X030543Y026490D01*
X030596Y026492D01*
X030596Y026483D01*
X030540Y026481D01*
X030485Y026474D01*
X030430Y026464D01*
X030376Y026450D01*
X030324Y026432D01*
X030272Y026411D01*
X030223Y026385D01*
X030175Y026357D01*
X030129Y026325D01*
X030086Y026290D01*
X030046Y026252D01*
X030008Y026211D01*
X029973Y026167D01*
X029942Y026121D01*
X029913Y026073D01*
X029921Y026069D01*
X029949Y026117D01*
X029980Y026162D01*
X030015Y026205D01*
X030052Y026245D01*
X030092Y026283D01*
X030135Y026318D01*
X030180Y026349D01*
X030227Y026378D01*
X030276Y026402D01*
X030327Y026424D01*
X030379Y026441D01*
X030432Y026455D01*
X030486Y026465D01*
X030541Y026472D01*
X030596Y026474D01*
X030596Y026465D01*
X030542Y026463D01*
X030488Y026457D01*
X030434Y026447D01*
X030382Y026433D01*
X030330Y026415D01*
X030280Y026394D01*
X030231Y026370D01*
X030185Y026342D01*
X030140Y026310D01*
X030098Y026276D01*
X030059Y026239D01*
X030022Y026199D01*
X029988Y026157D01*
X029957Y026112D01*
X029929Y026065D01*
X031246Y026245D02*
X031177Y026188D01*
X031178Y026188D02*
X031141Y026228D01*
X031102Y026266D01*
X031060Y026300D01*
X031016Y026332D01*
X030970Y026360D01*
X030921Y026385D01*
X030871Y026406D01*
X030820Y026424D01*
X030767Y026437D01*
X030714Y026447D01*
X030660Y026454D01*
X030606Y026456D01*
X030605Y026545D01*
X030606Y026546D01*
X030662Y026544D01*
X030718Y026538D01*
X030773Y026528D01*
X030828Y026515D01*
X030881Y026498D01*
X030934Y026478D01*
X030985Y026454D01*
X031034Y026427D01*
X031081Y026396D01*
X031126Y026363D01*
X031169Y026327D01*
X031209Y026288D01*
X031247Y026246D01*
X031240Y026240D01*
X031203Y026281D01*
X031163Y026320D01*
X031121Y026356D01*
X031076Y026389D01*
X031029Y026419D01*
X030981Y026446D01*
X030930Y026469D01*
X030878Y026490D01*
X030825Y026506D01*
X030771Y026519D01*
X030717Y026529D01*
X030662Y026535D01*
X030606Y026537D01*
X030606Y026528D01*
X030661Y026526D01*
X030716Y026520D01*
X030770Y026511D01*
X030823Y026498D01*
X030875Y026481D01*
X030927Y026461D01*
X030976Y026438D01*
X031025Y026411D01*
X031071Y026382D01*
X031115Y026349D01*
X031157Y026313D01*
X031196Y026275D01*
X031233Y026234D01*
X031226Y026229D01*
X031190Y026269D01*
X031151Y026307D01*
X031109Y026342D01*
X031066Y026374D01*
X031020Y026404D01*
X030972Y026430D01*
X030923Y026453D01*
X030873Y026473D01*
X030821Y026489D01*
X030768Y026502D01*
X030714Y026511D01*
X030660Y026517D01*
X030606Y026519D01*
X030606Y026510D01*
X030660Y026508D01*
X030713Y026502D01*
X030766Y026493D01*
X030818Y026480D01*
X030870Y026464D01*
X030920Y026445D01*
X030968Y026422D01*
X031015Y026396D01*
X031061Y026367D01*
X031104Y026335D01*
X031145Y026300D01*
X031183Y026263D01*
X031219Y026223D01*
X031212Y026217D01*
X031177Y026256D01*
X031139Y026293D01*
X031098Y026328D01*
X031055Y026359D01*
X031011Y026388D01*
X030964Y026414D01*
X030916Y026436D01*
X030867Y026456D01*
X030816Y026472D01*
X030764Y026484D01*
X030712Y026493D01*
X030659Y026499D01*
X030606Y026501D01*
X030606Y026492D01*
X030658Y026490D01*
X030711Y026484D01*
X030762Y026475D01*
X030813Y026463D01*
X030864Y026447D01*
X030913Y026428D01*
X030960Y026406D01*
X031006Y026380D01*
X031050Y026352D01*
X031092Y026321D01*
X031133Y026287D01*
X031170Y026250D01*
X031205Y026211D01*
X031199Y026205D01*
X031164Y026244D01*
X031126Y026280D01*
X031087Y026314D01*
X031045Y026345D01*
X031001Y026373D01*
X030956Y026398D01*
X030909Y026420D01*
X030861Y026439D01*
X030811Y026454D01*
X030761Y026467D01*
X030710Y026475D01*
X030658Y026481D01*
X030606Y026483D01*
X030606Y026474D01*
X030657Y026472D01*
X030708Y026467D01*
X030759Y026458D01*
X030809Y026446D01*
X030858Y026430D01*
X030905Y026412D01*
X030952Y026390D01*
X030997Y026365D01*
X031040Y026337D01*
X031081Y026307D01*
X031120Y026274D01*
X031157Y026238D01*
X031192Y026200D01*
X031185Y026194D01*
X031148Y026235D01*
X031108Y026273D01*
X031066Y026307D01*
X031021Y026339D01*
X030974Y026368D01*
X030925Y026393D01*
X030874Y026414D01*
X030823Y026432D01*
X030769Y026446D01*
X030715Y026456D01*
X030661Y026463D01*
X030606Y026465D01*
X032070Y025278D02*
X032148Y025323D01*
X032148Y025322D02*
X032176Y025278D01*
X032207Y025236D01*
X032240Y025196D01*
X032276Y025158D01*
X032315Y025123D01*
X032356Y025091D01*
X032400Y025061D01*
X032445Y025035D01*
X032492Y025012D01*
X032540Y024992D01*
X032590Y024976D01*
X032640Y024963D01*
X032692Y024954D01*
X032744Y024948D01*
X032796Y024946D01*
X032797Y024857D01*
X032796Y024856D01*
X032741Y024858D01*
X032687Y024864D01*
X032632Y024873D01*
X032579Y024886D01*
X032527Y024902D01*
X032475Y024921D01*
X032425Y024944D01*
X032377Y024970D01*
X032330Y024999D01*
X032286Y025031D01*
X032243Y025066D01*
X032203Y025104D01*
X032166Y025144D01*
X032131Y025186D01*
X032099Y025231D01*
X032070Y025277D01*
X032078Y025282D01*
X032106Y025236D01*
X032138Y025192D01*
X032173Y025150D01*
X032210Y025110D01*
X032249Y025073D01*
X032291Y025038D01*
X032335Y025007D01*
X032381Y024978D01*
X032429Y024952D01*
X032479Y024930D01*
X032529Y024910D01*
X032581Y024894D01*
X032634Y024882D01*
X032688Y024873D01*
X032742Y024867D01*
X032796Y024865D01*
X032796Y024874D01*
X032742Y024876D01*
X032689Y024882D01*
X032636Y024891D01*
X032584Y024903D01*
X032532Y024919D01*
X032482Y024938D01*
X032433Y024960D01*
X032386Y024986D01*
X032340Y025014D01*
X032297Y025046D01*
X032255Y025080D01*
X032216Y025116D01*
X032179Y025156D01*
X032145Y025197D01*
X032114Y025241D01*
X032085Y025286D01*
X032093Y025291D01*
X032123Y025243D01*
X032157Y025197D01*
X032193Y025154D01*
X032233Y025113D01*
X032275Y025075D01*
X032319Y025040D01*
X032366Y025008D01*
X032415Y024980D01*
X032466Y024955D01*
X032519Y024933D01*
X032572Y024916D01*
X032627Y024902D01*
X032683Y024892D01*
X032739Y024885D01*
X032796Y024883D01*
X032796Y024892D01*
X032740Y024894D01*
X032684Y024900D01*
X032629Y024910D01*
X032575Y024924D01*
X032522Y024942D01*
X032470Y024963D01*
X032419Y024988D01*
X032371Y025016D01*
X032325Y025047D01*
X032280Y025082D01*
X032239Y025119D01*
X032200Y025160D01*
X032164Y025202D01*
X032131Y025248D01*
X032101Y025295D01*
X032109Y025300D01*
X032138Y025253D01*
X032171Y025208D01*
X032207Y025166D01*
X032245Y025126D01*
X032286Y025089D01*
X032330Y025054D01*
X032376Y025023D01*
X032424Y024996D01*
X032473Y024971D01*
X032525Y024950D01*
X032577Y024933D01*
X032631Y024919D01*
X032686Y024909D01*
X032741Y024903D01*
X032796Y024901D01*
X032796Y024910D01*
X032741Y024912D01*
X032687Y024918D01*
X032633Y024928D01*
X032580Y024942D01*
X032528Y024959D01*
X032477Y024979D01*
X032428Y025004D01*
X032381Y025031D01*
X032335Y025062D01*
X032292Y025095D01*
X032251Y025132D01*
X032213Y025172D01*
X032178Y025214D01*
X032146Y025258D01*
X032117Y025304D01*
X032125Y025309D01*
X032153Y025263D01*
X032185Y025219D01*
X032220Y025178D01*
X032258Y025139D01*
X032298Y025102D01*
X032340Y025069D01*
X032385Y025039D01*
X032432Y025011D01*
X032481Y024988D01*
X032531Y024967D01*
X032582Y024950D01*
X032635Y024937D01*
X032688Y024927D01*
X032742Y024921D01*
X032796Y024919D01*
X032796Y024928D01*
X032743Y024930D01*
X032689Y024936D01*
X032637Y024946D01*
X032585Y024959D01*
X032534Y024976D01*
X032484Y024996D01*
X032436Y025019D01*
X032390Y025046D01*
X032346Y025076D01*
X032304Y025109D01*
X032264Y025145D01*
X032227Y025184D01*
X032192Y025225D01*
X032161Y025268D01*
X032132Y025313D01*
X032140Y025318D01*
X032168Y025273D01*
X032199Y025230D01*
X032233Y025190D01*
X032270Y025152D01*
X032309Y025116D01*
X032351Y025084D01*
X032395Y025054D01*
X032441Y025027D01*
X032488Y025004D01*
X032537Y024984D01*
X032587Y024967D01*
X032639Y024954D01*
X032691Y024945D01*
X032743Y024939D01*
X032796Y024937D01*
X032805Y024857D02*
X032805Y024947D01*
X032806Y024946D02*
X032860Y024948D01*
X032913Y024954D01*
X032966Y024964D01*
X033018Y024978D01*
X033069Y024995D01*
X033119Y025016D01*
X033167Y025040D01*
X033213Y025068D01*
X033257Y025099D01*
X033298Y025133D01*
X033338Y025170D01*
X033374Y025209D01*
X033442Y025152D01*
X033443Y025151D01*
X033405Y025110D01*
X033365Y025072D01*
X033322Y025036D01*
X033277Y025003D01*
X033230Y024973D01*
X033182Y024947D01*
X033131Y024923D01*
X033079Y024903D01*
X033026Y024887D01*
X032972Y024873D01*
X032917Y024864D01*
X032862Y024858D01*
X032806Y024856D01*
X032806Y024865D01*
X032861Y024867D01*
X032916Y024873D01*
X032970Y024882D01*
X033024Y024895D01*
X033076Y024912D01*
X033128Y024931D01*
X033178Y024955D01*
X033226Y024981D01*
X033272Y025011D01*
X033317Y025043D01*
X033359Y025078D01*
X033399Y025117D01*
X033436Y025157D01*
X033429Y025163D01*
X033392Y025123D01*
X033353Y025085D01*
X033311Y025050D01*
X033267Y025018D01*
X033221Y024989D01*
X033173Y024963D01*
X033124Y024940D01*
X033073Y024920D01*
X033021Y024904D01*
X032968Y024891D01*
X032915Y024882D01*
X032860Y024876D01*
X032806Y024874D01*
X032806Y024883D01*
X032860Y024885D01*
X032913Y024891D01*
X032966Y024900D01*
X033019Y024913D01*
X033070Y024929D01*
X033121Y024948D01*
X033169Y024971D01*
X033217Y024996D01*
X033262Y025025D01*
X033306Y025057D01*
X033347Y025092D01*
X033386Y025129D01*
X033422Y025169D01*
X033415Y025175D01*
X033379Y025135D01*
X033341Y025098D01*
X033300Y025064D01*
X033257Y025033D01*
X033212Y025004D01*
X033165Y024979D01*
X033117Y024956D01*
X033067Y024937D01*
X033016Y024921D01*
X032965Y024909D01*
X032912Y024900D01*
X032859Y024894D01*
X032806Y024892D01*
X032806Y024901D01*
X032859Y024903D01*
X032911Y024909D01*
X032963Y024918D01*
X033014Y024930D01*
X033064Y024946D01*
X033114Y024965D01*
X033161Y024987D01*
X033208Y025012D01*
X033252Y025040D01*
X033294Y025071D01*
X033335Y025105D01*
X033373Y025142D01*
X033408Y025180D01*
X033402Y025186D01*
X033366Y025148D01*
X033329Y025112D01*
X033289Y025078D01*
X033247Y025048D01*
X033203Y025020D01*
X033157Y024995D01*
X033110Y024973D01*
X033061Y024954D01*
X033012Y024939D01*
X032961Y024926D01*
X032910Y024918D01*
X032858Y024912D01*
X032806Y024910D01*
X032806Y024919D01*
X032862Y024921D01*
X032917Y024928D01*
X032972Y024938D01*
X033026Y024952D01*
X033079Y024970D01*
X033130Y024992D01*
X033180Y025017D01*
X033228Y025046D01*
X033273Y025078D01*
X033316Y025113D01*
X033357Y025151D01*
X033395Y025192D01*
X033388Y025198D01*
X033351Y025157D01*
X033310Y025120D01*
X033268Y025085D01*
X033223Y025053D01*
X033175Y025025D01*
X033126Y025000D01*
X033075Y024978D01*
X033023Y024961D01*
X032970Y024947D01*
X032916Y024937D01*
X032861Y024930D01*
X032806Y024928D01*
X032806Y024937D01*
X032860Y024939D01*
X032915Y024945D01*
X032968Y024955D01*
X033021Y024969D01*
X033072Y024987D01*
X033122Y025008D01*
X033171Y025033D01*
X033218Y025061D01*
X033262Y025092D01*
X033304Y025126D01*
X033344Y025164D01*
X033381Y025204D01*
X032796Y026545D02*
X032796Y026455D01*
X032796Y026456D02*
X032742Y026454D01*
X032689Y026448D01*
X032636Y026438D01*
X032584Y026424D01*
X032533Y026407D01*
X032484Y026386D01*
X032436Y026362D01*
X032390Y026334D01*
X032346Y026303D01*
X032304Y026269D01*
X032265Y026233D01*
X032228Y026193D01*
X032195Y026151D01*
X032164Y026107D01*
X032137Y026061D01*
X032058Y026103D01*
X032086Y026152D01*
X032118Y026198D01*
X032153Y026243D01*
X032190Y026285D01*
X032231Y026324D01*
X032274Y026361D01*
X032319Y026395D01*
X032366Y026426D01*
X032416Y026453D01*
X032467Y026477D01*
X032519Y026498D01*
X032573Y026515D01*
X032628Y026528D01*
X032683Y026538D01*
X032740Y026544D01*
X032796Y026546D01*
X032796Y026537D01*
X032740Y026535D01*
X032685Y026529D01*
X032630Y026519D01*
X032575Y026506D01*
X032522Y026489D01*
X032470Y026469D01*
X032420Y026445D01*
X032371Y026418D01*
X032324Y026388D01*
X032279Y026354D01*
X032237Y026318D01*
X032197Y026279D01*
X032160Y026237D01*
X032125Y026193D01*
X032094Y026147D01*
X032066Y026099D01*
X032074Y026095D01*
X032102Y026142D01*
X032133Y026188D01*
X032167Y026231D01*
X032203Y026273D01*
X032243Y026311D01*
X032285Y026347D01*
X032329Y026380D01*
X032375Y026410D01*
X032424Y026437D01*
X032474Y026460D01*
X032525Y026481D01*
X032578Y026497D01*
X032631Y026510D01*
X032686Y026520D01*
X032741Y026526D01*
X032796Y026528D01*
X032796Y026519D01*
X032741Y026517D01*
X032687Y026511D01*
X032633Y026502D01*
X032580Y026489D01*
X032528Y026472D01*
X032477Y026452D01*
X032428Y026429D01*
X032380Y026402D01*
X032334Y026373D01*
X032290Y026340D01*
X032249Y026305D01*
X032210Y026266D01*
X032173Y026226D01*
X032140Y026183D01*
X032109Y026137D01*
X032082Y026090D01*
X032090Y026086D01*
X032117Y026133D01*
X032147Y026177D01*
X032180Y026220D01*
X032216Y026260D01*
X032255Y026298D01*
X032296Y026333D01*
X032339Y026365D01*
X032385Y026395D01*
X032432Y026421D01*
X032481Y026444D01*
X032531Y026464D01*
X032583Y026480D01*
X032635Y026493D01*
X032688Y026502D01*
X032742Y026508D01*
X032796Y026510D01*
X032796Y026501D01*
X032743Y026499D01*
X032689Y026493D01*
X032637Y026484D01*
X032585Y026471D01*
X032534Y026455D01*
X032484Y026436D01*
X032436Y026413D01*
X032389Y026387D01*
X032345Y026358D01*
X032302Y026326D01*
X032261Y026291D01*
X032223Y026254D01*
X032187Y026214D01*
X032154Y026172D01*
X032124Y026128D01*
X032097Y026082D01*
X032105Y026078D01*
X032132Y026123D01*
X032162Y026167D01*
X032194Y026208D01*
X032229Y026248D01*
X032267Y026285D01*
X032307Y026319D01*
X032350Y026351D01*
X032394Y026379D01*
X032440Y026405D01*
X032488Y026427D01*
X032537Y026447D01*
X032587Y026463D01*
X032639Y026475D01*
X032691Y026484D01*
X032743Y026490D01*
X032796Y026492D01*
X032796Y026483D01*
X032740Y026481D01*
X032685Y026474D01*
X032630Y026464D01*
X032576Y026450D01*
X032524Y026432D01*
X032472Y026411D01*
X032423Y026385D01*
X032375Y026357D01*
X032329Y026325D01*
X032286Y026290D01*
X032246Y026252D01*
X032208Y026211D01*
X032173Y026167D01*
X032142Y026121D01*
X032113Y026073D01*
X032121Y026069D01*
X032149Y026117D01*
X032180Y026162D01*
X032215Y026205D01*
X032252Y026245D01*
X032292Y026283D01*
X032335Y026318D01*
X032380Y026349D01*
X032427Y026378D01*
X032476Y026402D01*
X032527Y026424D01*
X032579Y026441D01*
X032632Y026455D01*
X032686Y026465D01*
X032741Y026472D01*
X032796Y026474D01*
X032796Y026465D01*
X032742Y026463D01*
X032688Y026457D01*
X032634Y026447D01*
X032582Y026433D01*
X032530Y026415D01*
X032480Y026394D01*
X032431Y026370D01*
X032385Y026342D01*
X032340Y026310D01*
X032298Y026276D01*
X032259Y026239D01*
X032222Y026199D01*
X032188Y026157D01*
X032157Y026112D01*
X032129Y026065D01*
X033446Y026245D02*
X033377Y026188D01*
X033378Y026188D02*
X033341Y026228D01*
X033302Y026266D01*
X033260Y026300D01*
X033216Y026332D01*
X033170Y026360D01*
X033121Y026385D01*
X033071Y026406D01*
X033020Y026424D01*
X032967Y026437D01*
X032914Y026447D01*
X032860Y026454D01*
X032806Y026456D01*
X032805Y026545D01*
X032806Y026546D01*
X032862Y026544D01*
X032918Y026538D01*
X032973Y026528D01*
X033028Y026515D01*
X033081Y026498D01*
X033134Y026478D01*
X033185Y026454D01*
X033234Y026427D01*
X033281Y026396D01*
X033326Y026363D01*
X033369Y026327D01*
X033409Y026288D01*
X033447Y026246D01*
X033440Y026240D01*
X033403Y026281D01*
X033363Y026320D01*
X033321Y026356D01*
X033276Y026389D01*
X033229Y026419D01*
X033181Y026446D01*
X033130Y026469D01*
X033078Y026490D01*
X033025Y026506D01*
X032971Y026519D01*
X032917Y026529D01*
X032862Y026535D01*
X032806Y026537D01*
X032806Y026528D01*
X032861Y026526D01*
X032916Y026520D01*
X032970Y026511D01*
X033023Y026498D01*
X033075Y026481D01*
X033127Y026461D01*
X033176Y026438D01*
X033225Y026411D01*
X033271Y026382D01*
X033315Y026349D01*
X033357Y026313D01*
X033396Y026275D01*
X033433Y026234D01*
X033426Y026229D01*
X033390Y026269D01*
X033351Y026307D01*
X033309Y026342D01*
X033266Y026374D01*
X033220Y026404D01*
X033172Y026430D01*
X033123Y026453D01*
X033073Y026473D01*
X033021Y026489D01*
X032968Y026502D01*
X032914Y026511D01*
X032860Y026517D01*
X032806Y026519D01*
X032806Y026510D01*
X032860Y026508D01*
X032913Y026502D01*
X032966Y026493D01*
X033018Y026480D01*
X033070Y026464D01*
X033120Y026445D01*
X033168Y026422D01*
X033215Y026396D01*
X033261Y026367D01*
X033304Y026335D01*
X033345Y026300D01*
X033383Y026263D01*
X033419Y026223D01*
X033412Y026217D01*
X033377Y026256D01*
X033339Y026293D01*
X033298Y026328D01*
X033255Y026359D01*
X033211Y026388D01*
X033164Y026414D01*
X033116Y026436D01*
X033067Y026456D01*
X033016Y026472D01*
X032964Y026484D01*
X032912Y026493D01*
X032859Y026499D01*
X032806Y026501D01*
X032806Y026492D01*
X032858Y026490D01*
X032911Y026484D01*
X032962Y026475D01*
X033013Y026463D01*
X033064Y026447D01*
X033113Y026428D01*
X033160Y026406D01*
X033206Y026380D01*
X033250Y026352D01*
X033292Y026321D01*
X033333Y026287D01*
X033370Y026250D01*
X033405Y026211D01*
X033399Y026205D01*
X033364Y026244D01*
X033326Y026280D01*
X033287Y026314D01*
X033245Y026345D01*
X033201Y026373D01*
X033156Y026398D01*
X033109Y026420D01*
X033061Y026439D01*
X033011Y026454D01*
X032961Y026467D01*
X032910Y026475D01*
X032858Y026481D01*
X032806Y026483D01*
X032806Y026474D01*
X032857Y026472D01*
X032908Y026467D01*
X032959Y026458D01*
X033009Y026446D01*
X033058Y026430D01*
X033105Y026412D01*
X033152Y026390D01*
X033197Y026365D01*
X033240Y026337D01*
X033281Y026307D01*
X033320Y026274D01*
X033357Y026238D01*
X033392Y026200D01*
X033385Y026194D01*
X033348Y026235D01*
X033308Y026273D01*
X033266Y026307D01*
X033221Y026339D01*
X033174Y026368D01*
X033125Y026393D01*
X033074Y026414D01*
X033023Y026432D01*
X032969Y026446D01*
X032915Y026456D01*
X032861Y026463D01*
X032806Y026465D01*
X010896Y025445D02*
X010896Y025355D01*
X010896Y025356D02*
X010842Y025354D01*
X010789Y025348D01*
X010736Y025338D01*
X010684Y025324D01*
X010633Y025307D01*
X010584Y025286D01*
X010536Y025262D01*
X010490Y025234D01*
X010446Y025203D01*
X010404Y025169D01*
X010365Y025133D01*
X010328Y025093D01*
X010295Y025051D01*
X010264Y025007D01*
X010237Y024961D01*
X010158Y025003D01*
X010186Y025052D01*
X010218Y025098D01*
X010253Y025143D01*
X010290Y025185D01*
X010331Y025224D01*
X010374Y025261D01*
X010419Y025295D01*
X010466Y025326D01*
X010516Y025353D01*
X010567Y025377D01*
X010619Y025398D01*
X010673Y025415D01*
X010728Y025428D01*
X010783Y025438D01*
X010840Y025444D01*
X010896Y025446D01*
X010896Y025437D01*
X010840Y025435D01*
X010785Y025429D01*
X010730Y025419D01*
X010675Y025406D01*
X010622Y025389D01*
X010570Y025369D01*
X010520Y025345D01*
X010471Y025318D01*
X010424Y025288D01*
X010379Y025254D01*
X010337Y025218D01*
X010297Y025179D01*
X010260Y025137D01*
X010225Y025093D01*
X010194Y025047D01*
X010166Y024999D01*
X010174Y024995D01*
X010202Y025042D01*
X010233Y025088D01*
X010267Y025131D01*
X010303Y025173D01*
X010343Y025211D01*
X010385Y025247D01*
X010429Y025280D01*
X010475Y025310D01*
X010524Y025337D01*
X010574Y025360D01*
X010625Y025381D01*
X010678Y025397D01*
X010731Y025410D01*
X010786Y025420D01*
X010841Y025426D01*
X010896Y025428D01*
X010896Y025419D01*
X010841Y025417D01*
X010787Y025411D01*
X010733Y025402D01*
X010680Y025389D01*
X010628Y025372D01*
X010577Y025352D01*
X010528Y025329D01*
X010480Y025302D01*
X010434Y025273D01*
X010390Y025240D01*
X010349Y025205D01*
X010310Y025166D01*
X010273Y025126D01*
X010240Y025083D01*
X010209Y025037D01*
X010182Y024990D01*
X010190Y024986D01*
X010217Y025033D01*
X010247Y025077D01*
X010280Y025120D01*
X010316Y025160D01*
X010355Y025198D01*
X010396Y025233D01*
X010439Y025265D01*
X010485Y025295D01*
X010532Y025321D01*
X010581Y025344D01*
X010631Y025364D01*
X010683Y025380D01*
X010735Y025393D01*
X010788Y025402D01*
X010842Y025408D01*
X010896Y025410D01*
X010896Y025401D01*
X010843Y025399D01*
X010789Y025393D01*
X010737Y025384D01*
X010685Y025371D01*
X010634Y025355D01*
X010584Y025336D01*
X010536Y025313D01*
X010489Y025287D01*
X010445Y025258D01*
X010402Y025226D01*
X010361Y025191D01*
X010323Y025154D01*
X010287Y025114D01*
X010254Y025072D01*
X010224Y025028D01*
X010197Y024982D01*
X010205Y024978D01*
X010232Y025023D01*
X010262Y025067D01*
X010294Y025108D01*
X010329Y025148D01*
X010367Y025185D01*
X010407Y025219D01*
X010450Y025251D01*
X010494Y025279D01*
X010540Y025305D01*
X010588Y025327D01*
X010637Y025347D01*
X010687Y025363D01*
X010739Y025375D01*
X010791Y025384D01*
X010843Y025390D01*
X010896Y025392D01*
X010896Y025383D01*
X010840Y025381D01*
X010785Y025374D01*
X010730Y025364D01*
X010676Y025350D01*
X010624Y025332D01*
X010572Y025311D01*
X010523Y025285D01*
X010475Y025257D01*
X010429Y025225D01*
X010386Y025190D01*
X010346Y025152D01*
X010308Y025111D01*
X010273Y025067D01*
X010242Y025021D01*
X010213Y024973D01*
X010221Y024969D01*
X010249Y025017D01*
X010280Y025062D01*
X010315Y025105D01*
X010352Y025145D01*
X010392Y025183D01*
X010435Y025218D01*
X010480Y025249D01*
X010527Y025278D01*
X010576Y025302D01*
X010627Y025324D01*
X010679Y025341D01*
X010732Y025355D01*
X010786Y025365D01*
X010841Y025372D01*
X010896Y025374D01*
X010896Y025365D01*
X010842Y025363D01*
X010788Y025357D01*
X010734Y025347D01*
X010682Y025333D01*
X010630Y025315D01*
X010580Y025294D01*
X010531Y025270D01*
X010485Y025242D01*
X010440Y025210D01*
X010398Y025176D01*
X010359Y025139D01*
X010322Y025099D01*
X010288Y025057D01*
X010257Y025012D01*
X010229Y024965D01*
X010170Y024178D02*
X010248Y024223D01*
X010248Y024222D02*
X010276Y024178D01*
X010307Y024136D01*
X010340Y024096D01*
X010376Y024058D01*
X010415Y024023D01*
X010456Y023991D01*
X010500Y023961D01*
X010545Y023935D01*
X010592Y023912D01*
X010640Y023892D01*
X010690Y023876D01*
X010740Y023863D01*
X010792Y023854D01*
X010844Y023848D01*
X010896Y023846D01*
X010897Y023757D01*
X010896Y023756D01*
X010841Y023758D01*
X010787Y023764D01*
X010732Y023773D01*
X010679Y023786D01*
X010627Y023802D01*
X010575Y023821D01*
X010525Y023844D01*
X010477Y023870D01*
X010430Y023899D01*
X010386Y023931D01*
X010343Y023966D01*
X010303Y024004D01*
X010266Y024044D01*
X010231Y024086D01*
X010199Y024131D01*
X010170Y024177D01*
X010178Y024182D01*
X010206Y024136D01*
X010238Y024092D01*
X010273Y024050D01*
X010310Y024010D01*
X010349Y023973D01*
X010391Y023938D01*
X010435Y023907D01*
X010481Y023878D01*
X010529Y023852D01*
X010579Y023830D01*
X010629Y023810D01*
X010681Y023794D01*
X010734Y023782D01*
X010788Y023773D01*
X010842Y023767D01*
X010896Y023765D01*
X010896Y023774D01*
X010842Y023776D01*
X010789Y023782D01*
X010736Y023791D01*
X010684Y023803D01*
X010632Y023819D01*
X010582Y023838D01*
X010533Y023860D01*
X010486Y023886D01*
X010440Y023914D01*
X010397Y023946D01*
X010355Y023980D01*
X010316Y024016D01*
X010279Y024056D01*
X010245Y024097D01*
X010214Y024141D01*
X010185Y024186D01*
X010193Y024191D01*
X010223Y024143D01*
X010257Y024097D01*
X010293Y024054D01*
X010333Y024013D01*
X010375Y023975D01*
X010419Y023940D01*
X010466Y023908D01*
X010515Y023880D01*
X010566Y023855D01*
X010619Y023833D01*
X010672Y023816D01*
X010727Y023802D01*
X010783Y023792D01*
X010839Y023785D01*
X010896Y023783D01*
X010896Y023792D01*
X010840Y023794D01*
X010784Y023800D01*
X010729Y023810D01*
X010675Y023824D01*
X010622Y023842D01*
X010570Y023863D01*
X010519Y023888D01*
X010471Y023916D01*
X010425Y023947D01*
X010380Y023982D01*
X010339Y024019D01*
X010300Y024060D01*
X010264Y024102D01*
X010231Y024148D01*
X010201Y024195D01*
X010209Y024200D01*
X010238Y024153D01*
X010271Y024108D01*
X010307Y024066D01*
X010345Y024026D01*
X010386Y023989D01*
X010430Y023954D01*
X010476Y023923D01*
X010524Y023896D01*
X010573Y023871D01*
X010625Y023850D01*
X010677Y023833D01*
X010731Y023819D01*
X010786Y023809D01*
X010841Y023803D01*
X010896Y023801D01*
X010896Y023810D01*
X010841Y023812D01*
X010787Y023818D01*
X010733Y023828D01*
X010680Y023842D01*
X010628Y023859D01*
X010577Y023879D01*
X010528Y023904D01*
X010481Y023931D01*
X010435Y023962D01*
X010392Y023995D01*
X010351Y024032D01*
X010313Y024072D01*
X010278Y024114D01*
X010246Y024158D01*
X010217Y024204D01*
X010225Y024209D01*
X010253Y024163D01*
X010285Y024119D01*
X010320Y024078D01*
X010358Y024039D01*
X010398Y024002D01*
X010440Y023969D01*
X010485Y023939D01*
X010532Y023911D01*
X010581Y023888D01*
X010631Y023867D01*
X010682Y023850D01*
X010735Y023837D01*
X010788Y023827D01*
X010842Y023821D01*
X010896Y023819D01*
X010896Y023828D01*
X010843Y023830D01*
X010789Y023836D01*
X010737Y023846D01*
X010685Y023859D01*
X010634Y023876D01*
X010584Y023896D01*
X010536Y023919D01*
X010490Y023946D01*
X010446Y023976D01*
X010404Y024009D01*
X010364Y024045D01*
X010327Y024084D01*
X010292Y024125D01*
X010261Y024168D01*
X010232Y024213D01*
X010240Y024218D01*
X010268Y024173D01*
X010299Y024130D01*
X010333Y024090D01*
X010370Y024052D01*
X010409Y024016D01*
X010451Y023984D01*
X010495Y023954D01*
X010541Y023927D01*
X010588Y023904D01*
X010637Y023884D01*
X010687Y023867D01*
X010739Y023854D01*
X010791Y023845D01*
X010843Y023839D01*
X010896Y023837D01*
X010905Y023757D02*
X010905Y023847D01*
X010906Y023846D02*
X010960Y023848D01*
X011013Y023854D01*
X011066Y023864D01*
X011118Y023878D01*
X011169Y023895D01*
X011219Y023916D01*
X011267Y023940D01*
X011313Y023968D01*
X011357Y023999D01*
X011398Y024033D01*
X011438Y024070D01*
X011474Y024109D01*
X011542Y024052D01*
X011543Y024051D01*
X011505Y024010D01*
X011465Y023972D01*
X011422Y023936D01*
X011377Y023903D01*
X011330Y023873D01*
X011282Y023847D01*
X011231Y023823D01*
X011179Y023803D01*
X011126Y023787D01*
X011072Y023773D01*
X011017Y023764D01*
X010962Y023758D01*
X010906Y023756D01*
X010906Y023765D01*
X010961Y023767D01*
X011016Y023773D01*
X011070Y023782D01*
X011124Y023795D01*
X011176Y023812D01*
X011228Y023831D01*
X011278Y023855D01*
X011326Y023881D01*
X011372Y023911D01*
X011417Y023943D01*
X011459Y023978D01*
X011499Y024017D01*
X011536Y024057D01*
X011529Y024063D01*
X011492Y024023D01*
X011453Y023985D01*
X011411Y023950D01*
X011367Y023918D01*
X011321Y023889D01*
X011273Y023863D01*
X011224Y023840D01*
X011173Y023820D01*
X011121Y023804D01*
X011068Y023791D01*
X011015Y023782D01*
X010960Y023776D01*
X010906Y023774D01*
X010906Y023783D01*
X010960Y023785D01*
X011013Y023791D01*
X011066Y023800D01*
X011119Y023813D01*
X011170Y023829D01*
X011221Y023848D01*
X011269Y023871D01*
X011317Y023896D01*
X011362Y023925D01*
X011406Y023957D01*
X011447Y023992D01*
X011486Y024029D01*
X011522Y024069D01*
X011515Y024075D01*
X011479Y024035D01*
X011441Y023998D01*
X011400Y023964D01*
X011357Y023933D01*
X011312Y023904D01*
X011265Y023879D01*
X011217Y023856D01*
X011167Y023837D01*
X011116Y023821D01*
X011065Y023809D01*
X011012Y023800D01*
X010959Y023794D01*
X010906Y023792D01*
X010906Y023801D01*
X010959Y023803D01*
X011011Y023809D01*
X011063Y023818D01*
X011114Y023830D01*
X011164Y023846D01*
X011214Y023865D01*
X011261Y023887D01*
X011308Y023912D01*
X011352Y023940D01*
X011394Y023971D01*
X011435Y024005D01*
X011473Y024042D01*
X011508Y024080D01*
X011502Y024086D01*
X011466Y024048D01*
X011429Y024012D01*
X011389Y023978D01*
X011347Y023948D01*
X011303Y023920D01*
X011257Y023895D01*
X011210Y023873D01*
X011161Y023854D01*
X011112Y023839D01*
X011061Y023826D01*
X011010Y023818D01*
X010958Y023812D01*
X010906Y023810D01*
X010906Y023819D01*
X010962Y023821D01*
X011017Y023828D01*
X011072Y023838D01*
X011126Y023852D01*
X011179Y023870D01*
X011230Y023892D01*
X011280Y023917D01*
X011328Y023946D01*
X011373Y023978D01*
X011416Y024013D01*
X011457Y024051D01*
X011495Y024092D01*
X011488Y024098D01*
X011451Y024057D01*
X011410Y024020D01*
X011368Y023985D01*
X011323Y023953D01*
X011275Y023925D01*
X011226Y023900D01*
X011175Y023878D01*
X011123Y023861D01*
X011070Y023847D01*
X011016Y023837D01*
X010961Y023830D01*
X010906Y023828D01*
X010906Y023837D01*
X010960Y023839D01*
X011015Y023845D01*
X011068Y023855D01*
X011121Y023869D01*
X011172Y023887D01*
X011222Y023908D01*
X011271Y023933D01*
X011318Y023961D01*
X011362Y023992D01*
X011404Y024026D01*
X011444Y024064D01*
X011481Y024104D01*
X011546Y025145D02*
X011477Y025088D01*
X011478Y025088D02*
X011441Y025128D01*
X011402Y025166D01*
X011360Y025200D01*
X011316Y025232D01*
X011270Y025260D01*
X011221Y025285D01*
X011171Y025306D01*
X011120Y025324D01*
X011067Y025337D01*
X011014Y025347D01*
X010960Y025354D01*
X010906Y025356D01*
X010905Y025445D01*
X010906Y025446D01*
X010962Y025444D01*
X011018Y025438D01*
X011073Y025428D01*
X011128Y025415D01*
X011181Y025398D01*
X011234Y025378D01*
X011285Y025354D01*
X011334Y025327D01*
X011381Y025296D01*
X011426Y025263D01*
X011469Y025227D01*
X011509Y025188D01*
X011547Y025146D01*
X011540Y025140D01*
X011503Y025181D01*
X011463Y025220D01*
X011421Y025256D01*
X011376Y025289D01*
X011329Y025319D01*
X011281Y025346D01*
X011230Y025369D01*
X011178Y025390D01*
X011125Y025406D01*
X011071Y025419D01*
X011017Y025429D01*
X010962Y025435D01*
X010906Y025437D01*
X010906Y025428D01*
X010961Y025426D01*
X011016Y025420D01*
X011070Y025411D01*
X011123Y025398D01*
X011175Y025381D01*
X011227Y025361D01*
X011276Y025338D01*
X011325Y025311D01*
X011371Y025282D01*
X011415Y025249D01*
X011457Y025213D01*
X011496Y025175D01*
X011533Y025134D01*
X011526Y025129D01*
X011490Y025169D01*
X011451Y025207D01*
X011409Y025242D01*
X011366Y025274D01*
X011320Y025304D01*
X011272Y025330D01*
X011223Y025353D01*
X011173Y025373D01*
X011121Y025389D01*
X011068Y025402D01*
X011014Y025411D01*
X010960Y025417D01*
X010906Y025419D01*
X010906Y025410D01*
X010960Y025408D01*
X011013Y025402D01*
X011066Y025393D01*
X011118Y025380D01*
X011170Y025364D01*
X011220Y025345D01*
X011268Y025322D01*
X011315Y025296D01*
X011361Y025267D01*
X011404Y025235D01*
X011445Y025200D01*
X011483Y025163D01*
X011519Y025123D01*
X011512Y025117D01*
X011477Y025156D01*
X011439Y025193D01*
X011398Y025228D01*
X011355Y025259D01*
X011311Y025288D01*
X011264Y025314D01*
X011216Y025336D01*
X011167Y025356D01*
X011116Y025372D01*
X011064Y025384D01*
X011012Y025393D01*
X010959Y025399D01*
X010906Y025401D01*
X010906Y025392D01*
X010958Y025390D01*
X011011Y025384D01*
X011062Y025375D01*
X011113Y025363D01*
X011164Y025347D01*
X011213Y025328D01*
X011260Y025306D01*
X011306Y025280D01*
X011350Y025252D01*
X011392Y025221D01*
X011433Y025187D01*
X011470Y025150D01*
X011505Y025111D01*
X011499Y025105D01*
X011464Y025144D01*
X011426Y025180D01*
X011387Y025214D01*
X011345Y025245D01*
X011301Y025273D01*
X011256Y025298D01*
X011209Y025320D01*
X011161Y025339D01*
X011111Y025354D01*
X011061Y025367D01*
X011010Y025375D01*
X010958Y025381D01*
X010906Y025383D01*
X010906Y025374D01*
X010957Y025372D01*
X011008Y025367D01*
X011059Y025358D01*
X011109Y025346D01*
X011158Y025330D01*
X011205Y025312D01*
X011252Y025290D01*
X011297Y025265D01*
X011340Y025237D01*
X011381Y025207D01*
X011420Y025174D01*
X011457Y025138D01*
X011492Y025100D01*
X011485Y025094D01*
X011448Y025135D01*
X011408Y025173D01*
X011366Y025207D01*
X011321Y025239D01*
X011274Y025268D01*
X011225Y025293D01*
X011174Y025314D01*
X011123Y025332D01*
X011069Y025346D01*
X011015Y025356D01*
X010961Y025363D01*
X010906Y025365D01*
X010070Y021778D02*
X010148Y021823D01*
X010148Y021822D02*
X010176Y021778D01*
X010207Y021736D01*
X010240Y021696D01*
X010276Y021658D01*
X010315Y021623D01*
X010356Y021591D01*
X010400Y021561D01*
X010445Y021535D01*
X010492Y021512D01*
X010540Y021492D01*
X010590Y021476D01*
X010640Y021463D01*
X010692Y021454D01*
X010744Y021448D01*
X010796Y021446D01*
X010797Y021357D01*
X010796Y021356D01*
X010741Y021358D01*
X010687Y021364D01*
X010632Y021373D01*
X010579Y021386D01*
X010527Y021402D01*
X010475Y021421D01*
X010425Y021444D01*
X010377Y021470D01*
X010330Y021499D01*
X010286Y021531D01*
X010243Y021566D01*
X010203Y021604D01*
X010166Y021644D01*
X010131Y021686D01*
X010099Y021731D01*
X010070Y021777D01*
X010078Y021782D01*
X010106Y021736D01*
X010138Y021692D01*
X010173Y021650D01*
X010210Y021610D01*
X010249Y021573D01*
X010291Y021538D01*
X010335Y021507D01*
X010381Y021478D01*
X010429Y021452D01*
X010479Y021430D01*
X010529Y021410D01*
X010581Y021394D01*
X010634Y021382D01*
X010688Y021373D01*
X010742Y021367D01*
X010796Y021365D01*
X010796Y021374D01*
X010742Y021376D01*
X010689Y021382D01*
X010636Y021391D01*
X010584Y021403D01*
X010532Y021419D01*
X010482Y021438D01*
X010433Y021460D01*
X010386Y021486D01*
X010340Y021514D01*
X010297Y021546D01*
X010255Y021580D01*
X010216Y021616D01*
X010179Y021656D01*
X010145Y021697D01*
X010114Y021741D01*
X010085Y021786D01*
X010093Y021791D01*
X010123Y021743D01*
X010157Y021697D01*
X010193Y021654D01*
X010233Y021613D01*
X010275Y021575D01*
X010319Y021540D01*
X010366Y021508D01*
X010415Y021480D01*
X010466Y021455D01*
X010519Y021433D01*
X010572Y021416D01*
X010627Y021402D01*
X010683Y021392D01*
X010739Y021385D01*
X010796Y021383D01*
X010796Y021392D01*
X010740Y021394D01*
X010684Y021400D01*
X010629Y021410D01*
X010575Y021424D01*
X010522Y021442D01*
X010470Y021463D01*
X010419Y021488D01*
X010371Y021516D01*
X010325Y021547D01*
X010280Y021582D01*
X010239Y021619D01*
X010200Y021660D01*
X010164Y021702D01*
X010131Y021748D01*
X010101Y021795D01*
X010109Y021800D01*
X010138Y021753D01*
X010171Y021708D01*
X010207Y021666D01*
X010245Y021626D01*
X010286Y021589D01*
X010330Y021554D01*
X010376Y021523D01*
X010424Y021496D01*
X010473Y021471D01*
X010525Y021450D01*
X010577Y021433D01*
X010631Y021419D01*
X010686Y021409D01*
X010741Y021403D01*
X010796Y021401D01*
X010796Y021410D01*
X010741Y021412D01*
X010687Y021418D01*
X010633Y021428D01*
X010580Y021442D01*
X010528Y021459D01*
X010477Y021479D01*
X010428Y021504D01*
X010381Y021531D01*
X010335Y021562D01*
X010292Y021595D01*
X010251Y021632D01*
X010213Y021672D01*
X010178Y021714D01*
X010146Y021758D01*
X010117Y021804D01*
X010125Y021809D01*
X010153Y021763D01*
X010185Y021719D01*
X010220Y021678D01*
X010258Y021639D01*
X010298Y021602D01*
X010340Y021569D01*
X010385Y021539D01*
X010432Y021511D01*
X010481Y021488D01*
X010531Y021467D01*
X010582Y021450D01*
X010635Y021437D01*
X010688Y021427D01*
X010742Y021421D01*
X010796Y021419D01*
X010796Y021428D01*
X010743Y021430D01*
X010689Y021436D01*
X010637Y021446D01*
X010585Y021459D01*
X010534Y021476D01*
X010484Y021496D01*
X010436Y021519D01*
X010390Y021546D01*
X010346Y021576D01*
X010304Y021609D01*
X010264Y021645D01*
X010227Y021684D01*
X010192Y021725D01*
X010161Y021768D01*
X010132Y021813D01*
X010140Y021818D01*
X010168Y021773D01*
X010199Y021730D01*
X010233Y021690D01*
X010270Y021652D01*
X010309Y021616D01*
X010351Y021584D01*
X010395Y021554D01*
X010441Y021527D01*
X010488Y021504D01*
X010537Y021484D01*
X010587Y021467D01*
X010639Y021454D01*
X010691Y021445D01*
X010743Y021439D01*
X010796Y021437D01*
X010805Y021357D02*
X010805Y021447D01*
X010806Y021446D02*
X010860Y021448D01*
X010913Y021454D01*
X010966Y021464D01*
X011018Y021478D01*
X011069Y021495D01*
X011119Y021516D01*
X011167Y021540D01*
X011213Y021568D01*
X011257Y021599D01*
X011298Y021633D01*
X011338Y021670D01*
X011374Y021709D01*
X011442Y021652D01*
X011443Y021651D01*
X011405Y021610D01*
X011365Y021572D01*
X011322Y021536D01*
X011277Y021503D01*
X011230Y021473D01*
X011182Y021447D01*
X011131Y021423D01*
X011079Y021403D01*
X011026Y021387D01*
X010972Y021373D01*
X010917Y021364D01*
X010862Y021358D01*
X010806Y021356D01*
X010806Y021365D01*
X010861Y021367D01*
X010916Y021373D01*
X010970Y021382D01*
X011024Y021395D01*
X011076Y021412D01*
X011128Y021431D01*
X011178Y021455D01*
X011226Y021481D01*
X011272Y021511D01*
X011317Y021543D01*
X011359Y021578D01*
X011399Y021617D01*
X011436Y021657D01*
X011429Y021663D01*
X011392Y021623D01*
X011353Y021585D01*
X011311Y021550D01*
X011267Y021518D01*
X011221Y021489D01*
X011173Y021463D01*
X011124Y021440D01*
X011073Y021420D01*
X011021Y021404D01*
X010968Y021391D01*
X010915Y021382D01*
X010860Y021376D01*
X010806Y021374D01*
X010806Y021383D01*
X010860Y021385D01*
X010913Y021391D01*
X010966Y021400D01*
X011019Y021413D01*
X011070Y021429D01*
X011121Y021448D01*
X011169Y021471D01*
X011217Y021496D01*
X011262Y021525D01*
X011306Y021557D01*
X011347Y021592D01*
X011386Y021629D01*
X011422Y021669D01*
X011415Y021675D01*
X011379Y021635D01*
X011341Y021598D01*
X011300Y021564D01*
X011257Y021533D01*
X011212Y021504D01*
X011165Y021479D01*
X011117Y021456D01*
X011067Y021437D01*
X011016Y021421D01*
X010965Y021409D01*
X010912Y021400D01*
X010859Y021394D01*
X010806Y021392D01*
X010806Y021401D01*
X010859Y021403D01*
X010911Y021409D01*
X010963Y021418D01*
X011014Y021430D01*
X011064Y021446D01*
X011114Y021465D01*
X011161Y021487D01*
X011208Y021512D01*
X011252Y021540D01*
X011294Y021571D01*
X011335Y021605D01*
X011373Y021642D01*
X011408Y021680D01*
X011402Y021686D01*
X011366Y021648D01*
X011329Y021612D01*
X011289Y021578D01*
X011247Y021548D01*
X011203Y021520D01*
X011157Y021495D01*
X011110Y021473D01*
X011061Y021454D01*
X011012Y021439D01*
X010961Y021426D01*
X010910Y021418D01*
X010858Y021412D01*
X010806Y021410D01*
X010806Y021419D01*
X010862Y021421D01*
X010917Y021428D01*
X010972Y021438D01*
X011026Y021452D01*
X011079Y021470D01*
X011130Y021492D01*
X011180Y021517D01*
X011228Y021546D01*
X011273Y021578D01*
X011316Y021613D01*
X011357Y021651D01*
X011395Y021692D01*
X011388Y021698D01*
X011351Y021657D01*
X011310Y021620D01*
X011268Y021585D01*
X011223Y021553D01*
X011175Y021525D01*
X011126Y021500D01*
X011075Y021478D01*
X011023Y021461D01*
X010970Y021447D01*
X010916Y021437D01*
X010861Y021430D01*
X010806Y021428D01*
X010806Y021437D01*
X010860Y021439D01*
X010915Y021445D01*
X010968Y021455D01*
X011021Y021469D01*
X011072Y021487D01*
X011122Y021508D01*
X011171Y021533D01*
X011218Y021561D01*
X011262Y021592D01*
X011304Y021626D01*
X011344Y021664D01*
X011381Y021704D01*
X010796Y023045D02*
X010796Y022955D01*
X010796Y022956D02*
X010742Y022954D01*
X010689Y022948D01*
X010636Y022938D01*
X010584Y022924D01*
X010533Y022907D01*
X010484Y022886D01*
X010436Y022862D01*
X010390Y022834D01*
X010346Y022803D01*
X010304Y022769D01*
X010265Y022733D01*
X010228Y022693D01*
X010195Y022651D01*
X010164Y022607D01*
X010137Y022561D01*
X010058Y022603D01*
X010086Y022652D01*
X010118Y022698D01*
X010153Y022743D01*
X010190Y022785D01*
X010231Y022824D01*
X010274Y022861D01*
X010319Y022895D01*
X010366Y022926D01*
X010416Y022953D01*
X010467Y022977D01*
X010519Y022998D01*
X010573Y023015D01*
X010628Y023028D01*
X010683Y023038D01*
X010740Y023044D01*
X010796Y023046D01*
X010796Y023037D01*
X010740Y023035D01*
X010685Y023029D01*
X010630Y023019D01*
X010575Y023006D01*
X010522Y022989D01*
X010470Y022969D01*
X010420Y022945D01*
X010371Y022918D01*
X010324Y022888D01*
X010279Y022854D01*
X010237Y022818D01*
X010197Y022779D01*
X010160Y022737D01*
X010125Y022693D01*
X010094Y022647D01*
X010066Y022599D01*
X010074Y022595D01*
X010102Y022642D01*
X010133Y022688D01*
X010167Y022731D01*
X010203Y022773D01*
X010243Y022811D01*
X010285Y022847D01*
X010329Y022880D01*
X010375Y022910D01*
X010424Y022937D01*
X010474Y022960D01*
X010525Y022981D01*
X010578Y022997D01*
X010631Y023010D01*
X010686Y023020D01*
X010741Y023026D01*
X010796Y023028D01*
X010796Y023019D01*
X010741Y023017D01*
X010687Y023011D01*
X010633Y023002D01*
X010580Y022989D01*
X010528Y022972D01*
X010477Y022952D01*
X010428Y022929D01*
X010380Y022902D01*
X010334Y022873D01*
X010290Y022840D01*
X010249Y022805D01*
X010210Y022766D01*
X010173Y022726D01*
X010140Y022683D01*
X010109Y022637D01*
X010082Y022590D01*
X010090Y022586D01*
X010117Y022633D01*
X010147Y022677D01*
X010180Y022720D01*
X010216Y022760D01*
X010255Y022798D01*
X010296Y022833D01*
X010339Y022865D01*
X010385Y022895D01*
X010432Y022921D01*
X010481Y022944D01*
X010531Y022964D01*
X010583Y022980D01*
X010635Y022993D01*
X010688Y023002D01*
X010742Y023008D01*
X010796Y023010D01*
X010796Y023001D01*
X010743Y022999D01*
X010689Y022993D01*
X010637Y022984D01*
X010585Y022971D01*
X010534Y022955D01*
X010484Y022936D01*
X010436Y022913D01*
X010389Y022887D01*
X010345Y022858D01*
X010302Y022826D01*
X010261Y022791D01*
X010223Y022754D01*
X010187Y022714D01*
X010154Y022672D01*
X010124Y022628D01*
X010097Y022582D01*
X010105Y022578D01*
X010132Y022623D01*
X010162Y022667D01*
X010194Y022708D01*
X010229Y022748D01*
X010267Y022785D01*
X010307Y022819D01*
X010350Y022851D01*
X010394Y022879D01*
X010440Y022905D01*
X010488Y022927D01*
X010537Y022947D01*
X010587Y022963D01*
X010639Y022975D01*
X010691Y022984D01*
X010743Y022990D01*
X010796Y022992D01*
X010796Y022983D01*
X010740Y022981D01*
X010685Y022974D01*
X010630Y022964D01*
X010576Y022950D01*
X010524Y022932D01*
X010472Y022911D01*
X010423Y022885D01*
X010375Y022857D01*
X010329Y022825D01*
X010286Y022790D01*
X010246Y022752D01*
X010208Y022711D01*
X010173Y022667D01*
X010142Y022621D01*
X010113Y022573D01*
X010121Y022569D01*
X010149Y022617D01*
X010180Y022662D01*
X010215Y022705D01*
X010252Y022745D01*
X010292Y022783D01*
X010335Y022818D01*
X010380Y022849D01*
X010427Y022878D01*
X010476Y022902D01*
X010527Y022924D01*
X010579Y022941D01*
X010632Y022955D01*
X010686Y022965D01*
X010741Y022972D01*
X010796Y022974D01*
X010796Y022965D01*
X010742Y022963D01*
X010688Y022957D01*
X010634Y022947D01*
X010582Y022933D01*
X010530Y022915D01*
X010480Y022894D01*
X010431Y022870D01*
X010385Y022842D01*
X010340Y022810D01*
X010298Y022776D01*
X010259Y022739D01*
X010222Y022699D01*
X010188Y022657D01*
X010157Y022612D01*
X010129Y022565D01*
X011446Y022745D02*
X011377Y022688D01*
X011378Y022688D02*
X011341Y022728D01*
X011302Y022766D01*
X011260Y022800D01*
X011216Y022832D01*
X011170Y022860D01*
X011121Y022885D01*
X011071Y022906D01*
X011020Y022924D01*
X010967Y022937D01*
X010914Y022947D01*
X010860Y022954D01*
X010806Y022956D01*
X010805Y023045D01*
X010806Y023046D01*
X010862Y023044D01*
X010918Y023038D01*
X010973Y023028D01*
X011028Y023015D01*
X011081Y022998D01*
X011134Y022978D01*
X011185Y022954D01*
X011234Y022927D01*
X011281Y022896D01*
X011326Y022863D01*
X011369Y022827D01*
X011409Y022788D01*
X011447Y022746D01*
X011440Y022740D01*
X011403Y022781D01*
X011363Y022820D01*
X011321Y022856D01*
X011276Y022889D01*
X011229Y022919D01*
X011181Y022946D01*
X011130Y022969D01*
X011078Y022990D01*
X011025Y023006D01*
X010971Y023019D01*
X010917Y023029D01*
X010862Y023035D01*
X010806Y023037D01*
X010806Y023028D01*
X010861Y023026D01*
X010916Y023020D01*
X010970Y023011D01*
X011023Y022998D01*
X011075Y022981D01*
X011127Y022961D01*
X011176Y022938D01*
X011225Y022911D01*
X011271Y022882D01*
X011315Y022849D01*
X011357Y022813D01*
X011396Y022775D01*
X011433Y022734D01*
X011426Y022729D01*
X011390Y022769D01*
X011351Y022807D01*
X011309Y022842D01*
X011266Y022874D01*
X011220Y022904D01*
X011172Y022930D01*
X011123Y022953D01*
X011073Y022973D01*
X011021Y022989D01*
X010968Y023002D01*
X010914Y023011D01*
X010860Y023017D01*
X010806Y023019D01*
X010806Y023010D01*
X010860Y023008D01*
X010913Y023002D01*
X010966Y022993D01*
X011018Y022980D01*
X011070Y022964D01*
X011120Y022945D01*
X011168Y022922D01*
X011215Y022896D01*
X011261Y022867D01*
X011304Y022835D01*
X011345Y022800D01*
X011383Y022763D01*
X011419Y022723D01*
X011412Y022717D01*
X011377Y022756D01*
X011339Y022793D01*
X011298Y022828D01*
X011255Y022859D01*
X011211Y022888D01*
X011164Y022914D01*
X011116Y022936D01*
X011067Y022956D01*
X011016Y022972D01*
X010964Y022984D01*
X010912Y022993D01*
X010859Y022999D01*
X010806Y023001D01*
X010806Y022992D01*
X010858Y022990D01*
X010911Y022984D01*
X010962Y022975D01*
X011013Y022963D01*
X011064Y022947D01*
X011113Y022928D01*
X011160Y022906D01*
X011206Y022880D01*
X011250Y022852D01*
X011292Y022821D01*
X011333Y022787D01*
X011370Y022750D01*
X011405Y022711D01*
X011399Y022705D01*
X011364Y022744D01*
X011326Y022780D01*
X011287Y022814D01*
X011245Y022845D01*
X011201Y022873D01*
X011156Y022898D01*
X011109Y022920D01*
X011061Y022939D01*
X011011Y022954D01*
X010961Y022967D01*
X010910Y022975D01*
X010858Y022981D01*
X010806Y022983D01*
X010806Y022974D01*
X010857Y022972D01*
X010908Y022967D01*
X010959Y022958D01*
X011009Y022946D01*
X011058Y022930D01*
X011105Y022912D01*
X011152Y022890D01*
X011197Y022865D01*
X011240Y022837D01*
X011281Y022807D01*
X011320Y022774D01*
X011357Y022738D01*
X011392Y022700D01*
X011385Y022694D01*
X011348Y022735D01*
X011308Y022773D01*
X011266Y022807D01*
X011221Y022839D01*
X011174Y022868D01*
X011125Y022893D01*
X011074Y022914D01*
X011023Y022932D01*
X010969Y022946D01*
X010915Y022956D01*
X010861Y022963D01*
X010806Y022965D01*
M02*
