%
M48
M72
T01C0.0200
T02C0.0276
T03C0.0320
T04C0.0394
T05C0.0400
T06C0.0433
T07C0.0512
T08C0.0787
T09C0.1180
T10C0.1300
%
T01
X5701Y10901
X7501Y14301
X6101Y14501
X7901Y18301
X8301Y20901
X7301Y21101
X8701Y23301
X11901Y20901
X12301Y19901
X14901Y19101
X10301Y12901
X22901Y5701
X28901Y12101
X32501Y15301
X23301Y27501
X12101Y29301
T02
X12101Y12101
X11101Y12101
X11101Y10601
X12101Y10601
X12101Y6601
X11101Y6601
X13601Y6601
X14601Y6601
T03
X14201Y15101
X15201Y15101
X16201Y15101
X17201Y15101
X18201Y15101
X19201Y15101
X20201Y15101
X21201Y15101
X22201Y15101
X23201Y15101
X23201Y18101
X22201Y18101
X21201Y18101
X20201Y18101
X19201Y18101
X18201Y18101
X17201Y18101
X16201Y18101
X15201Y18101
X14201Y18101
X13201Y18101
X12201Y18101
X11201Y18101
X10201Y18101
X10201Y15101
X11201Y15101
X12201Y15101
X13201Y15101
X11301Y22201
X10301Y22201
X10401Y24601
X11401Y24601
X22601Y24001
X23601Y24001
X23401Y21901
X22401Y21901
X30101Y25701
X31101Y25701
X32301Y25701
X33301Y25701
X32501Y6001
X31501Y6001
X30001Y6101
X29001Y6101
T04
X26201Y8101
X28201Y8401
X28201Y9901
X28201Y11501
X28201Y12901
X26201Y12101
X23901Y12001
X21601Y12001
X19401Y12101
X17201Y12201
X17201Y8201
X19401Y8101
X21601Y8001
X23901Y8001
X27501Y14701
X29301Y14701
X31101Y14601
X32201Y12901
X32201Y11501
X32201Y9901
X32201Y8401
X31101Y18601
X29301Y18701
X27501Y18701
X27201Y20701
X28601Y21601
X28501Y23301
X27201Y24701
X25401Y24601
X25401Y20601
X32601Y21601
X32501Y23301
T05
X12151Y9101
X11051Y9101
X7101Y8601
X6101Y8601
X5101Y8601
X2601Y11101
X2601Y12101
X2601Y13101
X11601Y3651
X12601Y3551
X13601Y3651
X14601Y3551
X15601Y3651
X16601Y3551
X17601Y3651
X18601Y3551
X18601Y1551
X17601Y1651
X16601Y1551
X15601Y1651
X14601Y1551
X13601Y1651
X12601Y1551
X11601Y1651
X21101Y1601
X22101Y1501
X23101Y1601
X24101Y1501
X25101Y1601
X26101Y1501
X28101Y1531
X28101Y2671
T06
X33460Y12024
X33460Y13024
X33460Y14024
X33460Y15024
X33460Y16024
X33460Y17024
X33460Y18024
X33460Y19024
X35460Y18524
X35460Y17524
X35460Y16524
X35460Y15524
X35460Y14524
X35460Y13524
X35460Y12524
X22477Y26460
X21477Y26460
X20477Y26460
X19477Y26460
X18477Y26460
X17477Y26460
X16477Y26460
X15477Y26460
X15977Y28460
X16977Y28460
X17977Y28460
X18977Y28460
X19977Y28460
X20977Y28460
X21977Y28460
T07
X31101Y29601
X33069Y29601
X37601Y28069
X37601Y26101
X37101Y5101
X37101Y3132
X33101Y2101
X31132Y2101
X6569Y29101
X4601Y29101
T08
X1488Y1488
X15061Y11912
X1188Y30209
X36996Y30509
T09
X37751Y20501
X37751Y10501
X24001Y30751
X14001Y30751
T10
X6101Y2701
M30
