%
M48
M72
T01C0.0200
T02C0.0276
T03C0.0320
T04C0.0394
T05C0.0400
T06C0.0433
T07C0.0512
T08C0.0787
T09C0.1180
T10C0.1300
%
T01
X15301Y9701
X16101Y8301
X14701Y13501
X18701Y16701
X19301Y16701
X17901Y19301
X20501Y19701
X17101Y24701
X19901Y25501
X21501Y27901
X17501Y27901
X9301Y21301
X10701Y19301
X7501Y18301
X8501Y15901
X9301Y15701
X7701Y13501
X4301Y20101
X6101Y24901
X24901Y13501
X28501Y12101
X29901Y15901
X32701Y18501
X34101Y19301
X35101Y19701
X22301Y3301
T02
X14601Y6601
X13601Y6601
X12101Y6601
X11101Y6601
X11101Y10601
X12101Y10601
X12101Y12101
X11101Y12101
T03
X11201Y15101
X12201Y15101
X13201Y15101
X14201Y15101
X15201Y15101
X16201Y15101
X17201Y15101
X18201Y15101
X19201Y15101
X20201Y15101
X21201Y15101
X22201Y15101
X23201Y15101
X23201Y18101
X22201Y18101
X21201Y18101
X20201Y18101
X19201Y18101
X18201Y18101
X17201Y18101
X16201Y18101
X15201Y18101
X14201Y18101
X13201Y18101
X12201Y18101
X11201Y18101
X10201Y18101
X10201Y15101
X10101Y21801
X11101Y21801
X11001Y24001
X10001Y24001
X21901Y24001
X22901Y24001
X22901Y21801
X21901Y21801
X29401Y26601
X30401Y26601
X32101Y26601
X33101Y26601
X32501Y6001
X31501Y6001
X30001Y6101
X29001Y6101
T04
X27501Y8401
X27501Y9901
X27501Y11401
X27501Y12901
X27501Y14501
X28901Y14501
X30401Y14601
X31501Y12901
X31501Y11401
X31501Y9901
X31501Y8401
X25201Y8301
X23401Y8301
X21701Y8301
X20101Y8301
X20101Y12301
X21701Y12301
X23401Y12301
X25201Y12301
X26001Y14501
X26001Y18501
X27501Y18501
X28901Y18501
X30401Y18601
X31101Y20301
X31101Y21501
X31101Y22801
X31101Y24101
X27101Y24101
X27101Y22801
X27101Y21501
X27101Y20301
T05
X12251Y8901
X11151Y8901
X7101Y8601
X6101Y8601
X5101Y8601
X2601Y11101
X2601Y12101
X2601Y13101
X11601Y3651
X12601Y3551
X13601Y3651
X14601Y3551
X15601Y3651
X16601Y3551
X17601Y3651
X18601Y3551
X18601Y1551
X17601Y1651
X16601Y1551
X15601Y1651
X14601Y1551
X13601Y1651
X12601Y1551
X11601Y1651
X21101Y1601
X22101Y1501
X23101Y1601
X24101Y1501
X25101Y1601
X26101Y1501
X28101Y1531
X28101Y2671
T06
X33460Y12024
X33460Y13024
X33460Y14024
X33460Y15024
X33460Y16024
X33460Y17024
X33460Y18024
X33460Y19024
X35460Y18524
X35460Y17524
X35460Y16524
X35460Y15524
X35460Y14524
X35460Y13524
X35460Y12524
X22477Y26460
X21477Y26460
X20477Y26460
X19477Y26460
X18477Y26460
X17477Y26460
X16477Y26460
X15477Y26460
X15977Y28460
X16977Y28460
X17977Y28460
X18977Y28460
X19977Y28460
X20977Y28460
X21977Y28460
T07
X31101Y29601
X33069Y29601
X37601Y28069
X37601Y26101
X37101Y5101
X37101Y3132
X33101Y2101
X31132Y2101
X6569Y29101
X4601Y29101
T08
X1488Y1488
X15061Y11912
X34101Y4701
X36996Y30509
X1188Y30209
T09
X14001Y30751
X24001Y30751
X37751Y20501
X37751Y10501
T10
X6101Y2701
M30
