G75*
G70*
%OFA0B0*%
%FSLAX24Y24*%
%IPPOS*%
%LPD*%
%AMOC8*
5,1,8,0,0,1.08239X$1,22.5*
%
%ADD10C,0.0867*%
%ADD11C,0.0640*%
%ADD12C,0.0730*%
%ADD13C,0.0720*%
%ADD14C,0.1380*%
%ADD15C,0.0050*%
%ADD16R,0.0730X0.0730*%
%ADD17R,0.0880X0.0880*%
%ADD18C,0.0880*%
%ADD19C,0.0820*%
%ADD20C,0.1260*%
%ADD21C,0.0828*%
%ADD22C,0.0860*%
%ADD23R,0.0820X0.0820*%
D10*
X001488Y001488D03*
X015061Y011912D03*
X034101Y004701D03*
X036996Y030509D03*
X001188Y030209D03*
D11*
X010201Y018381D02*
X010201Y017821D01*
X011201Y017821D02*
X011201Y018381D01*
X012201Y018381D02*
X012201Y017821D01*
X013201Y017821D02*
X013201Y018381D01*
X014201Y018381D02*
X014201Y017821D01*
X015201Y017821D02*
X015201Y018381D01*
X016201Y018381D02*
X016201Y017821D01*
X017201Y017821D02*
X017201Y018381D01*
X018201Y018381D02*
X018201Y017821D01*
X019201Y017821D02*
X019201Y018381D01*
X020201Y018381D02*
X020201Y017821D01*
X021201Y017821D02*
X021201Y018381D01*
X022201Y018381D02*
X022201Y017821D01*
X023201Y017821D02*
X023201Y018381D01*
X023201Y015381D02*
X023201Y014821D01*
X022201Y014821D02*
X022201Y015381D01*
X021201Y015381D02*
X021201Y014821D01*
X020201Y014821D02*
X020201Y015381D01*
X019201Y015381D02*
X019201Y014821D01*
X018201Y014821D02*
X018201Y015381D01*
X017201Y015381D02*
X017201Y014821D01*
X016201Y014821D02*
X016201Y015381D01*
X015201Y015381D02*
X015201Y014821D01*
X014201Y014821D02*
X014201Y015381D01*
X013201Y015381D02*
X013201Y014821D01*
X012201Y014821D02*
X012201Y015381D01*
X011201Y015381D02*
X011201Y014821D01*
X010201Y014821D02*
X010201Y015381D01*
D12*
X011101Y012101D03*
X012101Y012101D03*
X012101Y010601D03*
X011101Y010601D03*
X011101Y006601D03*
X013601Y006601D03*
D13*
X007101Y008281D02*
X007101Y008921D01*
X006101Y008921D02*
X006101Y008281D01*
X005101Y008281D02*
X005101Y008921D01*
D14*
X006101Y002701D03*
D15*
X010909Y008616D02*
X010863Y008664D01*
X010826Y008718D01*
X010799Y008779D01*
X010783Y008843D01*
X010778Y008909D01*
X010786Y008981D01*
X010807Y009050D01*
X010842Y009113D01*
X010889Y009169D01*
X010945Y009214D01*
X011009Y009247D01*
X011079Y009268D01*
X011151Y009274D01*
X011215Y009269D01*
X011278Y009253D01*
X011337Y009227D01*
X011390Y009190D01*
X011437Y009145D01*
X011475Y009093D01*
X011503Y009034D01*
X011520Y008972D01*
X011527Y008908D01*
X011522Y008842D01*
X011505Y008778D01*
X011478Y008717D01*
X011441Y008663D01*
X011395Y008615D01*
X011341Y008577D01*
X011281Y008548D01*
X011218Y008530D01*
X011152Y008524D01*
X011086Y008531D01*
X011022Y008549D01*
X010963Y008577D01*
X010909Y008616D01*
X010937Y008596D02*
X011367Y008596D01*
X011423Y008644D02*
X010882Y008644D01*
X010843Y008693D02*
X011461Y008693D01*
X011489Y008741D02*
X010815Y008741D01*
X010796Y008790D02*
X011509Y008790D01*
X011521Y008839D02*
X010784Y008839D01*
X010779Y008887D02*
X011525Y008887D01*
X011524Y008936D02*
X010781Y008936D01*
X010787Y008984D02*
X011517Y008984D01*
X011503Y009033D02*
X010802Y009033D01*
X010825Y009081D02*
X011480Y009081D01*
X011448Y009130D02*
X010856Y009130D01*
X010901Y009178D02*
X011403Y009178D01*
X011336Y009227D02*
X010970Y009227D01*
X011027Y008547D02*
X011278Y008547D01*
X011901Y008779D02*
X011885Y008843D01*
X011880Y008909D01*
X011888Y008981D01*
X011909Y009050D01*
X011944Y009113D01*
X011991Y009169D01*
X012047Y009214D01*
X012111Y009247D01*
X012181Y009268D01*
X012253Y009274D01*
X012317Y009269D01*
X012380Y009253D01*
X012439Y009227D01*
X012492Y009190D01*
X012539Y009145D01*
X012577Y009093D01*
X012605Y009034D01*
X012622Y008972D01*
X012629Y008908D01*
X012624Y008842D01*
X012607Y008778D01*
X012580Y008717D01*
X012543Y008663D01*
X012497Y008615D01*
X012443Y008577D01*
X012383Y008548D01*
X012320Y008530D01*
X012254Y008524D01*
X012188Y008531D01*
X012124Y008549D01*
X012065Y008577D01*
X012011Y008616D01*
X011965Y008664D01*
X011928Y008718D01*
X011901Y008779D01*
X011898Y008790D02*
X012611Y008790D01*
X012623Y008839D02*
X011886Y008839D01*
X011881Y008887D02*
X012627Y008887D01*
X012626Y008936D02*
X011883Y008936D01*
X011889Y008984D02*
X012619Y008984D01*
X012605Y009033D02*
X011904Y009033D01*
X011927Y009081D02*
X012582Y009081D01*
X012550Y009130D02*
X011958Y009130D01*
X012003Y009178D02*
X012505Y009178D01*
X012438Y009227D02*
X012072Y009227D01*
X011917Y008741D02*
X012591Y008741D01*
X012564Y008693D02*
X011945Y008693D01*
X011984Y008644D02*
X012525Y008644D01*
X012469Y008596D02*
X012039Y008596D01*
X012129Y008547D02*
X012380Y008547D01*
D16*
X012101Y006601D03*
X014601Y006601D03*
D17*
X033101Y002101D03*
X037101Y005101D03*
X037601Y026101D03*
X031101Y029601D03*
X004601Y029101D03*
D18*
X006569Y029101D03*
X033069Y029601D03*
X037601Y028069D03*
X037101Y003132D03*
X031132Y002101D03*
D19*
X028101Y002671D03*
X028101Y001531D03*
X026101Y001501D03*
X025101Y001601D03*
X024101Y001501D03*
X023101Y001601D03*
X022101Y001501D03*
X021101Y001601D03*
X018601Y001551D03*
X017601Y001651D03*
X016601Y001551D03*
X015601Y001651D03*
X014601Y001551D03*
X013601Y001651D03*
X012601Y001551D03*
X012601Y003551D03*
X013601Y003651D03*
X014601Y003551D03*
X015601Y003651D03*
X016601Y003551D03*
X017601Y003651D03*
X018601Y003551D03*
X029001Y006101D03*
X030001Y006101D03*
X031501Y006001D03*
X032501Y006001D03*
X022901Y021801D03*
X021901Y021801D03*
X021901Y024001D03*
X022901Y024001D03*
X029401Y026601D03*
X030401Y026601D03*
X032101Y026601D03*
X033101Y026601D03*
X011001Y024001D03*
X010001Y024001D03*
X010101Y021801D03*
X011101Y021801D03*
X002601Y013101D03*
X002601Y012101D03*
X002601Y011101D03*
D20*
X014001Y030751D03*
X024001Y030751D03*
X037751Y020501D03*
X037751Y010501D03*
D21*
X035460Y012524D03*
X035460Y013524D03*
X035460Y014524D03*
X035460Y015524D03*
X035460Y016524D03*
X035460Y017524D03*
X035460Y018524D03*
X033460Y018024D03*
X033460Y019024D03*
X033460Y017024D03*
X033460Y016024D03*
X033460Y015024D03*
X033460Y014024D03*
X033460Y013024D03*
X033460Y012024D03*
X022477Y026460D03*
X021477Y026460D03*
X020477Y026460D03*
X019477Y026460D03*
X018477Y026460D03*
X017477Y026460D03*
X016477Y026460D03*
X015477Y026460D03*
X015977Y028460D03*
X016977Y028460D03*
X017977Y028460D03*
X018977Y028460D03*
X019977Y028460D03*
X020977Y028460D03*
X021977Y028460D03*
D22*
X027101Y024101D03*
X027101Y022801D03*
X027101Y021501D03*
X027101Y020301D03*
X027501Y018501D03*
X028901Y018501D03*
X030401Y018601D03*
X031101Y020301D03*
X031101Y021501D03*
X031101Y022801D03*
X031101Y024101D03*
X026001Y018501D03*
X026001Y014501D03*
X027501Y014501D03*
X028901Y014501D03*
X030401Y014601D03*
X031501Y012901D03*
X031501Y011401D03*
X031501Y009901D03*
X031501Y008401D03*
X027501Y008401D03*
X027501Y009901D03*
X027501Y011401D03*
X027501Y012901D03*
X025201Y012301D03*
X023401Y012301D03*
X021701Y012301D03*
X020101Y012301D03*
X020101Y008301D03*
X021701Y008301D03*
X023401Y008301D03*
X025201Y008301D03*
D23*
X011601Y003651D03*
X011601Y001651D03*
M02*
