G75*
G70*
%OFA0B0*%
%FSLAX24Y24*%
%IPPOS*%
%LPD*%
%AMOC8*
5,1,8,0,0,1.08239X$1,22.5*
%
%ADD10C,0.0000*%
%ADD11C,0.0560*%
%ADD12R,0.0760X0.2100*%
%ADD13C,0.0650*%
%ADD14C,0.0640*%
%ADD15C,0.0800*%
%ADD16R,0.0650X0.0650*%
%ADD17R,0.0800X0.0800*%
%ADD18C,0.0740*%
%ADD19R,0.0630X0.0709*%
%ADD20C,0.0748*%
%ADD21C,0.0780*%
%ADD22R,0.0740X0.0740*%
%ADD23C,0.0200*%
%ADD24C,0.0400*%
%ADD25C,0.0080*%
D10*
X000107Y000101D02*
X000107Y031597D01*
X037977Y031597D01*
X037977Y000101D01*
X000107Y000101D01*
X013457Y002201D02*
X013459Y002251D01*
X013465Y002301D01*
X013475Y002351D01*
X013488Y002399D01*
X013505Y002447D01*
X013526Y002493D01*
X013550Y002537D01*
X013578Y002579D01*
X013609Y002619D01*
X013643Y002656D01*
X013680Y002691D01*
X013719Y002722D01*
X013760Y002751D01*
X013804Y002776D01*
X013850Y002798D01*
X013897Y002816D01*
X013945Y002830D01*
X013994Y002841D01*
X014044Y002848D01*
X014094Y002851D01*
X014145Y002850D01*
X014195Y002845D01*
X014245Y002836D01*
X014293Y002824D01*
X014341Y002807D01*
X014387Y002787D01*
X014432Y002764D01*
X014475Y002737D01*
X014515Y002707D01*
X014553Y002674D01*
X014588Y002638D01*
X014621Y002599D01*
X014650Y002558D01*
X014676Y002515D01*
X014699Y002470D01*
X014718Y002423D01*
X014733Y002375D01*
X014745Y002326D01*
X014753Y002276D01*
X014757Y002226D01*
X014757Y002176D01*
X014753Y002126D01*
X014745Y002076D01*
X014733Y002027D01*
X014718Y001979D01*
X014699Y001932D01*
X014676Y001887D01*
X014650Y001844D01*
X014621Y001803D01*
X014588Y001764D01*
X014553Y001728D01*
X014515Y001695D01*
X014475Y001665D01*
X014432Y001638D01*
X014387Y001615D01*
X014341Y001595D01*
X014293Y001578D01*
X014245Y001566D01*
X014195Y001557D01*
X014145Y001552D01*
X014094Y001551D01*
X014044Y001554D01*
X013994Y001561D01*
X013945Y001572D01*
X013897Y001586D01*
X013850Y001604D01*
X013804Y001626D01*
X013760Y001651D01*
X013719Y001680D01*
X013680Y001711D01*
X013643Y001746D01*
X013609Y001783D01*
X013578Y001823D01*
X013550Y001865D01*
X013526Y001909D01*
X013505Y001955D01*
X013488Y002003D01*
X013475Y002051D01*
X013465Y002101D01*
X013459Y002151D01*
X013457Y002201D01*
X014517Y030451D02*
X014519Y030499D01*
X014525Y030547D01*
X014535Y030594D01*
X014548Y030640D01*
X014565Y030685D01*
X014586Y030728D01*
X014611Y030770D01*
X014638Y030809D01*
X014669Y030846D01*
X014703Y030881D01*
X014739Y030912D01*
X014778Y030941D01*
X014819Y030966D01*
X014862Y030988D01*
X014906Y031006D01*
X014952Y031020D01*
X014999Y031031D01*
X015047Y031038D01*
X015095Y031041D01*
X015143Y031040D01*
X015191Y031035D01*
X015238Y031026D01*
X015285Y031014D01*
X015330Y030997D01*
X015374Y030977D01*
X015416Y030954D01*
X015456Y030927D01*
X015493Y030897D01*
X015528Y030864D01*
X015561Y030828D01*
X015590Y030790D01*
X015616Y030749D01*
X015639Y030707D01*
X015658Y030663D01*
X015673Y030617D01*
X015685Y030571D01*
X015693Y030523D01*
X015697Y030475D01*
X015697Y030427D01*
X015693Y030379D01*
X015685Y030331D01*
X015673Y030285D01*
X015658Y030239D01*
X015639Y030195D01*
X015616Y030153D01*
X015590Y030112D01*
X015561Y030074D01*
X015528Y030038D01*
X015493Y030005D01*
X015456Y029975D01*
X015416Y029948D01*
X015374Y029925D01*
X015330Y029905D01*
X015285Y029888D01*
X015238Y029876D01*
X015191Y029867D01*
X015143Y029862D01*
X015095Y029861D01*
X015047Y029864D01*
X014999Y029871D01*
X014952Y029882D01*
X014906Y029896D01*
X014862Y029914D01*
X014819Y029936D01*
X014778Y029961D01*
X014739Y029990D01*
X014703Y030021D01*
X014669Y030056D01*
X014638Y030093D01*
X014611Y030132D01*
X014586Y030174D01*
X014565Y030217D01*
X014548Y030262D01*
X014535Y030308D01*
X014525Y030355D01*
X014519Y030403D01*
X014517Y030451D01*
X022017Y030451D02*
X022019Y030499D01*
X022025Y030547D01*
X022035Y030594D01*
X022048Y030640D01*
X022065Y030685D01*
X022086Y030728D01*
X022111Y030770D01*
X022138Y030809D01*
X022169Y030846D01*
X022203Y030881D01*
X022239Y030912D01*
X022278Y030941D01*
X022319Y030966D01*
X022362Y030988D01*
X022406Y031006D01*
X022452Y031020D01*
X022499Y031031D01*
X022547Y031038D01*
X022595Y031041D01*
X022643Y031040D01*
X022691Y031035D01*
X022738Y031026D01*
X022785Y031014D01*
X022830Y030997D01*
X022874Y030977D01*
X022916Y030954D01*
X022956Y030927D01*
X022993Y030897D01*
X023028Y030864D01*
X023061Y030828D01*
X023090Y030790D01*
X023116Y030749D01*
X023139Y030707D01*
X023158Y030663D01*
X023173Y030617D01*
X023185Y030571D01*
X023193Y030523D01*
X023197Y030475D01*
X023197Y030427D01*
X023193Y030379D01*
X023185Y030331D01*
X023173Y030285D01*
X023158Y030239D01*
X023139Y030195D01*
X023116Y030153D01*
X023090Y030112D01*
X023061Y030074D01*
X023028Y030038D01*
X022993Y030005D01*
X022956Y029975D01*
X022916Y029948D01*
X022874Y029925D01*
X022830Y029905D01*
X022785Y029888D01*
X022738Y029876D01*
X022691Y029867D01*
X022643Y029862D01*
X022595Y029861D01*
X022547Y029864D01*
X022499Y029871D01*
X022452Y029882D01*
X022406Y029896D01*
X022362Y029914D01*
X022319Y029936D01*
X022278Y029961D01*
X022239Y029990D01*
X022203Y030021D01*
X022169Y030056D01*
X022138Y030093D01*
X022111Y030132D01*
X022086Y030174D01*
X022065Y030217D01*
X022048Y030262D01*
X022035Y030308D01*
X022025Y030355D01*
X022019Y030403D01*
X022017Y030451D01*
X032017Y030451D02*
X032019Y030499D01*
X032025Y030547D01*
X032035Y030594D01*
X032048Y030640D01*
X032065Y030685D01*
X032086Y030728D01*
X032111Y030770D01*
X032138Y030809D01*
X032169Y030846D01*
X032203Y030881D01*
X032239Y030912D01*
X032278Y030941D01*
X032319Y030966D01*
X032362Y030988D01*
X032406Y031006D01*
X032452Y031020D01*
X032499Y031031D01*
X032547Y031038D01*
X032595Y031041D01*
X032643Y031040D01*
X032691Y031035D01*
X032738Y031026D01*
X032785Y031014D01*
X032830Y030997D01*
X032874Y030977D01*
X032916Y030954D01*
X032956Y030927D01*
X032993Y030897D01*
X033028Y030864D01*
X033061Y030828D01*
X033090Y030790D01*
X033116Y030749D01*
X033139Y030707D01*
X033158Y030663D01*
X033173Y030617D01*
X033185Y030571D01*
X033193Y030523D01*
X033197Y030475D01*
X033197Y030427D01*
X033193Y030379D01*
X033185Y030331D01*
X033173Y030285D01*
X033158Y030239D01*
X033139Y030195D01*
X033116Y030153D01*
X033090Y030112D01*
X033061Y030074D01*
X033028Y030038D01*
X032993Y030005D01*
X032956Y029975D01*
X032916Y029948D01*
X032874Y029925D01*
X032830Y029905D01*
X032785Y029888D01*
X032738Y029876D01*
X032691Y029867D01*
X032643Y029862D01*
X032595Y029861D01*
X032547Y029864D01*
X032499Y029871D01*
X032452Y029882D01*
X032406Y029896D01*
X032362Y029914D01*
X032319Y029936D01*
X032278Y029961D01*
X032239Y029990D01*
X032203Y030021D01*
X032169Y030056D01*
X032138Y030093D01*
X032111Y030132D01*
X032086Y030174D01*
X032065Y030217D01*
X032048Y030262D01*
X032035Y030308D01*
X032025Y030355D01*
X032019Y030403D01*
X032017Y030451D01*
X004517Y030451D02*
X004519Y030499D01*
X004525Y030547D01*
X004535Y030594D01*
X004548Y030640D01*
X004565Y030685D01*
X004586Y030728D01*
X004611Y030770D01*
X004638Y030809D01*
X004669Y030846D01*
X004703Y030881D01*
X004739Y030912D01*
X004778Y030941D01*
X004819Y030966D01*
X004862Y030988D01*
X004906Y031006D01*
X004952Y031020D01*
X004999Y031031D01*
X005047Y031038D01*
X005095Y031041D01*
X005143Y031040D01*
X005191Y031035D01*
X005238Y031026D01*
X005285Y031014D01*
X005330Y030997D01*
X005374Y030977D01*
X005416Y030954D01*
X005456Y030927D01*
X005493Y030897D01*
X005528Y030864D01*
X005561Y030828D01*
X005590Y030790D01*
X005616Y030749D01*
X005639Y030707D01*
X005658Y030663D01*
X005673Y030617D01*
X005685Y030571D01*
X005693Y030523D01*
X005697Y030475D01*
X005697Y030427D01*
X005693Y030379D01*
X005685Y030331D01*
X005673Y030285D01*
X005658Y030239D01*
X005639Y030195D01*
X005616Y030153D01*
X005590Y030112D01*
X005561Y030074D01*
X005528Y030038D01*
X005493Y030005D01*
X005456Y029975D01*
X005416Y029948D01*
X005374Y029925D01*
X005330Y029905D01*
X005285Y029888D01*
X005238Y029876D01*
X005191Y029867D01*
X005143Y029862D01*
X005095Y029861D01*
X005047Y029864D01*
X004999Y029871D01*
X004952Y029882D01*
X004906Y029896D01*
X004862Y029914D01*
X004819Y029936D01*
X004778Y029961D01*
X004739Y029990D01*
X004703Y030021D01*
X004669Y030056D01*
X004638Y030093D01*
X004611Y030132D01*
X004586Y030174D01*
X004565Y030217D01*
X004548Y030262D01*
X004535Y030308D01*
X004525Y030355D01*
X004519Y030403D01*
X004517Y030451D01*
D11*
X014327Y023601D02*
X014887Y023601D01*
X014887Y022601D02*
X014327Y022601D01*
X014327Y021601D02*
X014887Y021601D01*
X014887Y020601D02*
X014327Y020601D01*
X014327Y019601D02*
X014887Y019601D01*
X014887Y018601D02*
X014327Y018601D01*
X014327Y017601D02*
X014887Y017601D01*
X014887Y016601D02*
X014327Y016601D01*
X014327Y015601D02*
X014887Y015601D01*
X014887Y014601D02*
X014327Y014601D01*
X014327Y013601D02*
X014887Y013601D01*
X014887Y012601D02*
X014327Y012601D01*
X014327Y011601D02*
X014887Y011601D01*
X014887Y010601D02*
X014327Y010601D01*
X017327Y010601D02*
X017887Y010601D01*
X017887Y011601D02*
X017327Y011601D01*
X017327Y012601D02*
X017887Y012601D01*
X017887Y013601D02*
X017327Y013601D01*
X017327Y014601D02*
X017887Y014601D01*
X017887Y015601D02*
X017327Y015601D01*
X017327Y016601D02*
X017887Y016601D01*
X017887Y017601D02*
X017327Y017601D01*
X017327Y018601D02*
X017887Y018601D01*
X017887Y019601D02*
X017327Y019601D01*
X017327Y020601D02*
X017887Y020601D01*
X017887Y021601D02*
X017327Y021601D01*
X017327Y022601D02*
X017887Y022601D01*
X017887Y023601D02*
X017327Y023601D01*
D12*
X022107Y015501D03*
X022107Y011701D03*
D13*
X021607Y008601D03*
X022607Y008601D03*
X022607Y018601D03*
X021607Y018601D03*
X009107Y010601D03*
X009107Y007101D03*
D14*
X013107Y007781D02*
X013107Y008421D01*
X014107Y008421D02*
X014107Y007781D01*
X015107Y007781D02*
X015107Y008421D01*
D15*
X019638Y002601D03*
X021557Y006101D03*
X022657Y006101D03*
X035607Y003132D03*
X035607Y009132D03*
X035607Y014632D03*
X035607Y020632D03*
D16*
X010107Y010601D03*
X010107Y007101D03*
D17*
X021607Y002601D03*
X035607Y005101D03*
X035607Y011101D03*
X035607Y016601D03*
X035607Y022601D03*
D18*
X033107Y022601D03*
X032107Y022601D03*
X032107Y020601D03*
X033107Y020601D03*
X033107Y017101D03*
X032107Y017101D03*
X032107Y014601D03*
X033107Y014601D03*
X033107Y011601D03*
X032107Y011601D03*
X032107Y009101D03*
X033107Y009101D03*
X033107Y005101D03*
X032107Y005101D03*
X032107Y003101D03*
X033107Y003101D03*
X007107Y003601D03*
X006107Y003601D03*
X005107Y003601D03*
X002057Y006601D03*
X002157Y007601D03*
X002057Y008601D03*
X002157Y009601D03*
X002057Y010601D03*
X002157Y011601D03*
X002057Y012601D03*
X004507Y012101D03*
X004607Y011101D03*
X004507Y010101D03*
X004607Y009101D03*
X004507Y008101D03*
X004607Y013101D03*
X004607Y016031D03*
X004607Y017171D03*
X002157Y017101D03*
X002057Y018101D03*
X002157Y019101D03*
X002057Y020101D03*
X002157Y021101D03*
X002057Y022101D03*
X002057Y016101D03*
D19*
X010056Y016601D03*
X011158Y016601D03*
X011158Y018101D03*
X010056Y018101D03*
X010056Y019601D03*
X011158Y019601D03*
X011158Y021101D03*
X010056Y021101D03*
X010056Y015101D03*
X011158Y015101D03*
X011158Y013601D03*
X010056Y013601D03*
X018556Y006101D03*
X019658Y006101D03*
X021556Y022601D03*
X022658Y022601D03*
X022658Y024101D03*
X021556Y024101D03*
D20*
X024083Y026160D03*
X025083Y026160D03*
X026083Y026160D03*
X027083Y026160D03*
X028083Y026160D03*
X029083Y026160D03*
X030083Y026160D03*
X031083Y026160D03*
X030583Y028160D03*
X029583Y028160D03*
X028583Y028160D03*
X027583Y028160D03*
X026583Y028160D03*
X025583Y028160D03*
X024583Y028160D03*
X013583Y026160D03*
X012583Y026160D03*
X011583Y026160D03*
X010583Y026160D03*
X009583Y026160D03*
X008583Y026160D03*
X007583Y026160D03*
X006583Y026160D03*
X007083Y028160D03*
X008083Y028160D03*
X009083Y028160D03*
X010083Y028160D03*
X011083Y028160D03*
X012083Y028160D03*
X013083Y028160D03*
D21*
X026107Y024101D03*
X027607Y024101D03*
X029107Y024101D03*
X030607Y024101D03*
X030607Y020101D03*
X029107Y020101D03*
X027607Y020101D03*
X026107Y020101D03*
X026107Y018101D03*
X027607Y018101D03*
X029107Y018101D03*
X030607Y018101D03*
X030607Y014101D03*
X029107Y014101D03*
X027607Y014101D03*
X026107Y014101D03*
X026107Y012101D03*
X027607Y012101D03*
X029107Y012101D03*
X030607Y012101D03*
X030607Y008101D03*
X029107Y008101D03*
X027607Y008101D03*
X026107Y008101D03*
X026107Y006601D03*
X027607Y006601D03*
X029107Y006601D03*
X030607Y006601D03*
X030607Y002601D03*
X029107Y002601D03*
X027607Y002601D03*
X026107Y002601D03*
D22*
X002157Y013601D03*
X002157Y023101D03*
D23*
X006607Y026101D02*
X006583Y026160D01*
X006607Y026101D02*
X006607Y017101D01*
X002107Y012601D01*
X002057Y012601D01*
X002107Y012601D02*
X002107Y011601D01*
X002157Y011601D01*
X002107Y011601D02*
X002107Y010601D01*
X002057Y010601D01*
X002107Y010601D02*
X002107Y009601D01*
X002157Y009601D01*
X002107Y009601D02*
X002107Y008601D01*
X002057Y008601D01*
X002107Y008601D02*
X002107Y007601D01*
X002157Y007601D01*
X002107Y007601D02*
X002107Y006601D01*
X002057Y006601D01*
X002107Y012601D02*
X002107Y013601D01*
X002157Y013601D01*
X009107Y016101D02*
X009107Y018601D01*
X010107Y019601D01*
X010056Y019601D01*
X010107Y019601D02*
X010107Y021101D01*
X010056Y021101D01*
X010107Y021101D02*
X010107Y024601D01*
X011107Y025601D01*
X012583Y026160D02*
X012607Y026101D01*
X012607Y024101D01*
X012607Y023601D02*
X013107Y023601D01*
X013107Y025601D01*
X013607Y026101D01*
X013583Y026160D01*
X013607Y026101D02*
X013607Y027601D01*
X010107Y027601D01*
X010107Y028101D01*
X010083Y028160D01*
X010107Y027601D02*
X008107Y027601D01*
X006607Y026101D01*
X007583Y026160D02*
X007607Y026101D01*
X007607Y024601D01*
X010607Y021601D02*
X012607Y023601D01*
X010607Y021601D02*
X010607Y019101D01*
X010107Y018601D01*
X010107Y018101D01*
X010056Y018101D01*
X010107Y018101D02*
X010107Y016601D01*
X010056Y016601D01*
X009107Y016101D02*
X010107Y015101D01*
X010056Y015101D01*
X009107Y010601D02*
X009107Y007101D01*
X014107Y008101D02*
X014607Y007601D01*
X014607Y007101D01*
X019107Y002601D01*
X019607Y002601D01*
X019638Y002601D01*
X019607Y002601D02*
X019607Y001601D01*
X022107Y001601D01*
X022607Y002101D01*
X022607Y006101D01*
X022657Y006101D01*
X022607Y006101D02*
X022607Y008601D01*
X023107Y009101D01*
X023107Y013101D01*
X023607Y013101D01*
X023607Y025601D01*
X024107Y026101D01*
X024083Y026160D01*
X025083Y026160D02*
X025107Y026101D01*
X025607Y025601D01*
X025607Y024601D01*
X026107Y024101D01*
X024607Y022601D01*
X024607Y010601D01*
X025107Y011101D02*
X025107Y007601D01*
X026107Y006601D01*
X026107Y005101D02*
X027607Y006601D01*
X031107Y003101D01*
X032107Y003101D01*
X030607Y002601D02*
X029107Y002601D01*
X027607Y002601D01*
X026107Y002601D02*
X026107Y005101D01*
X029107Y006601D02*
X027607Y008101D01*
X029107Y008101D02*
X029107Y008601D01*
X032107Y011601D01*
X030607Y012101D02*
X029107Y012101D01*
X027607Y012101D01*
X026107Y012101D01*
X025107Y011101D01*
X026107Y012101D02*
X025107Y013101D01*
X025107Y017101D01*
X025107Y021601D01*
X027607Y024101D01*
X029107Y024101D02*
X029107Y022601D01*
X029107Y021601D01*
X027607Y020101D01*
X027607Y019101D02*
X027607Y018101D01*
X031107Y014601D01*
X032107Y014601D01*
X030607Y014101D02*
X029107Y014101D01*
X027607Y014101D01*
X027607Y015601D02*
X027607Y018101D01*
X027607Y019101D02*
X030607Y019101D01*
X031607Y020101D01*
X029607Y022101D01*
X029107Y022601D02*
X032107Y022601D01*
X031107Y024101D02*
X030607Y024101D01*
X031107Y024101D02*
X032107Y025101D01*
X032107Y029601D01*
X027107Y029601D01*
X025607Y028101D01*
X025583Y028160D01*
X025607Y028101D02*
X025607Y029101D01*
X024107Y029101D01*
X020107Y025101D02*
X020107Y017101D01*
X022107Y019101D02*
X022607Y018601D01*
X023107Y018101D01*
X023107Y013101D01*
X026107Y014101D02*
X027607Y015601D01*
X025107Y017101D02*
X026107Y018101D01*
X022107Y019101D02*
X022107Y020101D01*
X022107Y022101D01*
X021607Y022601D01*
X021556Y022601D01*
X021607Y022601D02*
X021607Y024101D01*
X021556Y024101D01*
X020107Y025101D02*
X017107Y028101D01*
X014607Y029601D02*
X019607Y024601D01*
X019607Y023101D01*
X030607Y018101D02*
X032107Y019601D01*
X032107Y020601D01*
X035607Y016601D02*
X034607Y015601D01*
X034607Y008101D01*
X030607Y008101D01*
X030607Y006601D02*
X032107Y005101D01*
X035607Y005101D02*
X037107Y006601D01*
X037107Y026101D01*
X036607Y026101D02*
X036607Y010101D01*
X035607Y009101D01*
X035607Y009132D01*
X021607Y006101D02*
X021557Y006101D01*
X021607Y006101D02*
X020107Y004601D01*
X018607Y006101D01*
X018556Y006101D01*
X017107Y006101D01*
X015107Y008101D01*
X020107Y004601D02*
X021607Y003101D01*
X021607Y002601D01*
X036607Y026101D02*
X033607Y029101D01*
D24*
X033607Y029101D03*
X033107Y029601D03*
X037107Y026101D03*
X031107Y025101D03*
X029607Y022101D03*
X026607Y025101D03*
X022607Y027101D03*
X024107Y029101D03*
X021107Y025101D03*
X020607Y023601D03*
X019607Y023101D03*
X022107Y020101D03*
X023107Y021101D03*
X023107Y019101D03*
X020107Y017101D03*
X016107Y020601D03*
X013607Y018601D03*
X012107Y021101D03*
X012107Y024101D03*
X012607Y024101D03*
X011107Y025601D03*
X007607Y024601D03*
X006107Y020601D03*
X009107Y014101D03*
X009107Y013101D03*
X012607Y011101D03*
X010607Y006101D03*
X023607Y013101D03*
X024607Y010601D03*
X029607Y017101D03*
X017107Y028101D03*
X016107Y026101D03*
X014107Y029101D03*
X014607Y029601D03*
D25*
X014107Y029101D02*
X018607Y024601D01*
X018607Y021601D01*
X017607Y020601D01*
X016607Y021101D02*
X016607Y026101D01*
X013607Y029101D01*
X012107Y029101D01*
X012107Y028101D01*
X012083Y028160D01*
X011107Y028101D02*
X011107Y029101D01*
X007107Y029101D01*
X005607Y027601D01*
X005607Y021101D01*
X006107Y020601D01*
X002157Y021101D02*
X002107Y021101D01*
X002107Y022101D01*
X002057Y022101D01*
X002107Y022101D02*
X002107Y023101D01*
X002157Y023101D01*
X002107Y021101D02*
X002107Y020101D01*
X002057Y020101D01*
X002107Y020101D02*
X002107Y019101D01*
X002157Y019101D01*
X002107Y019101D02*
X002107Y018101D01*
X002057Y018101D01*
X002107Y018101D02*
X002107Y017101D01*
X002157Y017101D01*
X002107Y017101D02*
X002107Y016101D01*
X002057Y016101D01*
X008107Y014101D02*
X008107Y025601D01*
X008607Y026101D01*
X008583Y026160D01*
X009583Y026160D02*
X009607Y026101D01*
X008607Y025101D01*
X008607Y014601D01*
X009107Y014101D01*
X009107Y013101D02*
X008107Y014101D01*
X010056Y013601D02*
X010107Y013601D01*
X007107Y010601D01*
X007107Y003601D01*
X005607Y003101D02*
X005607Y009101D01*
X004607Y010101D01*
X004507Y010101D01*
X009607Y010101D02*
X009607Y006601D01*
X010607Y005601D01*
X012107Y005601D01*
X012107Y009101D01*
X013107Y008101D01*
X013107Y017101D01*
X014607Y018601D01*
X013607Y018601D02*
X010607Y018601D01*
X010607Y017601D01*
X011107Y017601D01*
X011607Y017101D01*
X011607Y015601D01*
X011107Y015101D01*
X011158Y015101D01*
X010607Y016101D02*
X010607Y006101D01*
X010107Y003101D02*
X013607Y006601D01*
X013607Y011601D01*
X014607Y012601D01*
X016607Y012601D02*
X017107Y012101D01*
X022107Y012101D01*
X022107Y011701D01*
X022107Y009101D01*
X021607Y008601D01*
X019658Y006101D02*
X019607Y006101D01*
X015607Y010101D01*
X015607Y022601D01*
X014607Y023601D01*
X013607Y023601D02*
X013607Y022101D01*
X011107Y019601D01*
X011158Y019601D01*
X011158Y021101D02*
X011107Y021101D01*
X011158Y021101D02*
X012107Y021101D01*
X013607Y022101D02*
X014107Y022601D01*
X014607Y022601D01*
X013607Y023601D02*
X016107Y026101D01*
X012107Y025601D02*
X012107Y024101D01*
X012107Y025601D02*
X011607Y026101D01*
X011583Y026160D01*
X011107Y028101D02*
X011083Y028160D01*
X016607Y021101D02*
X016107Y020601D01*
X017607Y018601D02*
X016607Y017601D01*
X016607Y012601D01*
X017607Y015601D02*
X021107Y015601D01*
X021107Y025101D01*
X020607Y025601D02*
X022607Y027601D01*
X029607Y027601D01*
X029607Y028101D01*
X029583Y028160D01*
X028607Y028101D02*
X028607Y029101D01*
X030607Y029101D01*
X031107Y028601D01*
X031107Y027101D01*
X024107Y027101D01*
X023107Y026101D01*
X023107Y021101D01*
X022658Y022601D02*
X022607Y022601D01*
X022607Y019601D01*
X023107Y019101D01*
X021607Y018601D02*
X021607Y016101D01*
X022107Y015601D01*
X022107Y015501D01*
X029607Y017101D02*
X031607Y015101D01*
X033107Y015101D01*
X033107Y017101D01*
X033107Y015101D02*
X033107Y014601D01*
X033107Y011601D02*
X033107Y009101D01*
X033107Y005101D02*
X033107Y003101D01*
X033107Y020601D02*
X033107Y022601D01*
X033107Y029601D01*
X028607Y028101D02*
X028583Y028160D01*
X027083Y026160D02*
X027107Y026101D01*
X027107Y025601D01*
X026607Y025101D01*
X027107Y025101D02*
X026607Y024601D01*
X026107Y025101D01*
X026107Y026101D01*
X026083Y026160D01*
X027107Y025101D02*
X031107Y025101D01*
X022658Y024101D02*
X022607Y024101D01*
X022607Y027101D01*
X020607Y025601D02*
X020607Y023601D01*
X012607Y016601D02*
X012607Y011101D01*
X012107Y012601D02*
X012107Y009101D01*
X010107Y010601D02*
X009607Y010101D01*
X012107Y012601D02*
X011107Y013601D01*
X011158Y013601D01*
X010607Y016101D02*
X011107Y016601D01*
X011158Y016601D01*
X012607Y016601D02*
X011107Y018101D01*
X011158Y018101D01*
X010107Y003101D02*
X005607Y003101D01*
M02*
