G75*
G70*
%OFA0B0*%
%FSLAX24Y24*%
%IPPOS*%
%LPD*%
%AMOC8*
5,1,8,0,0,1.08239X$1,22.5*
%
%ADD10C,0.0867*%
%ADD11C,0.0640*%
%ADD12R,0.2180X0.0840*%
%ADD13C,0.0730*%
%ADD14C,0.0720*%
%ADD15C,0.1380*%
%ADD16C,0.0050*%
%ADD17R,0.0730X0.0730*%
%ADD18R,0.0880X0.0880*%
%ADD19C,0.0880*%
%ADD20C,0.0820*%
%ADD21R,0.0710X0.0789*%
%ADD22C,0.1260*%
%ADD23C,0.0828*%
%ADD24C,0.0860*%
%ADD25R,0.0820X0.0820*%
D10*
X001488Y001488D03*
X015061Y011912D03*
X034101Y004701D03*
X036996Y030509D03*
X001188Y030209D03*
D11*
X010201Y018381D02*
X010201Y017821D01*
X011201Y017821D02*
X011201Y018381D01*
X012201Y018381D02*
X012201Y017821D01*
X013201Y017821D02*
X013201Y018381D01*
X014201Y018381D02*
X014201Y017821D01*
X015201Y017821D02*
X015201Y018381D01*
X016201Y018381D02*
X016201Y017821D01*
X017201Y017821D02*
X017201Y018381D01*
X018201Y018381D02*
X018201Y017821D01*
X019201Y017821D02*
X019201Y018381D01*
X020201Y018381D02*
X020201Y017821D01*
X021201Y017821D02*
X021201Y018381D01*
X022201Y018381D02*
X022201Y017821D01*
X023201Y017821D02*
X023201Y018381D01*
X023201Y015381D02*
X023201Y014821D01*
X022201Y014821D02*
X022201Y015381D01*
X021201Y015381D02*
X021201Y014821D01*
X020201Y014821D02*
X020201Y015381D01*
X019201Y015381D02*
X019201Y014821D01*
X018201Y014821D02*
X018201Y015381D01*
X017201Y015381D02*
X017201Y014821D01*
X016201Y014821D02*
X016201Y015381D01*
X015201Y015381D02*
X015201Y014821D01*
X014201Y014821D02*
X014201Y015381D01*
X013201Y015381D02*
X013201Y014821D01*
X012201Y014821D02*
X012201Y015381D01*
X011201Y015381D02*
X011201Y014821D01*
X010201Y014821D02*
X010201Y015381D01*
D12*
X015101Y022001D03*
X018901Y022001D03*
D13*
X012101Y012101D03*
X011101Y012101D03*
X011101Y010601D03*
X012101Y010601D03*
X011101Y006601D03*
X013601Y006601D03*
D14*
X007101Y008281D02*
X007101Y008921D01*
X006101Y008921D02*
X006101Y008281D01*
X005101Y008281D02*
X005101Y008921D01*
D15*
X006101Y002701D03*
D16*
X011042Y008763D02*
X011015Y008792D01*
X010994Y008826D01*
X010982Y008863D01*
X010978Y008903D01*
X010982Y008941D01*
X010996Y008977D01*
X011016Y009010D01*
X011044Y009037D01*
X011077Y009057D01*
X011113Y009070D01*
X011152Y009074D01*
X011190Y009070D01*
X011226Y009059D01*
X011259Y009039D01*
X011287Y009013D01*
X011308Y008981D01*
X011322Y008945D01*
X011327Y008907D01*
X011323Y008867D01*
X011311Y008829D01*
X011290Y008794D01*
X011263Y008765D01*
X011229Y008743D01*
X011192Y008728D01*
X011152Y008723D01*
X011112Y008728D01*
X011075Y008742D01*
X011042Y008763D01*
X011016Y008790D02*
X011287Y008790D01*
X011314Y008839D02*
X010990Y008839D01*
X010979Y008887D02*
X011325Y008887D01*
X011323Y008936D02*
X010982Y008936D01*
X011000Y008984D02*
X011306Y008984D01*
X011266Y009033D02*
X011039Y009033D01*
X011076Y008741D02*
X011226Y008741D01*
X012084Y008863D02*
X012080Y008903D01*
X012084Y008941D01*
X012098Y008977D01*
X012118Y009010D01*
X012146Y009037D01*
X012179Y009057D01*
X012215Y009070D01*
X012254Y009074D01*
X012292Y009070D01*
X012328Y009059D01*
X012361Y009039D01*
X012389Y009013D01*
X012410Y008981D01*
X012424Y008945D01*
X012429Y008907D01*
X012425Y008867D01*
X012413Y008829D01*
X012392Y008794D01*
X012365Y008765D01*
X012331Y008743D01*
X012294Y008728D01*
X012254Y008723D01*
X012214Y008728D01*
X012177Y008742D01*
X012144Y008763D01*
X012117Y008792D01*
X012096Y008826D01*
X012084Y008863D01*
X012081Y008887D02*
X012427Y008887D01*
X012425Y008936D02*
X012084Y008936D01*
X012102Y008984D02*
X012408Y008984D01*
X012368Y009033D02*
X012141Y009033D01*
X012092Y008839D02*
X012416Y008839D01*
X012389Y008790D02*
X012118Y008790D01*
X012178Y008741D02*
X012328Y008741D01*
D17*
X012101Y006601D03*
X014601Y006601D03*
D18*
X033101Y002101D03*
X037101Y005101D03*
X037601Y026101D03*
X031101Y029601D03*
X004601Y029101D03*
D19*
X006569Y029101D03*
X033069Y029601D03*
X037601Y028069D03*
X037101Y003132D03*
X031132Y002101D03*
D20*
X028101Y002671D03*
X028101Y001531D03*
X026101Y001501D03*
X025101Y001601D03*
X024101Y001501D03*
X023101Y001601D03*
X022101Y001501D03*
X021101Y001601D03*
X018601Y001551D03*
X017601Y001651D03*
X016601Y001551D03*
X015601Y001651D03*
X014601Y001551D03*
X013601Y001651D03*
X012601Y001551D03*
X012601Y003551D03*
X013601Y003651D03*
X014601Y003551D03*
X015601Y003651D03*
X016601Y003551D03*
X017601Y003651D03*
X018601Y003551D03*
X029001Y006101D03*
X030001Y006101D03*
X031501Y006001D03*
X032501Y006001D03*
X022901Y021801D03*
X021901Y021801D03*
X021901Y024001D03*
X022901Y024001D03*
X029401Y026601D03*
X030401Y026601D03*
X032101Y026601D03*
X033101Y026601D03*
X011001Y024001D03*
X010001Y024001D03*
X010101Y021801D03*
X011101Y021801D03*
X002601Y013101D03*
X002601Y012101D03*
X002601Y011101D03*
D21*
X005550Y011801D03*
X006652Y011801D03*
X006652Y013501D03*
X005550Y013501D03*
X005550Y015101D03*
X006652Y015101D03*
X006652Y016801D03*
X005550Y016801D03*
X005450Y018301D03*
X006552Y018301D03*
X006552Y019801D03*
X005450Y019801D03*
X005450Y021201D03*
X006552Y021201D03*
X006552Y022601D03*
X005450Y022601D03*
X005450Y024101D03*
X006552Y024101D03*
D22*
X014001Y030751D03*
X024001Y030751D03*
X037751Y020501D03*
X037751Y010501D03*
D23*
X035460Y012524D03*
X035460Y013524D03*
X035460Y014524D03*
X035460Y015524D03*
X035460Y016524D03*
X035460Y017524D03*
X035460Y018524D03*
X033460Y018024D03*
X033460Y019024D03*
X033460Y017024D03*
X033460Y016024D03*
X033460Y015024D03*
X033460Y014024D03*
X033460Y013024D03*
X033460Y012024D03*
X022477Y026460D03*
X021477Y026460D03*
X020477Y026460D03*
X019477Y026460D03*
X018477Y026460D03*
X017477Y026460D03*
X016477Y026460D03*
X015477Y026460D03*
X015977Y028460D03*
X016977Y028460D03*
X017977Y028460D03*
X018977Y028460D03*
X019977Y028460D03*
X020977Y028460D03*
X021977Y028460D03*
D24*
X027101Y024101D03*
X027101Y022801D03*
X027101Y021501D03*
X027101Y020301D03*
X027501Y018501D03*
X028901Y018501D03*
X030401Y018601D03*
X031101Y020301D03*
X031101Y021501D03*
X031101Y022801D03*
X031101Y024101D03*
X026001Y018501D03*
X026001Y014501D03*
X027501Y014501D03*
X028901Y014501D03*
X030401Y014601D03*
X031501Y012901D03*
X031501Y011401D03*
X031501Y009901D03*
X031501Y008401D03*
X027501Y008401D03*
X027501Y009901D03*
X027501Y011401D03*
X027501Y012901D03*
X025201Y012301D03*
X023401Y012301D03*
X021701Y012301D03*
X020101Y012301D03*
X020101Y008301D03*
X021701Y008301D03*
X023401Y008301D03*
X025201Y008301D03*
D25*
X011601Y003651D03*
X011601Y001651D03*
M02*
