G75*
G70*
%OFA0B0*%
%FSLAX24Y24*%
%IPPOS*%
%LPD*%
%AMOC8*
5,1,8,0,0,1.08239X$1,22.5*
%
%ADD10C,0.0867*%
%ADD11C,0.0640*%
%ADD12R,0.0840X0.2180*%
%ADD13C,0.0730*%
%ADD14C,0.0720*%
%ADD15C,0.1380*%
%ADD16C,0.0050*%
%ADD17R,0.0730X0.0730*%
%ADD18R,0.0880X0.0880*%
%ADD19C,0.0880*%
%ADD20C,0.0820*%
%ADD21R,0.0710X0.0789*%
%ADD22C,0.1260*%
%ADD23C,0.0828*%
%ADD24C,0.0860*%
%ADD25R,0.0820X0.0820*%
D10*
X002107Y002101D03*
X010107Y002101D03*
X010107Y023101D03*
X001107Y030601D03*
X035607Y001101D03*
X036607Y030601D03*
D11*
X017887Y023601D02*
X017327Y023601D01*
X017327Y022601D02*
X017887Y022601D01*
X017887Y021601D02*
X017327Y021601D01*
X017327Y020601D02*
X017887Y020601D01*
X017887Y019601D02*
X017327Y019601D01*
X017327Y018601D02*
X017887Y018601D01*
X017887Y017601D02*
X017327Y017601D01*
X017327Y016601D02*
X017887Y016601D01*
X017887Y015601D02*
X017327Y015601D01*
X017327Y014601D02*
X017887Y014601D01*
X017887Y013601D02*
X017327Y013601D01*
X017327Y012601D02*
X017887Y012601D01*
X017887Y011601D02*
X017327Y011601D01*
X017327Y010601D02*
X017887Y010601D01*
X014887Y010601D02*
X014327Y010601D01*
X014327Y011601D02*
X014887Y011601D01*
X014887Y012601D02*
X014327Y012601D01*
X014327Y013601D02*
X014887Y013601D01*
X014887Y014601D02*
X014327Y014601D01*
X014327Y015601D02*
X014887Y015601D01*
X014887Y016601D02*
X014327Y016601D01*
X014327Y017601D02*
X014887Y017601D01*
X014887Y018601D02*
X014327Y018601D01*
X014327Y019601D02*
X014887Y019601D01*
X014887Y020601D02*
X014327Y020601D01*
X014327Y021601D02*
X014887Y021601D01*
X014887Y022601D02*
X014327Y022601D01*
X014327Y023601D02*
X014887Y023601D01*
D12*
X022107Y015501D03*
X022107Y011701D03*
D13*
X021607Y008601D03*
X022607Y008601D03*
X022607Y018601D03*
X021607Y018601D03*
X009107Y010601D03*
X009107Y007101D03*
D14*
X013107Y007781D02*
X013107Y008421D01*
X014107Y008421D02*
X014107Y007781D01*
X015107Y007781D02*
X015107Y008421D01*
D15*
X014107Y002201D03*
D16*
X021398Y006021D02*
X021384Y006057D01*
X021379Y006095D01*
X021382Y006135D01*
X021395Y006173D01*
X021415Y006208D01*
X021443Y006237D01*
X021476Y006259D01*
X021514Y006273D01*
X021554Y006279D01*
X021593Y006274D01*
X021630Y006260D01*
X021664Y006238D01*
X021691Y006210D01*
X021712Y006176D01*
X021724Y006138D01*
X021728Y006099D01*
X021723Y006060D01*
X021710Y006024D01*
X021689Y005992D01*
X021662Y005964D01*
X021629Y005944D01*
X021592Y005932D01*
X021554Y005928D01*
X021516Y005931D01*
X021479Y005943D01*
X021446Y005963D01*
X021419Y005989D01*
X021398Y006021D01*
X021397Y006023D02*
X021710Y006023D01*
X021725Y006072D02*
X021382Y006072D01*
X021381Y006120D02*
X021726Y006120D01*
X021714Y006169D02*
X021393Y006169D01*
X021424Y006217D02*
X021684Y006217D01*
X021615Y006266D02*
X021494Y006266D01*
X021434Y005975D02*
X021672Y005975D01*
X022481Y006095D02*
X022484Y006135D01*
X022497Y006173D01*
X022517Y006208D01*
X022545Y006237D01*
X022579Y006259D01*
X022616Y006273D01*
X022656Y006279D01*
X022695Y006274D01*
X022732Y006260D01*
X022766Y006238D01*
X022793Y006210D01*
X022814Y006176D01*
X022826Y006138D01*
X022830Y006099D01*
X022825Y006060D01*
X022812Y006024D01*
X022791Y005992D01*
X022764Y005964D01*
X022731Y005944D01*
X022694Y005932D01*
X022656Y005928D01*
X022618Y005931D01*
X022581Y005943D01*
X022548Y005963D01*
X022521Y005989D01*
X022500Y006021D01*
X022486Y006057D01*
X022481Y006095D01*
X022484Y006072D02*
X022827Y006072D01*
X022828Y006120D02*
X022483Y006120D01*
X022495Y006169D02*
X022816Y006169D01*
X022786Y006217D02*
X022526Y006217D01*
X022596Y006266D02*
X022717Y006266D01*
X022812Y006023D02*
X022499Y006023D01*
X022536Y005975D02*
X022774Y005975D01*
D17*
X010107Y007101D03*
X010107Y010601D03*
D18*
X021607Y002601D03*
X035607Y005101D03*
X035607Y011101D03*
X035607Y016601D03*
X035607Y022601D03*
D19*
X035607Y020632D03*
X035607Y014632D03*
X035607Y009132D03*
X035607Y003132D03*
X019638Y002601D03*
D20*
X032107Y003101D03*
X033107Y003101D03*
X033107Y005101D03*
X032107Y005101D03*
X032107Y009101D03*
X033107Y009101D03*
X033107Y011601D03*
X032107Y011601D03*
X032107Y014601D03*
X033107Y014601D03*
X033107Y017101D03*
X032107Y017101D03*
X032107Y020601D03*
X033107Y020601D03*
X033107Y022601D03*
X032107Y022601D03*
X007107Y003601D03*
X006107Y003601D03*
X005107Y003601D03*
X002057Y006601D03*
X002157Y007601D03*
X002057Y008601D03*
X002157Y009601D03*
X002057Y010601D03*
X002157Y011601D03*
X002057Y012601D03*
X004507Y012101D03*
X004607Y011101D03*
X004507Y010101D03*
X004607Y009101D03*
X004507Y008101D03*
X004607Y013101D03*
X004607Y016031D03*
X004607Y017171D03*
X002157Y017101D03*
X002057Y018101D03*
X002157Y019101D03*
X002057Y020101D03*
X002157Y021101D03*
X002057Y022101D03*
X002057Y016101D03*
D21*
X010056Y016601D03*
X011158Y016601D03*
X011158Y018101D03*
X010056Y018101D03*
X010056Y019601D03*
X011158Y019601D03*
X011158Y021101D03*
X010056Y021101D03*
X010056Y015101D03*
X011158Y015101D03*
X011158Y013601D03*
X010056Y013601D03*
X018556Y006101D03*
X019658Y006101D03*
X021556Y022601D03*
X022658Y022601D03*
X022658Y024101D03*
X021556Y024101D03*
D22*
X022607Y030451D03*
X015107Y030451D03*
X005107Y030451D03*
X032607Y030451D03*
D23*
X030583Y028160D03*
X029583Y028160D03*
X028583Y028160D03*
X027583Y028160D03*
X026583Y028160D03*
X025583Y028160D03*
X024583Y028160D03*
X024083Y026160D03*
X025083Y026160D03*
X026083Y026160D03*
X027083Y026160D03*
X028083Y026160D03*
X029083Y026160D03*
X030083Y026160D03*
X031083Y026160D03*
X013583Y026160D03*
X012583Y026160D03*
X011583Y026160D03*
X010583Y026160D03*
X009583Y026160D03*
X008583Y026160D03*
X007583Y026160D03*
X006583Y026160D03*
X007083Y028160D03*
X008083Y028160D03*
X009083Y028160D03*
X010083Y028160D03*
X011083Y028160D03*
X012083Y028160D03*
X013083Y028160D03*
D24*
X026107Y024101D03*
X027607Y024101D03*
X029107Y024101D03*
X030607Y024101D03*
X030607Y020101D03*
X029107Y020101D03*
X027607Y020101D03*
X026107Y020101D03*
X026107Y018101D03*
X027607Y018101D03*
X029107Y018101D03*
X030607Y018101D03*
X030607Y014101D03*
X029107Y014101D03*
X027607Y014101D03*
X026107Y014101D03*
X026107Y012101D03*
X027607Y012101D03*
X029107Y012101D03*
X030607Y012101D03*
X030607Y008101D03*
X029107Y008101D03*
X027607Y008101D03*
X026107Y008101D03*
X026107Y006601D03*
X027607Y006601D03*
X029107Y006601D03*
X030607Y006601D03*
X030607Y002601D03*
X029107Y002601D03*
X027607Y002601D03*
X026107Y002601D03*
D25*
X002157Y013601D03*
X002157Y023101D03*
M02*
