G75*
G70*
%OFA0B0*%
%FSLAX24Y24*%
%IPPOS*%
%LPD*%
%AMOC8*
5,1,8,0,0,1.08239X$1,22.5*
%
%ADD10C,0.0560*%
%ADD11C,0.0650*%
%ADD12C,0.0640*%
%ADD13C,0.0800*%
%ADD14R,0.0650X0.0650*%
%ADD15R,0.0800X0.0800*%
%ADD16C,0.0740*%
%ADD17C,0.0748*%
%ADD18C,0.0780*%
%ADD19R,0.0740X0.0740*%
%ADD20C,0.0080*%
%ADD21C,0.0400*%
D10*
X010201Y014821D02*
X010201Y015381D01*
X011201Y015381D02*
X011201Y014821D01*
X012201Y014821D02*
X012201Y015381D01*
X013201Y015381D02*
X013201Y014821D01*
X014201Y014821D02*
X014201Y015381D01*
X015201Y015381D02*
X015201Y014821D01*
X016201Y014821D02*
X016201Y015381D01*
X017201Y015381D02*
X017201Y014821D01*
X018201Y014821D02*
X018201Y015381D01*
X019201Y015381D02*
X019201Y014821D01*
X020201Y014821D02*
X020201Y015381D01*
X021201Y015381D02*
X021201Y014821D01*
X022201Y014821D02*
X022201Y015381D01*
X023201Y015381D02*
X023201Y014821D01*
X023201Y017821D02*
X023201Y018381D01*
X022201Y018381D02*
X022201Y017821D01*
X021201Y017821D02*
X021201Y018381D01*
X020201Y018381D02*
X020201Y017821D01*
X019201Y017821D02*
X019201Y018381D01*
X018201Y018381D02*
X018201Y017821D01*
X017201Y017821D02*
X017201Y018381D01*
X016201Y018381D02*
X016201Y017821D01*
X015201Y017821D02*
X015201Y018381D01*
X014201Y018381D02*
X014201Y017821D01*
X013201Y017821D02*
X013201Y018381D01*
X012201Y018381D02*
X012201Y017821D01*
X011201Y017821D02*
X011201Y018381D01*
X010201Y018381D02*
X010201Y017821D01*
D11*
X011101Y012101D03*
X012101Y012101D03*
X012101Y010601D03*
X011101Y010601D03*
X011101Y006601D03*
X013601Y006601D03*
D12*
X007101Y008281D02*
X007101Y008921D01*
X006101Y008921D02*
X006101Y008281D01*
X005101Y008281D02*
X005101Y008921D01*
D13*
X011151Y008901D03*
X012251Y008901D03*
X031132Y002101D03*
X037101Y003132D03*
X037601Y028069D03*
X033069Y029601D03*
X006569Y029101D03*
D14*
X012101Y006601D03*
X014601Y006601D03*
D15*
X033101Y002101D03*
X037101Y005101D03*
X037601Y026101D03*
X031101Y029601D03*
X004601Y029101D03*
D16*
X010001Y024001D03*
X011001Y024001D03*
X011101Y021801D03*
X010101Y021801D03*
X002601Y013101D03*
X002601Y012101D03*
X002601Y011101D03*
X012601Y003551D03*
X013601Y003651D03*
X014601Y003551D03*
X015601Y003651D03*
X016601Y003551D03*
X017601Y003651D03*
X018601Y003551D03*
X018601Y001551D03*
X017601Y001651D03*
X016601Y001551D03*
X015601Y001651D03*
X014601Y001551D03*
X013601Y001651D03*
X012601Y001551D03*
X021101Y001601D03*
X022101Y001501D03*
X023101Y001601D03*
X024101Y001501D03*
X025101Y001601D03*
X026101Y001501D03*
X028101Y001531D03*
X028101Y002671D03*
X029001Y006101D03*
X030001Y006101D03*
X031501Y006001D03*
X032501Y006001D03*
X022901Y021801D03*
X021901Y021801D03*
X021901Y024001D03*
X022901Y024001D03*
X029401Y026601D03*
X030401Y026601D03*
X032101Y026601D03*
X033101Y026601D03*
D17*
X033460Y019024D03*
X033460Y018024D03*
X033460Y017024D03*
X033460Y016024D03*
X033460Y015024D03*
X033460Y014024D03*
X033460Y013024D03*
X033460Y012024D03*
X035460Y012524D03*
X035460Y013524D03*
X035460Y014524D03*
X035460Y015524D03*
X035460Y016524D03*
X035460Y017524D03*
X035460Y018524D03*
X022477Y026460D03*
X021477Y026460D03*
X020477Y026460D03*
X019477Y026460D03*
X018477Y026460D03*
X017477Y026460D03*
X016477Y026460D03*
X015477Y026460D03*
X015977Y028460D03*
X016977Y028460D03*
X017977Y028460D03*
X018977Y028460D03*
X019977Y028460D03*
X020977Y028460D03*
X021977Y028460D03*
D18*
X027101Y024101D03*
X027101Y022801D03*
X027101Y021501D03*
X027101Y020301D03*
X027501Y018501D03*
X028901Y018501D03*
X030401Y018601D03*
X031101Y020301D03*
X031101Y021501D03*
X031101Y022801D03*
X031101Y024101D03*
X026001Y018501D03*
X026001Y014501D03*
X027501Y014501D03*
X028901Y014501D03*
X030401Y014601D03*
X031501Y012901D03*
X031501Y011401D03*
X031501Y009901D03*
X031501Y008401D03*
X027501Y008401D03*
X027501Y009901D03*
X027501Y011401D03*
X027501Y012901D03*
X025201Y012301D03*
X023401Y012301D03*
X021701Y012301D03*
X020101Y012301D03*
X020101Y008301D03*
X021701Y008301D03*
X023401Y008301D03*
X025201Y008301D03*
D19*
X011601Y003651D03*
X011601Y001651D03*
D20*
X011101Y006701D02*
X007901Y006701D01*
X006101Y008501D01*
X006101Y008601D01*
X006101Y008701D01*
X002701Y012101D01*
X002601Y012101D01*
X005101Y008601D02*
X005101Y008501D01*
X009901Y003701D01*
X011501Y003701D01*
X011601Y003651D01*
X011101Y006601D02*
X011101Y006701D01*
X011501Y007101D01*
X013101Y007101D01*
X022101Y007101D01*
X022701Y007701D01*
X030901Y007701D01*
X031501Y008301D01*
X031501Y008401D01*
X033101Y009301D02*
X036101Y012301D01*
X036101Y013501D01*
X035501Y013501D01*
X035460Y013524D01*
X035460Y012524D02*
X035301Y012501D01*
X033501Y010701D01*
X028301Y010701D01*
X027501Y009901D01*
X023301Y009901D01*
X021701Y008301D01*
X021901Y007701D02*
X023501Y009301D01*
X033101Y009301D01*
X031501Y011401D02*
X031501Y011501D01*
X032901Y011501D01*
X033301Y011901D01*
X033460Y012024D01*
X033501Y012101D01*
X034101Y012101D01*
X034101Y013901D01*
X035301Y015101D01*
X035301Y015501D01*
X035460Y015524D01*
X035460Y017524D02*
X035501Y017701D01*
X036901Y019101D01*
X036901Y024101D01*
X031101Y024101D01*
X031101Y022801D02*
X031101Y022701D01*
X028301Y022701D01*
X027101Y021501D01*
X027701Y020901D02*
X027101Y020301D01*
X027701Y020901D02*
X033901Y020901D01*
X035101Y019701D01*
X035501Y019301D02*
X034701Y019301D01*
X033501Y018101D01*
X033460Y018024D01*
X032701Y018501D02*
X031301Y017101D01*
X013301Y017101D01*
X011301Y015101D01*
X011201Y015101D01*
X011101Y015101D01*
X010101Y016101D01*
X008701Y016101D01*
X008501Y015901D01*
X009301Y015701D02*
X009501Y015501D01*
X007101Y015501D01*
X007101Y018501D01*
X008301Y019701D01*
X020501Y019701D01*
X021101Y020101D02*
X004301Y020101D01*
X003901Y021701D02*
X010101Y021701D01*
X010101Y021801D01*
X009301Y021301D02*
X022501Y021301D01*
X022901Y021701D01*
X022901Y021801D01*
X021901Y023501D02*
X017701Y023501D01*
X014101Y027101D01*
X013101Y027101D01*
X010001Y024001D01*
X009901Y024101D01*
X004701Y024101D01*
X004701Y029101D01*
X004601Y029101D01*
X006569Y029101D02*
X015301Y029101D01*
X015901Y028501D01*
X015977Y028460D01*
X016977Y028460D02*
X017101Y028301D01*
X017101Y027501D01*
X036101Y027501D01*
X036901Y026701D01*
X036901Y024101D01*
X035701Y023501D02*
X027701Y023501D01*
X027101Y024101D01*
X027101Y022901D02*
X025901Y022901D01*
X022901Y025901D01*
X015901Y025901D01*
X015501Y026301D01*
X015477Y026460D01*
X015701Y027101D02*
X016301Y026501D01*
X016477Y026460D01*
X015701Y027101D02*
X014101Y027101D01*
X017101Y024701D02*
X019101Y024701D01*
X019901Y025501D01*
X019501Y027901D02*
X017501Y027901D01*
X019501Y027901D02*
X019901Y028301D01*
X019977Y028460D01*
X021501Y027901D02*
X031301Y027901D01*
X032901Y029501D01*
X033069Y029601D01*
X031101Y029601D02*
X031101Y029501D01*
X030101Y028501D01*
X022101Y028501D01*
X021977Y028460D01*
X022477Y026460D02*
X022501Y026301D01*
X022901Y025901D01*
X021901Y023501D02*
X025701Y019701D01*
X029301Y019701D01*
X030401Y018601D01*
X030501Y017901D02*
X031101Y018501D01*
X031101Y020301D01*
X033301Y019701D02*
X033701Y019701D01*
X034101Y019301D01*
X033301Y019701D02*
X030901Y017301D01*
X013101Y017301D01*
X012301Y018101D01*
X012201Y018101D01*
X012301Y018901D02*
X013101Y018101D01*
X013201Y018101D01*
X014101Y018101D02*
X014201Y018101D01*
X014101Y018101D02*
X013101Y019101D01*
X010901Y019101D01*
X010701Y019301D01*
X012301Y018901D02*
X008101Y018901D01*
X007501Y018301D01*
X009501Y015501D02*
X009901Y015101D01*
X010201Y015101D01*
X011301Y014301D02*
X012101Y015101D01*
X012201Y015101D01*
X012301Y015101D01*
X013501Y013901D01*
X033301Y013901D01*
X033460Y014024D01*
X033460Y015024D02*
X033301Y015101D01*
X032101Y016301D01*
X019901Y016301D01*
X019501Y015901D01*
X016101Y015901D01*
X015301Y015101D01*
X015201Y015101D01*
X014701Y013501D02*
X012701Y011501D01*
X011901Y011501D01*
X011101Y010701D01*
X011101Y010601D01*
X010301Y010101D02*
X003901Y016501D01*
X003901Y021701D01*
X006101Y024901D02*
X008501Y027301D01*
X029701Y027301D01*
X029901Y027101D01*
X032701Y027101D01*
X033101Y026701D01*
X033101Y026601D01*
X030401Y026601D02*
X029901Y027101D01*
X027101Y022901D02*
X027101Y022801D01*
X027501Y018501D02*
X026001Y018501D01*
X027501Y018501D02*
X028101Y017901D01*
X030501Y017901D01*
X029901Y015901D02*
X028901Y015901D01*
X027501Y014501D01*
X026901Y013501D02*
X024901Y013501D01*
X024501Y012901D02*
X022301Y012901D01*
X021701Y012301D01*
X020101Y012301D01*
X018301Y010101D02*
X010301Y010101D01*
X012101Y008901D02*
X012251Y008901D01*
X012301Y008901D01*
X012901Y008301D01*
X016101Y008301D01*
X017301Y007701D02*
X021901Y007701D01*
X022701Y007701D02*
X023301Y008301D01*
X023401Y008301D01*
X023101Y011301D02*
X027501Y011301D01*
X027501Y011401D01*
X026901Y011701D02*
X027301Y012101D01*
X028501Y012101D01*
X027501Y012901D02*
X026901Y013501D01*
X025201Y012301D02*
X025101Y012301D01*
X024501Y012901D01*
X023501Y012301D02*
X024101Y011701D01*
X026901Y011701D01*
X028901Y014501D02*
X030301Y014501D01*
X030401Y014601D01*
X032901Y016501D02*
X033301Y016101D01*
X033460Y016024D01*
X032901Y016501D02*
X019701Y016501D01*
X019501Y016301D01*
X019101Y016301D01*
X018701Y016701D01*
X019301Y016701D02*
X019501Y016901D01*
X033301Y016901D01*
X033460Y017024D01*
X035501Y019301D02*
X035701Y019501D01*
X035701Y023501D01*
X037501Y026101D02*
X037601Y026101D01*
X037501Y026101D02*
X036901Y026701D01*
X023201Y018101D02*
X023101Y018101D01*
X021101Y020101D01*
X017901Y019301D02*
X016501Y019301D01*
X015301Y018101D01*
X015201Y018101D01*
X011301Y014301D02*
X008501Y014301D01*
X007701Y013501D01*
X012101Y008901D02*
X011501Y008301D01*
X007301Y008301D01*
X007101Y008501D01*
X007101Y008601D01*
X013101Y007101D02*
X013601Y006601D01*
X015301Y009701D02*
X017301Y007701D01*
X018301Y010101D02*
X020101Y008301D01*
X023101Y011301D01*
X023401Y012301D02*
X023501Y012301D01*
X029001Y006101D02*
X029101Y006101D01*
X031101Y004101D01*
X036301Y004101D01*
X037101Y003301D01*
X037101Y003132D01*
X037101Y005101D02*
X036901Y005301D01*
X032101Y005301D01*
X031501Y005901D01*
X031501Y006001D01*
X024101Y001501D02*
X022301Y003301D01*
D21*
X022301Y003301D03*
X016101Y008301D03*
X015301Y009701D03*
X014701Y013501D03*
X018701Y016701D03*
X019301Y016701D03*
X017901Y019301D03*
X020501Y019701D03*
X017101Y024701D03*
X019901Y025501D03*
X021501Y027901D03*
X017501Y027901D03*
X009301Y021301D03*
X010701Y019301D03*
X007501Y018301D03*
X008501Y015901D03*
X009301Y015701D03*
X007701Y013501D03*
X004301Y020101D03*
X006101Y024901D03*
X024901Y013501D03*
X028501Y012101D03*
X029901Y015901D03*
X032701Y018501D03*
X034101Y019301D03*
X035101Y019701D03*
M02*
